<svg width="40" height="40" viewBox="0 0 40 40" fill="none" xmlns="http://www.w3.org/2000/svg">
<path opacity="0.4" d="M14.4499 23.3334H6.66659C4.83325 23.3334 3.33325 24.8334 3.33325 26.6667V36.6667H14.4499V23.3334Z" fill="#3C7B46"/>
<path d="M22.2167 16.6666H17.7667C15.9333 16.6666 14.4333 18.1666 14.4333 20V36.6666H25.55V20C25.55 18.1666 24.0667 16.6666 22.2167 16.6666Z" fill="#3C7B46"/>
<path opacity="0.4" d="M33.3334 28.3334H25.55V36.6667H36.6667V31.6667C36.6667 29.8334 35.1667 28.3334 33.3334 28.3334Z" fill="#3C7B46"/>
<path d="M25.0165 8.08336C25.5332 7.5667 25.7332 6.95003 25.5665 6.4167C25.3999 5.88336 24.8832 5.50004 24.1499 5.38337L22.5499 5.1167C22.4832 5.10003 22.3332 5 22.2999 4.93334L21.4165 3.16667C20.7499 1.81667 19.2332 1.81667 18.5665 3.16667L17.6832 4.93334C17.6499 5 17.4999 5.10003 17.4332 5.1167L15.8332 5.38337C15.0999 5.50004 14.5999 5.88336 14.4166 6.4167C14.2499 6.95003 14.4499 7.5667 14.9665 8.08336L16.1999 9.33336C16.2499 9.38336 16.3165 9.58337 16.2999 9.65003L15.9499 11.1833C15.6832 12.3167 16.1165 12.8333 16.3999 13.05C16.6832 13.25 17.2999 13.5167 18.3166 12.9167L19.8165 12.0334C19.8832 11.9834 20.0999 11.9834 20.1665 12.0334L21.6665 12.9167C22.1332 13.2 22.5165 13.2834 22.8165 13.2834C23.1665 13.2834 23.4165 13.15 23.5665 13.05C23.8499 12.85 24.2832 12.3333 24.0165 11.1833L23.6665 9.65003C23.6499 9.5667 23.6999 9.38336 23.7665 9.33336L25.0165 8.08336Z" fill="#3C7B46"/>
</svg>
