<svg width="32" height="32" viewBox="0 0 32 32" fill="none" xmlns="http://www.w3.org/2000/svg">
<path d="M12.7586 25.0933C12.5052 25.0933 12.2519 25 12.0519 24.8L3.95858 16.7067C3.57191 16.32 3.57191 15.68 3.95858 15.2933L12.0519 7.2C12.4386 6.81334 13.0786 6.81334 13.4652 7.2C13.8519 7.58667 13.8519 8.22667 13.4652 8.61334L6.07858 16L13.4652 23.3867C13.8519 23.7733 13.8519 24.4133 13.4652 24.8C13.2786 25 13.0119 25.0933 12.7586 25.0933Z" fill="white"/>
<path d="M27.3339 17H4.89392C4.34725 17 3.89392 16.5467 3.89392 16C3.89392 15.4533 4.34725 15 4.89392 15H27.3339C27.8806 15 28.3339 15.4533 28.3339 16C28.3339 16.5467 27.8806 17 27.3339 17Z" fill="white"/>
</svg>
