<svg width="32" height="32" viewBox="0 0 32 32" fill="none" xmlns="http://www.w3.org/2000/svg">
<path d="M19.2414 6.90666C19.4948 6.90666 19.7481 7 19.9481 7.2L28.0414 15.2933C28.4281 15.68 28.4281 16.32 28.0414 16.7067L19.9481 24.8C19.5614 25.1867 18.9214 25.1867 18.5348 24.8C18.1481 24.4133 18.1481 23.7733 18.5348 23.3867L25.9214 16L18.5348 8.61333C18.1481 8.22666 18.1481 7.58667 18.5348 7.2C18.7214 7 18.9881 6.90666 19.2414 6.90666Z" fill="white"/>
<path d="M4.66608 15L27.1061 15C27.6527 15 28.1061 15.4533 28.1061 16C28.1061 16.5467 27.6527 17 27.1061 17L4.66608 17C4.11941 17 3.66608 16.5467 3.66608 16C3.66608 15.4533 4.11941 15 4.66608 15Z" fill="white"/>
</svg>
