<svg width="28" height="28" viewBox="0 0 28 28" fill="none" xmlns="http://www.w3.org/2000/svg">
<path d="M11.795 13.0083H8.70333C7.96833 13.0083 7.37335 13.6032 7.37335 14.3382V20.3116H11.795V13.0083V13.0083Z" stroke="white" stroke-width="1.5" stroke-miterlimit="10" stroke-linecap="round" stroke-linejoin="round"/>
<path d="M14.8881 7.69995H13.1148C12.3798 7.69995 11.7848 8.29497 11.7848 9.02997V20.3H16.2065V9.02997C16.2065 8.29497 15.6231 7.69995 14.8881 7.69995Z" stroke="white" stroke-width="1.5" stroke-miterlimit="10" stroke-linecap="round" stroke-linejoin="round"/>
<path d="M19.3061 14.9916H16.2145V20.3H20.6362V16.3216C20.6245 15.5866 20.0295 14.9916 19.3061 14.9916Z" stroke="white" stroke-width="1.5" stroke-miterlimit="10" stroke-linecap="round" stroke-linejoin="round"/>
<path d="M10.5 25.6667H17.5C23.3333 25.6667 25.6666 23.3334 25.6666 17.5V10.5C25.6666 4.66671 23.3333 2.33337 17.5 2.33337H10.5C4.66665 2.33337 2.33331 4.66671 2.33331 10.5V17.5C2.33331 23.3334 4.66665 25.6667 10.5 25.6667Z" stroke="white" stroke-width="1.5" stroke-linecap="round" stroke-linejoin="round"/>
</svg>
