<svg width="28" height="28" viewBox="0 0 28 28" fill="none" xmlns="http://www.w3.org/2000/svg">
<path fill-rule="evenodd" clip-rule="evenodd" d="M0.656755 3.14432C0 4.40862 0 6.06964 0 9.39167V18.6083C0 21.9304 0 23.5914 0.656755 24.8557C1.2102 25.9211 2.0789 26.7898 3.14432 27.3432C4.40862 28 6.06964 28 9.39167 28H18.6083C21.9304 28 23.5914 28 24.8557 27.3432C25.9211 26.7898 26.7898 25.9211 27.3432 24.8557C28 23.5914 28 21.9304 28 18.6083V9.39167C28 6.06964 28 4.40862 27.3432 3.14432C26.7898 2.0789 25.9211 1.2102 24.8557 0.656755C23.5914 0 21.9304 0 18.6083 0H9.39167C6.06964 0 4.40862 0 3.14432 0.656755C2.0789 1.2102 1.2102 2.0789 0.656755 3.14432ZM20.0667 14L19.4444 17.8889H16.3333V28H11.6667V17.8889H8.16667V14H11.6667V10.8889C11.6667 7.38888 13.9222 5.44443 17.1111 5.44443C18.1222 5.44443 19.2111 5.59999 20.2222 5.75554V9.33332H18.4333C16.7222 9.33332 16.3333 10.1889 16.3333 11.2778V14H20.0667Z" fill="white"/>
</svg>
