<svg width="28" height="28" viewBox="0 0 28 28" fill="none" xmlns="http://www.w3.org/2000/svg">
<g clip-path="url(#clip0_1337_1063)">
<path fill-rule="evenodd" clip-rule="evenodd" d="M0.672624 3.14432C0.0158691 4.40862 0.0158691 6.06964 0.0158691 9.39167V18.6083C0.0158691 21.9304 0.0158691 23.5914 0.672624 24.8557C1.22606 25.9211 2.09477 26.7898 3.16019 27.3432C4.42449 28 6.08551 28 9.40754 28H18.6242C21.9462 28 23.6072 28 24.8716 27.3432C25.937 26.7898 26.8057 25.9211 27.3591 24.8557C28.0159 23.5914 28.0159 21.9304 28.0159 18.6083V9.39167C28.0159 6.06964 28.0159 4.40862 27.3591 3.14432C26.8057 2.0789 25.937 1.2102 24.8716 0.656755C23.6072 0 21.9462 0 18.6242 0H9.40754C6.08551 0 4.42449 0 3.16019 0.656755C2.09477 1.2102 1.22606 2.0789 0.672624 3.14432ZM9.80213 3.87971C10.8882 3.83028 11.2352 3.81819 14.0003 3.81819H13.9971C16.7631 3.81819 17.1089 3.83028 18.1949 3.87971C19.2788 3.92934 20.0191 4.10095 20.6681 4.35274C21.3384 4.61259 21.9048 4.96046 22.4711 5.52683C23.0375 6.09277 23.3853 6.66083 23.6462 7.33049C23.8965 7.97789 24.0683 8.71777 24.1192 9.80171C24.168 10.8878 24.1808 11.2348 24.1808 14C24.1808 16.7652 24.168 17.1114 24.1192 18.1975C24.0683 19.281 23.8965 20.0211 23.6462 20.6687C23.3853 21.3381 23.0375 21.9062 22.4711 22.4721C21.9054 23.0385 21.3382 23.3872 20.6688 23.6473C20.021 23.8991 19.2803 24.0707 18.1964 24.1203C17.1103 24.1697 16.7644 24.1818 13.999 24.1818C11.2341 24.1818 10.8873 24.1697 9.80128 24.1203C8.71759 24.0707 7.97752 23.8991 7.32972 23.6473C6.6605 23.3872 6.09246 23.0385 5.52675 22.4721C4.96061 21.9062 4.61274 21.3381 4.35248 20.6685C4.10091 20.0211 3.92931 19.2812 3.87946 18.1973C3.83025 17.1112 3.81795 16.7652 3.81795 14C3.81795 11.2348 3.83068 10.8876 3.87925 9.80149C3.92804 8.71798 4.09985 7.97789 4.35227 7.33028C4.61317 6.66083 4.96104 6.09277 5.52738 5.52683C6.09331 4.96068 6.66135 4.6128 7.33099 4.35274C7.97837 4.10095 8.71823 3.92934 9.80213 3.87971ZM13.661 5.65294C13.4551 5.65285 13.2643 5.65276 13.0869 5.65304V5.65049C11.1894 5.65262 10.8254 5.66534 9.88613 5.70777C8.89343 5.75337 8.35445 5.91883 7.99555 6.05883C7.52041 6.2438 7.18103 6.4644 6.82468 6.82077C6.46832 7.17713 6.2473 7.51652 6.06276 7.99168C5.9234 8.35058 5.75753 8.88937 5.71213 9.8821C5.66335 10.9554 5.65359 11.2762 5.65359 13.9951C5.65359 16.7141 5.66335 17.0365 5.71213 18.1099C5.75732 19.1026 5.9234 19.6414 6.06276 19.9999C6.24772 20.4752 6.46832 20.8138 6.82468 21.1701C7.18103 21.5265 7.52041 21.7471 7.99555 21.9316C8.35466 22.071 8.89343 22.2369 9.88613 22.2827C10.9594 22.3315 11.2816 22.3421 14.0003 22.3421C16.7188 22.3421 17.0412 22.3315 18.1145 22.2827C19.1072 22.2373 19.6464 22.0719 20.0049 21.9319C20.4802 21.7473 20.8185 21.5267 21.1749 21.1703C21.5312 20.8142 21.7523 20.4759 21.9368 20.0007C22.0762 19.6422 22.242 19.1034 22.2874 18.1107C22.3362 17.0374 22.3468 16.7149 22.3468 13.9977C22.3468 11.2804 22.3362 10.958 22.2874 9.88465C22.2422 8.89192 22.0762 8.35313 21.9368 7.99465C21.7518 7.51949 21.5312 7.1801 21.1749 6.82374C20.8187 6.46737 20.48 6.24677 20.0049 6.06222C19.646 5.92286 19.1072 5.75698 18.1145 5.71159C17.041 5.6628 16.7188 5.65304 14.0003 5.65304C13.8828 5.65304 13.7698 5.65299 13.661 5.65294ZM18.2133 8.56504C18.2133 7.89028 18.7606 7.34365 19.4351 7.34365V7.34322C20.1096 7.34322 20.6569 7.89049 20.6569 8.56504C20.6569 9.23958 20.1096 9.78686 19.4351 9.78686C18.7606 9.78686 18.2133 9.23958 18.2133 8.56504ZM8.77168 14C8.77168 11.1125 11.1127 8.77133 14.0001 8.77122C16.8876 8.77122 19.2281 11.1124 19.2281 14C19.2281 16.8876 16.8878 19.2277 14.0003 19.2277C11.1128 19.2277 8.77168 16.8876 8.77168 14ZM17.3941 14C17.3941 12.1255 15.8746 10.6061 14.0003 10.6061C12.1258 10.6061 10.6065 12.1255 10.6065 14C10.6065 15.8743 12.1258 17.3939 14.0003 17.3939C15.8746 17.3939 17.3941 15.8743 17.3941 14Z" fill="white"/>
</g>
<defs>
<clipPath id="clip0_1337_1063">
<rect width="28" height="28" fill="white"/>
</clipPath>
</defs>
</svg>
