<svg width="18" height="18" viewBox="0 0 18 18" fill="none" xmlns="http://www.w3.org/2000/svg">
<path fill-rule="evenodd" clip-rule="evenodd" d="M7.67554 8.66343e-08H10.2411C11.5773 -5.22811e-06 12.6248 -9.35048e-06 13.4616 0.0795562C14.3145 0.160656 15.013 0.328808 15.6286 0.7061C16.2734 1.1012 16.8155 1.64328 17.2106 2.28803C17.5879 2.90371 17.756 3.60213 17.8371 4.45509C17.9167 5.29191 17.9167 6.33938 17.9167 7.67552V8.56487C17.9167 9.51595 17.9167 10.2616 17.8756 10.864C17.8338 11.4769 17.7473 11.987 17.5519 12.4587C17.0656 13.6328 16.1328 14.5656 14.9587 15.0519C14.2879 15.3298 13.5238 15.3914 12.4778 15.4095C12.1118 15.4158 11.8801 15.4204 11.7034 15.4399C11.5383 15.4582 11.4743 15.485 11.4369 15.5068C11.3974 15.5298 11.3435 15.5717 11.2501 15.6999C11.149 15.8386 11.0347 16.0304 10.8535 16.3365L10.4017 17.0998C9.75708 18.1889 8.15956 18.1889 7.51491 17.0998L7.06316 16.3365C6.88196 16.0304 6.76768 15.8386 6.66654 15.6999C6.5731 15.5717 6.51927 15.5298 6.47977 15.5068C6.44232 15.485 6.37832 15.4582 6.21324 15.4399C6.03656 15.4204 5.80479 15.4158 5.43888 15.4095C4.39281 15.3914 3.62879 15.3298 2.95798 15.0519C1.78388 14.5656 0.851069 13.6328 0.364744 12.4587C0.169358 11.987 0.0829132 11.4769 0.041096 10.864C-4.68145e-06 10.2616 -2.5459e-06 9.51594 1.85975e-07 8.56487L8.66343e-08 7.67554C-5.22811e-06 6.33938 -9.35048e-06 5.29191 0.0795562 4.45509C0.160656 3.60213 0.328808 2.90371 0.7061 2.28803C1.1012 1.64328 1.64328 1.1012 2.28803 0.7061C2.90371 0.328808 3.60213 0.160656 4.45509 0.0795562C5.29191 -9.35048e-06 6.33938 -5.22811e-06 7.67554 8.66343e-08ZM4.57341 1.32394C3.81195 1.39634 3.32742 1.53519 2.94115 1.7719C2.4646 2.06393 2.06393 2.4646 1.7719 2.94115C1.53519 3.32742 1.39634 3.81195 1.32394 4.57341C1.25066 5.34417 1.25 6.3323 1.25 7.70833V8.54167C1.25 9.52093 1.25034 10.2241 1.2882 10.7789C1.32567 11.3282 1.39781 11.6863 1.51959 11.9803C1.87905 12.8481 2.56852 13.5376 3.43633 13.8971C3.86603 14.0751 4.41422 14.1416 5.46042 14.1596L5.48693 14.1601C5.8186 14.1658 6.10924 14.1708 6.35081 14.1975C6.61039 14.2263 6.86425 14.2844 7.10822 14.4263C7.35013 14.567 7.52461 14.7549 7.67672 14.9636C7.81727 15.1565 7.96171 15.4005 8.1253 15.677L8.5906 16.4631C8.75123 16.7344 9.1654 16.7344 9.32603 16.4631L9.79133 15.677C9.95493 15.4005 10.0994 15.1565 10.2399 14.9636C10.392 14.7549 10.5665 14.567 10.8084 14.4263C11.0524 14.2844 11.3062 14.2263 11.5658 14.1975C11.8074 14.1708 12.098 14.1658 12.4297 14.1601L12.4562 14.1596C13.5024 14.1416 14.0506 14.0751 14.4803 13.8971C15.3481 13.5376 16.0376 12.8481 16.3971 11.9803C16.5189 11.6863 16.591 11.3282 16.6285 10.7789C16.6663 10.2241 16.6667 9.52093 16.6667 8.54167V7.70833C16.6667 6.3323 16.666 5.34417 16.5927 4.57341C16.5203 3.81195 16.3815 3.32742 16.1448 2.94115C15.8527 2.4646 15.4521 2.06393 14.9755 1.7719C14.5892 1.53519 14.1047 1.39634 13.3433 1.32394C12.5725 1.25066 11.5844 1.25 10.2083 1.25H7.70833C6.3323 1.25 5.34417 1.25066 4.57341 1.32394ZM5 6.45833C5 6.11316 5.27982 5.83333 5.625 5.83333H12.2917C12.6368 5.83333 12.9167 6.11316 12.9167 6.45833C12.9167 6.80351 12.6368 7.08333 12.2917 7.08333H5.625C5.27982 7.08333 5 6.80351 5 6.45833ZM5 9.375C5 9.02982 5.27982 8.75 5.625 8.75H10.2083C10.5535 8.75 10.8333 9.02982 10.8333 9.375C10.8333 9.72018 10.5535 10 10.2083 10H5.625C5.27982 10 5 9.72018 5 9.375Z" fill="#1C274C"/>
</svg>
