<svg width="135" height="52" viewBox="0 0 135 52" fill="none" xmlns="http://www.w3.org/2000/svg">
<rect width="135" height="52" rx="26" fill="black"/>
<path d="M32.912 32H31.344V20.432H32.912L38.832 29.376V20.432H40.4V32H38.832L32.912 23.056V32ZM45.9719 32.192C43.6679 32.192 42.0839 30.528 42.0839 28.096C42.0839 25.648 43.6359 23.952 45.9079 23.952C48.1319 23.952 49.5879 25.488 49.5879 27.808V28.368L43.5399 28.384C43.6519 30.032 44.5159 30.944 46.0039 30.944C47.1719 30.944 47.9399 30.464 48.1959 29.568H49.6039C49.2199 31.248 47.9079 32.192 45.9719 32.192ZM45.9079 25.216C44.5959 25.216 43.7639 26 43.5719 27.376H48.0839C48.0839 26.08 47.2359 25.216 45.9079 25.216ZM51.5288 32H49.8008L52.5368 28.128L49.8168 24.176H51.5608L53.5448 27.088L55.4808 24.176H57.1928L54.4728 28.128L57.1448 32H55.4008L53.4488 29.136L51.5288 32ZM60.7259 32H59.2219V25.44H57.6859V24.176H59.2219V21.728H60.7259V24.176H62.2619V25.44H60.7259V32Z" fill="white"/>
<path d="M92.2401 35.0932C91.9867 35.0932 91.7334 34.9999 91.5334 34.7999C91.1467 34.4132 91.1467 33.7732 91.5334 33.3866L98.9201 25.9999L91.5334 18.6132C91.1467 18.2266 91.1467 17.5866 91.5334 17.1999C91.9201 16.8132 92.5601 16.8132 92.9467 17.1999L101.04 25.2932C101.427 25.6799 101.427 26.3199 101.04 26.7066L92.9467 34.7999C92.7467 34.9999 92.4934 35.0932 92.2401 35.0932Z" fill="white"/>
<path d="M100.107 27H77.6667C77.1201 27 76.6667 26.5467 76.6667 26C76.6667 25.4533 77.1201 25 77.6667 25H100.107C100.653 25 101.107 25.4533 101.107 26C101.107 26.5467 100.653 27 100.107 27Z" fill="white"/>
</svg>
