<svg width="36" height="36" viewBox="0 0 36 36" fill="none" xmlns="http://www.w3.org/2000/svg">
<path opacity="0.4" d="M26.295 11.655C26.19 11.64 26.085 11.64 25.98 11.655C23.655 11.58 21.81 9.675 21.81 7.335C21.81 4.95 23.745 3 26.145 3C28.53 3 30.48 4.935 30.48 7.335C30.465 9.675 28.62 11.58 26.295 11.655Z" fill="#09A64D"/>
<path opacity="0.4" d="M31.185 22.05C29.505 23.175 27.15 23.595 24.975 23.31C25.545 22.08 25.845 20.715 25.86 19.275C25.86 17.775 25.53 16.35 24.9 15.105C27.12 14.805 29.475 15.225 31.17 16.35C33.54 17.91 33.54 20.475 31.185 22.05Z" fill="#09A64D"/>
<path opacity="0.4" d="M9.66 11.655C9.765 11.64 9.87001 11.64 9.97501 11.655C12.3 11.58 14.145 9.675 14.145 7.335C14.145 4.95 12.21 3 9.81001 3C7.42501 3 5.47501 4.935 5.47501 7.335C5.49001 9.675 7.335 11.58 9.66 11.655Z" fill="#09A64D"/>
<path opacity="0.4" d="M9.82499 19.275C9.82499 20.73 10.14 22.11 10.71 23.355C8.59499 23.58 6.38999 23.13 4.76999 22.065C2.39999 20.49 2.39999 17.925 4.76999 16.35C6.37499 15.27 8.63999 14.835 10.77 15.075C10.155 16.335 9.82499 17.76 9.82499 19.275Z" fill="#09A64D"/>
<path d="M18.18 23.805C18.06 23.79 17.925 23.79 17.79 23.805C15.03 23.715 12.825 21.45 12.825 18.66C12.825 15.81 15.12 13.5 17.985 13.5C20.835 13.5 23.145 15.81 23.145 18.66C23.145 21.45 20.955 23.715 18.18 23.805Z" fill="#09A64D"/>
<path d="M13.305 26.91C11.04 28.425 11.04 30.915 13.305 32.415C15.885 34.14 20.115 34.14 22.695 32.415C24.96 30.9 24.96 28.41 22.695 26.91C20.13 25.185 15.9 25.185 13.305 26.91Z" fill="#09A64D"/>
</svg>
