<svg width="92" height="52" viewBox="0 0 92 52" fill="none" xmlns="http://www.w3.org/2000/svg">
<path d="M42.7585 35.0932C42.5051 35.0932 42.2518 34.9999 42.0518 34.7999L33.9585 26.7066C33.5718 26.3199 33.5718 25.6799 33.9585 25.2932L42.0518 17.1999C42.4385 16.8132 43.0785 16.8132 43.4651 17.1999C43.8518 17.5866 43.8518 18.2266 43.4651 18.6132L36.0785 25.9999L43.4651 33.3866C43.8518 33.7732 43.8518 34.4132 43.4651 34.7999C43.2785 34.9999 43.0118 35.0932 42.7585 35.0932Z" fill="#292D32"/>
<path d="M57.334 27H34.894C34.3474 27 33.894 26.5467 33.894 26C33.894 25.4533 34.3474 25 34.894 25H57.334C57.8807 25 58.334 25.4533 58.334 26C58.334 26.5467 57.8807 27 57.334 27Z" fill="#292D32"/>
<rect x="0.5" y="0.5" width="91" height="51" rx="25.5" stroke="#B5B5B5"/>
</svg>
