<svg width="36" height="36" viewBox="0 0 36 36" fill="none" xmlns="http://www.w3.org/2000/svg">
<path opacity="0.4" d="M32.055 17.085V26.07C32.055 30.21 28.695 33.57 24.555 33.57H11.445C7.30501 33.57 3.94501 30.21 3.94501 26.07V17.19C5.08501 18.42 6.70501 19.125 8.46001 19.125C10.35 19.125 12.165 18.18 13.305 16.665C14.325 18.18 16.065 19.125 18 19.125C19.92 19.125 21.63 18.225 22.665 16.725C23.82 18.21 25.605 19.125 27.465 19.125C29.28 19.125 30.93 18.39 32.055 17.085Z" fill="#09A64D"/>
<path d="M22.485 1.875H13.485L12.375 12.915C12.285 13.935 12.435 14.895 12.81 15.765C13.68 17.805 15.72 19.125 18 19.125C20.31 19.125 22.305 17.835 23.205 15.78C23.475 15.135 23.64 14.385 23.655 13.62V13.335L22.485 1.875Z" fill="#09A64D"/>
<path opacity="0.6" d="M33.54 12.405L33.105 8.25C32.475 3.72 30.42 1.875 26.025 1.875H20.265L21.375 13.125C21.39 13.275 21.405 13.44 21.405 13.725C21.495 14.505 21.735 15.225 22.095 15.87C23.175 17.85 25.275 19.125 27.465 19.125C29.46 19.125 31.26 18.24 32.385 16.68C33.285 15.48 33.69 13.965 33.54 12.405Z" fill="#09A64D"/>
<path opacity="0.6" d="M9.88499 1.875C5.47499 1.875 3.43499 3.72 2.78999 8.295L2.38499 12.42C2.23499 14.025 2.66999 15.585 3.61499 16.8C4.75499 18.285 6.50999 19.125 8.45999 19.125C10.65 19.125 12.75 17.85 13.815 15.9C14.205 15.225 14.46 14.445 14.535 13.635L15.705 1.89H9.88499V1.875Z" fill="#09A64D"/>
<path d="M17.025 24.99C15.12 25.185 13.68 26.805 13.68 28.725V33.57H22.305V29.25C22.32 26.115 20.475 24.63 17.025 24.99Z" fill="#09A64D"/>
</svg>
