<svg width="24" height="24" viewBox="0 0 24 24" fill="none" xmlns="http://www.w3.org/2000/svg">
<rect width="24" height="24" rx="12" fill="black"/>
<path d="M12 13.375C11.795 13.375 11.625 13.205 11.625 13V10.5C11.625 10.295 11.795 10.125 12 10.125C12.205 10.125 12.375 10.295 12.375 10.5V13C12.375 13.205 12.205 13.375 12 13.375Z" fill="white"/>
<path d="M12 15C11.97 15 11.935 14.995 11.9 14.99C11.87 14.985 11.84 14.975 11.81 14.96C11.78 14.95 11.75 14.935 11.72 14.915C11.695 14.895 11.67 14.875 11.645 14.855C11.555 14.76 11.5 14.63 11.5 14.5C11.5 14.37 11.555 14.24 11.645 14.145C11.67 14.125 11.695 14.105 11.72 14.085C11.75 14.065 11.78 14.05 11.81 14.04C11.84 14.025 11.87 14.015 11.9 14.01C11.965 13.995 12.035 13.995 12.095 14.01C12.13 14.015 12.16 14.025 12.19 14.04C12.22 14.05 12.25 14.065 12.28 14.085C12.305 14.105 12.33 14.125 12.355 14.145C12.445 14.24 12.5 14.37 12.5 14.5C12.5 14.63 12.445 14.76 12.355 14.855C12.33 14.875 12.305 14.895 12.28 14.915C12.25 14.935 12.22 14.95 12.19 14.96C12.16 14.975 12.13 14.985 12.095 14.99C12.065 14.995 12.03 15 12 15Z" fill="white"/>
<path d="M15.0302 17.08H8.97023C7.99523 17.08 7.25023 16.725 6.87023 16.085C6.49523 15.445 6.54523 14.62 7.02023 13.765L10.0502 8.315C10.5502 7.415 11.2402 6.92 12.0002 6.92C12.7602 6.92 13.4502 7.415 13.9502 8.315L16.9802 13.77C17.4552 14.625 17.5102 15.445 17.1302 16.09C16.7502 16.725 16.0052 17.08 15.0302 17.08ZM12.0002 7.67C11.5302 7.67 11.0702 8.03 10.7052 8.68L7.68023 14.135C7.34023 14.745 7.28523 15.305 7.52023 15.71C7.75523 16.115 8.27523 16.335 8.97523 16.335H15.0352C15.7352 16.335 16.2502 16.115 16.4902 15.71C16.7302 15.305 16.6702 14.75 16.3302 14.135L13.2952 8.68C12.9302 8.03 12.4702 7.67 12.0002 7.67Z" fill="white"/>
</svg>
