<svg width="28" height="28" viewBox="0 0 28 28" fill="none" xmlns="http://www.w3.org/2000/svg">
<path fill-rule="evenodd" clip-rule="evenodd" d="M0.656755 3.14432C0 4.40862 0 6.06964 0 9.39167V18.6083C0 21.9304 0 23.5914 0.656755 24.8557C1.2102 25.9211 2.0789 26.7898 3.14432 27.3432C4.40862 28 6.06964 28 9.39167 28H18.6083C21.9304 28 23.5914 28 24.8557 27.3432C25.9211 26.7898 26.7898 25.9211 27.3432 24.8557C28 23.5914 28 21.9304 28 18.6083V9.39167C28 6.06964 28 4.40862 27.3432 3.14432C26.7898 2.0789 25.9211 1.2102 24.8557 0.656755C23.5914 0 21.9304 0 18.6083 0H9.39167C6.06964 0 4.40862 0 3.14432 0.656755C2.0789 1.2102 1.2102 2.0789 0.656755 3.14432ZM21.3648 6.75463C19.6009 4.98955 17.2915 3.96752 14.8131 3.84571L14.3153 3.83339C8.82235 3.83339 4.35178 8.3015 4.34958 13.7934C4.34886 15.549 4.80775 17.2624 5.67985 18.773L4.26602 23.9345L9.54894 22.5494C11.0045 23.343 12.6434 23.7612 14.3113 23.7618H14.3154C19.8077 23.7618 24.2787 19.2933 24.2809 13.8013C24.2819 11.1399 23.2463 8.6373 21.3648 6.75463ZM10.0962 20.9256L9.79368 20.7462L6.65876 21.5681L7.49553 18.5131L7.29858 18.1998C6.46944 16.8818 6.03155 15.3583 6.03217 13.7939C6.03399 9.22932 9.74977 5.51573 14.3187 5.51573C16.531 5.51644 18.6107 6.37877 20.1746 7.9437C21.7384 9.50854 22.5992 11.5886 22.5983 13.8007C22.5965 18.3656 18.8807 22.0796 14.3154 22.0796H14.312C12.8257 22.079 11.3679 21.6799 10.0962 20.9256ZM18.9949 15.9457C19.1686 16.0296 19.2859 16.0863 19.3359 16.1699C19.3982 16.2737 19.3982 16.7719 19.1907 17.3534C18.9832 17.9347 17.9884 18.4654 17.51 18.5368C17.0809 18.6009 16.5381 18.6276 15.9416 18.4382C15.58 18.3235 15.1162 18.1704 14.5221 17.9139C12.1878 16.9064 10.6102 14.6451 10.312 14.2176C10.2911 14.1877 10.2765 14.1667 10.2683 14.1559L10.2662 14.1529C10.1338 13.9764 9.25156 12.7994 9.25156 11.5813C9.25156 10.4347 9.81512 9.83376 10.0744 9.55724C10.0922 9.53833 10.1085 9.52094 10.1231 9.50499C10.3513 9.25577 10.6211 9.19353 10.7871 9.19353C10.9531 9.19353 11.1193 9.19511 11.2643 9.2023C11.2822 9.2032 11.3008 9.20309 11.3201 9.20298C11.4652 9.20213 11.6461 9.20108 11.8246 9.62953C11.8932 9.79431 11.9936 10.0385 12.0995 10.2962C12.3138 10.8177 12.5507 11.3941 12.5923 11.4776C12.6546 11.6021 12.6961 11.7474 12.6131 11.9136C12.6006 11.9385 12.5891 11.9621 12.578 11.9846C12.5157 12.1118 12.4699 12.2053 12.3641 12.3288C12.3226 12.3772 12.2797 12.4294 12.2368 12.4816C12.151 12.586 12.0652 12.6904 11.9905 12.7648C11.8659 12.8889 11.7362 13.0236 11.8814 13.2727C12.0266 13.5219 12.5264 14.3369 13.2666 14.9969C14.0625 15.7063 14.7541 16.0062 15.1047 16.1582C15.173 16.1878 15.2284 16.2118 15.2691 16.2322C15.5181 16.3567 15.6633 16.336 15.8085 16.1699C15.9538 16.0037 16.431 15.4431 16.597 15.194C16.763 14.9449 16.929 14.9864 17.1573 15.0694C17.3855 15.1525 18.6097 15.7546 18.8587 15.8792C18.9073 15.9035 18.9528 15.9254 18.9949 15.9457Z" fill="white"/>
</svg>
