<svg width="24" height="25" viewBox="0 0 24 25" fill="none" xmlns="http://www.w3.org/2000/svg">
<path d="M6.9 21.4064C8.4 22.3064 10.2 22.8064 12 22.8064C17.5 22.8064 22 18.3064 22 12.8064C22 7.3064 17.5 2.8064 12 2.8064C6.5 2.8064 2 7.3064 2 12.8064C2 14.6064 2.5 16.3064 3.3 17.8064L2.44044 21.1124C2.24572 21.8613 2.93892 22.5381 3.68299 22.3255L6.9 21.4064Z" stroke="#17191C" stroke-width="1.5" stroke-miterlimit="10" stroke-linecap="round" stroke-linejoin="round"/>
<path d="M16.5 15.6549C16.5 15.8169 16.4639 15.9834 16.3873 16.1454C16.3107 16.3074 16.2116 16.4604 16.0809 16.6044C15.86 16.8474 15.6167 17.0229 15.3418 17.1354C15.0714 17.2479 14.7784 17.3064 14.4629 17.3064C14.0033 17.3064 13.512 17.1984 12.9937 16.9779C12.4755 16.7574 11.9572 16.4604 11.4434 16.0869C10.9251 15.7089 10.4339 15.2904 9.9652 14.8269C9.501 14.3589 9.08187 13.8684 8.70781 13.3554C8.33826 12.8424 8.04081 12.3294 7.82449 11.8209C7.60816 11.3079 7.5 10.8174 7.5 10.3494C7.5 10.0434 7.55408 9.7509 7.66224 9.4809C7.77041 9.2064 7.94166 8.9544 8.18052 8.7294C8.46895 8.4459 8.78443 8.3064 9.11793 8.3064C9.24412 8.3064 9.37031 8.3334 9.48297 8.3874C9.60015 8.4414 9.70381 8.5224 9.78493 8.6394L10.8305 10.1109C10.9116 10.2234 10.9702 10.3269 11.0108 10.4259C11.0513 10.5204 11.0739 10.6149 11.0739 10.7004C11.0739 10.8084 11.0423 10.9164 10.9792 11.0199C10.9206 11.1234 10.835 11.2314 10.7268 11.3394L10.3843 11.6949C10.3348 11.7444 10.3122 11.8029 10.3122 11.8749C10.3122 11.9109 10.3167 11.9424 10.3257 11.9784C10.3393 12.0144 10.3528 12.0414 10.3618 12.0684C10.4429 12.2169 10.5826 12.4104 10.7809 12.6444C10.9837 12.8784 11.2 13.1169 11.4344 13.3554C11.6778 13.5939 11.9121 13.8144 12.151 14.0169C12.3853 14.2149 12.5791 14.3499 12.7323 14.4309C12.7549 14.4399 12.7819 14.4534 12.8135 14.4669C12.8495 14.4804 12.8856 14.4849 12.9261 14.4849C13.0028 14.4849 13.0613 14.4579 13.1109 14.4084L13.4534 14.0709C13.5661 13.9584 13.6743 13.8729 13.7779 13.8189C13.8816 13.7559 13.9852 13.7244 14.0979 13.7244C14.1835 13.7244 14.2737 13.7424 14.3728 13.7829C14.472 13.8234 14.5756 13.8819 14.6883 13.9584L16.18 15.0159C16.2972 15.0969 16.3783 15.1914 16.4279 15.3039C16.473 15.4164 16.5 15.5289 16.5 15.6549Z" stroke="#17191C" stroke-width="1.5" stroke-miterlimit="10"/>
</svg>
