<svg width="7" height="14" viewBox="0 0 7 14" fill="none" xmlns="http://www.w3.org/2000/svg">
<path d="M0.682207 13.5026C0.539707 13.5026 0.397207 13.4501 0.284707 13.3376C0.067207 13.1201 0.067207 12.7601 0.284707 12.5426L5.17471 7.65264C5.53471 7.29264 5.53471 6.70764 5.17471 6.34764L0.284707 1.45764C0.067207 1.24014 0.067207 0.880137 0.284707 0.662637C0.502207 0.445137 0.862207 0.445137 1.07971 0.662637L5.96971 5.55264C6.35221 5.93514 6.56971 6.45264 6.56971 7.00014C6.56971 7.54764 6.35971 8.06514 5.96971 8.44764L1.07971 13.3376C0.967207 13.4426 0.824707 13.5026 0.682207 13.5026Z" fill="white"/>
</svg>
