<svg width="119" height="64" viewBox="0 0 119 64" fill="none" xmlns="http://www.w3.org/2000/svg">
<path d="M103.365 48.9636C100.148 48.9636 96.9201 49.0935 93.7166 48.8879C92.7011 48.8229 91.7425 47.8543 90.7568 47.2996C91.2957 46.4202 91.6748 45.3785 92.3951 44.6858C99.2056 38.1513 106.103 31.7034 112.902 25.1554C114.088 24.0136 115.071 22.593 115.87 21.1509C116.29 20.3959 116.507 18.9998 116.084 18.4586C115.654 17.9066 114.178 17.6604 113.422 17.9553C111.164 18.832 108.97 19.9333 106.875 21.1563C105.382 22.0275 104.091 23.2397 102.71 24.2977C102.404 24.1435 102.1 23.9865 101.794 23.8323C102.201 22.6472 102.306 21.2077 103.062 20.3202C105.959 16.919 109.721 14.7868 114.129 13.9372C116.637 13.4556 118.213 15.0953 118.354 17.1544C118.511 19.4408 118.307 22.1764 117.165 24.0542C112.101 32.3582 104.608 38.357 96.8605 44.0445C96.124 44.5857 95.5878 45.392 94.9569 46.0766C95.8559 46.5798 96.7008 47.3077 97.6648 47.5404C99.5766 48.0031 101.556 48.1898 103.509 48.4928C103.46 48.6498 103.408 48.8067 103.36 48.9636H103.365Z" fill="white"/>
<path d="M11.1321 64.0001C10.0787 62.7906 10.5201 61.4079 12.7082 60.6368C17.8397 58.8293 22.9496 56.9055 28.1868 55.4471C34.61 53.6586 41.1443 52.2705 47.6488 50.7796C48.908 50.4901 50.2457 50.528 52.3471 50.3467C38.2089 55.0304 24.8885 59.4435 11.1348 64.0001H11.1321Z" fill="white"/>
<path d="M54.9713 0C32.4953 0 20.0388 9.47025 18.9556 11.6349C17.8724 13.7995 18.6848 20.2934 20.5804 16.7759C22.4624 13.2854 39.2706 7.66549 39.5333 7.57891C34.6536 11.6511 11.915 56.5509 11.915 56.5509L1.1915 60.4473C0.476598 60.707 0 61.3862 0 62.1465V62.3765C0 62.6931 0.322245 62.9095 0.614704 62.7905C2.67545 61.9571 10.9428 58.6993 40.0776 47.8924C75.8225 34.6341 74.7393 19.2111 74.7393 19.2111C74.7393 19.2111 77.4472 0 54.9713 0ZM16.7893 54.1157C21.9344 43.5632 40.0776 16.5053 43.3271 14.0701C46.5767 11.6349 46.3059 5.95273 46.3059 5.95273C52.5341 4.87042 72.0313 5.141 72.0313 20.564C72.0313 35.987 16.7893 54.1157 16.7893 54.1157Z" fill="white"/>
<path d="M66.8861 48.163C66.8861 48.163 62.5534 46.5396 66.8861 38.6928C71.2188 30.846 73.656 28.1402 73.656 28.1402C73.656 28.1402 74.7391 27.0579 76.0931 28.1402C77.4471 29.2225 81.509 31.1166 72.5728 39.5045C72.5728 39.5045 71.7604 41.128 74.7391 38.4222C77.7179 35.7164 87.1957 27.8696 89.0912 29.4931C90.9868 31.1166 89.6328 34.9047 85.8417 39.7751C82.0506 44.6455 78.2595 50.3277 77.9887 51.6806C77.7179 53.0335 75.2807 51.9511 76.3639 48.4336C77.4471 44.9161 84.4877 35.987 84.2169 35.1753C83.9462 34.3635 81.2382 34.9047 73.3852 42.4809C73.3852 42.4809 67.9693 48.9748 66.8861 48.163Z" fill="white"/>
</svg>
