<svg width="24" height="25" viewBox="0 0 24 25" fill="none" xmlns="http://www.w3.org/2000/svg">
<path d="M20.62 9.35234C19.57 4.73234 15.54 2.65234 12 2.65234C12 2.65234 12 2.65234 11.99 2.65234C8.45997 2.65234 4.41997 4.72234 3.36997 9.34234C2.19997 14.5023 5.35997 18.8723 8.21997 21.6223C9.27997 22.6423 10.64 23.1523 12 23.1523C13.36 23.1523 14.72 22.6423 15.77 21.6223C18.63 18.8723 21.79 14.5123 20.62 9.35234ZM12 14.3623C10.26 14.3623 8.84997 12.9523 8.84997 11.2123C8.84997 9.47234 10.26 8.06234 12 8.06234C13.74 8.06234 15.15 9.47234 15.15 11.2123C15.15 12.9523 13.74 14.3623 12 14.3623Z" fill="#050505"/>
</svg>
