<svg width="40" height="40" viewBox="0 0 40 40" fill="none" xmlns="http://www.w3.org/2000/svg">
<path opacity="0.4" d="M30.6334 21.4V29.6167C30.6334 31.7334 28.9834 34 27 34.6667L21.6834 36.4334C20.75 36.75 19.2334 36.75 18.3167 36.4334L13 34.6667C11 34 9.3667 31.7334 9.3667 29.6167L9.38337 21.4L16.75 26.2C18.55 27.3834 21.5167 27.3834 23.3167 26.2L30.6334 21.4Z" fill="#3C7B46"/>
<path d="M33.3 10.7667L23.3167 4.21672C21.5167 3.03339 18.55 3.03339 16.75 4.21672L6.7167 10.7667C3.50003 12.8501 3.50003 17.5667 6.7167 19.6667L9.38337 21.4001L16.75 26.2001C18.55 27.3834 21.5167 27.3834 23.3167 26.2001L30.6334 21.4001L32.9167 19.9001V25.0001C32.9167 25.6834 33.4834 26.2501 34.1667 26.2501C34.85 26.2501 35.4167 25.6834 35.4167 25.0001V16.8001C36.0834 14.6501 35.4 12.1501 33.3 10.7667Z" fill="#3C7B46"/>
</svg>
