<svg width="20" height="20" viewBox="0 0 20 20" fill="none" xmlns="http://www.w3.org/2000/svg">
<path d="M9.4835 15.7501C9.2085 15.7501 8.9335 15.6834 8.6835 15.5417C8.17516 15.2584 7.86683 14.7417 7.86683 14.1584V11.5917C7.86683 11.4334 7.74183 11.1251 7.61683 10.9667L5.8085 9.06675C5.46683 8.72508 5.2085 8.12508 5.2085 7.66675V6.55841C5.2085 5.63341 5.9085 4.91675 6.80016 4.91675H13.1918C14.0668 4.91675 14.7835 5.63341 14.7835 6.50841V7.57508C14.7835 8.15841 14.4502 8.80008 14.1168 9.13341L12.0085 11.0001C11.8752 11.1167 11.7335 11.4084 11.7335 11.6501V13.7334C11.7335 14.2584 11.4168 14.8417 10.9918 15.0917L10.3335 15.5167C10.0752 15.6751 9.7835 15.7501 9.4835 15.7501ZM6.80016 6.16675C6.60016 6.16675 6.4585 6.33341 6.4585 6.55841V7.66675C6.4585 7.77508 6.57516 8.05841 6.7085 8.19175L8.5585 10.1417C8.84183 10.5001 9.11683 11.0751 9.11683 11.5917V14.1584C9.11683 14.3251 9.22516 14.4167 9.29183 14.4501C9.3835 14.5001 9.5335 14.5334 9.66683 14.4501L10.3335 14.0167C10.4002 13.9667 10.4835 13.8001 10.4835 13.7167V11.6334C10.4835 11.0417 10.7752 10.3834 11.1918 10.0417L13.2585 8.20841C13.3668 8.10008 13.5335 7.76675 13.5335 7.55841V6.50841C13.5335 6.32508 13.3752 6.16675 13.1918 6.16675H6.80016Z" fill="#292D32"/>
<path d="M12.4998 18.9584H7.49984C2.97484 18.9584 1.0415 17.0251 1.0415 12.5001V7.50008C1.0415 2.97508 2.97484 1.04175 7.49984 1.04175H12.4998C17.0248 1.04175 18.9582 2.97508 18.9582 7.50008V12.5001C18.9582 17.0251 17.0248 18.9584 12.4998 18.9584ZM7.49984 2.29175C3.65817 2.29175 2.2915 3.65841 2.2915 7.50008V12.5001C2.2915 16.3417 3.65817 17.7084 7.49984 17.7084H12.4998C16.3415 17.7084 17.7082 16.3417 17.7082 12.5001V7.50008C17.7082 3.65841 16.3415 2.29175 12.4998 2.29175H7.49984Z" fill="#292D32"/>
</svg>
