<svg width="32" height="32" viewBox="0 0 32 32" fill="none" xmlns="http://www.w3.org/2000/svg">
<rect x="0.5" y="0.5" width="31" height="31" rx="7.5" fill="#FFE1DF"/>
<rect x="0.5" y="0.5" width="31" height="31" rx="7.5" stroke="#D32246"/>
<path d="M22.0004 12.4866C21.9871 12.4866 21.9671 12.4866 21.9471 12.4866C18.4204 12.1332 14.9004 11.9999 11.4138 12.3532L10.0538 12.4866C9.77377 12.5132 9.5271 12.3132 9.50043 12.0332C9.47377 11.7532 9.67377 11.5132 9.9471 11.4866L11.3071 11.3532C14.8538 10.9932 18.4471 11.1332 22.0471 11.4866C22.3204 11.5132 22.5204 11.7599 22.4938 12.0332C22.4738 12.2932 22.2538 12.4866 22.0004 12.4866Z" fill="#D32246"/>
<path d="M13.6665 11.8133C13.6398 11.8133 13.6132 11.8133 13.5798 11.8066C13.3132 11.7599 13.1265 11.4999 13.1732 11.2333L13.3198 10.3599C13.4265 9.71992 13.5732 8.83325 15.1265 8.83325H16.8732C18.4332 8.83325 18.5798 9.75325 18.6798 10.3666L18.8265 11.2333C18.8732 11.5066 18.6865 11.7666 18.4198 11.8066C18.1465 11.8533 17.8865 11.6666 17.8465 11.3999L17.6998 10.5333C17.6065 9.95325 17.5865 9.83992 16.8798 9.83992H15.1332C14.4265 9.83992 14.4132 9.93325 14.3132 10.5266L14.1598 11.3933C14.1198 11.6399 13.9065 11.8133 13.6665 11.8133Z" fill="#D32246"/>
<path d="M18.1396 23.1667H13.8596C11.5329 23.1667 11.4396 21.88 11.3663 20.84L10.9329 14.1267C10.9129 13.8534 11.1263 13.6134 11.3996 13.5934C11.6796 13.5801 11.9129 13.7867 11.9329 14.0601L12.3663 20.7734C12.4396 21.7867 12.4663 22.1667 13.8596 22.1667H18.1396C19.5396 22.1667 19.5663 21.7867 19.6329 20.7734L20.0663 14.0601C20.0863 13.7867 20.3263 13.5801 20.5996 13.5934C20.8729 13.6134 21.0863 13.8467 21.0663 14.1267L20.6329 20.84C20.5596 21.88 20.4663 23.1667 18.1396 23.1667Z" fill="#D32246"/>
<path d="M17.1067 19.5H14.8867C14.6134 19.5 14.3867 19.2733 14.3867 19C14.3867 18.7267 14.6134 18.5 14.8867 18.5H17.1067C17.3801 18.5 17.6067 18.7267 17.6067 19C17.6067 19.2733 17.3801 19.5 17.1067 19.5Z" fill="#D32246"/>
<path d="M17.6663 16.8333H14.333C14.0597 16.8333 13.833 16.6066 13.833 16.3333C13.833 16.0599 14.0597 15.8333 14.333 15.8333H17.6663C17.9397 15.8333 18.1663 16.0599 18.1663 16.3333C18.1663 16.6066 17.9397 16.8333 17.6663 16.8333Z" fill="#D32246"/>
</svg>
