<svg width="46" height="46" viewBox="0 0 46 46" fill="none" xmlns="http://www.w3.org/2000/svg">
    <rect x="1" y="1" width="44" height="44" rx="22" stroke="#FCFCFD" />
    <g clip-path="url(#clip0_549_1730)">
        <path
            d="M33 23C33 17.4771 28.5229 13 23 13C17.4771 13 13 17.4771 13 23C13 27.9912 16.6568 32.1283 21.4375 32.8785V25.8906H18.8984V23H21.4375V20.7969C21.4375 18.2906 22.9305 16.9063 25.2146 16.9063C26.3084 16.9063 27.4531 17.1016 27.4531 17.1016V19.5625H26.1922C24.95 19.5625 24.5625 20.3334 24.5625 21.125V23H27.3359L26.8926 25.8906H24.5625V32.8785C29.3432 32.1283 33 27.9912 33 23Z"
            fill="#FCFCFD" />
    </g>
    <defs>
        <clipPath id="clip0_549_1730">
            <rect width="20" height="20" fill="white" transform="translate(13 13)" />
        </clipPath>
    </defs>
</svg>
