<svg width="46" height="46" viewBox="0 0 46 46" fill="none" xmlns="http://www.w3.org/2000/svg">
<rect x="1" y="1" width="44" height="44" rx="22" stroke="#FCFCFD"/>
<g clip-path="url(#clip0_549_1732)">
<path d="M23 14.8008C25.6719 14.8008 25.9883 14.8125 27.0391 14.8594C28.0156 14.9023 28.543 15.0664 28.8945 15.2031C29.3594 15.3828 29.6953 15.6016 30.043 15.9492C30.3945 16.3008 30.6094 16.6328 30.7891 17.0977C30.9258 17.4492 31.0898 17.9805 31.1328 18.9531C31.1797 20.0078 31.1914 20.3242 31.1914 22.9922C31.1914 25.6641 31.1797 25.9805 31.1328 27.0313C31.0898 28.0078 30.9258 28.5352 30.7891 28.8867C30.6094 29.3516 30.3906 29.6875 30.043 30.0352C29.6914 30.3867 29.3594 30.6016 28.8945 30.7813C28.543 30.918 28.0117 31.082 27.0391 31.125C25.9844 31.1719 25.668 31.1836 23 31.1836C20.3281 31.1836 20.0117 31.1719 18.9609 31.125C17.9844 31.082 17.457 30.918 17.1055 30.7813C16.6406 30.6016 16.3047 30.3828 15.957 30.0352C15.6055 29.6836 15.3906 29.3516 15.2109 28.8867C15.0742 28.5352 14.9102 28.0039 14.8672 27.0313C14.8203 25.9766 14.8086 25.6602 14.8086 22.9922C14.8086 20.3203 14.8203 20.0039 14.8672 18.9531C14.9102 17.9766 15.0742 17.4492 15.2109 17.0977C15.3906 16.6328 15.6094 16.2969 15.957 15.9492C16.3086 15.5977 16.6406 15.3828 17.1055 15.2031C17.457 15.0664 17.9883 14.9023 18.9609 14.8594C20.0117 14.8125 20.3281 14.8008 23 14.8008ZM23 13C20.2852 13 19.9453 13.0117 18.8789 13.0586C17.8164 13.1055 17.0859 13.2773 16.4531 13.5234C15.793 13.7812 15.2344 14.1211 14.6797 14.6797C14.1211 15.2344 13.7813 15.793 13.5234 16.4492C13.2773 17.0859 13.1055 17.8125 13.0586 18.875C13.0117 19.9453 13 20.2852 13 23C13 25.7148 13.0117 26.0547 13.0586 27.1211C13.1055 28.1836 13.2773 28.9141 13.5234 29.5469C13.7813 30.207 14.1211 30.7656 14.6797 31.3203C15.2344 31.875 15.793 32.2188 16.4492 32.4727C17.0859 32.7188 17.8125 32.8906 18.875 32.9375C19.9414 32.9844 20.2813 32.9961 22.9961 32.9961C25.7109 32.9961 26.0508 32.9844 27.1172 32.9375C28.1797 32.8906 28.9102 32.7188 29.543 32.4727C30.1992 32.2188 30.7578 31.875 31.3125 31.3203C31.8672 30.7656 32.2109 30.207 32.4648 29.5508C32.7109 28.9141 32.8828 28.1875 32.9297 27.125C32.9766 26.0586 32.9883 25.7188 32.9883 23.0039C32.9883 20.2891 32.9766 19.9492 32.9297 18.8828C32.8828 17.8203 32.7109 17.0898 32.4648 16.457C32.2188 15.793 31.8789 15.2344 31.3203 14.6797C30.7656 14.125 30.207 13.7813 29.5508 13.5273C28.9141 13.2812 28.1875 13.1094 27.125 13.0625C26.0547 13.0117 25.7148 13 23 13Z" fill="#FCFCFD"/>
<path d="M23 17.8633C20.1641 17.8633 17.8633 20.1641 17.8633 23C17.8633 25.8359 20.1641 28.1367 23 28.1367C25.8359 28.1367 28.1367 25.8359 28.1367 23C28.1367 20.1641 25.8359 17.8633 23 17.8633ZM23 26.332C21.1602 26.332 19.668 24.8398 19.668 23C19.668 21.1602 21.1602 19.668 23 19.668C24.8398 19.668 26.332 21.1602 26.332 23C26.332 24.8398 24.8398 26.332 23 26.332Z" fill="#FCFCFD"/>
<path d="M29.5391 17.6601C29.5391 18.3242 29 18.8593 28.3398 18.8593C27.6758 18.8593 27.1406 18.3203 27.1406 17.6601C27.1406 16.996 27.6797 16.4609 28.3398 16.4609C29 16.4609 29.5391 16.9999 29.5391 17.6601Z" fill="#FCFCFD"/>
</g>
<defs>
<clipPath id="clip0_549_1732">
<rect width="20" height="20" fill="white" transform="translate(13 13)"/>
</clipPath>
</defs>
</svg>
