<svg width="24" height="25" viewBox="0 0 24 25" fill="none" xmlns="http://www.w3.org/2000/svg">
<path d="M12 14.6699C9.87 14.6699 8.13 12.9399 8.13 10.7999C8.13 8.65994 9.87 6.93994 12 6.93994C14.13 6.93994 15.87 8.66994 15.87 10.8099C15.87 12.9499 14.13 14.6699 12 14.6699ZM12 8.43994C10.7 8.43994 9.63 9.49994 9.63 10.8099C9.63 12.1199 10.69 13.1799 12 13.1799C13.31 13.1799 14.37 12.1199 14.37 10.8099C14.37 9.49994 13.3 8.43994 12 8.43994Z" fill="#FEB700"/>
<path d="M12.0001 23.26C10.5201 23.26 9.03005 22.7 7.87005 21.59C4.92005 18.75 1.66005 14.22 2.89005 8.83C4.00005 3.94 8.27005 1.75 12.0001 1.75C12.0001 1.75 12.0001 1.75 12.0101 1.75C15.7401 1.75 20.0101 3.94 21.1201 8.84C22.3401 14.23 19.0801 18.75 16.1301 21.59C14.9701 22.7 13.4801 23.26 12.0001 23.26ZM12.0001 3.25C9.09005 3.25 5.35005 4.8 4.36005 9.16C3.28005 13.87 6.24005 17.93 8.92005 20.5C10.6501 22.17 13.3601 22.17 15.0901 20.5C17.7601 17.93 20.7201 13.87 19.6601 9.16C18.6601 4.8 14.9101 3.25 12.0001 3.25Z" fill="#FEB700"/>
</svg>
