<svg width="43" height="46" viewBox="0 0 43 46" fill="none" xmlns="http://www.w3.org/2000/svg">
<rect x="0.866699" y="1" width="41.4667" height="44" rx="20.7333" stroke="#FCFCFD"/>
<g clip-path="url(#clip0_1681_37129)">
<path d="M27.7244 17.0088C26.6453 16.3065 25.8671 15.1823 25.6239 13.8724C25.5717 13.5895 25.5426 13.298 25.5426 13H22.0992L22.0936 26.7798C22.0359 28.3229 20.7638 29.5616 19.2049 29.5616C18.7201 29.5616 18.2639 29.4407 17.862 29.2295C16.9406 28.7454 16.3101 27.7811 16.3101 26.6715C16.3101 25.0777 17.6088 23.7808 19.2044 23.7808C19.5023 23.7808 19.7882 23.83 20.0584 23.9143V20.4041C19.7786 20.366 19.4943 20.3424 19.2044 20.3424C15.7097 20.3424 12.8667 23.1814 12.8667 26.6715C12.8667 28.8126 13.9378 30.7074 15.5726 31.8532C16.602 32.5751 17.8544 33 19.2049 33C22.6995 33 25.5426 30.1611 25.5426 26.6715V19.6837C26.893 20.6514 28.5479 21.2218 30.3334 21.2218V17.7834C29.3718 17.7834 28.476 17.498 27.7244 17.0088Z" fill="white"/>
</g>
<defs>
<clipPath id="clip0_1681_37129">
<rect width="17.4667" height="20" fill="white" transform="translate(12.8667 13)"/>
</clipPath>
</defs>
</svg>
