<svg width="46" height="46" viewBox="0 0 46 46" fill="none" xmlns="http://www.w3.org/2000/svg">
<rect x="1" y="1" width="44" height="44" rx="22" stroke="#FCFCFD"/>
<path d="M32.8008 19.0001C32.8008 19.0001 32.6055 17.6212 32.0039 17.0157C31.2422 16.2188 30.3906 16.2149 30 16.168C27.2031 15.9649 23.0039 15.9649 23.0039 15.9649H22.9961C22.9961 15.9649 18.7969 15.9649 16 16.168C15.6094 16.2149 14.7578 16.2188 13.9961 17.0157C13.3945 17.6212 13.2031 19.0001 13.2031 19.0001C13.2031 19.0001 13 20.6212 13 22.2383V23.754C13 25.3712 13.1992 26.9922 13.1992 26.9922C13.1992 26.9922 13.3945 28.3712 13.9922 28.9766C14.7539 29.7735 15.7539 29.7462 16.1992 29.8321C17.8008 29.9844 23 30.0313 23 30.0313C23 30.0313 27.2031 30.0235 30 29.8243C30.3906 29.7774 31.2422 29.7735 32.0039 28.9766C32.6055 28.3712 32.8008 26.9922 32.8008 26.9922C32.8008 26.9922 33 25.3751 33 23.754V22.2383C33 20.6212 32.8008 19.0001 32.8008 19.0001ZM20.9336 25.5938V19.9727L26.3359 22.793L20.9336 25.5938Z" fill="#FCFCFD"/>
</svg>
