<svg width="16" height="16" viewBox="0 0 16 16" fill="none" xmlns="http://www.w3.org/2000/svg">
<path opacity="0.4" d="M11.6867 5.17992C11.64 5.17325 11.5934 5.17325 11.5467 5.17992C10.5134 5.14659 9.69336 4.29992 9.69336 3.25992C9.69336 2.19992 10.5534 1.33325 11.62 1.33325C12.68 1.33325 13.5467 2.19325 13.5467 3.25992C13.54 4.29992 12.72 5.14659 11.6867 5.17992Z" fill="white"/>
<path opacity="0.4" d="M13.8602 9.80002C13.1136 10.3 12.0669 10.4867 11.1002 10.36C11.3536 9.81335 11.4869 9.20669 11.4936 8.56669C11.4936 7.90002 11.3469 7.26669 11.0669 6.71336C12.0536 6.58003 13.1002 6.76668 13.8536 7.26668C14.9069 7.96002 14.9069 9.10002 13.8602 9.80002Z" fill="white"/>
<path opacity="0.4" d="M4.2931 5.17992C4.33977 5.17325 4.38644 5.17325 4.43311 5.17992C5.46644 5.14659 6.28644 4.29992 6.28644 3.25992C6.28644 2.19992 5.42644 1.33325 4.35977 1.33325C3.29977 1.33325 2.43311 2.19325 2.43311 3.25992C2.43977 4.29992 3.25977 5.14659 4.2931 5.17992Z" fill="white"/>
<path opacity="0.4" d="M4.36674 8.56682C4.36674 9.21349 4.50674 9.82682 4.76008 10.3802C3.82008 10.4802 2.84008 10.2802 2.12008 9.80682C1.06674 9.10682 1.06674 7.96681 2.12008 7.26681C2.83341 6.78681 3.84008 6.59348 4.78674 6.70015C4.51341 7.26015 4.36674 7.89349 4.36674 8.56682Z" fill="white"/>
<path d="M8.07971 10.58C8.02637 10.5733 7.96637 10.5733 7.90637 10.58C6.67971 10.54 5.69971 9.53334 5.69971 8.29334C5.69971 7.02667 6.71971 6 7.99304 6C9.25971 6 10.2864 7.02667 10.2864 8.29334C10.2864 9.53334 9.31304 10.54 8.07971 10.58Z" fill="white"/>
<path d="M5.9132 11.96C4.90654 12.6333 4.90654 13.74 5.9132 14.4067C7.05987 15.1733 8.93987 15.1733 10.0865 14.4067C11.0932 13.7333 11.0932 12.6267 10.0865 11.96C8.94654 11.1933 7.06654 11.1933 5.9132 11.96Z" fill="white"/>
</svg>
