<svg width="16" height="16" viewBox="0 0 16 16" fill="none" xmlns="http://www.w3.org/2000/svg">
<g clip-path="url(#clip0_928_2522)">
<path fill-rule="evenodd" clip-rule="evenodd" d="M8 0.833374C4.04196 0.833374 0.833332 4.042 0.833332 8.00004C0.833332 11.9581 4.04196 15.1667 8 15.1667C11.958 15.1667 15.1667 11.9581 15.1667 8.00004C15.1667 4.042 11.958 0.833374 8 0.833374ZM1.83333 8.00004C1.83333 6.47716 2.38536 5.0832 3.30022 4.00737L5.4352 6.14235C5.05659 6.66417 4.83333 7.30603 4.83333 8.00004C4.83333 8.69405 5.05659 9.33591 5.4352 9.85773L3.30022 11.9927C2.38536 10.9169 1.83333 9.52292 1.83333 8.00004ZM6.14231 5.43524L4.00733 3.30026C5.08316 2.3854 6.47711 1.83337 8 1.83337C9.52288 1.83337 10.9168 2.3854 11.9927 3.30026L9.85769 5.43524C9.33587 5.05663 8.69401 4.83337 8 4.83337C7.30599 4.83337 6.66413 5.05663 6.14231 5.43524ZM4.00733 12.6998C5.08316 13.6147 6.47711 14.1667 8 14.1667C9.52288 14.1667 10.9168 13.6147 11.9927 12.6998L9.85769 10.5648C9.33588 10.9435 8.69401 11.1667 8 11.1667C7.30599 11.1667 6.66412 10.9435 6.1423 10.5648L4.00733 12.6998ZM10.5648 9.85773L12.6998 11.9927C13.6146 10.9169 14.1667 9.52292 14.1667 8.00004C14.1667 6.47716 13.6146 5.0832 12.6998 4.00737L10.5648 6.14235C10.9434 6.66417 11.1667 7.30603 11.1667 8.00004C11.1667 8.69405 10.9434 9.33591 10.5648 9.85773ZM5.83333 8.00004C5.83333 6.80342 6.80338 5.83337 8 5.83337C9.19662 5.83337 10.1667 6.80342 10.1667 8.00004C10.1667 9.19666 9.19662 10.1667 8 10.1667C6.80338 10.1667 5.83333 9.19666 5.83333 8.00004Z" fill="#757575"/>
</g>
<defs>
<clipPath id="clip0_928_2522">
<rect width="16" height="16" fill="white"/>
</clipPath>
</defs>
</svg>
