<svg width="16" height="16" viewBox="0 0 16 16" fill="none" xmlns="http://www.w3.org/2000/svg">
<path opacity="0.4" d="M13.8866 5.33999L9.51995 1.84666C8.66662 1.16666 7.33329 1.15999 6.48662 1.83999L2.11996 5.33999C1.49329 5.83999 1.11329 6.83999 1.24662 7.62666L2.08662 12.6533C2.27996 13.78 3.32662 14.6667 4.46662 14.6667H11.5333C12.66 14.6667 13.7266 13.76 13.92 12.6467L14.76 7.61999C14.88 6.83999 14.5 5.83999 13.8866 5.33999Z" fill="white"/>
<path d="M8 12.5C7.72667 12.5 7.5 12.2733 7.5 12V10C7.5 9.72667 7.72667 9.5 8 9.5C8.27333 9.5 8.5 9.72667 8.5 10V12C8.5 12.2733 8.27333 12.5 8 12.5Z" fill="white"/>
</svg>
