<svg width="16" height="16" viewBox="0 0 16 16" fill="none" xmlns="http://www.w3.org/2000/svg">
<path opacity="0.4" d="M13.8867 5.34005L9.52002 1.84672C8.66668 1.16672 7.33335 1.16005 6.48668 1.84005L2.12002 5.34005C1.49335 5.84005 1.11335 6.84005 1.24668 7.62672L2.08668 12.6534C2.28002 13.7801 3.32668 14.6667 4.46668 14.6667H11.5333C12.66 14.6667 13.7267 13.7601 13.92 12.6467L14.76 7.62005C14.88 6.84005 14.5 5.84005 13.8867 5.34005Z" fill="#757575"/>
<path d="M8 12.5C7.72667 12.5 7.5 12.2733 7.5 12V10C7.5 9.72667 7.72667 9.5 8 9.5C8.27333 9.5 8.5 9.72667 8.5 10V12C8.5 12.2733 8.27333 12.5 8 12.5Z" fill="#757575"/>
</svg>
