<svg width="16" height="17" viewBox="0 0 16 17" fill="none" xmlns="http://www.w3.org/2000/svg">
<path fill-rule="evenodd" clip-rule="evenodd" d="M11.632 1.97205C11.033 1.97203 10.5335 1.97201 10.137 2.02532C9.71849 2.08159 9.34062 2.20537 9.03697 2.50902C8.73333 2.81267 8.60955 3.19053 8.55328 3.60906C8.49997 4.00558 8.49998 4.50505 8.5 5.10403V5.17338C8.49998 5.77236 8.49997 6.27185 8.55328 6.66837C8.60955 7.0869 8.73333 7.46476 9.03697 7.76841C9.34062 8.07206 9.71849 8.19584 10.137 8.25211C10.5335 8.30542 11.033 8.3054 11.632 8.30538H11.7013C12.3003 8.3054 12.7998 8.30542 13.1963 8.25211C13.6149 8.19584 13.9927 8.07206 14.2964 7.76841C14.6 7.46476 14.7238 7.0869 14.7801 6.66837C14.8334 6.27185 14.8334 5.77237 14.8333 5.17338V5.10405C14.8334 4.50506 14.8334 4.00558 14.7801 3.60906C14.7238 3.19053 14.6 2.81267 14.2964 2.50902C13.9927 2.20537 13.6149 2.08159 13.1963 2.02532C12.7998 1.97201 12.3003 1.97203 11.7014 1.97205H11.632ZM9.74408 3.21613C9.83096 3.12925 9.96262 3.05777 10.2703 3.0164C10.5923 2.97311 11.024 2.97205 11.6667 2.97205C12.3093 2.97205 12.7411 2.97311 13.0631 3.0164C13.3707 3.05777 13.5024 3.12925 13.5893 3.21613C13.6761 3.303 13.7476 3.43467 13.789 3.74231C13.8323 4.06433 13.8333 4.49604 13.8333 5.13871C13.8333 5.78139 13.8323 6.2131 13.789 6.53512C13.7476 6.84276 13.6761 6.97443 13.5893 7.0613C13.5024 7.14818 13.3707 7.21966 13.0631 7.26102C12.7411 7.30432 12.3093 7.30538 11.6667 7.30538C11.024 7.30538 10.5923 7.30432 10.2703 7.26102C9.96262 7.21966 9.83096 7.14818 9.74408 7.0613C9.6572 6.97443 9.58572 6.84276 9.54436 6.53512C9.50107 6.2131 9.5 5.78139 9.5 5.13871C9.5 4.49604 9.50107 4.06433 9.54436 3.74231C9.58572 3.43467 9.6572 3.303 9.74408 3.21613Z" fill="#757575"/>
<path fill-rule="evenodd" clip-rule="evenodd" d="M4.29867 9.30538C3.6997 9.30536 3.2002 9.30535 2.80368 9.35866C2.38515 9.41493 2.00729 9.53871 1.70364 9.84235C1.39999 10.146 1.27621 10.5239 1.21994 10.9424C1.16663 11.3389 1.16665 11.8384 1.16667 12.4374V12.5067C1.16665 13.1057 1.16663 13.6052 1.21994 14.0017C1.27621 14.4202 1.39999 14.7981 1.70364 15.1017C2.00729 15.4054 2.38515 15.5292 2.80368 15.5854C3.20021 15.6388 3.69969 15.6387 4.29867 15.6387H4.368C4.96699 15.6387 5.46647 15.6388 5.86299 15.5854C6.28152 15.5292 6.65939 15.4054 6.96303 15.1017C7.26668 14.7981 7.39046 14.4202 7.44673 14.0017C7.50004 13.6052 7.50002 13.1057 7.5 12.5067V12.4374C7.50002 11.8384 7.50004 11.3389 7.44673 10.9424C7.39046 10.5239 7.26668 10.146 6.96303 9.84235C6.65939 9.53871 6.28152 9.41493 5.86299 9.35866C5.46647 9.30535 4.967 9.30536 4.36802 9.30538H4.29867ZM2.41075 10.5495C2.49763 10.4626 2.62929 10.3911 2.93693 10.3497C3.25896 10.3064 3.69066 10.3054 4.33334 10.3054C4.97601 10.3054 5.40772 10.3064 5.72974 10.3497C6.03738 10.3911 6.16905 10.4626 6.25593 10.5495C6.3428 10.6363 6.41429 10.768 6.45565 11.0756C6.49894 11.3977 6.5 11.8294 6.5 12.472C6.5 13.1147 6.49894 13.5464 6.45565 13.8685C6.41429 14.1761 6.3428 14.3078 6.25593 14.3946C6.16905 14.4815 6.03738 14.553 5.72974 14.5944C5.40772 14.6377 4.97601 14.6387 4.33334 14.6387C3.69066 14.6387 3.25896 14.6377 2.93693 14.5944C2.62929 14.553 2.49763 14.4815 2.41075 14.3946C2.32387 14.3078 2.25239 14.1761 2.21103 13.8685C2.16773 13.5464 2.16667 13.1147 2.16667 12.472C2.16667 11.8294 2.16773 11.3977 2.21103 11.0756C2.25239 10.768 2.32387 10.6363 2.41075 10.5495Z" fill="#757575"/>
<path fill-rule="evenodd" clip-rule="evenodd" d="M1.16667 5.13871C1.16667 3.38981 2.58443 1.97205 4.33334 1.97205C6.08224 1.97205 7.5 3.38981 7.5 5.13871C7.5 6.88762 6.08224 8.30538 4.33334 8.30538C2.58443 8.30538 1.16667 6.88762 1.16667 5.13871ZM4.33334 2.97205C3.13672 2.97205 2.16667 3.9421 2.16667 5.13871C2.16667 6.33533 3.13672 7.30538 4.33334 7.30538C5.52995 7.30538 6.5 6.33533 6.5 5.13871C6.5 3.9421 5.52995 2.97205 4.33334 2.97205Z" fill="#757575"/>
<path fill-rule="evenodd" clip-rule="evenodd" d="M8.5 12.472C8.5 10.7231 9.91777 9.30538 11.6667 9.30538C13.4156 9.30538 14.8333 10.7231 14.8333 12.472C14.8333 14.2209 13.4156 15.6387 11.6667 15.6387C9.91777 15.6387 8.5 14.2209 8.5 12.472ZM11.6667 10.3054C10.4701 10.3054 9.5 11.2754 9.5 12.472C9.5 13.6687 10.4701 14.6387 11.6667 14.6387C12.8633 14.6387 13.8333 13.6687 13.8333 12.472C13.8333 11.2754 12.8633 10.3054 11.6667 10.3054Z" fill="#757575"/>
</svg>
