<svg width="16" height="17" viewBox="0 0 16 17" fill="none" xmlns="http://www.w3.org/2000/svg">
<path fill-rule="evenodd" clip-rule="evenodd" d="M11.632 1.97217C11.033 1.97215 10.5335 1.97213 10.137 2.02544C9.71848 2.08171 9.34062 2.20549 9.03697 2.50914C8.73332 2.81279 8.60954 3.19065 8.55327 3.60918C8.49996 4.0057 8.49998 4.50517 8.5 5.10415V5.1735C8.49998 5.77248 8.49996 6.27197 8.55327 6.66849C8.60954 7.08702 8.73332 7.46489 9.03697 7.76853C9.34062 8.07218 9.71848 8.19596 10.137 8.25223C10.5335 8.30554 11.033 8.30552 11.632 8.3055H11.7013C12.3003 8.30552 12.7998 8.30554 13.1963 8.25223C13.6148 8.19596 13.9927 8.07218 14.2964 7.76853C14.6 7.46489 14.7238 7.08702 14.7801 6.66849C14.8334 6.27197 14.8334 5.77249 14.8333 5.1735V5.10417C14.8334 4.50519 14.8334 4.00571 14.7801 3.60918C14.7238 3.19065 14.6 2.81279 14.2964 2.50914C13.9927 2.20549 13.6148 2.08171 13.1963 2.02544C12.7998 1.97213 12.3003 1.97215 11.7013 1.97217H11.632ZM9.74408 3.21625C9.83096 3.12937 9.96262 3.05789 10.2703 3.01653C10.5923 2.97323 11.024 2.97217 11.6667 2.97217C12.3093 2.97217 12.741 2.97323 13.0631 3.01653C13.3707 3.05789 13.5024 3.12937 13.5893 3.21625C13.6761 3.30313 13.7476 3.43479 13.789 3.74243C13.8323 4.06446 13.8333 4.49616 13.8333 5.13884C13.8333 5.78151 13.8323 6.21322 13.789 6.53524C13.7476 6.84288 13.6761 6.97455 13.5893 7.06143C13.5024 7.1483 13.3707 7.21979 13.0631 7.26115C12.741 7.30444 12.3093 7.3055 11.6667 7.3055C11.024 7.3055 10.5923 7.30444 10.2703 7.26115C9.96262 7.21979 9.83096 7.1483 9.74408 7.06143C9.6572 6.97455 9.58572 6.84288 9.54436 6.53524C9.50106 6.21322 9.5 5.78151 9.5 5.13884C9.5 4.49616 9.50106 4.06446 9.54436 3.74243C9.58572 3.43479 9.6572 3.30313 9.74408 3.21625Z" fill="white"/>
<path fill-rule="evenodd" clip-rule="evenodd" d="M4.29867 9.3055C3.69969 9.30548 3.2002 9.30547 2.80368 9.35878C2.38515 9.41505 2.00728 9.53883 1.70364 9.84247C1.39999 10.1461 1.27621 10.524 1.21994 10.9425C1.16663 11.339 1.16665 11.8385 1.16666 12.4375V12.5068C1.16665 13.1058 1.16663 13.6053 1.21994 14.0018C1.27621 14.4204 1.39999 14.7982 1.70364 15.1019C2.00728 15.4055 2.38515 15.5293 2.80368 15.5856C3.2002 15.6389 3.69968 15.6389 4.29867 15.6388H4.368C4.96698 15.6389 5.46646 15.6389 5.86299 15.5856C6.28152 15.5293 6.65938 15.4055 6.96303 15.1019C7.26668 14.7982 7.39046 14.4204 7.44673 14.0018C7.50004 13.6053 7.50002 13.1058 7.5 12.5069V12.4375C7.50002 11.8385 7.50004 11.339 7.44673 10.9425C7.39046 10.524 7.26668 10.1461 6.96303 9.84247C6.65938 9.53883 6.28152 9.41505 5.86299 9.35878C5.46647 9.30547 4.967 9.30548 4.36802 9.3055H4.29867ZM2.41074 10.5496C2.49762 10.4627 2.62929 10.3912 2.93693 10.3499C3.25895 10.3066 3.69066 10.3055 4.33333 10.3055C4.97601 10.3055 5.40771 10.3066 5.72974 10.3499C6.03738 10.3912 6.16904 10.4627 6.25592 10.5496C6.3428 10.6365 6.41428 10.7681 6.45564 11.0758C6.49894 11.3978 6.5 11.8295 6.5 12.4722C6.5 13.1148 6.49894 13.5466 6.45564 13.8686C6.41428 14.1762 6.3428 14.3079 6.25592 14.3948C6.16904 14.4816 6.03738 14.5531 5.72974 14.5945C5.40771 14.6378 4.97601 14.6388 4.33333 14.6388C3.69066 14.6388 3.25895 14.6378 2.93693 14.5945C2.62929 14.5531 2.49762 14.4816 2.41074 14.3948C2.32387 14.3079 2.25238 14.1762 2.21102 13.8686C2.16773 13.5466 2.16667 13.1148 2.16667 12.4722C2.16667 11.8295 2.16773 11.3978 2.21102 11.0758C2.25238 10.7681 2.32387 10.6365 2.41074 10.5496Z" fill="white"/>
<path fill-rule="evenodd" clip-rule="evenodd" d="M1.16667 5.13884C1.16667 3.38994 2.58443 1.97217 4.33333 1.97217C6.08223 1.97217 7.5 3.38994 7.5 5.13884C7.5 6.88774 6.08223 8.3055 4.33333 8.3055C2.58443 8.3055 1.16667 6.88774 1.16667 5.13884ZM4.33333 2.97217C3.13672 2.97217 2.16667 3.94222 2.16667 5.13884C2.16667 6.33545 3.13672 7.3055 4.33333 7.3055C5.52995 7.3055 6.5 6.33545 6.5 5.13884C6.5 3.94222 5.52995 2.97217 4.33333 2.97217Z" fill="white"/>
<path fill-rule="evenodd" clip-rule="evenodd" d="M8.5 12.4722C8.5 10.7233 9.91776 9.3055 11.6667 9.3055C13.4156 9.3055 14.8333 10.7233 14.8333 12.4722C14.8333 14.2211 13.4156 15.6388 11.6667 15.6388C9.91776 15.6388 8.5 14.2211 8.5 12.4722ZM11.6667 10.3055C10.47 10.3055 9.5 11.2756 9.5 12.4722C9.5 13.6688 10.47 14.6388 11.6667 14.6388C12.8633 14.6388 13.8333 13.6688 13.8333 12.4722C13.8333 11.2756 12.8633 10.3055 11.6667 10.3055Z" fill="white"/>
</svg>
