<svg width="16" height="16" viewBox="0 0 16 16" fill="none" xmlns="http://www.w3.org/2000/svg">
<path d="M12.3334 8.43335V10.9C12.3334 12.98 10.3934 14.6667 8.00002 14.6667C5.60669 14.6667 3.66669 12.98 3.66669 10.9V8.43335C3.66669 10.5133 5.60669 12 8.00002 12C10.3934 12 12.3334 10.5133 12.3334 8.43335Z" fill="#757575"/>
<path opacity="0.4" d="M12.3334 5.09998V8.43331C12.3334 10.5133 10.3934 12 8.00002 12C5.60669 12 3.66669 10.5133 3.66669 8.43331V5.09998C3.66669 5.70664 3.83336 6.26664 4.12669 6.74664C4.84002 7.91998 6.30669 8.66664 8.00002 8.66664C9.69335 8.66664 11.16 7.91998 11.8734 6.74664C12.1667 6.26664 12.3334 5.70664 12.3334 5.09998Z" fill="#757575"/>
<path d="M12.3334 5.10004C12.3334 5.70671 12.1667 6.26671 11.8734 6.74671C11.16 7.92004 9.69335 8.66671 8.00002 8.66671C6.30669 8.66671 4.84002 7.92004 4.12669 6.74671C3.83336 6.26671 3.66669 5.70671 3.66669 5.10004C3.66669 3.02004 5.60669 1.33337 8.00002 1.33337C9.20002 1.33337 10.28 1.75337 11.0667 2.43337C11.8467 3.12004 12.3334 4.06004 12.3334 5.10004Z" fill="#757575"/>
</svg>
