<svg width="16" height="16" viewBox="0 0 16 16" fill="none" xmlns="http://www.w3.org/2000/svg">
<g opacity="0.5">
<path opacity="0.4" d="M8 3.5333V14.22C8.11333 14.22 8.23333 14.2 8.32666 14.1466L8.35335 14.1333C9.63335 13.4333 11.8666 12.7 13.3133 12.5066L13.5067 12.48C14.1467 12.4 14.6667 11.8 14.6667 11.16V3.10662C14.6667 2.31329 14.02 1.7133 13.2267 1.77996C11.8267 1.8933 9.70669 2.59998 8.52002 3.33998L8.35335 3.43996C8.25335 3.49996 8.12667 3.5333 8 3.5333Z" fill="#757575"/>
<path d="M1.33331 3.11351V11.1602C1.33331 11.8002 1.85331 12.4002 2.49331 12.4802L2.71332 12.5069C4.16665 12.7002 6.40667 13.4402 7.68667 14.1468C7.77333 14.2002 7.87998 14.2202 7.99998 14.2202V3.53351C7.87331 3.53351 7.74663 3.50017 7.64663 3.44017L7.53331 3.36685C6.34664 2.62018 4.21997 1.90685 2.81997 1.78685H2.77997C1.98663 1.72018 1.33331 2.31351 1.33331 3.11351Z" fill="#757575"/>
<path d="M12.6667 1.85352V4.7135C12.6667 4.98017 12.3733 5.14016 12.1466 4.99349L11.3333 4.45349L10.52 4.99349C10.3 5.14016 10 4.98017 10 4.7135V2.61348C10.8733 2.26682 11.8467 1.98685 12.6667 1.85352Z" fill="#757575"/>
</g>
</svg>
