<svg width="16" height="17" viewBox="0 0 16 17" fill="none" xmlns="http://www.w3.org/2000/svg">
<path d="M13.1517 9.35076C13.0848 9.08286 12.8133 8.91998 12.5454 8.98696L9.87873 9.65362C9.61083 9.7206 9.44795 9.99207 9.51493 10.26C9.5819 10.5279 9.85337 10.6907 10.1213 10.6238L12.7879 9.9571C13.0558 9.89013 13.2187 9.61866 13.1517 9.35076Z" fill="#757575"/>
<path d="M13.1667 4.47203C13.1667 4.19589 12.9428 3.97203 12.6667 3.97203C12.3905 3.97203 12.1667 4.19589 12.1667 4.47203V6.76442L11.6671 6.52713L11.6612 6.52418C11.6286 6.50747 11.4909 6.43707 11.3333 6.43707C11.1758 6.43707 11.0381 6.50747 11.0054 6.52418L10.9995 6.52713L10.5 6.76442V5.43871C10.5 5.16257 10.2761 4.93871 10 4.93871C9.72386 4.93871 9.5 5.16257 9.5 5.43871L9.49998 7.1635C9.49987 7.23765 9.49972 7.34335 9.5139 7.4341C9.53124 7.54504 9.5883 7.75922 9.81007 7.88944C10.0237 8.01484 10.2326 7.96827 10.3319 7.93741C10.4184 7.9105 10.5133 7.86528 10.5841 7.83157L11.3333 7.47566L12.0825 7.83156C12.1533 7.86528 12.2482 7.91049 12.3348 7.93741C12.4341 7.96827 12.643 8.01484 12.8566 7.88944C13.0784 7.75922 13.1354 7.54504 13.1528 7.4341C13.1669 7.34335 13.1668 7.23765 13.1667 7.1635L13.1667 4.47203Z" fill="#757575"/>
<path d="M2.84826 6.68409C2.91524 6.4162 3.1867 6.25332 3.4546 6.32029L6.12127 6.98696C6.38916 7.05393 6.55204 7.3254 6.48507 7.5933C6.4181 7.86119 6.14663 8.02407 5.87873 7.9571L3.21206 7.29043C2.94417 7.22346 2.78129 6.95199 2.84826 6.68409Z" fill="#757575"/>
<path d="M3.4546 8.98696C3.1867 8.91998 2.91524 9.08286 2.84826 9.35076C2.78129 9.61866 2.94417 9.89013 3.21206 9.9571L5.87873 10.6238C6.14663 10.6907 6.4181 10.5279 6.48507 10.26C6.55204 9.99207 6.38916 9.7206 6.12127 9.65362L3.4546 8.98696Z" fill="#757575"/>
<path fill-rule="evenodd" clip-rule="evenodd" d="M15.1667 4.09416C15.1667 3.11862 14.3898 2.28199 13.3706 2.3175C12.6117 2.34393 11.6197 2.42287 10.8566 2.65133C10.1932 2.84992 9.4471 3.23782 8.86544 3.57445C8.32005 3.89009 7.6411 3.90583 7.08856 3.61366C6.42491 3.26273 5.55177 2.84677 4.79424 2.64687C4.1537 2.47785 3.34344 2.39666 2.68561 2.35623C1.64678 2.29238 0.833332 3.13779 0.833332 4.13723V11.5678C0.833332 12.5919 1.66252 13.3915 2.64536 13.4529C3.28453 13.4929 4.00377 13.5698 4.53909 13.7111C5.2008 13.8857 6.01907 14.2739 6.67974 14.6261C7.50195 15.0644 8.49805 15.0644 9.32025 14.6261C9.98093 14.2739 10.7992 13.8857 11.4609 13.7111C11.9962 13.5698 12.7155 13.4929 13.3546 13.4529C14.3375 13.3915 15.1667 12.5919 15.1667 11.5678V4.09416ZM13.4054 3.31689C13.8152 3.30261 14.1667 3.63977 14.1667 4.09416V11.5678C14.1667 12.0249 13.7878 12.4239 13.2922 12.4549C12.6388 12.4957 11.8394 12.577 11.2058 12.7442C10.4255 12.95 9.52182 13.3854 8.84986 13.7436C8.73769 13.8034 8.62034 13.8505 8.5 13.8849V4.76672C8.80154 4.70636 9.09472 4.59715 9.36634 4.43995C9.93331 4.11182 10.5966 3.77302 11.1434 3.60932C11.7762 3.41989 12.6595 3.34287 13.4054 3.31689ZM7.5 4.78868C7.19666 4.74151 6.89933 4.64479 6.62111 4.49768C5.9699 4.15334 5.1805 3.78303 4.53909 3.61378C3.99762 3.47089 3.26825 3.39393 2.62426 3.35435C2.20162 3.32837 1.83333 3.67244 1.83333 4.13723V11.5678C1.83333 12.0249 2.2122 12.4239 2.70778 12.4549C3.36117 12.4957 4.16061 12.577 4.79424 12.7442C5.57447 12.95 6.47818 13.3854 7.15014 13.7436C7.2623 13.8034 7.37966 13.8505 7.5 13.8849V4.78868Z" fill="#757575"/>
</svg>
