<svg width="16" height="17" viewBox="0 0 16 17" fill="none" xmlns="http://www.w3.org/2000/svg">
<path fill-rule="evenodd" clip-rule="evenodd" d="M10.5 4.13919V5.85547C11.6411 6.08711 12.5 7.09598 12.5 8.30546C12.5 9.51494 11.6411 10.5238 10.5 10.7555V12.4717C11.1913 12.4701 11.7159 12.4617 12.1402 12.4185C12.6529 12.3664 12.9633 12.2676 13.2037 12.107C13.4403 11.9489 13.6434 11.7458 13.8015 11.5092C13.9622 11.2687 14.0609 10.9583 14.1131 10.4456C14.1661 9.92457 14.1667 9.25217 14.1667 8.30546C14.1667 7.35875 14.1661 6.68635 14.1131 6.1653C14.0609 5.6526 13.9622 5.34218 13.8015 5.10173C13.6434 4.86515 13.4403 4.66202 13.2037 4.50394C12.9633 4.34328 12.6529 4.24456 12.1402 4.1924C11.7159 4.14925 11.1913 4.14083 10.5 4.13919ZM9.5 12.4721L9.5 4.13879L6.5 4.13879V12.4721H9.5ZM5.5 12.4717V10.7555C4.35888 10.5238 3.5 9.51494 3.5 8.30546C3.5 7.09598 4.35888 6.08711 5.5 5.85547V4.13919C4.80868 4.14083 4.28409 4.14925 3.85983 4.1924C3.34714 4.24456 3.03671 4.34328 2.79626 4.50394C2.55968 4.66202 2.35656 4.86515 2.19848 5.10173C2.03782 5.34218 1.9391 5.6526 1.88694 6.1653C1.83394 6.68635 1.83333 7.35875 1.83333 8.30546C1.83333 9.25218 1.83394 9.92458 1.88694 10.4456C1.9391 10.9583 2.03782 11.2687 2.19848 11.5092C2.35656 11.7458 2.55969 11.9489 2.79626 12.107C3.03671 12.2676 3.34714 12.3664 3.85983 12.4185C4.28409 12.4617 4.80869 12.4701 5.5 12.4717ZM5.5 6.89081C4.9174 7.09673 4.5 7.65235 4.5 8.30546C4.5 8.95857 4.9174 9.51419 5.5 9.72011V6.89081ZM10.5 9.72011C11.0826 9.51419 11.5 8.95857 11.5 8.30546C11.5 7.65235 11.0826 7.09673 10.5 6.89081L10.5 9.72011ZM12.2414 3.19754C12.8331 3.25774 13.3272 3.38372 13.7593 3.67247C14.1051 3.90351 14.402 4.20039 14.633 4.54615C14.9217 4.9783 15.0477 5.47233 15.1079 6.06409C15.1667 6.64167 15.1667 7.36494 15.1667 8.27776V8.33317C15.1667 9.24598 15.1667 9.96926 15.1079 10.5468C15.0477 11.1386 14.9217 11.6326 14.633 12.0648C14.402 12.4105 14.1051 12.7074 13.7593 12.9384C13.3272 13.2272 12.8331 13.3532 12.2414 13.4134C11.6638 13.4721 10.9405 13.4721 10.0277 13.4721H5.97227C5.05946 13.4721 4.3362 13.4721 3.75863 13.4134C3.16687 13.3532 2.67284 13.2272 2.24069 12.9384C1.89492 12.7074 1.59805 12.4105 1.36701 12.0648C1.07826 11.6326 0.952275 11.1386 0.892076 10.5468C0.833322 9.96926 0.833326 9.24599 0.833332 8.33319V8.27774C0.833326 7.36493 0.833321 6.64166 0.892076 6.06409C0.952275 5.47233 1.07826 4.9783 1.36701 4.54616C1.59805 4.20039 1.89492 3.90351 2.24069 3.67247C2.67284 3.38372 3.16687 3.25774 3.75863 3.19754C4.3362 3.13878 5.05947 3.13879 5.97227 3.13879L10.0277 3.13879C10.9405 3.13879 11.6638 3.13878 12.2414 3.19754Z" fill="white"/>
</svg>
