<svg width="16" height="16" viewBox="0 0 16 16" fill="none" xmlns="http://www.w3.org/2000/svg">
<path opacity="0.4" d="M1.33331 8.58728V7.41394C1.33331 6.72061 1.89998 6.14728 2.59998 6.14728C3.80665 6.14728 4.29998 5.29394 3.69331 4.24728C3.34665 3.64728 3.55331 2.86728 4.15998 2.52061L5.31331 1.86061C5.83998 1.54728 6.51998 1.73394 6.83331 2.26061L6.90665 2.38728C7.50665 3.43394 8.49331 3.43394 9.09998 2.38728L9.17331 2.26061C9.48665 1.73394 10.1666 1.54728 10.6933 1.86061L11.8466 2.52061C12.4533 2.86728 12.66 3.64728 12.3133 4.24728C11.7066 5.29394 12.2 6.14728 13.4066 6.14728C14.1 6.14728 14.6733 6.71394 14.6733 7.41394V8.58728C14.6733 9.28061 14.1066 9.85394 13.4066 9.85394C12.2 9.85394 11.7066 10.7073 12.3133 11.7539C12.66 12.3606 12.4533 13.1339 11.8466 13.4806L10.6933 14.1406C10.1666 14.4539 9.48665 14.2673 9.17331 13.7406L9.09998 13.6139C8.49998 12.5673 7.51331 12.5673 6.90665 13.6139L6.83331 13.7406C6.51998 14.2673 5.83998 14.4539 5.31331 14.1406L4.15998 13.4806C3.55331 13.1339 3.34665 12.3539 3.69331 11.7539C4.29998 10.7073 3.80665 9.85394 2.59998 9.85394C1.89998 9.85394 1.33331 9.28061 1.33331 8.58728Z" fill="white"/>
<path d="M7.99998 10.1663C9.1966 10.1663 10.1666 9.19629 10.1666 7.99967C10.1666 6.80306 9.1966 5.83301 7.99998 5.83301C6.80336 5.83301 5.83331 6.80306 5.83331 7.99967C5.83331 9.19629 6.80336 10.1663 7.99998 10.1663Z" fill="white"/>
</svg>
