<svg width="40" height="41" viewBox="0 0 40 41" fill="none" xmlns="http://www.w3.org/2000/svg">
<path d="M35.5303 14.6229C35.8656 15.2285 35.3869 15.9167 34.6946 15.9167H4.33301C3.78072 15.9167 3.33301 15.469 3.33301 14.9167V11.2C3.33301 7.13337 6.63301 3.83337 10.6997 3.83337H14.5663C17.283 3.83337 18.133 4.71671 19.2163 6.16671L21.5497 9.26671C22.0663 9.95004 22.133 10.0334 23.0997 10.0334H27.7497C31.0959 10.0334 34.0141 11.8842 35.5303 14.6229Z" fill="#5A5F6D"/>
<path d="M36.6364 19.4128C36.6345 18.8618 36.1873 18.4161 35.6364 18.4162L4.33299 18.4167C3.78071 18.4167 3.33301 18.8644 3.33301 19.4167V28.25C3.33301 33.1667 7.33301 37.1667 12.2497 37.1667H27.7497C32.6663 37.1667 36.6663 33.1667 36.6663 28.25L36.6364 19.4128ZM23.8997 30.9667C23.6497 31.2 23.333 31.3334 23.0163 31.3334C22.6997 31.3334 22.3663 31.2 22.133 30.9667L20.0663 28.9L17.933 31.0334C17.6997 31.2667 17.3663 31.4 17.0497 31.4C16.733 31.4 16.4163 31.2667 16.1663 31.0334C15.683 30.55 15.683 29.75 16.1663 29.2667L18.2997 27.1334L16.233 25.0667C15.7497 24.5834 15.7497 23.7834 16.233 23.3C16.733 22.8167 17.5163 22.8167 17.9997 23.3L20.0663 25.3667L22.0663 23.3667C22.5497 22.8834 23.333 22.8834 23.833 23.3667C24.3163 23.8667 24.3163 24.65 23.833 25.1334L21.833 27.1334L23.8997 29.2C24.383 29.6834 24.383 30.4834 23.8997 30.9667Z" fill="#5A5F6D"/>
</svg>
