<svg width="20" height="20" viewBox="0 0 20 20" fill="none" xmlns="http://www.w3.org/2000/svg">
<path d="M7.90033 17.2417C7.48366 17.2417 7.192 17.1 7.017 16.9667C6.68366 16.725 6.16699 16.1 6.49199 14.7L6.96697 12.65C7.00864 12.475 6.91698 12.1583 6.79198 12.025L5.13365 10.3667C4.25865 9.49167 4.33365 8.73333 4.45031 8.35833C4.56698 7.98333 4.95031 7.32499 6.16698 7.11666L8.29199 6.76666C8.45033 6.74166 8.70865 6.55 8.77532 6.40834L9.95032 4.05833C10.517 2.925 11.267 2.75833 11.667 2.75833C12.067 2.75833 12.817 2.925 13.3836 4.05833L14.5587 6.40834C14.6337 6.55 14.8836 6.74166 15.042 6.76666L17.167 7.11666C18.3837 7.31666 18.767 7.98333 18.8837 8.35833C19.0003 8.73333 19.0753 9.49167 18.2003 10.3667L16.542 12.025C16.417 12.15 16.3253 12.475 16.367 12.65L16.842 14.7C17.167 16.1083 16.6503 16.725 16.317 16.9667C15.9836 17.2083 15.242 17.5167 13.992 16.775L12.0003 15.5917C11.8336 15.4917 11.4836 15.4917 11.317 15.5917L9.32532 16.775C8.75032 17.125 8.26699 17.2417 7.90033 17.2417ZM11.667 4.00833C11.5337 4.00833 11.292 4.16666 11.067 4.61666L9.89198 6.96667C9.64198 7.475 9.05032 7.90834 8.49199 8L6.367 8.35C5.892 8.43334 5.67533 8.60834 5.63366 8.74167C5.59199 8.875 5.66698 9.14167 6.00864 9.48334L7.66699 11.1417C8.09199 11.5667 8.31699 12.3417 8.18366 12.925L7.70865 14.975C7.56698 15.5667 7.65864 15.8833 7.75031 15.9583C7.84197 16.025 8.17531 16.0167 8.69198 15.7L10.692 14.5167C11.2503 14.1833 12.092 14.1833 12.642 14.5167L14.6336 15.7C15.1586 16.0083 15.492 16.025 15.5837 15.9583C15.6753 15.8917 15.767 15.575 15.6253 14.975L15.1503 12.925C15.017 12.3333 15.2336 11.5667 15.667 11.1417L17.3253 9.48334C17.667 9.14167 17.742 8.86667 17.7003 8.74167C17.6586 8.61667 17.442 8.43334 16.967 8.35L14.842 8C14.2836 7.90834 13.692 7.475 13.442 6.96667L12.267 4.61666C12.042 4.16666 11.8003 4.00833 11.667 4.00833Z" fill="#5A5F6D"/>
<path d="M6.66602 4.79166H1.66602C1.32435 4.79166 1.04102 4.50832 1.04102 4.16666C1.04102 3.82499 1.32435 3.54166 1.66602 3.54166H6.66602C7.00768 3.54166 7.29102 3.82499 7.29102 4.16666C7.29102 4.50832 7.00768 4.79166 6.66602 4.79166Z" fill="#5A5F6D"/>
<path d="M4.16602 16.4583H1.66602C1.32435 16.4583 1.04102 16.175 1.04102 15.8333C1.04102 15.4916 1.32435 15.2083 1.66602 15.2083H4.16602C4.50768 15.2083 4.79102 15.4916 4.79102 15.8333C4.79102 16.175 4.50768 16.4583 4.16602 16.4583Z" fill="#5A5F6D"/>
<path d="M2.49935 10.625H1.66602C1.32435 10.625 1.04102 10.3417 1.04102 10C1.04102 9.65833 1.32435 9.375 1.66602 9.375H2.49935C2.84102 9.375 3.12435 9.65833 3.12435 10C3.12435 10.3417 2.84102 10.625 2.49935 10.625Z" fill="#5A5F6D"/>
</svg>
