<svg width="20" height="20" viewBox="0 0 20 20" fill="none" xmlns="http://www.w3.org/2000/svg">
<path d="M9.48203 15.7501C9.20703 15.7501 8.93203 15.6834 8.68203 15.5417C8.1737 15.2584 7.86536 14.7417 7.86536 14.1584V11.5917C7.86536 11.4334 7.74036 11.1251 7.61536 10.9667L5.80703 9.06675C5.46536 8.72508 5.20703 8.12508 5.20703 7.66675V6.55841C5.20703 5.63341 5.90703 4.91675 6.7987 4.91675H13.1904C14.0654 4.91675 14.782 5.63341 14.782 6.50841V7.57508C14.782 8.15841 14.4487 8.80008 14.1154 9.13341L12.007 11.0001C11.8737 11.1167 11.732 11.4084 11.732 11.6501V13.7334C11.732 14.2584 11.4154 14.8417 10.9904 15.0917L10.332 15.5167C10.0737 15.6751 9.78203 15.7501 9.48203 15.7501ZM6.7987 6.16675C6.5987 6.16675 6.45703 6.33341 6.45703 6.55841V7.66675C6.45703 7.77508 6.5737 8.05841 6.70703 8.19175L8.55703 10.1417C8.84036 10.5001 9.11536 11.0751 9.11536 11.5917V14.1584C9.11536 14.3251 9.2237 14.4167 9.29036 14.4501C9.38203 14.5001 9.53203 14.5334 9.66536 14.4501L10.332 14.0167C10.3987 13.9667 10.482 13.8001 10.482 13.7167V11.6334C10.482 11.0417 10.7737 10.3834 11.1904 10.0417L13.257 8.20841C13.3654 8.10008 13.532 7.76675 13.532 7.55841V6.50841C13.532 6.32508 13.3737 6.16675 13.1904 6.16675H6.7987V6.16675Z" fill="#292D32"/>
<path d="M12.5013 18.9584H7.5013C2.9763 18.9584 1.04297 17.0251 1.04297 12.5001V7.50008C1.04297 2.97508 2.9763 1.04175 7.5013 1.04175H12.5013C17.0263 1.04175 18.9596 2.97508 18.9596 7.50008V12.5001C18.9596 17.0251 17.0263 18.9584 12.5013 18.9584ZM7.5013 2.29175C3.65964 2.29175 2.29297 3.65841 2.29297 7.50008V12.5001C2.29297 16.3417 3.65964 17.7084 7.5013 17.7084H12.5013C16.343 17.7084 17.7096 16.3417 17.7096 12.5001V7.50008C17.7096 3.65841 16.343 2.29175 12.5013 2.29175H7.5013Z" fill="#292D32"/>
</svg>
