<svg width="18" height="18" viewBox="0 0 18 18" fill="none" xmlns="http://www.w3.org/2000/svg">
<path d="M9.00141 12.2474C7.20891 12.2474 5.75391 10.7924 5.75391 8.99994C5.75391 7.20744 7.20891 5.75244 9.00141 5.75244C10.7939 5.75244 12.2489 7.20744 12.2489 8.99994C12.2489 10.7924 10.7939 12.2474 9.00141 12.2474ZM9.00141 6.87744C7.83141 6.87744 6.87891 7.82994 6.87891 8.99994C6.87891 10.1699 7.83141 11.1224 9.00141 11.1224C10.1714 11.1224 11.1239 10.1699 11.1239 8.99994C11.1239 7.82994 10.1714 6.87744 9.00141 6.87744Z" fill="#151619"/>
<path d="M8.99859 15.7651C6.17859 15.7651 3.51609 14.1151 1.68609 11.2501C0.891094 10.0126 0.891094 7.99511 1.68609 6.75011C3.52359 3.88511 6.18609 2.23511 8.99859 2.23511C11.8111 2.23511 14.4736 3.88511 16.3036 6.75011C17.0986 7.98761 17.0986 10.0051 16.3036 11.2501C14.4736 14.1151 11.8111 15.7651 8.99859 15.7651ZM8.99859 3.36011C6.57609 3.36011 4.25859 4.81511 2.63859 7.35761C2.07609 8.23511 2.07609 9.76511 2.63859 10.6426C4.25859 13.1851 6.57609 14.6401 8.99859 14.6401C11.4211 14.6401 13.7386 13.1851 15.3586 10.6426C15.9211 9.76511 15.9211 8.23511 15.3586 7.35761C13.7386 4.81511 11.4211 3.36011 8.99859 3.36011Z" fill="#151619"/>
</svg>
