<svg width="8" height="13" viewBox="0 0 8 13" fill="none" xmlns="http://www.w3.org/2000/svg">
<path d="M5.35935 6.5L0.822584 11.0368C0.487849 11.3715 0.487849 11.9142 0.822585 12.2489C1.15732 12.5837 1.70003 12.5837 2.03477 12.2489L7.17762 7.10609C7.51236 6.77136 7.51236 6.22864 7.17762 5.89391L2.03477 0.751052C1.70003 0.416317 1.15732 0.416317 0.822584 0.751052C0.487849 1.08579 0.487849 1.6285 0.822584 1.96323L5.35935 6.5Z" fill="#151619"/>
<mask id="mask0_8044_41598" style="mask-type:luminance" maskUnits="userSpaceOnUse" x="0" y="0" width="8" height="13">
<path d="M5.35935 6.5L0.822584 11.0368C0.487849 11.3715 0.487849 11.9142 0.822585 12.2489C1.15732 12.5837 1.70003 12.5837 2.03477 12.2489L7.17762 7.10609C7.51236 6.77136 7.51236 6.22864 7.17762 5.89391L2.03477 0.751052C1.70003 0.416317 1.15732 0.416317 0.822584 0.751052C0.487849 1.08579 0.487849 1.6285 0.822584 1.96323L5.35935 6.5Z" fill="white"/>
</mask>
<g mask="url(#mask0_8044_41598)">
</g>
</svg>
