<svg width="20" height="20" viewBox="0 0 20 20" fill="none" xmlns="http://www.w3.org/2000/svg">
<path d="M10.0008 18.9583C9.02577 18.9583 8.11745 18.5833 7.43412 17.9L2.10911 12.575C1.42577 11.8917 1.05078 10.975 1.05078 10.0083C1.05078 9.04168 1.42577 8.12499 2.10911 7.44166L7.43412 2.11665C8.11745 1.43332 9.03411 1.05835 10.0008 1.05835C10.9674 1.05835 11.8841 1.43332 12.5674 2.11665L17.8924 7.44166C18.5758 8.12499 18.9508 9.04168 18.9508 10.0083C18.9508 10.975 18.5758 11.8917 17.8924 12.575L12.5674 17.9C11.8841 18.5833 10.9758 18.9583 10.0008 18.9583ZM10.0008 2.29167C9.35911 2.29167 8.75912 2.54168 8.31745 2.98335L2.99244 8.30831C2.54244 8.75831 2.30078 9.35833 2.30078 9.99166C2.30078 10.625 2.55077 11.2333 2.99244 11.675L8.31745 17C9.20912 17.8917 10.7924 17.8917 11.6841 17L17.0091 11.675C17.4591 11.225 17.7008 10.6333 17.7008 9.99166C17.7008 9.34999 17.4508 8.74998 17.0091 8.30831L11.6841 2.98335C11.2424 2.54168 10.6424 2.29167 10.0008 2.29167Z" fill="#5A5F6D"/>
<path d="M14.7922 15.4166C14.6339 15.4166 14.4755 15.3583 14.3505 15.2333L4.76719 5.64999C4.52552 5.40832 4.52552 5.00827 4.76719 4.76661C5.00885 4.52494 5.40885 4.52494 5.65052 4.76661L15.2339 14.3499C15.4755 14.5916 15.4755 14.9917 15.2339 15.2333C15.1089 15.3583 14.9505 15.4166 14.7922 15.4166Z" fill="#5A5F6D"/>
<path d="M5.20885 15.4166C5.05052 15.4166 4.89219 15.3583 4.76719 15.2333C4.52552 14.9917 4.52552 14.5916 4.76719 14.3499L14.3505 4.76661C14.5922 4.52494 14.9922 4.52494 15.2339 4.76661C15.4755 5.00827 15.4755 5.40832 15.2339 5.64999L5.65052 15.2333C5.52552 15.3583 5.36719 15.4166 5.20885 15.4166Z" fill="#5A5F6D"/>
</svg>
