<svg width="9" height="6" viewBox="0 0 9 6" fill="none" xmlns="http://www.w3.org/2000/svg">
<path d="M4.08333 3.92488L0.995812 0.837358C0.768006 0.609552 0.39866 0.609552 0.170854 0.837358C-0.0569515 1.06516 -0.0569515 1.43451 0.170854 1.66232L3.67085 5.16232C3.89866 5.39012 4.26801 5.39012 4.49581 5.16232L7.99581 1.66232C8.22362 1.43451 8.22362 1.06516 7.99581 0.837358C7.76801 0.609552 7.39866 0.609552 7.17085 0.837358L4.08333 3.92488Z" fill="#151619"/>
<mask id="mask0_8044_41753" style="mask-type:luminance" maskUnits="userSpaceOnUse" x="0" y="0" width="9" height="6">
<path d="M4.08333 3.92488L0.995812 0.837358C0.768006 0.609552 0.39866 0.609552 0.170854 0.837358C-0.0569515 1.06516 -0.0569515 1.43451 0.170854 1.66232L3.67085 5.16232C3.89866 5.39012 4.26801 5.39012 4.49581 5.16232L7.99581 1.66232C8.22362 1.43451 8.22362 1.06516 7.99581 0.837358C7.76801 0.609552 7.39866 0.609552 7.17085 0.837358L4.08333 3.92488Z" fill="white"/>
</mask>
<g mask="url(#mask0_8044_41753)">
</g>
</svg>
