<svg width="41" height="41" viewBox="0 0 41 41" fill="none" xmlns="http://www.w3.org/2000/svg">
<path d="M4.8013 32.1833L4.76797 32.2166C4.31797 31.2333 4.03464 30.1166 3.91797 28.8833C4.03464 30.1 4.3513 31.2 4.8013 32.1833Z" fill="#292D32"/>
<path d="M15.5018 17.8C17.6926 17.8 19.4685 16.0241 19.4685 13.8334C19.4685 11.6426 17.6926 9.8667 15.5018 9.8667C13.3111 9.8667 11.5352 11.6426 11.5352 13.8334C11.5352 16.0241 13.3111 17.8 15.5018 17.8Z" fill="#292D32"/>
<path d="M27.482 3.8335H13.5154C7.4487 3.8335 3.83203 7.45016 3.83203 13.5168V27.4835C3.83203 29.3002 4.1487 30.8835 4.76536 32.2168C6.1987 35.3835 9.26536 37.1668 13.5154 37.1668H27.482C33.5487 37.1668 37.1654 33.5502 37.1654 27.4835V23.6668V13.5168C37.1654 7.45016 33.5487 3.8335 27.482 3.8335ZM34.4487 21.3335C33.1487 20.2168 31.0487 20.2168 29.7487 21.3335L22.8154 27.2835C21.5154 28.4002 19.4154 28.4002 18.1154 27.2835L17.5487 26.8168C16.3654 25.7835 14.482 25.6835 13.1487 26.5835L6.91536 30.7668C6.5487 29.8335 6.33203 28.7502 6.33203 27.4835V13.5168C6.33203 8.81683 8.81536 6.3335 13.5154 6.3335H27.482C32.182 6.3335 34.6654 8.81683 34.6654 13.5168V21.5168L34.4487 21.3335Z" fill="#292D32"/>
</svg>
