<svg width="20" height="20" viewBox="0 0 20 20" fill="none" xmlns="http://www.w3.org/2000/svg">
<path d="M15.8333 7.2915C14.1083 7.2915 12.7083 5.8915 12.7083 4.1665C12.7083 2.4415 14.1083 1.0415 15.8333 1.0415C17.5583 1.0415 18.9583 2.4415 18.9583 4.1665C18.9583 5.8915 17.5583 7.2915 15.8333 7.2915ZM15.8333 2.2915C14.7999 2.2915 13.9583 3.13317 13.9583 4.1665C13.9583 5.19984 14.7999 6.0415 15.8333 6.0415C16.8666 6.0415 17.7083 5.19984 17.7083 4.1665C17.7083 3.13317 16.8666 2.2915 15.8333 2.2915Z" fill="#5A5F6D"/>
<path d="M9.99992 11.4585H5.83325C5.49159 11.4585 5.20825 11.1752 5.20825 10.8335C5.20825 10.4918 5.49159 10.2085 5.83325 10.2085H9.99992C10.3416 10.2085 10.6249 10.4918 10.6249 10.8335C10.6249 11.1752 10.3416 11.4585 9.99992 11.4585Z" fill="#5A5F6D"/>
<path d="M13.3333 14.7915H5.83325C5.49159 14.7915 5.20825 14.5082 5.20825 14.1665C5.20825 13.8248 5.49159 13.5415 5.83325 13.5415H13.3333C13.6749 13.5415 13.9583 13.8248 13.9583 14.1665C13.9583 14.5082 13.6749 14.7915 13.3333 14.7915Z" fill="#5A5F6D"/>
<path d="M12.5001 18.9582H7.50008C2.97508 18.9582 1.04175 17.0248 1.04175 12.4998V7.49984C1.04175 2.97484 2.97508 1.0415 7.50008 1.0415H11.6667C12.0084 1.0415 12.2917 1.32484 12.2917 1.6665C12.2917 2.00817 12.0084 2.2915 11.6667 2.2915H7.50008C3.65841 2.2915 2.29175 3.65817 2.29175 7.49984V12.4998C2.29175 16.3415 3.65841 17.7082 7.50008 17.7082H12.5001C16.3417 17.7082 17.7084 16.3415 17.7084 12.4998V8.33317C17.7084 7.9915 17.9917 7.70817 18.3334 7.70817C18.6751 7.70817 18.9584 7.9915 18.9584 8.33317V12.4998C18.9584 17.0248 17.0251 18.9582 12.5001 18.9582Z" fill="#5A5F6D"/>
</svg>
