<svg width="17" height="16" viewBox="0 0 17 16" fill="none" xmlns="http://www.w3.org/2000/svg">
<path d="M8.16672 15.1666C4.70005 15.1666 1.88672 12.3466 1.88672 8.88659C1.88672 7.63993 2.25339 6.43326 2.94672 5.39326C3.10005 5.16659 3.41339 5.09993 3.64005 5.25326C3.86672 5.4066 3.93339 5.71993 3.78005 5.94659C3.20005 6.81326 2.89339 7.83326 2.89339 8.87993C2.89339 11.7933 5.26005 14.1599 8.17339 14.1599C11.0867 14.1599 13.4534 11.7933 13.4534 8.87993C13.4534 5.96659 11.0801 3.59993 8.16672 3.59993C7.55339 3.59993 6.95339 3.68659 6.38672 3.85993C6.12005 3.93993 5.84005 3.79326 5.76005 3.52659C5.68005 3.25993 5.82672 2.97993 6.09339 2.89993C6.76005 2.69993 7.45339 2.59326 8.16672 2.59326C11.6334 2.59326 14.4467 5.41326 14.4467 8.87326C14.4467 12.3333 11.6334 15.1666 8.16672 15.1666Z" fill="#D32246"/>
<path d="M5.41618 4.04658C5.30284 4.04658 5.18284 4.00658 5.08951 3.92658C4.87618 3.73992 4.85618 3.42658 5.03618 3.21992L6.96284 1.00658C7.14284 0.799918 7.46284 0.773251 7.66951 0.959918C7.87618 1.13992 7.89618 1.45992 7.71618 1.66658L5.78951 3.87325C5.68951 3.98658 5.54951 4.04658 5.41618 4.04658Z" fill="#D32246"/>
<path d="M7.66233 5.68659C7.56233 5.68659 7.45566 5.65325 7.369 5.59325L5.11566 3.94659C4.89566 3.78659 4.849 3.47325 5.009 3.25325C5.169 3.02659 5.48233 2.97992 5.709 3.13992L7.95566 4.77992C8.17566 4.93992 8.229 5.25325 8.06233 5.47992C7.969 5.61992 7.81566 5.68659 7.66233 5.68659Z" fill="#D32246"/>
</svg>
