<svg width="40" height="40" viewBox="0 0 40 40" fill="none" xmlns="http://www.w3.org/2000/svg">
<path opacity="0.4" d="M19.9999 3.33337C15.6333 3.33337 12.0833 6.88337 12.0833 11.25C12.0833 15.5334 15.4333 19 19.7999 19.15C19.9333 19.1334 20.0666 19.1334 20.1666 19.15C20.1999 19.15 20.2166 19.15 20.2499 19.15C20.2666 19.15 20.2666 19.15 20.2833 19.15C24.5499 19 27.8999 15.5334 27.9166 11.25C27.9166 6.88337 24.3666 3.33337 19.9999 3.33337Z" fill="#3C7B46"/>
<path d="M28.4666 23.5833C23.8166 20.4833 16.2333 20.4833 11.5499 23.5833C9.43327 25 8.2666 26.9166 8.2666 28.9666C8.2666 31.0166 9.43327 32.9166 11.5333 34.3166C13.8666 35.8833 16.9333 36.6666 19.9999 36.6666C23.0666 36.6666 26.1333 35.8833 28.4666 34.3166C30.5666 32.9 31.7333 31 31.7333 28.9333C31.7166 26.8833 30.5666 24.9833 28.4666 23.5833Z" fill="#3C7B46"/>
</svg>
