<svg width="24" height="24" viewBox="0 0 24 24" fill="none" xmlns="http://www.w3.org/2000/svg">
<path d="M21.2995 7.58018H15.7195C15.3295 7.58018 15.0195 7.27018 15.0195 6.88018C15.0195 6.49018 15.3295 6.18018 15.7195 6.18018H21.2995C21.6895 6.18018 21.9995 6.49018 21.9995 6.88018C21.9995 7.27018 21.6895 7.58018 21.2995 7.58018Z" fill="white"/>
<path d="M6.42 7.58018H2.7C2.31 7.58018 2 7.27018 2 6.88018C2 6.49018 2.31 6.18018 2.7 6.18018H6.42C6.81 6.18018 7.12 6.49018 7.12 6.88018C7.12 7.27018 6.8 7.58018 6.42 7.58018Z" fill="white"/>
<path d="M10.1395 10.8302C12.321 10.8302 14.0895 9.0617 14.0895 6.88018C14.0895 4.69865 12.321 2.93018 10.1395 2.93018C7.95793 2.93018 6.18945 4.69865 6.18945 6.88018C6.18945 9.0617 7.95793 10.8302 10.1395 10.8302Z" fill="white"/>
<path d="M21.3009 17.8102H17.5809C17.1909 17.8102 16.8809 17.5002 16.8809 17.1102C16.8809 16.7202 17.1909 16.4102 17.5809 16.4102H21.3009C21.6909 16.4102 22.0009 16.7202 22.0009 17.1102C22.0009 17.5002 21.6909 17.8102 21.3009 17.8102Z" fill="white"/>
<path d="M8.28 17.8102H2.7C2.31 17.8102 2 17.5002 2 17.1102C2 16.7202 2.31 16.4102 2.7 16.4102H8.28C8.67 16.4102 8.98 16.7202 8.98 17.1102C8.98 17.5002 8.66 17.8102 8.28 17.8102Z" fill="white"/>
<path d="M13.8602 21.0699C16.0417 21.0699 17.8102 19.3014 17.8102 17.1199C17.8102 14.9384 16.0417 13.1699 13.8602 13.1699C11.6786 13.1699 9.91016 14.9384 9.91016 17.1199C9.91016 19.3014 11.6786 21.0699 13.8602 21.0699Z" fill="white"/>
</svg>
