<svg width="40" height="40" viewBox="0 0 40 40" fill="none" xmlns="http://www.w3.org/2000/svg">
<g id="vuesax/bold/gallery">
<g id="gallery">
<path id="Vector" d="M4.3013 31.6833L4.26797 31.7166C3.81797 30.7333 3.53464 29.6166 3.41797 28.3833C3.53464 29.6 3.8513 30.7 4.3013 31.6833Z" fill="#5A5F6D"/>
<path id="Vector_2" d="M15.0018 17.3C17.1926 17.3 18.9685 15.5241 18.9685 13.3334C18.9685 11.1426 17.1926 9.3667 15.0018 9.3667C12.8111 9.3667 11.0352 11.1426 11.0352 13.3334C11.0352 15.5241 12.8111 17.3 15.0018 17.3Z" fill="#5A5F6D"/>
<path id="Vector_3" d="M26.982 3.33325H13.0154C6.9487 3.33325 3.33203 6.94992 3.33203 13.0166V26.9833C3.33203 28.7999 3.6487 30.3833 4.26536 31.7166C5.6987 34.8833 8.76536 36.6666 13.0154 36.6666H26.982C33.0487 36.6666 36.6654 33.0499 36.6654 26.9833V23.1666V13.0166C36.6654 6.94992 33.0487 3.33325 26.982 3.33325ZM33.9487 20.8333C32.6487 19.7166 30.5487 19.7166 29.2487 20.8333L22.3154 26.7833C21.0154 27.8999 18.9154 27.8999 17.6154 26.7833L17.0487 26.3166C15.8654 25.2833 13.982 25.1833 12.6487 26.0833L6.41536 30.2666C6.0487 29.3333 5.83203 28.2499 5.83203 26.9833V13.0166C5.83203 8.31659 8.31536 5.83325 13.0154 5.83325H26.982C31.682 5.83325 34.1654 8.31659 34.1654 13.0166V21.0166L33.9487 20.8333Z" fill="#5A5F6D"/>
</g>
</g>
</svg>
