<svg width="20" height="20" viewBox="0 0 20 20" fill="none" xmlns="http://www.w3.org/2000/svg">
<path d="M9.9998 18.9583C9.0248 18.9583 8.11647 18.5833 7.43314 17.9L2.10813 12.575C1.4248 11.8917 1.0498 10.975 1.0498 10.0083C1.0498 9.04168 1.4248 8.12499 2.10813 7.44166L7.43314 2.11665C8.11647 1.43332 9.03313 1.05835 9.9998 1.05835C10.9665 1.05835 11.8831 1.43332 12.5665 2.11665L17.8915 7.44166C18.5748 8.12499 18.9498 9.04168 18.9498 10.0083C18.9498 10.975 18.5748 11.8917 17.8915 12.575L12.5665 17.9C11.8831 18.5833 10.9748 18.9583 9.9998 18.9583ZM9.9998 2.29167C9.35813 2.29167 8.75814 2.54168 8.31647 2.98335L2.99146 8.30831C2.54146 8.75831 2.2998 9.35833 2.2998 9.99166C2.2998 10.625 2.54979 11.2333 2.99146 11.675L8.31647 17C9.20814 17.8917 10.7915 17.8917 11.6831 17L17.0081 11.675C17.4581 11.225 17.6998 10.6333 17.6998 9.99166C17.6998 9.34999 17.4498 8.74998 17.0081 8.30831L11.6831 2.98335C11.2415 2.54168 10.6415 2.29167 9.9998 2.29167Z" fill="#F2F3F4"/>
<path d="M14.7917 15.4167C14.6334 15.4167 14.475 15.3584 14.35 15.2334L4.7667 5.65002C4.52503 5.40835 4.52503 5.0083 4.7667 4.76664C5.00837 4.52497 5.40836 4.52497 5.65003 4.76664L15.2334 14.35C15.475 14.5916 15.475 14.9917 15.2334 15.2334C15.1084 15.3584 14.95 15.4167 14.7917 15.4167Z" fill="#F2F3F4"/>
<path d="M5.20836 15.4167C5.05003 15.4167 4.8917 15.3584 4.7667 15.2334C4.52503 14.9917 4.52503 14.5916 4.7667 14.35L14.35 4.76664C14.5917 4.52497 14.9917 4.52497 15.2334 4.76664C15.475 5.0083 15.475 5.40835 15.2334 5.65002L5.65003 15.2334C5.52503 15.3584 5.3667 15.4167 5.20836 15.4167Z" fill="#F2F3F4"/>
</svg>
