<svg width="16" height="16" viewBox="0 0 16 16" fill="none" xmlns="http://www.w3.org/2000/svg">
<g id="Outline / Search / Minimalistic Magnifer" clip-path="url(#clip0_14300_2760)">
<path id="Vector" fill-rule="evenodd" clip-rule="evenodd" d="M7.66634 1.83331C4.44468 1.83331 1.83301 4.44499 1.83301 7.66665C1.83301 10.8883 4.44468 13.5 7.66634 13.5C10.888 13.5 13.4997 10.8883 13.4997 7.66665C13.4997 4.44499 10.888 1.83331 7.66634 1.83331ZM0.833008 7.66665C0.833008 3.8927 3.8924 0.833313 7.66634 0.833313C11.4403 0.833313 14.4997 3.8927 14.4997 7.66665C14.4997 11.4406 11.4403 14.5 7.66634 14.5C3.8924 14.5 0.833008 11.4406 0.833008 7.66665ZM12.9795 12.9798C13.1747 12.7845 13.4913 12.7845 13.6866 12.9798L15.0199 14.3131C15.2152 14.5084 15.2152 14.8249 15.0199 15.0202C14.8246 15.2155 14.5081 15.2155 14.3128 15.0202L12.9795 13.6869C12.7842 13.4916 12.7842 13.175 12.9795 12.9798Z" fill="black"/>
</g>
<defs>
<clipPath id="clip0_14300_2760">
<rect width="16" height="16" fill="white"/>
</clipPath>
</defs>
</svg>
