<svg width="20" height="20" viewBox="0 0 20 20" fill="none" xmlns="http://www.w3.org/2000/svg">
<path d="M10.8327 18.9583H4.16602C2.14935 18.9583 1.04102 17.85 1.04102 15.8333V9.16667C1.04102 7.15001 2.14935 6.04167 4.16602 6.04167H8.33268C8.67435 6.04167 8.95768 6.32501 8.95768 6.66667V15.8333C8.95768 17.15 9.51601 17.7083 10.8327 17.7083C11.1743 17.7083 11.4577 17.9917 11.4577 18.3333C11.4577 18.675 11.1743 18.9583 10.8327 18.9583ZM4.16602 7.29167C2.84935 7.29167 2.29102 7.85001 2.29102 9.16667V15.8333C2.29102 17.15 2.84935 17.7083 4.16602 17.7083H8.166C7.866 17.2167 7.70768 16.5917 7.70768 15.8333V7.29167H4.16602Z" fill="#5A5F6D"/>
<path d="M8.33268 7.29166H4.16602C3.82435 7.29166 3.54102 7.00833 3.54102 6.66666V4.99999C3.54102 3.73333 4.56602 2.70833 5.83268 2.70833H8.42434C8.616 2.70833 8.79936 2.79998 8.91603 2.94998C9.03269 3.10831 9.07434 3.30833 9.02434 3.49166C8.97434 3.675 8.95768 3.88333 8.95768 4.16666V6.66666C8.95768 7.00833 8.67435 7.29166 8.33268 7.29166ZM4.79102 6.04166H7.70768V4.16666C7.70768 4.09166 7.70768 4.02499 7.70768 3.95833H5.83268C5.25768 3.95833 4.79102 4.42499 4.79102 4.99999V6.04166Z" fill="#5A5F6D"/>
<path d="M11.666 11.4583C11.3243 11.4583 11.041 11.175 11.041 10.8333V6.66667C11.041 6.32501 11.3243 6.04167 11.666 6.04167C12.0077 6.04167 12.291 6.32501 12.291 6.66667V10.8333C12.291 11.175 12.0077 11.4583 11.666 11.4583Z" fill="#5A5F6D"/>
<path d="M15 11.4583C14.6583 11.4583 14.375 11.175 14.375 10.8333V6.66667C14.375 6.32501 14.6583 6.04167 15 6.04167C15.3417 6.04167 15.625 6.32501 15.625 6.66667V10.8333C15.625 11.175 15.3417 11.4583 15 11.4583Z" fill="#5A5F6D"/>
<path d="M14.9993 18.9583H11.666C11.3243 18.9583 11.041 18.675 11.041 18.3333V15C11.041 14.2 11.6993 13.5417 12.4993 13.5417H14.166C14.966 13.5417 15.6243 14.2 15.6243 15V18.3333C15.6243 18.675 15.341 18.9583 14.9993 18.9583ZM12.291 17.7083H14.3743V15C14.3743 14.8833 14.2827 14.7917 14.166 14.7917H12.4993C12.3827 14.7917 12.291 14.8833 12.291 15V17.7083Z" fill="#5A5F6D"/>
<path d="M5 14.7917C4.65833 14.7917 4.375 14.5083 4.375 14.1667V10.8333C4.375 10.4917 4.65833 10.2083 5 10.2083C5.34167 10.2083 5.625 10.4917 5.625 10.8333V14.1667C5.625 14.5083 5.34167 14.7917 5 14.7917Z" fill="#5A5F6D"/>
<path d="M15.834 18.9583H10.834C8.81732 18.9583 7.70898 17.85 7.70898 15.8333V4.16667C7.70898 2.15001 8.81732 1.04167 10.834 1.04167H15.834C17.8507 1.04167 18.959 2.15001 18.959 4.16667V15.8333C18.959 17.85 17.8507 18.9583 15.834 18.9583ZM10.834 2.29167C9.51732 2.29167 8.95898 2.85001 8.95898 4.16667V15.8333C8.95898 17.15 9.51732 17.7083 10.834 17.7083H15.834C17.1507 17.7083 17.709 17.15 17.709 15.8333V4.16667C17.709 2.85001 17.1507 2.29167 15.834 2.29167H10.834Z" fill="#5A5F6D"/>
</svg>
