<svg width="20" height="20" viewBox="0 0 20 20" fill="none" xmlns="http://www.w3.org/2000/svg">
<path d="M15.8333 7.29169C14.1083 7.29169 12.7083 5.89169 12.7083 4.16669C12.7083 2.44169 14.1083 1.04169 15.8333 1.04169C17.5583 1.04169 18.9583 2.44169 18.9583 4.16669C18.9583 5.89169 17.5583 7.29169 15.8333 7.29169ZM15.8333 2.29169C14.7999 2.29169 13.9583 3.13335 13.9583 4.16669C13.9583 5.20002 14.7999 6.04169 15.8333 6.04169C16.8666 6.04169 17.7083 5.20002 17.7083 4.16669C17.7083 3.13335 16.8666 2.29169 15.8333 2.29169Z" fill="#F2F3F4"/>
<path d="M9.99992 11.4583H5.83325C5.49159 11.4583 5.20825 11.175 5.20825 10.8333C5.20825 10.4916 5.49159 10.2083 5.83325 10.2083H9.99992C10.3416 10.2083 10.6249 10.4916 10.6249 10.8333C10.6249 11.175 10.3416 11.4583 9.99992 11.4583Z" fill="#F2F3F4"/>
<path d="M13.3333 14.7917H5.83325C5.49159 14.7917 5.20825 14.5084 5.20825 14.1667C5.20825 13.825 5.49159 13.5417 5.83325 13.5417H13.3333C13.6749 13.5417 13.9583 13.825 13.9583 14.1667C13.9583 14.5084 13.6749 14.7917 13.3333 14.7917Z" fill="#F2F3F4"/>
<path d="M12.5001 18.9584H7.50008C2.97508 18.9584 1.04175 17.025 1.04175 12.5V7.50002C1.04175 2.97502 2.97508 1.04169 7.50008 1.04169H11.6667C12.0084 1.04169 12.2917 1.32502 12.2917 1.66669C12.2917 2.00835 12.0084 2.29169 11.6667 2.29169H7.50008C3.65841 2.29169 2.29175 3.65835 2.29175 7.50002V12.5C2.29175 16.3417 3.65841 17.7084 7.50008 17.7084H12.5001C16.3417 17.7084 17.7084 16.3417 17.7084 12.5V8.33335C17.7084 7.99169 17.9917 7.70835 18.3334 7.70835C18.6751 7.70835 18.9584 7.99169 18.9584 8.33335V12.5C18.9584 17.025 17.0251 18.9584 12.5001 18.9584Z" fill="#F2F3F4"/>
</svg>
