<svg width="32" height="32" viewBox="0 0 32 32" fill="none" xmlns="http://www.w3.org/2000/svg">
<path opacity="0.5" d="M24.9988 12V12.9388C24.9988 14.0655 25.3204 15.1669 25.9229 16.1043L27.3995 18.4015C28.7482 20.4998 27.7186 23.3519 25.3729 24.0154C19.2363 25.7512 12.7637 25.7512 6.62715 24.0154C4.2814 23.3519 3.25176 20.4998 4.60048 18.4015L6.07706 16.1043C6.67962 15.1669 7.00116 14.0655 7.00116 12.9388V12C7.00116 6.84534 11.0301 2.66666 16 2.66666C20.9699 2.66666 24.9988 6.84534 24.9988 12Z" fill="#757575"/>
<path d="M9.6582 24.727C10.5261 27.4005 13.0375 29.3333 16.0004 29.3333C18.9633 29.3333 21.4747 27.4005 22.3426 24.727C18.1487 25.514 13.8521 25.514 9.6582 24.727Z" fill="#757575"/>
</svg>
