<svg width="20" height="20" viewBox="0 0 20 20" fill="none" xmlns="http://www.w3.org/2000/svg">
<path d="M10 13.125C8.275 13.125 6.875 11.725 6.875 10C6.875 8.275 8.275 6.875 10 6.875C11.725 6.875 13.125 8.275 13.125 10C13.125 11.725 11.725 13.125 10 13.125ZM10 8.125C8.96667 8.125 8.125 8.96667 8.125 10C8.125 11.0333 8.96667 11.875 10 11.875C11.0333 11.875 11.875 11.0333 11.875 10C11.875 8.96667 11.0333 8.125 10 8.125Z" fill="#5A5F6D"/>
<path d="M12.6743 18.4917C12.4993 18.4917 12.3243 18.4667 12.1493 18.425C11.6327 18.2833 11.1993 17.9583 10.9243 17.5L10.8243 17.3333C10.3327 16.4833 9.65768 16.4833 9.16602 17.3333L9.07435 17.4917C8.79935 17.9583 8.36602 18.2917 7.84935 18.425C7.32435 18.5667 6.78268 18.4917 6.32435 18.2167L4.89102 17.3917C4.38268 17.1 4.01602 16.625 3.85768 16.05C3.70768 15.475 3.78268 14.8833 4.07435 14.375C4.31602 13.95 4.38268 13.5667 4.24102 13.325C4.09935 13.0833 3.74102 12.9417 3.24935 12.9417C2.03268 12.9417 1.04102 11.95 1.04102 10.7333V9.26668C1.04102 8.05001 2.03268 7.05835 3.24935 7.05835C3.74102 7.05835 4.09935 6.91668 4.24102 6.67502C4.38268 6.43335 4.32435 6.05002 4.07435 5.62502C3.78268 5.11668 3.70768 4.51668 3.85768 3.95001C4.00768 3.37501 4.37435 2.90001 4.89102 2.60835L6.33268 1.78335C7.27435 1.22501 8.51602 1.55001 9.08268 2.50835L9.18268 2.67501C9.67435 3.52501 10.3493 3.52501 10.841 2.67501L10.9327 2.51668C11.4993 1.55001 12.741 1.22501 13.691 1.79168L15.1243 2.61668C15.6327 2.90835 15.9993 3.38335 16.1577 3.95835C16.3077 4.53335 16.2327 5.12502 15.941 5.63335C15.6993 6.05835 15.6327 6.44168 15.7743 6.68335C15.916 6.92502 16.2744 7.06668 16.766 7.06668C17.9827 7.06668 18.9744 8.05835 18.9744 9.27502V10.7417C18.9744 11.9583 17.9827 12.95 16.766 12.95C16.2744 12.95 15.916 13.0917 15.7743 13.3333C15.6327 13.575 15.691 13.9583 15.941 14.3833C16.2327 14.8917 16.316 15.4917 16.1577 16.0583C16.0077 16.6333 15.641 17.1083 15.1243 17.4L13.6827 18.225C13.366 18.4 13.0243 18.4917 12.6743 18.4917ZM9.99935 15.4083C10.741 15.4083 11.4327 15.875 11.9077 16.7L11.9993 16.8583C12.0993 17.0333 12.266 17.1583 12.466 17.2083C12.666 17.2583 12.866 17.2333 13.0327 17.1333L14.4744 16.3C14.691 16.175 14.8577 15.9667 14.9243 15.7167C14.991 15.4667 14.9577 15.2083 14.8327 14.9917C14.3577 14.175 14.2993 13.3333 14.666 12.6917C15.0327 12.05 15.791 11.6833 16.741 11.6833C17.2743 11.6833 17.6993 11.2583 17.6993 10.725V9.25835C17.6993 8.73335 17.2743 8.30001 16.741 8.30001C15.791 8.30001 15.0327 7.93335 14.666 7.29168C14.2993 6.65002 14.3577 5.80835 14.8327 4.99168C14.9577 4.77501 14.991 4.51668 14.9243 4.26668C14.8577 4.01668 14.6993 3.81668 14.4827 3.68335L13.041 2.85835C12.6827 2.64168 12.2077 2.76668 11.991 3.13335L11.8993 3.29168C11.4243 4.11668 10.7327 4.58335 9.99102 4.58335C9.24935 4.58335 8.55768 4.11668 8.08268 3.29168L7.99102 3.12501C7.78268 2.77501 7.31602 2.65001 6.95768 2.85835L5.51602 3.69168C5.29935 3.81668 5.13268 4.02502 5.06602 4.27502C4.99935 4.52502 5.03268 4.78335 5.15768 5.00002C5.63268 5.81668 5.69102 6.65835 5.32435 7.30002C4.95768 7.94168 4.19935 8.30835 3.24935 8.30835C2.71602 8.30835 2.29102 8.73335 2.29102 9.26668V10.7333C2.29102 11.2583 2.71602 11.6917 3.24935 11.6917C4.19935 11.6917 4.95768 12.0583 5.32435 12.7C5.69102 13.3417 5.63268 14.1833 5.15768 15C5.03268 15.2167 4.99935 15.475 5.06602 15.725C5.13268 15.975 5.29102 16.175 5.50768 16.3083L6.94935 17.1333C7.12435 17.2417 7.33268 17.2667 7.52435 17.2167C7.72435 17.1667 7.89102 17.0333 7.99935 16.8583L8.09102 16.7C8.56602 15.8833 9.25768 15.4083 9.99935 15.4083Z" fill="#5A5F6D"/>
</svg>
