<svg width="20" height="20" viewBox="0 0 20 20" fill="none" xmlns="http://www.w3.org/2000/svg">
<path d="M10.8346 18.9583H4.16797C2.1513 18.9583 1.04297 17.85 1.04297 15.8333V9.16666C1.04297 7.14999 2.1513 6.04166 4.16797 6.04166H8.33463C8.6763 6.04166 8.95963 6.32499 8.95963 6.66666V15.8333C8.95963 17.15 9.51797 17.7083 10.8346 17.7083C11.1763 17.7083 11.4596 17.9917 11.4596 18.3333C11.4596 18.675 11.1763 18.9583 10.8346 18.9583ZM4.16797 7.29166C2.8513 7.29166 2.29297 7.84999 2.29297 9.16666V15.8333C2.29297 17.15 2.8513 17.7083 4.16797 17.7083H8.16796C7.86796 17.2167 7.70963 16.5917 7.70963 15.8333V7.29166H4.16797Z" fill="#5A5F6D"/>
<path d="M8.33464 7.29168H4.16797C3.8263 7.29168 3.54297 7.00834 3.54297 6.66668V5.00001C3.54297 3.73334 4.56797 2.70834 5.83464 2.70834H8.42629C8.61796 2.70834 8.80131 2.79999 8.91798 2.94999C9.03465 3.10833 9.07629 3.30835 9.02629 3.49168C8.97629 3.67501 8.95964 3.88334 8.95964 4.16668V6.66668C8.95964 7.00834 8.6763 7.29168 8.33464 7.29168ZM4.79297 6.04168H7.70964V4.16668C7.70964 4.09168 7.70964 4.02501 7.70964 3.95834H5.83464C5.25964 3.95834 4.79297 4.42501 4.79297 5.00001V6.04168Z" fill="#5A5F6D"/>
<path d="M11.668 11.4583C11.3263 11.4583 11.043 11.175 11.043 10.8333V6.66666C11.043 6.32499 11.3263 6.04166 11.668 6.04166C12.0096 6.04166 12.293 6.32499 12.293 6.66666V10.8333C12.293 11.175 12.0096 11.4583 11.668 11.4583Z" fill="#5A5F6D"/>
<path d="M15 11.4583C14.6583 11.4583 14.375 11.175 14.375 10.8333V6.66666C14.375 6.32499 14.6583 6.04166 15 6.04166C15.3417 6.04166 15.625 6.32499 15.625 6.66666V10.8333C15.625 11.175 15.3417 11.4583 15 11.4583Z" fill="#5A5F6D"/>
<path d="M15.0013 18.9583H11.668C11.3263 18.9583 11.043 18.675 11.043 18.3333V15C11.043 14.2 11.7013 13.5417 12.5013 13.5417H14.168C14.968 13.5417 15.6263 14.2 15.6263 15V18.3333C15.6263 18.675 15.343 18.9583 15.0013 18.9583ZM12.293 17.7083H14.3763V15C14.3763 14.8833 14.2846 14.7917 14.168 14.7917H12.5013C12.3846 14.7917 12.293 14.8833 12.293 15V17.7083Z" fill="#5A5F6D"/>
<path d="M5 14.7917C4.65833 14.7917 4.375 14.5083 4.375 14.1667V10.8333C4.375 10.4917 4.65833 10.2083 5 10.2083C5.34167 10.2083 5.625 10.4917 5.625 10.8333V14.1667C5.625 14.5083 5.34167 14.7917 5 14.7917Z" fill="#5A5F6D"/>
<path d="M15.832 18.9583H10.832C8.81536 18.9583 7.70703 17.85 7.70703 15.8333V4.16666C7.70703 2.14999 8.81536 1.04166 10.832 1.04166H15.832C17.8487 1.04166 18.957 2.14999 18.957 4.16666V15.8333C18.957 17.85 17.8487 18.9583 15.832 18.9583ZM10.832 2.29166C9.51536 2.29166 8.95703 2.84999 8.95703 4.16666V15.8333C8.95703 17.15 9.51536 17.7083 10.832 17.7083H15.832C17.1487 17.7083 17.707 17.15 17.707 15.8333V4.16666C17.707 2.84999 17.1487 2.29166 15.832 2.29166H10.832Z" fill="#5A5F6D"/>
</svg>
