<svg width="18" height="18" viewBox="0 0 18 18" fill="none" xmlns="http://www.w3.org/2000/svg">
<path d="M9.00141 12.2475C7.20891 12.2475 5.75391 10.7925 5.75391 9C5.75391 7.2075 7.20891 5.7525 9.00141 5.7525C10.7939 5.7525 12.2489 7.2075 12.2489 9C12.2489 10.7925 10.7939 12.2475 9.00141 12.2475ZM9.00141 6.8775C7.83141 6.8775 6.87891 7.83 6.87891 9C6.87891 10.17 7.83141 11.1225 9.00141 11.1225C10.1714 11.1225 11.1239 10.17 11.1239 9C11.1239 7.83 10.1714 6.8775 9.00141 6.8775Z" fill="#151619"/>
<path d="M8.99859 15.765C6.17859 15.765 3.51609 14.115 1.68609 11.25C0.891094 10.0125 0.891094 7.995 1.68609 6.75C3.52359 3.885 6.18609 2.235 8.99859 2.235C11.8111 2.235 14.4736 3.885 16.3036 6.75C17.0986 7.9875 17.0986 10.005 16.3036 11.25C14.4736 14.115 11.8111 15.765 8.99859 15.765ZM8.99859 3.36C6.57609 3.36 4.25859 4.815 2.63859 7.3575C2.07609 8.235 2.07609 9.765 2.63859 10.6425C4.25859 13.185 6.57609 14.64 8.99859 14.64C11.4211 14.64 13.7386 13.185 15.3586 10.6425C15.9211 9.765 15.9211 8.235 15.3586 7.3575C13.7386 4.815 11.4211 3.36 8.99859 3.36Z" fill="#151619"/>
</svg>
