<svg width="32" height="32" viewBox="0 0 32 32" fill="none" xmlns="http://www.w3.org/2000/svg">
<path opacity="0.5" d="M24.9988 12V12.9388C24.9988 14.0655 25.3204 15.1669 25.9229 16.1044L27.3995 18.4016C28.7482 20.4998 27.7186 23.3519 25.3729 24.0154C19.2363 25.7512 12.7637 25.7512 6.62715 24.0154C4.2814 23.3519 3.25176 20.4998 4.60048 18.4016L6.07706 16.1044C6.67962 15.1669 7.00116 14.0655 7.00116 12.9388V12C7.00116 6.84536 11.0301 2.66669 16 2.66669C20.9699 2.66669 24.9988 6.84536 24.9988 12Z" fill="#757575"/>
<path d="M9.65625 24.7269C10.5242 27.4004 13.0356 29.3332 15.9985 29.3332C18.9613 29.3332 21.4727 27.4004 22.3407 24.7269C18.1467 25.5139 13.8502 25.5139 9.65625 24.7269Z" fill="#757575"/>
<circle cx="22" cy="6" r="6" fill="#D32246"/>
</svg>
