<svg width="20" height="20" viewBox="0 0 20 20" fill="none" xmlns="http://www.w3.org/2000/svg">
<path d="M15.832 7.29166C14.107 7.29166 12.707 5.89166 12.707 4.16666C12.707 2.44166 14.107 1.04166 15.832 1.04166C17.557 1.04166 18.957 2.44166 18.957 4.16666C18.957 5.89166 17.557 7.29166 15.832 7.29166ZM15.832 2.29166C14.7987 2.29166 13.957 3.13332 13.957 4.16666C13.957 5.19999 14.7987 6.04166 15.832 6.04166C16.8654 6.04166 17.707 5.19999 17.707 4.16666C17.707 3.13332 16.8654 2.29166 15.832 2.29166Z" fill="#5A5F6D"/>
<path d="M9.9987 11.4583H5.83203C5.49036 11.4583 5.20703 11.175 5.20703 10.8333C5.20703 10.4917 5.49036 10.2083 5.83203 10.2083H9.9987C10.3404 10.2083 10.6237 10.4917 10.6237 10.8333C10.6237 11.175 10.3404 11.4583 9.9987 11.4583Z" fill="#5A5F6D"/>
<path d="M13.332 14.7917H5.83203C5.49036 14.7917 5.20703 14.5083 5.20703 14.1667C5.20703 13.825 5.49036 13.5417 5.83203 13.5417H13.332C13.6737 13.5417 13.957 13.825 13.957 14.1667C13.957 14.5083 13.6737 14.7917 13.332 14.7917Z" fill="#5A5F6D"/>
<path d="M12.5013 18.9583H7.5013C2.9763 18.9583 1.04297 17.025 1.04297 12.5V7.49999C1.04297 2.97499 2.9763 1.04166 7.5013 1.04166H11.668C12.0096 1.04166 12.293 1.32499 12.293 1.66666C12.293 2.00832 12.0096 2.29166 11.668 2.29166H7.5013C3.65964 2.29166 2.29297 3.65832 2.29297 7.49999V12.5C2.29297 16.3417 3.65964 17.7083 7.5013 17.7083H12.5013C16.343 17.7083 17.7096 16.3417 17.7096 12.5V8.33332C17.7096 7.99166 17.993 7.70832 18.3346 7.70832C18.6763 7.70832 18.9596 7.99166 18.9596 8.33332V12.5C18.9596 17.025 17.0263 18.9583 12.5013 18.9583Z" fill="#5A5F6D"/>
</svg>
