<svg width="20" height="20" viewBox="0 0 20 20" fill="none" xmlns="http://www.w3.org/2000/svg">
<path d="M10 13.125C8.275 13.125 6.875 11.725 6.875 10C6.875 8.275 8.275 6.875 10 6.875C11.725 6.875 13.125 8.275 13.125 10C13.125 11.725 11.725 13.125 10 13.125ZM10 8.125C8.96667 8.125 8.125 8.96667 8.125 10C8.125 11.0333 8.96667 11.875 10 11.875C11.0333 11.875 11.875 11.0333 11.875 10C11.875 8.96667 11.0333 8.125 10 8.125Z" fill="#5A5F6D"/>
<path d="M12.6763 18.4917C12.5013 18.4917 12.3263 18.4667 12.1513 18.425C11.6346 18.2833 11.2013 17.9583 10.9263 17.5L10.8263 17.3333C10.3346 16.4833 9.65964 16.4833 9.16797 17.3333L9.0763 17.4917C8.8013 17.9583 8.36797 18.2917 7.8513 18.425C7.3263 18.5667 6.78464 18.4917 6.3263 18.2167L4.89297 17.3917C4.38464 17.1 4.01797 16.625 3.85964 16.05C3.70964 15.475 3.78464 14.8833 4.0763 14.375C4.31797 13.95 4.38464 13.5667 4.24297 13.325C4.1013 13.0833 3.74297 12.9417 3.2513 12.9417C2.03464 12.9417 1.04297 11.95 1.04297 10.7333V9.26668C1.04297 8.05001 2.03464 7.05835 3.2513 7.05835C3.74297 7.05835 4.1013 6.91668 4.24297 6.67502C4.38464 6.43335 4.3263 6.05002 4.0763 5.62502C3.78464 5.11668 3.70964 4.51668 3.85964 3.95001C4.00964 3.37501 4.3763 2.90001 4.89297 2.60835L6.33464 1.78335C7.2763 1.22501 8.51797 1.55001 9.08464 2.50835L9.18464 2.67501C9.6763 3.52501 10.3513 3.52501 10.843 2.67501L10.9346 2.51668C11.5013 1.55001 12.743 1.22501 13.693 1.79168L15.1263 2.61668C15.6346 2.90835 16.0013 3.38335 16.1596 3.95835C16.3096 4.53335 16.2346 5.12502 15.943 5.63335C15.7013 6.05835 15.6346 6.44168 15.7763 6.68335C15.918 6.92502 16.2763 7.06668 16.768 7.06668C17.9846 7.06668 18.9763 8.05835 18.9763 9.27502V10.7417C18.9763 11.9583 17.9846 12.95 16.768 12.95C16.2763 12.95 15.918 13.0917 15.7763 13.3333C15.6346 13.575 15.693 13.9583 15.943 14.3833C16.2346 14.8917 16.318 15.4917 16.1596 16.0583C16.0096 16.6333 15.643 17.1083 15.1263 17.4L13.6846 18.225C13.368 18.4 13.0263 18.4917 12.6763 18.4917ZM10.0013 15.4083C10.743 15.4083 11.4346 15.875 11.9096 16.7L12.0013 16.8583C12.1013 17.0333 12.268 17.1583 12.468 17.2083C12.668 17.2583 12.868 17.2333 13.0346 17.1333L14.4763 16.3C14.693 16.175 14.8596 15.9667 14.9263 15.7167C14.993 15.4667 14.9596 15.2083 14.8346 14.9917C14.3596 14.175 14.3013 13.3333 14.668 12.6917C15.0346 12.05 15.793 11.6833 16.743 11.6833C17.2763 11.6833 17.7013 11.2583 17.7013 10.725V9.25835C17.7013 8.73335 17.2763 8.30001 16.743 8.30001C15.793 8.30001 15.0346 7.93335 14.668 7.29168C14.3013 6.65002 14.3596 5.80835 14.8346 4.99168C14.9596 4.77501 14.993 4.51668 14.9263 4.26668C14.8596 4.01668 14.7013 3.81668 14.4846 3.68335L13.043 2.85835C12.6846 2.64168 12.2096 2.76668 11.993 3.13335L11.9013 3.29168C11.4263 4.11668 10.7346 4.58335 9.99297 4.58335C9.2513 4.58335 8.55964 4.11668 8.08464 3.29168L7.99297 3.12501C7.78464 2.77501 7.31797 2.65001 6.95964 2.85835L5.51797 3.69168C5.3013 3.81668 5.13464 4.02502 5.06797 4.27502C5.0013 4.52502 5.03464 4.78335 5.15964 5.00002C5.63464 5.81668 5.69297 6.65835 5.3263 7.30002C4.95964 7.94168 4.2013 8.30835 3.2513 8.30835C2.71797 8.30835 2.29297 8.73335 2.29297 9.26668V10.7333C2.29297 11.2583 2.71797 11.6917 3.2513 11.6917C4.2013 11.6917 4.95964 12.0583 5.3263 12.7C5.69297 13.3417 5.63464 14.1833 5.15964 15C5.03464 15.2167 5.0013 15.475 5.06797 15.725C5.13464 15.975 5.29297 16.175 5.50964 16.3083L6.9513 17.1333C7.1263 17.2417 7.33464 17.2667 7.5263 17.2167C7.7263 17.1667 7.89297 17.0333 8.0013 16.8583L8.09297 16.7C8.56797 15.8833 9.25964 15.4083 10.0013 15.4083Z" fill="#5A5F6D"/>
</svg>
