<svg width="20" height="20" viewBox="0 0 20 20" fill="none" xmlns="http://www.w3.org/2000/svg">
<path d="M7.89837 17.2417C7.48171 17.2417 7.19004 17.1 7.01504 16.9667C6.68171 16.725 6.16504 16.1 6.49004 14.7L6.96502 12.65C7.00669 12.475 6.91503 12.1583 6.79003 12.025L5.1317 10.3667C4.2567 9.49167 4.33169 8.73333 4.44836 8.35833C4.56503 7.98333 4.94836 7.32499 6.16503 7.11666L8.29004 6.76666C8.44837 6.74166 8.7067 6.55 8.77336 6.40834L9.94837 4.05833C10.515 2.925 11.265 2.75833 11.665 2.75833C12.065 2.75833 12.815 2.925 13.3817 4.05833L14.5567 6.40834C14.6317 6.55 14.8817 6.74166 15.04 6.76666L17.165 7.11666C18.3817 7.31666 18.765 7.98333 18.8817 8.35833C18.9984 8.73333 19.0734 9.49167 18.1984 10.3667L16.54 12.025C16.415 12.15 16.3234 12.475 16.365 12.65L16.84 14.7C17.165 16.1083 16.6484 16.725 16.315 16.9667C15.9817 17.2083 15.24 17.5167 13.99 16.775L11.9984 15.5917C11.8317 15.4917 11.4817 15.4917 11.315 15.5917L9.32337 16.775C8.74837 17.125 8.26504 17.2417 7.89837 17.2417ZM11.665 4.00833C11.5317 4.00833 11.29 4.16666 11.065 4.61666L9.89003 6.96667C9.64003 7.475 9.04837 7.90834 8.49003 8L6.36504 8.35C5.89004 8.43334 5.67337 8.60834 5.63171 8.74167C5.59004 8.875 5.66502 9.14167 6.00669 9.48334L7.66504 11.1417C8.09004 11.5667 8.31504 12.3417 8.1817 12.925L7.7067 14.975C7.56503 15.5667 7.65669 15.8833 7.74835 15.9583C7.84002 16.025 8.17336 16.0167 8.69002 15.7L10.69 14.5167C11.2484 14.1833 12.09 14.1833 12.64 14.5167L14.6317 15.7C15.1567 16.0083 15.49 16.025 15.5817 15.9583C15.6734 15.8917 15.765 15.575 15.6234 14.975L15.1484 12.925C15.015 12.3333 15.2317 11.5667 15.665 11.1417L17.3234 9.48334C17.665 9.14167 17.74 8.86667 17.6984 8.74167C17.6567 8.61667 17.44 8.43334 16.965 8.35L14.84 8C14.2817 7.90834 13.69 7.475 13.44 6.96667L12.265 4.61666C12.04 4.16666 11.7984 4.00833 11.665 4.00833Z" fill="#F2F3F4"/>
<path d="M6.66797 4.79166H1.66797C1.3263 4.79166 1.04297 4.50832 1.04297 4.16666C1.04297 3.82499 1.3263 3.54166 1.66797 3.54166H6.66797C7.00964 3.54166 7.29297 3.82499 7.29297 4.16666C7.29297 4.50832 7.00964 4.79166 6.66797 4.79166Z" fill="#F2F3F4"/>
<path d="M4.16797 16.4583H1.66797C1.3263 16.4583 1.04297 16.175 1.04297 15.8333C1.04297 15.4917 1.3263 15.2083 1.66797 15.2083H4.16797C4.50964 15.2083 4.79297 15.4917 4.79297 15.8333C4.79297 16.175 4.50964 16.4583 4.16797 16.4583Z" fill="#F2F3F4"/>
<path d="M2.5013 10.625H1.66797C1.3263 10.625 1.04297 10.3417 1.04297 10C1.04297 9.65833 1.3263 9.375 1.66797 9.375H2.5013C2.84297 9.375 3.1263 9.65833 3.1263 10C3.1263 10.3417 2.84297 10.625 2.5013 10.625Z" fill="#F2F3F4"/>
</svg>
