<svg width="20" height="20" viewBox="0 0 20 20" fill="none" xmlns="http://www.w3.org/2000/svg">
<path d="M10.8332 18.9584H4.1665C2.14984 18.9584 1.0415 17.8501 1.0415 15.8334V9.16675C1.0415 7.15008 2.14984 6.04175 4.1665 6.04175H8.33317C8.67484 6.04175 8.95817 6.32508 8.95817 6.66675V15.8334C8.95817 17.1501 9.5165 17.7084 10.8332 17.7084C11.1748 17.7084 11.4582 17.9917 11.4582 18.3334C11.4582 18.6751 11.1748 18.9584 10.8332 18.9584ZM4.1665 7.29175C2.84984 7.29175 2.2915 7.85008 2.2915 9.16675V15.8334C2.2915 17.1501 2.84984 17.7084 4.1665 17.7084H8.16649C7.86649 17.2167 7.70817 16.5917 7.70817 15.8334V7.29175H4.1665Z" fill="white"/>
<path d="M8.33317 7.29158H4.1665C3.82484 7.29158 3.5415 7.00825 3.5415 6.66658V4.99992C3.5415 3.73325 4.5665 2.70825 5.83317 2.70825H8.42483C8.61649 2.70825 8.79985 2.7999 8.91651 2.9499C9.03318 3.10823 9.07483 3.30825 9.02483 3.49159C8.97483 3.67492 8.95817 3.88325 8.95817 4.16659V6.66658C8.95817 7.00825 8.67484 7.29158 8.33317 7.29158ZM4.7915 6.04158H7.70817V4.16659C7.70817 4.09159 7.70817 4.02492 7.70817 3.95825H5.83317C5.25817 3.95825 4.7915 4.42492 4.7915 4.99992V6.04158Z" fill="white"/>
<path d="M11.6665 11.4584C11.3248 11.4584 11.0415 11.1751 11.0415 10.8334V6.66675C11.0415 6.32508 11.3248 6.04175 11.6665 6.04175C12.0082 6.04175 12.2915 6.32508 12.2915 6.66675V10.8334C12.2915 11.1751 12.0082 11.4584 11.6665 11.4584Z" fill="white"/>
<path d="M15 11.4584C14.6583 11.4584 14.375 11.1751 14.375 10.8334V6.66675C14.375 6.32508 14.6583 6.04175 15 6.04175C15.3417 6.04175 15.625 6.32508 15.625 6.66675V10.8334C15.625 11.1751 15.3417 11.4584 15 11.4584Z" fill="white"/>
<path d="M14.9998 18.9584H11.6665C11.3248 18.9584 11.0415 18.6751 11.0415 18.3334V15.0001C11.0415 14.2001 11.6998 13.5417 12.4998 13.5417H14.1665C14.9665 13.5417 15.6248 14.2001 15.6248 15.0001V18.3334C15.6248 18.6751 15.3415 18.9584 14.9998 18.9584ZM12.2915 17.7084H14.3748V15.0001C14.3748 14.8834 14.2832 14.7917 14.1665 14.7917H12.4998C12.3832 14.7917 12.2915 14.8834 12.2915 15.0001V17.7084Z" fill="#667085"/>
<path d="M5 14.7916C4.65833 14.7916 4.375 14.5083 4.375 14.1666V10.8333C4.375 10.4916 4.65833 10.2083 5 10.2083C5.34167 10.2083 5.625 10.4916 5.625 10.8333V14.1666C5.625 14.5083 5.34167 14.7916 5 14.7916Z" fill="#667085"/>
<path d="M15.8335 18.9584H10.8335C8.81683 18.9584 7.7085 17.8501 7.7085 15.8334V4.16675C7.7085 2.15008 8.81683 1.04175 10.8335 1.04175H15.8335C17.8502 1.04175 18.9585 2.15008 18.9585 4.16675V15.8334C18.9585 17.8501 17.8502 18.9584 15.8335 18.9584ZM10.8335 2.29175C9.51683 2.29175 8.9585 2.85008 8.9585 4.16675V15.8334C8.9585 17.1501 9.51683 17.7084 10.8335 17.7084H15.8335C17.1502 17.7084 17.7085 17.1501 17.7085 15.8334V4.16675C17.7085 2.85008 17.1502 2.29175 15.8335 2.29175H10.8335Z" fill="#667085"/>
</svg>
