<svg width="32" height="32" viewBox="0 0 32 32" fill="none" xmlns="http://www.w3.org/2000/svg">
<path d="M27.333 13.588H23.4797C20.3197 13.588 17.7463 11.0146 17.7463 7.85463V4.0013C17.7463 3.26797 17.1463 2.66797 16.413 2.66797H10.7597C6.65301 2.66797 3.33301 5.33464 3.33301 10.0946V21.908C3.33301 26.668 6.65301 29.3346 10.7597 29.3346H21.2397C25.3463 29.3346 28.6663 26.668 28.6663 21.908V14.9213C28.6663 14.188 28.0663 13.588 27.333 13.588ZM15.373 18.0413C15.173 18.2413 14.9197 18.3346 14.6663 18.3346C14.413 18.3346 14.1597 18.2413 13.9597 18.0413L12.9997 17.0813V22.668C12.9997 23.2146 12.5463 23.668 11.9997 23.668C11.453 23.668 10.9997 23.2146 10.9997 22.668V17.0813L10.0397 18.0413C9.65301 18.428 9.01301 18.428 8.62634 18.0413C8.23967 17.6546 8.23967 17.0146 8.62634 16.628L11.293 13.9613C11.3863 13.8813 11.4797 13.8146 11.5863 13.7613C11.613 13.748 11.653 13.7346 11.6797 13.7213C11.7597 13.6946 11.8397 13.6813 11.933 13.668C11.973 13.668 11.9997 13.668 12.0397 13.668C12.1463 13.668 12.253 13.6946 12.3597 13.7346C12.373 13.7346 12.373 13.7346 12.3863 13.7346C12.493 13.7746 12.5997 13.8546 12.6797 13.9346C12.693 13.948 12.7063 13.948 12.7063 13.9613L15.373 16.628C15.7597 17.0146 15.7597 17.6546 15.373 18.0413Z" fill="#344054"/>
<path d="M23.2399 11.7473C24.5066 11.7606 26.2666 11.7606 27.7732 11.7606C28.5332 11.7606 28.9332 10.8673 28.3999 10.334C26.4799 8.40064 23.0399 4.92064 21.0666 2.94731C20.5199 2.40064 19.5732 2.77398 19.5732 3.53398V8.18731C19.5732 10.134 21.2266 11.7473 23.2399 11.7473Z" fill="#344054"/>
</svg>
