<svg width="20" height="20" viewBox="0 0 20 20" fill="none" xmlns="http://www.w3.org/2000/svg">
<path d="M12.5003 18.9583H7.50033C2.97533 18.9583 1.04199 17.025 1.04199 12.5V7.50001C1.04199 2.97501 2.97533 1.04167 7.50033 1.04167H12.5003C17.0253 1.04167 18.9587 2.97501 18.9587 7.50001V12.5C18.9587 17.025 17.0253 18.9583 12.5003 18.9583ZM7.50033 2.29167C3.65866 2.29167 2.29199 3.65834 2.29199 7.50001V12.5C2.29199 16.3417 3.65866 17.7083 7.50033 17.7083H12.5003C16.342 17.7083 17.7087 16.3417 17.7087 12.5V7.50001C17.7087 3.65834 16.342 2.29167 12.5003 2.29167H7.50033Z" fill="white"/>
<path d="M13.6667 16.0417H10.5C8.9 16.0417 8.125 15.2667 8.125 13.6667V12.1667C8.125 10.5667 8.9 9.79167 10.5 9.79167H13.6667C15.2667 9.79167 16.0417 10.5667 16.0417 12.1667V13.6667C16.0417 15.2667 15.2667 16.0417 13.6667 16.0417ZM10.5 11.0417C9.6 11.0417 9.375 11.2667 9.375 12.1667V13.6667C9.375 14.5667 9.6 14.7917 10.5 14.7917H13.6667C14.5667 14.7917 14.7917 14.5667 14.7917 13.6667V12.1667C14.7917 11.2667 14.5667 11.0417 13.6667 11.0417H10.5Z" fill="white"/>
</svg>
