<svg width="32" height="33" viewBox="0 0 32 33" fill="none" xmlns="http://www.w3.org/2000/svg">
<path d="M27.9597 1.83203H24.0397C22.8797 1.83203 22.0263 2.31203 21.6397 3.16536C21.4263 3.55203 21.333 4.00536 21.333 4.5387V8.4587C21.333 10.152 22.3463 11.1654 24.0397 11.1654H27.9597C28.493 11.1654 28.9463 11.072 29.333 10.8587C30.1863 10.472 30.6663 9.6187 30.6663 8.4587V4.5387C30.6663 2.84536 29.653 1.83203 27.9597 1.83203ZM29.213 7.07203C29.0797 7.20536 28.8797 7.2987 28.6663 7.31203H26.7863V7.99203L26.7997 9.16536C26.7863 9.39203 26.7063 9.5787 26.5463 9.7387C26.413 9.87203 26.213 9.96536 25.9997 9.96536C25.5597 9.96536 25.1997 9.60536 25.1997 9.16536V7.2987L23.333 7.31203C22.893 7.31203 22.533 6.9387 22.533 6.4987C22.533 6.0587 22.893 5.6987 23.333 5.6987L24.5063 5.71203H25.1997V3.84536C25.1997 3.40536 25.5597 3.03203 25.9997 3.03203C26.4397 3.03203 26.7997 3.40536 26.7997 3.84536L26.7863 4.79203V5.6987H28.6663C29.1063 5.6987 29.4663 6.0587 29.4663 6.4987C29.453 6.72536 29.3597 6.91203 29.213 7.07203Z" fill="#344054"/>
<path d="M12.0005 14.3389C13.7531 14.3389 15.1738 12.9181 15.1738 11.1655C15.1738 9.41294 13.7531 7.99219 12.0005 7.99219C10.2479 7.99219 8.82715 9.41294 8.82715 11.1655C8.82715 12.9181 10.2479 14.3389 12.0005 14.3389Z" fill="#344054"/>
<path d="M27.9603 11.168H27.3337V17.3146L27.1603 17.168C26.1203 16.2746 24.4403 16.2746 23.4003 17.168L17.8537 21.928C16.8137 22.8213 15.1337 22.8213 14.0937 21.928L13.6403 21.5546C12.6937 20.728 11.187 20.648 10.1203 21.368L5.13366 24.7146C4.84033 23.968 4.66699 23.1013 4.66699 22.088V10.9146C4.66699 7.15464 6.65366 5.16797 10.4137 5.16797H21.3337V4.5413C21.3337 4.00797 21.427 3.55464 21.6403 3.16797H10.4137C5.56033 3.16797 2.66699 6.0613 2.66699 10.9146V22.088C2.66699 23.5413 2.92033 24.808 3.41366 25.8746C4.56033 28.408 7.01366 29.8346 10.4137 29.8346H21.587C26.4403 29.8346 29.3337 26.9413 29.3337 22.088V10.8613C28.947 11.0746 28.4937 11.168 27.9603 11.168Z" fill="#344054"/>
</svg>
