<svg width="20" height="20" viewBox="0 0 20 20" fill="none" xmlns="http://www.w3.org/2000/svg">
<path d="M12.4998 18.9584H7.49984C2.97484 18.9584 1.0415 17.0251 1.0415 12.5001V7.50008C1.0415 2.97508 2.97484 1.04175 7.49984 1.04175H12.4998C17.0248 1.04175 18.9582 2.97508 18.9582 7.50008V12.5001C18.9582 17.0251 17.0248 18.9584 12.4998 18.9584ZM7.49984 2.29175C3.65817 2.29175 2.2915 3.65841 2.2915 7.50008V12.5001C2.2915 16.3417 3.65817 17.7084 7.49984 17.7084H12.4998C16.3415 17.7084 17.7082 16.3417 17.7082 12.5001V7.50008C17.7082 3.65841 16.3415 2.29175 12.4998 2.29175H7.49984Z" fill="#667085"/>
<path d="M13.6667 16.0417H10.5C8.9 16.0417 8.125 15.2667 8.125 13.6667V12.1667C8.125 10.5667 8.9 9.79175 10.5 9.79175H13.6667C15.2667 9.79175 16.0417 10.5667 16.0417 12.1667V13.6667C16.0417 15.2667 15.2667 16.0417 13.6667 16.0417ZM10.5 11.0417C9.6 11.0417 9.375 11.2667 9.375 12.1667V13.6667C9.375 14.5667 9.6 14.7917 10.5 14.7917H13.6667C14.5667 14.7917 14.7917 14.5667 14.7917 13.6667V12.1667C14.7917 11.2667 14.5667 11.0417 13.6667 11.0417H10.5Z" fill="#667085"/>
</svg>
