<svg width="24" height="24" viewBox="0 0 24 24" fill="none" xmlns="http://www.w3.org/2000/svg">
<path d="M15.26 22.2483H8.73998C3.82998 22.2483 1.72998 20.1483 1.72998 15.2383V15.1083C1.72998 10.6683 3.47998 8.52832 7.39998 8.15832C7.79998 8.12832 8.17998 8.42832 8.21998 8.83832C8.25998 9.24832 7.95998 9.61832 7.53998 9.65832C4.39998 9.94832 3.22998 11.4283 3.22998 15.1183V15.2483C3.22998 19.3183 4.66998 20.7583 8.73998 20.7583H15.26C19.33 20.7583 20.77 19.3183 20.77 15.2483V15.1183C20.77 11.4083 19.58 9.92832 16.38 9.65832C15.97 9.61832 15.66 9.25832 15.7 8.84832C15.74 8.43832 16.09 8.12832 16.51 8.16832C20.49 8.50832 22.27 10.6583 22.27 15.1283V15.2583C22.27 20.1483 20.17 22.2483 15.26 22.2483Z" fill="#F2F3F4"/>
<path d="M12 15.63C11.59 15.63 11.25 15.29 11.25 14.88V2C11.25 1.59 11.59 1.25 12 1.25C12.41 1.25 12.75 1.59 12.75 2V14.88C12.75 15.3 12.41 15.63 12 15.63Z" fill="#F2F3F4"/>
<path d="M11.9998 16.7498C11.8098 16.7498 11.6198 16.6798 11.4698 16.5298L8.11984 13.1798C7.82984 12.8898 7.82984 12.4098 8.11984 12.1198C8.40984 11.8298 8.88984 11.8298 9.17984 12.1198L11.9998 14.9398L14.8198 12.1198C15.1098 11.8298 15.5898 11.8298 15.8798 12.1198C16.1698 12.4098 16.1698 12.8898 15.8798 13.1798L12.5298 16.5298C12.3798 16.6798 12.1898 16.7498 11.9998 16.7498Z" fill="#F2F3F4"/>
</svg>
