<svg width="20" height="20" viewBox="0 0 20 20" fill="none" xmlns="http://www.w3.org/2000/svg">
<path d="M15.8335 7.29297C14.1085 7.29297 12.7085 5.89297 12.7085 4.16797C12.7085 2.44297 14.1085 1.04297 15.8335 1.04297C17.5585 1.04297 18.9585 2.44297 18.9585 4.16797C18.9585 5.89297 17.5585 7.29297 15.8335 7.29297ZM15.8335 2.29297C14.8002 2.29297 13.9585 3.13464 13.9585 4.16797C13.9585 5.2013 14.8002 6.04297 15.8335 6.04297C16.8668 6.04297 17.7085 5.2013 17.7085 4.16797C17.7085 3.13464 16.8668 2.29297 15.8335 2.29297Z" fill="#667085"/>
<path d="M10.0002 11.457H5.8335C5.49183 11.457 5.2085 11.1737 5.2085 10.832C5.2085 10.4904 5.49183 10.207 5.8335 10.207H10.0002C10.3418 10.207 10.6252 10.4904 10.6252 10.832C10.6252 11.1737 10.3418 11.457 10.0002 11.457Z" fill="#667085"/>
<path d="M13.3335 14.793H5.8335C5.49183 14.793 5.2085 14.5096 5.2085 14.168C5.2085 13.8263 5.49183 13.543 5.8335 13.543H13.3335C13.6752 13.543 13.9585 13.8263 13.9585 14.168C13.9585 14.5096 13.6752 14.793 13.3335 14.793Z" fill="#667085"/>
<path d="M12.4998 18.9596H7.49984C2.97484 18.9596 1.0415 17.0263 1.0415 12.5013V7.5013C1.0415 2.9763 2.97484 1.04297 7.49984 1.04297H11.6665C12.0082 1.04297 12.2915 1.3263 12.2915 1.66797C12.2915 2.00964 12.0082 2.29297 11.6665 2.29297H7.49984C3.65817 2.29297 2.2915 3.65964 2.2915 7.5013V12.5013C2.2915 16.343 3.65817 17.7096 7.49984 17.7096H12.4998C16.3415 17.7096 17.7082 16.343 17.7082 12.5013V8.33464C17.7082 7.99297 17.9915 7.70964 18.3332 7.70964C18.6748 7.70964 18.9582 7.99297 18.9582 8.33464V12.5013C18.9582 17.0263 17.0248 18.9596 12.4998 18.9596Z" fill="#667085"/>
</svg>
