<svg width="20" height="20" viewBox="0 0 20 20" fill="none" xmlns="http://www.w3.org/2000/svg">
<path d="M10.0002 10.2096C9.6335 10.2096 9.26683 10.118 8.9335 9.94297L3.5085 7.01797C3.01683 6.7513 2.7085 6.2263 2.7085 5.64297C2.7085 5.05964 3.01683 4.53464 3.5085 4.26797L8.9335 1.34297C9.60016 0.984635 10.4002 0.984635 11.0585 1.34297L16.4835 4.26797C16.9752 4.53464 17.2835 5.05964 17.2835 5.64297C17.2835 6.2263 16.9752 6.7513 16.4835 7.01797L11.0585 9.94297C10.7335 10.1263 10.3668 10.2096 10.0002 10.2096ZM10.0002 2.31797C9.84183 2.31797 9.67516 2.35964 9.52516 2.44297L4.1085 5.35964C3.96683 5.43464 3.9585 5.59297 3.9585 5.64297C3.9585 5.69297 3.96683 5.8513 4.1085 5.91797L9.5335 8.84297C9.8335 9.0013 10.1752 9.0013 10.4752 8.84297L15.9002 5.91797C16.0335 5.84297 16.0502 5.68464 16.0502 5.64297C16.0502 5.59297 16.0418 5.43464 15.9002 5.36797L10.4752 2.44297C10.3252 2.35964 10.1585 2.31797 10.0002 2.31797Z" fill="#667085"/>
<path d="M8.14984 18.9338C7.9165 18.9338 7.67484 18.8755 7.45817 18.7671L2.40817 16.2505C1.5665 15.8255 1.0415 14.9755 1.0415 14.0338V9.26712C1.0415 8.72546 1.3165 8.23379 1.77484 7.95046C2.2415 7.66712 2.79984 7.64212 3.28317 7.88379L8.33317 10.4005C9.17484 10.8255 9.69984 11.6671 9.69984 12.6171V17.3838C9.69984 17.9255 9.42484 18.4171 8.9665 18.7005C8.7165 18.8588 8.43317 18.9338 8.14984 18.9338ZM2.5915 8.96712C2.52484 8.96712 2.4665 8.99213 2.43317 9.00879C2.38317 9.04213 2.2915 9.11712 2.2915 9.26712V14.0338C2.2915 14.5005 2.54984 14.9255 2.9665 15.1338L8.00817 17.6588C8.1415 17.7255 8.24984 17.6755 8.29984 17.6505C8.34984 17.6171 8.4415 17.5421 8.4415 17.3921V12.6255C8.4415 12.1588 8.18317 11.7338 7.7665 11.5255L2.72484 9.00046C2.67484 8.97546 2.63317 8.96712 2.5915 8.96712Z" fill="#667085"/>
<path d="M11.8498 18.9343C11.5665 18.9343 11.2831 18.8593 11.0331 18.701C10.5748 18.4176 10.2998 17.926 10.2998 17.3843V12.6176C10.2998 11.676 10.8248 10.826 11.6665 10.401L16.7081 7.87598C17.1915 7.63431 17.7581 7.65931 18.2165 7.94265C18.6748 8.22598 18.9498 8.71765 18.9498 9.25931V14.026C18.9498 14.9676 18.4248 15.8176 17.5831 16.2426L12.5415 18.7676C12.3248 18.8843 12.0831 18.9343 11.8498 18.9343ZM17.4081 8.96765C17.3665 8.96765 17.3248 8.97598 17.2748 9.00098L12.2331 11.526C11.8165 11.7343 11.5581 12.151 11.5581 12.626V17.3926C11.5581 17.5426 11.6498 17.6176 11.6998 17.651C11.7498 17.6843 11.8581 17.726 11.9915 17.6593L17.0331 15.1343C17.4498 14.926 17.7081 14.501 17.7081 14.0343V9.26765C17.7081 9.11765 17.6165 9.04265 17.5665 9.00931C17.5331 8.99265 17.4748 8.96765 17.4081 8.96765Z" fill="#667085"/>
</svg>
