<svg width="20" height="20" viewBox="0 0 20 20" fill="none" xmlns="http://www.w3.org/2000/svg">
<path d="M10.625 7.49984C10.625 7.15466 10.3451 6.87484 9.99996 6.87484C9.65478 6.87484 9.37496 7.15466 9.37496 7.49984L9.37496 9.37486H7.49996C7.15478 9.37486 6.87496 9.65468 6.87496 9.99986C6.87496 10.345 7.15478 10.6249 7.49996 10.6249H9.37496V12.4998C9.37496 12.845 9.65478 13.1248 9.99996 13.1248C10.3451 13.1248 10.625 12.845 10.625 12.4998L10.625 10.6249H12.5C12.8451 10.6249 13.125 10.345 13.125 9.99986C13.125 9.65468 12.8451 9.37486 12.5 9.37486H10.625V7.49984Z" fill="white"/>
<path fill-rule="evenodd" clip-rule="evenodd" d="M9.99996 1.0415C5.05241 1.0415 1.04163 5.05229 1.04163 9.99984C1.04163 14.9474 5.05241 18.9582 9.99996 18.9582C14.9475 18.9582 18.9583 14.9474 18.9583 9.99984C18.9583 5.05229 14.9475 1.0415 9.99996 1.0415ZM2.29163 9.99984C2.29163 5.74264 5.74276 2.2915 9.99996 2.2915C14.2572 2.2915 17.7083 5.74264 17.7083 9.99984C17.7083 14.257 14.2572 17.7082 9.99996 17.7082C5.74276 17.7082 2.29163 14.257 2.29163 9.99984Z" fill="white"/>
</svg>
