<svg width="40" height="56" viewBox="0 0 40 56" fill="none" xmlns="http://www.w3.org/2000/svg">
<rect width="56" height="56" rx="28" fill="#F7F2ED"/>
<path d="M32.6666 22.0007C32.6666 24.578 30.5772 26.6673 27.9999 26.6673C25.4226 26.6673 23.3333 24.578 23.3333 22.0007C23.3333 19.4233 25.4226 17.334 27.9999 17.334C30.5772 17.334 32.6666 19.4233 32.6666 22.0007Z" fill="#F39649"/>
<path opacity="0.5" d="M37.9999 21.9993C37.9999 23.8403 36.5075 25.3327 34.6666 25.3327C32.8256 25.3327 31.3333 23.8403 31.3333 21.9993C31.3333 20.1584 32.8256 18.666 34.6666 18.666C36.5075 18.666 37.9999 20.1584 37.9999 21.9993Z" fill="#F39649"/>
<path opacity="0.5" d="M18.0001 21.9993C18.0001 23.8403 19.4925 25.3327 21.3334 25.3327C23.1744 25.3327 24.6667 23.8403 24.6667 21.9993C24.6667 20.1584 23.1744 18.666 21.3334 18.666C19.4925 18.666 18.0001 20.1584 18.0001 21.9993Z" fill="#F39649"/>
<path d="M36 34.0007C36 36.578 32.4183 38.6673 28 38.6673C23.5817 38.6673 20 36.578 20 34.0007C20 31.4233 23.5817 29.334 28 29.334C32.4183 29.334 36 31.4233 36 34.0007Z" fill="#F39649"/>
<path opacity="0.5" d="M41.3334 33.9993C41.3334 35.8403 38.9456 37.3327 36.0001 37.3327C33.0546 37.3327 30.6667 35.8403 30.6667 33.9993C30.6667 32.1584 33.0546 30.666 36.0001 30.666C38.9456 30.666 41.3334 32.1584 41.3334 33.9993Z" fill="#F39649"/>
<path opacity="0.5" d="M14.6666 33.9993C14.6666 35.8403 17.0544 37.3327 19.9999 37.3327C22.9454 37.3327 25.3333 35.8403 25.3333 33.9993C25.3333 32.1584 22.9454 30.666 19.9999 30.666C17.0544 30.666 14.6666 32.1584 14.6666 33.9993Z" fill="#F39649"/>
</svg>
