<svg width="11" height="12" viewBox="0 0 11 12" fill="none" xmlns="http://www.w3.org/2000/svg">
<g clip-path="url(#clip0_1348_461)">
<path d="M0.5 10.875C0.5 11.4961 1.00391 12 1.625 12H9.875C10.4961 12 11 11.4961 11 10.875V4.5H0.5V10.875ZM8 6.28125C8 6.12656 8.12656 6 8.28125 6H9.21875C9.37344 6 9.5 6.12656 9.5 6.28125V7.21875C9.5 7.37344 9.37344 7.5 9.21875 7.5H8.28125C8.12656 7.5 8 7.37344 8 7.21875V6.28125ZM8 9.28125C8 9.12656 8.12656 9 8.28125 9H9.21875C9.37344 9 9.5 9.12656 9.5 9.28125V10.2188C9.5 10.3734 9.37344 10.5 9.21875 10.5H8.28125C8.12656 10.5 8 10.3734 8 10.2188V9.28125ZM5 6.28125C5 6.12656 5.12656 6 5.28125 6H6.21875C6.37344 6 6.5 6.12656 6.5 6.28125V7.21875C6.5 7.37344 6.37344 7.5 6.21875 7.5H5.28125C5.12656 7.5 5 7.37344 5 7.21875V6.28125ZM5 9.28125C5 9.12656 5.12656 9 5.28125 9H6.21875C6.37344 9 6.5 9.12656 6.5 9.28125V10.2188C6.5 10.3734 6.37344 10.5 6.21875 10.5H5.28125C5.12656 10.5 5 10.3734 5 10.2188V9.28125ZM2 6.28125C2 6.12656 2.12656 6 2.28125 6H3.21875C3.37344 6 3.5 6.12656 3.5 6.28125V7.21875C3.5 7.37344 3.37344 7.5 3.21875 7.5H2.28125C2.12656 7.5 2 7.37344 2 7.21875V6.28125ZM2 9.28125C2 9.12656 2.12656 9 2.28125 9H3.21875C3.37344 9 3.5 9.12656 3.5 9.28125V10.2188C3.5 10.3734 3.37344 10.5 3.21875 10.5H2.28125C2.12656 10.5 2 10.3734 2 10.2188V9.28125ZM9.875 1.5H8.75V0.375C8.75 0.16875 8.58125 0 8.375 0H7.625C7.41875 0 7.25 0.16875 7.25 0.375V1.5H4.25V0.375C4.25 0.16875 4.08125 0 3.875 0H3.125C2.91875 0 2.75 0.16875 2.75 0.375V1.5H1.625C1.00391 1.5 0.5 2.00391 0.5 2.625V3.75H11V2.625C11 2.00391 10.4961 1.5 9.875 1.5Z" fill="#888888"/>
</g>
<defs>
<clipPath id="clip0_1348_461">
<rect width="10.5" height="12" fill="white" transform="translate(0.5)"/>
</clipPath>
</defs>
</svg>
