<svg width="20" height="20" viewBox="0 0 20 20" fill="none" xmlns="http://www.w3.org/2000/svg">
<path d="M14.1667 11.6667C14.6269 11.6667 15 11.2936 15 10.8334C15 10.3731 14.6269 10 14.1667 10C13.7065 10 13.3334 10.3731 13.3334 10.8334C13.3334 11.2936 13.7065 11.6667 14.1667 11.6667Z" fill="#00923F"/>
<path d="M14.1667 15C14.6269 15 15 14.6269 15 14.1667C15 13.7065 14.6269 13.3334 14.1667 13.3334C13.7065 13.3334 13.3334 13.7065 13.3334 14.1667C13.3334 14.6269 13.7065 15 14.1667 15Z" fill="#00923F"/>
<path d="M10.8334 10.8334C10.8334 11.2936 10.4603 11.6667 10 11.6667C9.53978 11.6667 9.16669 11.2936 9.16669 10.8334C9.16669 10.3731 9.53978 10 10 10C10.4603 10 10.8334 10.3731 10.8334 10.8334Z" fill="#00923F"/>
<path d="M10.8334 14.1667C10.8334 14.6269 10.4603 15 10 15C9.53978 15 9.16669 14.6269 9.16669 14.1667C9.16669 13.7065 9.53978 13.3334 10 13.3334C10.4603 13.3334 10.8334 13.7065 10.8334 14.1667Z" fill="#00923F"/>
<path d="M5.83335 11.6667C6.29359 11.6667 6.66669 11.2936 6.66669 10.8334C6.66669 10.3731 6.29359 10 5.83335 10C5.37312 10 5.00002 10.3731 5.00002 10.8334C5.00002 11.2936 5.37312 11.6667 5.83335 11.6667Z" fill="#00923F"/>
<path d="M5.83335 15C6.29359 15 6.66669 14.6269 6.66669 14.1667C6.66669 13.7065 6.29359 13.3334 5.83335 13.3334C5.37312 13.3334 5.00002 13.7065 5.00002 14.1667C5.00002 14.6269 5.37312 15 5.83335 15Z" fill="#00923F"/>
<path fill-rule="evenodd" clip-rule="evenodd" d="M5.83335 1.45837C6.17853 1.45837 6.45835 1.7382 6.45835 2.08337V2.71897C7.01002 2.70836 7.61779 2.70837 8.28624 2.70837H11.7137C12.3822 2.70837 12.99 2.70836 13.5417 2.71897V2.08337C13.5417 1.7382 13.8215 1.45837 14.1667 1.45837C14.5119 1.45837 14.7917 1.7382 14.7917 2.08337V2.77261C15.0083 2.78913 15.2134 2.80989 15.4075 2.83599C16.3846 2.96734 17.1753 3.24411 17.799 3.86774C18.4226 4.49138 18.6994 5.28217 18.8307 6.25919C18.9584 7.20853 18.9584 8.42154 18.9584 9.95299V11.7137C18.9584 13.2452 18.9584 14.4582 18.8307 15.4076C18.6994 16.3846 18.4226 17.1754 17.799 17.799C17.1753 18.4226 16.3846 18.6994 15.4075 18.8308C14.4582 18.9584 13.2452 18.9584 11.7137 18.9584H8.28635C6.75489 18.9584 5.54184 18.9584 4.5925 18.8308C3.61548 18.6994 2.82469 18.4226 2.20106 17.799C1.57742 17.1754 1.30066 16.3846 1.1693 15.4076C1.04166 14.4582 1.04167 13.2452 1.04169 11.7137V9.95303C1.04167 8.42156 1.04166 7.20853 1.1693 6.25919C1.30066 5.28217 1.57742 4.49138 2.20106 3.86774C2.82469 3.24411 3.61548 2.96734 4.5925 2.83599C4.78661 2.80989 4.99174 2.78913 5.20835 2.77261V2.08337C5.20835 1.7382 5.48818 1.45837 5.83335 1.45837ZM4.75906 4.07484C3.92065 4.18756 3.43761 4.39895 3.08494 4.75163C2.73227 5.1043 2.52087 5.58734 2.40815 6.42575C2.38906 6.56774 2.3731 6.71722 2.35976 6.87504H17.6403C17.6269 6.71722 17.611 6.56774 17.5919 6.42575C17.4792 5.58734 17.2678 5.1043 16.9151 4.75163C16.5624 4.39895 16.0794 4.18756 15.241 4.07484C14.3846 3.9597 13.2557 3.95837 11.6667 3.95837H8.33335C6.74434 3.95837 5.61545 3.9597 4.75906 4.07484ZM2.29169 10C2.29169 9.28836 2.29195 8.66898 2.30259 8.12504H17.6974C17.7081 8.66898 17.7084 9.28836 17.7084 10V11.6667C17.7084 13.2557 17.707 14.3846 17.5919 15.241C17.4792 16.0794 17.2678 16.5624 16.9151 16.9151C16.5624 17.2678 16.0794 17.4792 15.241 17.5919C14.3846 17.707 13.2557 17.7084 11.6667 17.7084H8.33335C6.74434 17.7084 5.61545 17.707 4.75906 17.5919C3.92065 17.4792 3.43761 17.2678 3.08494 16.9151C2.73227 16.5624 2.52087 16.0794 2.40815 15.241C2.29301 14.3846 2.29169 13.2557 2.29169 11.6667V10Z" fill="#00923F"/>
</svg>
