<svg width="17" height="18" viewBox="0 0 17 18" fill="none" xmlns="http://www.w3.org/2000/svg">
<path fill-rule="evenodd" clip-rule="evenodd" d="M7.32796 0.932685C8.06914 0.578428 8.93078 0.578428 9.67196 0.932685C9.99395 1.08659 10.289 1.33825 10.6975 1.68672C10.7187 1.70481 10.7403 1.72315 10.7621 1.74176C10.9605 1.91084 11.023 1.96283 11.0862 2.0052C11.247 2.11298 11.4276 2.18779 11.6175 2.22528C11.6922 2.24002 11.7731 2.24745 12.033 2.26818C12.0616 2.27046 12.0898 2.2727 12.1175 2.2749C12.6528 2.31738 13.0394 2.34805 13.3759 2.46691C14.1505 2.74051 14.7598 3.34978 15.0334 4.12437C15.1522 4.46088 15.1829 4.84746 15.2254 5.38275C15.2276 5.41053 15.2298 5.43871 15.2321 5.46731C15.2528 5.72716 15.2603 5.8081 15.275 5.88277C15.3125 6.07269 15.3873 6.25328 15.4951 6.41409C15.5375 6.47731 15.5894 6.5398 15.7585 6.7382C15.7771 6.76004 15.7955 6.78156 15.8136 6.80277C16.162 7.2113 16.4137 7.50634 16.5676 7.82833C16.9219 8.56951 16.9219 9.43115 16.5676 10.1723C16.4137 10.4943 16.162 10.7894 15.8136 11.1979C15.7955 11.2191 15.7771 11.2406 15.7585 11.2625C15.5894 11.4609 15.5375 11.5233 15.4951 11.5866C15.3873 11.7474 15.3125 11.928 15.275 12.1179C15.2603 12.1926 15.2528 12.2735 15.2321 12.5333C15.2298 12.5619 15.2276 12.5901 15.2254 12.6179C15.1829 13.1532 15.1522 13.5398 15.0334 13.8763C14.7598 14.6509 14.1505 15.2601 13.3759 15.5337C13.0394 15.6526 12.6528 15.6833 12.1175 15.7257C12.0898 15.728 12.0616 15.7302 12.033 15.7325C11.7731 15.7532 11.6922 15.7606 11.6175 15.7754C11.4276 15.8129 11.247 15.8877 11.0862 15.9955C11.023 16.0378 10.9605 16.0898 10.7621 16.2589C10.7402 16.2775 10.7187 16.2959 10.6975 16.3139C10.289 16.6624 9.99395 16.9141 9.67196 17.068C8.93078 17.4222 8.06914 17.4222 7.32796 17.068C7.00597 16.9141 6.71092 16.6624 6.30238 16.3139C6.28118 16.2958 6.25967 16.2775 6.23783 16.2589C6.03943 16.0898 5.97695 16.0378 5.91372 15.9955C5.75292 15.8877 5.57233 15.8129 5.38241 15.7754C5.30774 15.7606 5.22679 15.7532 4.96695 15.7325C4.93835 15.7302 4.91016 15.728 4.88238 15.7257C4.3471 15.6833 3.96051 15.6526 3.624 15.5337C2.84942 15.2601 2.24014 14.6509 1.96655 13.8763C1.84769 13.5398 1.81701 13.1532 1.77454 12.6179C1.77233 12.5901 1.7701 12.5619 1.76781 12.5333C1.74708 12.2735 1.73966 12.1926 1.72492 12.1179C1.68742 11.928 1.61262 11.7474 1.50484 11.5866C1.46246 11.5233 1.41048 11.4609 1.2414 11.2625C1.22279 11.2406 1.20444 11.2191 1.18636 11.1979C0.837887 10.7894 0.586221 10.4943 0.432319 10.1723C0.0780615 9.43115 0.0780615 8.5695 0.432319 7.82833C0.586221 7.50633 0.837884 7.21129 1.18635 6.80275C1.20444 6.78155 1.22279 6.76004 1.2414 6.7382C1.41047 6.5398 1.46246 6.47731 1.50484 6.41409C1.61262 6.25328 1.68742 6.07269 1.72492 5.88277C1.73966 5.8081 1.74708 5.72716 1.76781 5.46731C1.7701 5.43871 1.77233 5.41053 1.77454 5.38275C1.81701 4.84746 1.84769 4.46088 1.96655 4.12437C2.24014 3.34978 2.84942 2.74051 3.62401 2.46691C3.96051 2.34805 4.3471 2.31738 4.88238 2.2749C4.91016 2.2727 4.93835 2.27046 4.96695 2.26818C5.2268 2.24745 5.30774 2.24002 5.38241 2.22528C5.57233 2.18779 5.75292 2.11298 5.91372 2.0052C5.97695 1.96283 6.03943 1.91084 6.23783 1.74176C6.25967 1.72315 6.28118 1.70481 6.30239 1.68672C6.71092 1.33825 7.00597 1.08659 7.32796 0.932685ZM9.13104 2.06441C8.73194 1.87365 8.26798 1.87365 7.86888 2.06441C7.71459 2.13815 7.55195 2.26992 7.05142 2.69647C7.0432 2.70347 7.03509 2.71039 7.02709 2.71721C6.86283 2.85725 6.74292 2.95947 6.61209 3.04716C6.31345 3.24732 5.97807 3.38624 5.62536 3.45588C5.47084 3.48638 5.31377 3.49889 5.0986 3.51601C5.08812 3.51685 5.07749 3.51769 5.06673 3.51855C4.41119 3.57087 4.20301 3.59269 4.04176 3.64965C3.62467 3.79697 3.2966 4.12504 3.14928 4.54213C3.09233 4.70338 3.0705 4.91156 3.01819 5.56709C3.01733 5.57786 3.01648 5.58848 3.01565 5.59897C2.99852 5.81414 2.98602 5.9712 2.95551 6.12572C2.88588 6.47843 2.74695 6.81382 2.54679 7.11246C2.4591 7.24329 2.35688 7.3632 2.21684 7.52746C2.21002 7.53546 2.2031 7.54357 2.1961 7.55179C1.76956 8.05231 1.63779 8.21495 1.56404 8.36925C1.37328 8.76834 1.37328 9.23231 1.56404 9.6314C1.63779 9.7857 1.76956 9.94834 2.1961 10.4489C2.20311 10.4571 2.21002 10.4652 2.21684 10.4732C2.35688 10.6375 2.4591 10.7574 2.54679 10.8882C2.74695 11.1868 2.88588 11.5222 2.95551 11.8749C2.98602 12.0294 2.99852 12.1865 3.01565 12.4017C3.01648 12.4122 3.01733 12.4228 3.01819 12.4336C3.0705 13.0891 3.09233 13.2973 3.14928 13.4585C3.2966 13.8756 3.62467 14.2037 4.04176 14.351C4.20301 14.408 4.41119 14.4298 5.06673 14.4821L5.0986 14.4846C5.31377 14.5018 5.47084 14.5143 5.62536 14.5448C5.97807 14.6144 6.31345 14.7533 6.61209 14.9535C6.74293 15.0412 6.86283 15.1434 7.0271 15.2835L7.05142 15.3042C7.55195 15.7307 7.71459 15.8625 7.86888 15.9362C8.26798 16.127 8.73194 16.127 9.13104 15.9362C9.28533 15.8625 9.44797 15.7307 9.9485 15.3042L9.97284 15.2834C10.1371 15.1434 10.257 15.0412 10.3878 14.9535C10.6865 14.7533 11.0219 14.6144 11.3746 14.5448C11.5291 14.5143 11.6861 14.5018 11.9013 14.4846L11.9332 14.4821C12.5887 14.4298 12.7969 14.408 12.9582 14.351C13.3752 14.2037 13.7033 13.8756 13.8506 13.4585C13.9076 13.2973 13.9294 13.0891 13.9817 12.4336L13.9843 12.4017C14.0014 12.1865 14.0139 12.0294 14.0444 11.8749C14.114 11.5222 14.253 11.1868 14.4531 10.8882C14.5408 10.7574 14.643 10.6375 14.7831 10.4732L14.8038 10.4489C15.2304 9.94834 15.3621 9.7857 15.4359 9.6314C15.6266 9.23231 15.6266 8.76835 15.4359 8.36925C15.3621 8.21495 15.2304 8.05231 14.8038 7.55179L14.7831 7.52744C14.643 7.36319 14.5408 7.24329 14.4531 7.11246C14.253 6.81382 14.114 6.47843 14.0444 6.12572C14.0139 5.9712 14.0014 5.81414 13.9843 5.59896L13.9817 5.56709C13.9294 4.91156 13.9076 4.70338 13.8506 4.54213C13.7033 4.12504 13.3752 3.79697 12.9582 3.64965C12.7969 3.59269 12.5887 3.57087 11.9332 3.51855C11.9224 3.51769 11.9118 3.51685 11.9013 3.51601C11.6861 3.49889 11.5291 3.48638 11.3746 3.45588C11.0219 3.38624 10.6865 3.24732 10.3878 3.04716C10.257 2.95947 10.1371 2.85724 9.97283 2.7172C9.96482 2.71038 9.95672 2.70347 9.9485 2.69647C9.44797 2.26992 9.28533 2.13815 9.13104 2.06441ZM11.8702 6.46627C12.1152 6.7112 12.1152 7.1083 11.8702 7.35323L7.68909 11.5344C7.44417 11.7793 7.04706 11.7793 6.80213 11.5344L5.12967 9.86192C4.88475 9.61699 4.88475 9.21989 5.12967 8.97496C5.3746 8.73004 5.7717 8.73004 6.01663 8.97496L7.24561 10.2039L10.9833 6.46627C11.2282 6.22134 11.6253 6.22134 11.8702 6.46627Z" fill="white"/>
</svg>
