<svg width="20" height="20" viewBox="0 0 20 20" fill="none" xmlns="http://www.w3.org/2000/svg">
<path opacity="0.5" d="M9.99996 18.3327C14.6023 18.3327 18.3333 14.6017 18.3333 9.99935C18.3333 5.39698 14.6023 1.66602 9.99996 1.66602C5.39759 1.66602 1.66663 5.39698 1.66663 9.99935C1.66663 14.6017 5.39759 18.3327 9.99996 18.3327Z" fill="#76D4F5"/>
<path fill-rule="evenodd" clip-rule="evenodd" d="M10 6.04102C10.3452 6.04102 10.625 6.32084 10.625 6.66602V9.74047L12.5253 11.6407C12.7694 11.8848 12.7694 12.2805 12.5253 12.5246C12.2812 12.7687 11.8855 12.7687 11.6414 12.5246L9.55806 10.4413C9.44085 10.3241 9.375 10.1651 9.375 9.99935V6.66602C9.375 6.32084 9.65482 6.04102 10 6.04102Z" fill="#76D4F5"/>
</svg>
