<svg width="20" height="20" viewBox="0 0 20 20" fill="none" xmlns="http://www.w3.org/2000/svg">
<path d="M8.35842 7.47479C8.11434 7.23072 7.71862 7.23072 7.47454 7.47479C7.23046 7.71887 7.23046 8.1146 7.47454 8.35868L9.11594 10.0001L7.47455 11.6415C7.23048 11.8855 7.23048 12.2813 7.47455 12.5253C7.71863 12.7694 8.11436 12.7694 8.35844 12.5253L9.99982 10.884L11.6412 12.5253C11.8853 12.7694 12.281 12.7694 12.5251 12.5253C12.7691 12.2813 12.7691 11.8855 12.5251 11.6414L10.8837 10.0001L12.5251 8.35869C12.7692 8.11462 12.7692 7.71889 12.5251 7.47481C12.281 7.23073 11.8853 7.23073 11.6412 7.47481L9.99982 9.11619L8.35842 7.47479Z" fill="white"/>
<path fill-rule="evenodd" clip-rule="evenodd" d="M9.99984 1.04175C5.05229 1.04175 1.0415 5.05253 1.0415 10.0001C1.0415 14.9476 5.05229 18.9584 9.99984 18.9584C14.9474 18.9584 18.9582 14.9476 18.9582 10.0001C18.9582 5.05253 14.9474 1.04175 9.99984 1.04175ZM2.2915 10.0001C2.2915 5.74289 5.74264 2.29175 9.99984 2.29175C14.257 2.29175 17.7082 5.74289 17.7082 10.0001C17.7082 14.2573 14.257 17.7084 9.99984 17.7084C5.74264 17.7084 2.2915 14.2573 2.2915 10.0001Z" fill="white"/>
</svg>
