<svg width="44" height="44" viewBox="0 0 44 44" fill="none" xmlns="http://www.w3.org/2000/svg">
<rect width="44" height="44" rx="8" fill="#E5FCF2"/>
<path d="M30 16.75C31.5188 16.75 32.75 15.5188 32.75 14C32.75 12.4812 31.5188 11.25 30 11.25C28.4812 11.25 27.25 12.4812 27.25 14C27.25 15.5188 28.4812 16.75 30 16.75Z" fill="#1AB65C"/>
<path opacity="0.4" d="M30 18C27.79 18 26 16.21 26 14C26 13.27 26.21 12.59 26.56 12H17C14.24 12 12 14.23 12 16.98V22.96V23.96C12 26.71 14.24 28.94 17 28.94H18.5C18.77 28.94 19.13 29.12 19.3 29.34L20.8 31.33C21.46 32.21 22.54 32.21 23.2 31.33L24.7 29.34C24.89 29.09 25.19 28.94 25.5 28.94H27C29.76 28.94 32 26.71 32 23.96V17.44C31.41 17.79 30.73 18 30 18Z" fill="#1AB65C"/>
<path d="M22 22C21.44 22 21 21.55 21 21C21 20.45 21.45 20 22 20C22.55 20 23 20.45 23 21C23 21.55 22.56 22 22 22Z" fill="#1AB65C"/>
<path d="M26 22C25.44 22 25 21.55 25 21C25 20.45 25.45 20 26 20C26.55 20 27 20.45 27 21C27 21.55 26.56 22 26 22Z" fill="#1AB65C"/>
<path d="M18 22C17.44 22 17 21.55 17 21C17 20.45 17.45 20 18 20C18.55 20 19 20.45 19 21C19 21.55 18.56 22 18 22Z" fill="#1AB65C"/>
</svg>
