<svg width="44" height="44" viewBox="0 0 44 44" fill="none" xmlns="http://www.w3.org/2000/svg">
<rect width="44" height="44" rx="8" fill="#151619"/>
<path opacity="0.4" d="M26.19 12H17.81C14.17 12 12 14.17 12 17.81V26.18C12 29.83 14.17 32 17.81 32H26.18C29.82 32 31.99 29.83 31.99 26.19V17.81C32 14.17 29.83 12 26.19 12Z" fill="white"/>
<path d="M17 24.35C16.59 24.35 16.25 24.01 16.25 23.6V20.4C16.25 19.99 16.59 19.65 17 19.65C17.41 19.65 17.75 19.99 17.75 20.4V23.61C17.75 24.02 17.41 24.35 17 24.35Z" fill="white"/>
<path d="M22 26.09C21.59 26.09 21.25 25.75 21.25 25.34V18.66C21.25 18.25 21.59 17.91 22 17.91C22.41 17.91 22.75 18.25 22.75 18.66V25.34C22.75 25.75 22.41 26.09 22 26.09Z" fill="white"/>
<path d="M27 24.35C26.59 24.35 26.25 24.01 26.25 23.6V20.4C26.25 19.99 26.59 19.65 27 19.65C27.41 19.65 27.75 19.99 27.75 20.4V23.61C27.75 24.02 27.41 24.35 27 24.35Z" fill="white"/>
</svg>
