<svg width="44" height="44" viewBox="0 0 44 44" fill="none" xmlns="http://www.w3.org/2000/svg">
<rect width="44" height="44" rx="8" fill="#E5FCF2"/>
<path opacity="0.4" d="M19 12C16.38 12 14.25 14.13 14.25 16.75C14.25 19.32 16.26 21.4 18.88 21.49C18.96 21.48 19.04 21.48 19.1 21.49C19.12 21.49 19.13 21.49 19.15 21.49C19.16 21.49 19.16 21.49 19.17 21.49C21.73 21.4 23.74 19.32 23.75 16.75C23.75 14.13 21.62 12 19 12Z" fill="#1AB65C"/>
<path d="M24.08 24.1499C21.29 22.2899 16.74 22.2899 13.93 24.1499C12.66 24.9999 11.96 26.1499 11.96 27.3799C11.96 28.6099 12.66 29.7499 13.92 30.5899C15.32 31.5299 17.16 31.9999 19 31.9999C20.84 31.9999 22.68 31.5299 24.08 30.5899C25.34 29.7399 26.04 28.5999 26.04 27.3599C26.03 26.1299 25.34 24.9899 24.08 24.1499Z" fill="#1AB65C"/>
<path opacity="0.4" d="M29.9899 17.3401C30.1499 19.2801 28.7699 20.9801 26.8599 21.2101C26.8499 21.2101 26.8499 21.2101 26.8399 21.2101H26.8099C26.7499 21.2101 26.6899 21.2101 26.6399 21.2301C25.6699 21.2801 24.7799 20.9701 24.1099 20.4001C25.1399 19.4801 25.7299 18.1001 25.6099 16.6001C25.5399 15.7901 25.2599 15.0501 24.8399 14.4201C25.2199 14.2301 25.6599 14.1101 26.1099 14.0701C28.0699 13.9001 29.8199 15.3601 29.9899 17.3401Z" fill="#1AB65C"/>
<path d="M31.9902 26.5899C31.9102 27.5599 31.2902 28.3999 30.2502 28.9699C29.2502 29.5199 27.9902 29.7799 26.7402 29.7499C27.4602 29.0999 27.8802 28.2899 27.9602 27.4299C28.0602 26.1899 27.4702 24.9999 26.2902 24.0499C25.6202 23.5199 24.8402 23.0999 23.9902 22.7899C26.2002 22.1499 28.9802 22.5799 30.6902 23.9599C31.6102 24.6999 32.0802 25.6299 31.9902 26.5899Z" fill="#1AB65C"/>
</svg>
