<svg width="20" height="20" viewBox="0 0 20 20" fill="none" xmlns="http://www.w3.org/2000/svg">
<path opacity="0.5" d="M1.66663 10C1.66663 11.3662 2.02076 11.8263 2.72904 12.7464C4.14326 14.5837 6.51505 16.6667 9.99996 16.6667C13.4849 16.6667 15.8567 14.5837 17.2709 12.7464C17.9792 11.8263 18.3333 11.3662 18.3333 10C18.3333 8.63389 17.9792 8.17381 17.2709 7.25365C15.8567 5.41634 13.4849 3.33337 9.99996 3.33337C6.51505 3.33337 4.14326 5.41634 2.72904 7.25365C2.02076 8.17381 1.66663 8.63389 1.66663 10Z" fill="#5CB85C"/>
<path fill-rule="evenodd" clip-rule="evenodd" d="M6.875 10C6.875 8.27411 8.27411 6.875 10 6.875C11.7259 6.875 13.125 8.27411 13.125 10C13.125 11.7259 11.7259 13.125 10 13.125C8.27411 13.125 6.875 11.7259 6.875 10ZM8.125 10C8.125 8.96447 8.96447 8.125 10 8.125C11.0355 8.125 11.875 8.96447 11.875 10C11.875 11.0355 11.0355 11.875 10 11.875C8.96447 11.875 8.125 11.0355 8.125 10Z" fill="#5CB85C"/>
</svg>
