<svg width="20" height="20" viewBox="0 0 20 20" fill="none" xmlns="http://www.w3.org/2000/svg">
<path opacity="0.5" d="M1.66675 9.99967C1.66675 11.3658 2.02088 11.8259 2.72916 12.7461C4.14339 14.5834 6.51518 16.6663 10.0001 16.6663C13.485 16.6663 15.8568 14.5834 17.271 12.7461C17.9793 11.8259 18.3334 11.3658 18.3334 9.99967C18.3334 8.63353 17.9793 8.17345 17.271 7.25328C15.8568 5.41597 13.485 3.33301 10.0001 3.33301C6.51518 3.33301 4.14338 5.41597 2.72916 7.25328C2.02088 8.17345 1.66675 8.63353 1.66675 9.99967Z" fill="#5CB85C"/>
<path fill-rule="evenodd" clip-rule="evenodd" d="M6.875 10C6.875 8.27411 8.27411 6.875 10 6.875C11.7259 6.875 13.125 8.27411 13.125 10C13.125 11.7259 11.7259 13.125 10 13.125C8.27411 13.125 6.875 11.7259 6.875 10ZM8.125 10C8.125 8.96447 8.96447 8.125 10 8.125C11.0355 8.125 11.875 8.96447 11.875 10C11.875 11.0355 11.0355 11.875 10 11.875C8.96447 11.875 8.125 11.0355 8.125 10Z" fill="#5CB85C"/>
</svg>
