<svg width="16" height="16" viewBox="0 0 16 16" fill="none" xmlns="http://www.w3.org/2000/svg">
<path fill-rule="evenodd" clip-rule="evenodd" d="M7.67453 4.28706C7.86178 4.12656 8.13808 4.12656 8.32532 4.28706L12.992 8.28706C13.2017 8.46677 13.2259 8.78242 13.0462 8.99208C12.8665 9.20175 12.5509 9.22603 12.3412 9.04632L7.99993 5.32523L3.65866 9.04632C3.44899 9.22603 3.13334 9.20175 2.95363 8.99208C2.77392 8.78242 2.7982 8.46677 3.00787 8.28706L7.67453 4.28706ZM3.00787 10.9537L7.67453 6.95373C7.86178 6.79323 8.13808 6.79323 8.32532 6.95373L12.992 10.9537C13.2017 11.1334 13.2259 11.4491 13.0462 11.6587C12.8665 11.8684 12.5509 11.8927 12.3412 11.713L7.99993 7.99189L3.65866 11.713C3.44899 11.8927 3.13334 11.8684 2.95363 11.6587C2.77392 11.4491 2.7982 11.1334 3.00787 10.9537Z" fill="#EC3832"/>
</svg>
