<svg width="16" height="16" viewBox="0 0 16 16" fill="none" xmlns="http://www.w3.org/2000/svg">
<path fill-rule="evenodd" clip-rule="evenodd" d="M2.95375 4.3413C3.13347 4.13164 3.44912 4.10736 3.65878 4.28707L8.00005 8.00816L12.3413 4.28707C12.551 4.10736 12.8666 4.13164 13.0463 4.3413C13.2261 4.55096 13.2018 4.86661 12.9921 5.04632L8.32545 9.04632C8.1382 9.20682 7.8619 9.20682 7.67465 9.04632L3.00799 5.04632C2.79832 4.86661 2.77404 4.55096 2.95375 4.3413ZM2.95375 7.00797C3.13347 6.7983 3.44912 6.77402 3.65878 6.95373L8.00005 10.6748L12.3413 6.95373C12.551 6.77402 12.8666 6.7983 13.0463 7.00797C13.2261 7.21763 13.2018 7.53328 12.9921 7.71299L8.32545 11.713C8.1382 11.8735 7.8619 11.8735 7.67465 11.713L3.00799 7.71299C2.79832 7.53328 2.77404 7.21763 2.95375 7.00797Z" fill="#5CB85C"/>
</svg>
