<svg width="20" height="20" viewBox="0 0 20 20" fill="none" xmlns="http://www.w3.org/2000/svg">
<path d="M9.99996 5.20768C10.3451 5.20768 10.625 5.4875 10.625 5.83268V10.1571L12.058 8.72407C12.3021 8.48 12.6978 8.48 12.9419 8.72407C13.186 8.96815 13.186 9.36388 12.9419 9.60796L10.4419 12.108C10.3247 12.2252 10.1657 12.291 9.99996 12.291C9.8342 12.291 9.67523 12.2252 9.55802 12.108L7.05802 9.60796C6.81394 9.36388 6.81394 8.96815 7.05802 8.72407C7.3021 8.48 7.69782 8.48 7.9419 8.72407L9.37496 10.1571V5.83268C9.37496 5.4875 9.65478 5.20768 9.99996 5.20768Z" fill="#5CB85C"/>
<path d="M6.04163 14.166C6.04163 13.8208 6.32145 13.541 6.66663 13.541H13.3333C13.6785 13.541 13.9583 13.8208 13.9583 14.166C13.9583 14.5112 13.6785 14.791 13.3333 14.791H6.66663C6.32145 14.791 6.04163 14.5112 6.04163 14.166Z" fill="#5CB85C"/>
<path fill-rule="evenodd" clip-rule="evenodd" d="M9.95214 1.04102C8.02848 1.04101 6.52095 1.041 5.34471 1.19914C4.14077 1.361 3.19075 1.69879 2.44507 2.44446C1.6994 3.19014 1.36161 4.14016 1.19975 5.3441C1.04161 6.52034 1.04162 8.02787 1.04163 9.95153V10.0472C1.04162 11.9708 1.04161 13.4784 1.19975 14.6546C1.36161 15.8585 1.6994 16.8086 2.44507 17.5542C3.19075 18.2999 4.14077 18.6377 5.34471 18.7996C6.52095 18.9577 8.02849 18.9577 9.95215 18.9577H10.0478C11.9714 18.9577 13.479 18.9577 14.6552 18.7996C15.8592 18.6377 16.8092 18.2999 17.5548 17.5542C18.3005 16.8086 18.6383 15.8585 18.8002 14.6546C18.9583 13.4784 18.9583 11.9708 18.9583 10.0472V9.95154C18.9583 8.02788 18.9583 6.52034 18.8002 5.3441C18.6383 4.14016 18.3005 3.19014 17.5548 2.44446C16.8092 1.69879 15.8592 1.361 14.6552 1.19914C13.479 1.041 11.9714 1.04101 10.0478 1.04102H9.95214ZM3.32896 3.32835C3.80367 2.85363 4.44594 2.58122 5.51127 2.43799C6.59459 2.29234 8.01811 2.29102 9.99996 2.29102C11.9818 2.29102 13.4053 2.29234 14.4886 2.43799C15.554 2.58122 16.1962 2.85363 16.671 3.32835C17.1457 3.80306 17.4181 4.44533 17.5613 5.51066C17.707 6.59398 17.7083 8.0175 17.7083 9.99935C17.7083 11.9812 17.707 13.4047 17.5613 14.488C17.4181 15.5534 17.1457 16.1956 16.671 16.6704C16.1962 17.1451 15.554 17.4175 14.4886 17.5607C13.4053 17.7064 11.9818 17.7077 9.99996 17.7077C8.01811 17.7077 6.59459 17.7064 5.51127 17.5607C4.44594 17.4175 3.80367 17.1451 3.32896 16.6704C2.85424 16.1956 2.58183 15.5534 2.4386 14.488C2.29295 13.4047 2.29163 11.9812 2.29163 9.99935C2.29163 8.0175 2.29295 6.59398 2.4386 5.51066C2.58183 4.44533 2.85424 3.80306 3.32896 3.32835Z" fill="#5CB85C"/>
</svg>
