<svg width="21" height="20" viewBox="0 0 21 20" fill="none" xmlns="http://www.w3.org/2000/svg">
<path fill-rule="evenodd" clip-rule="evenodd" d="M10.4998 1.66699C7.05565 1.66699 5.33355 1.66699 4.83171 2.74964C4.78858 2.84271 4.75218 2.93937 4.72288 3.03874C4.38198 4.19474 5.59968 5.53459 8.03509 8.21428L9.6665 10.0003H11.3332L12.9646 8.21428C15.4 5.53458 16.6177 4.19474 16.2768 3.03874C16.2475 2.93937 16.2111 2.84271 16.168 2.74964C15.6661 1.66699 13.944 1.66699 10.4998 1.66699ZM8.83317 3.95866C8.48799 3.95866 8.20817 4.23848 8.20817 4.58366C8.20817 4.92884 8.48799 5.20866 8.83317 5.20866H12.1665C12.5117 5.20866 12.7915 4.92884 12.7915 4.58366C12.7915 4.23848 12.5117 3.95866 12.1665 3.95866H8.83317Z" fill="white"/>
<path opacity="0.5" d="M4.83171 17.2507C5.33355 18.3333 7.05565 18.3333 10.4998 18.3333C13.944 18.3333 15.6661 18.3333 16.168 17.2507C16.2111 17.1576 16.2475 17.061 16.2768 16.9616C16.6177 15.8056 15.4 14.4657 12.9646 11.786L11.3332 10H9.6665L8.03509 11.786C5.59968 14.4657 4.38198 15.8056 4.72288 16.9616C4.75218 17.061 4.78858 17.1576 4.83171 17.2507Z" fill="white"/>
<path d="M8.8335 14.792C8.48832 14.792 8.2085 15.0718 8.2085 15.417C8.2085 15.7622 8.48832 16.042 8.8335 16.042H12.1668C12.512 16.042 12.7918 15.7622 12.7918 15.417C12.7918 15.0718 12.512 14.792 12.1668 14.792H8.8335Z" fill="white"/>
</svg>
