<svg width="20" height="20" viewBox="0 0 20 20" fill="none" xmlns="http://www.w3.org/2000/svg">
<path fill-rule="evenodd" clip-rule="evenodd" d="M9.94788 1.04199H10.0519C11.73 1.04198 13.0544 1.04197 14.019 1.16915C14.9672 1.29416 15.8191 1.56965 16.2237 2.35521C16.2819 2.46839 16.3311 2.586 16.3708 2.70695C16.6468 3.54943 16.2383 4.34521 15.6565 5.0984C15.0648 5.86436 14.1279 6.79208 12.9418 7.96663L10.8881 10.0003L12.9418 12.034C14.1279 13.2086 15.0648 14.1363 15.6565 14.9023C16.2383 15.6554 16.6468 16.4512 16.3708 17.2937C16.3311 17.4147 16.2819 17.5323 16.2237 17.6454C15.8191 18.431 14.9672 18.7065 14.019 18.8315C13.0544 18.9587 11.73 18.9587 10.0519 18.9587H9.9479C8.26978 18.9587 6.94539 18.9587 5.98076 18.8315C5.03262 18.7065 4.18073 18.431 3.77613 17.6454C3.71784 17.5323 3.66864 17.4146 3.62901 17.2937C3.35296 16.4512 3.76147 15.6554 4.34332 14.9023C4.93503 14.1363 5.87189 13.2086 7.05799 12.034L9.11166 10.0003L7.058 7.96664C5.87189 6.79208 4.93503 5.86436 4.34332 5.0984C3.76147 4.34521 3.35296 3.54943 3.62901 2.70695C3.66864 2.586 3.71784 2.46839 3.77614 2.35521C4.18073 1.56965 5.03262 1.29416 5.98076 1.16915C6.94539 1.04197 8.26977 1.04198 9.94788 1.04199ZM9.9999 9.12073L12.0249 7.11545C13.2565 5.89583 14.1327 5.0262 14.6673 4.33422C15.2179 3.62145 15.2478 3.2941 15.1829 3.09618C15.1639 3.03827 15.1404 2.98188 15.1124 2.92755C15.0151 2.73872 14.7551 2.52702 13.8556 2.40843C12.9827 2.29333 11.7413 2.29199 9.9999 2.29199C8.25848 2.29199 7.01713 2.29333 6.14415 2.40843C5.24473 2.52702 4.98466 2.73872 4.88741 2.92755C4.85942 2.98188 4.83584 3.03827 4.81687 3.09618C4.75202 3.2941 4.7819 3.62145 5.33253 4.33422C5.86709 5.0262 6.74332 5.89583 7.97492 7.11545L9.9999 9.12073ZM9.9999 10.8799L7.97492 12.8852C6.74332 14.1048 5.86709 14.9745 5.33253 15.6664C4.7819 16.3792 4.75202 16.7066 4.81687 16.9045C4.83584 16.9624 4.85942 17.0188 4.88741 17.0731C4.98466 17.2619 5.24473 17.4736 6.14415 17.5922C7.01713 17.7073 8.25848 17.7087 9.9999 17.7087C11.7413 17.7087 12.9827 17.7073 13.8556 17.5922C14.7551 17.4736 15.0151 17.2619 15.1124 17.0731C15.1404 17.0188 15.1639 16.9624 15.1829 16.9045C15.2478 16.7066 15.2179 16.3792 14.6673 15.6664C14.1327 14.9745 13.2565 14.1048 12.0249 12.8852L9.9999 10.8799ZM7.70823 4.58366C7.70823 4.23848 7.98805 3.95866 8.33323 3.95866H11.6666C12.0117 3.95866 12.2916 4.23848 12.2916 4.58366C12.2916 4.92884 12.0117 5.20866 11.6666 5.20866H8.33323C7.98805 5.20866 7.70823 4.92884 7.70823 4.58366ZM7.70823 15.417C7.70823 15.0718 7.98805 14.792 8.33323 14.792H11.6666C12.0117 14.792 12.2916 15.0718 12.2916 15.417C12.2916 15.7622 12.0117 16.042 11.6666 16.042H8.33323C7.98805 16.042 7.70823 15.7622 7.70823 15.417Z" fill="#ED4040"/>
</svg>
