<svg width="21" height="20" viewBox="0 0 21 20" fill="none" xmlns="http://www.w3.org/2000/svg">
<path fill-rule="evenodd" clip-rule="evenodd" d="M10.4479 1.04199H10.5519C12.23 1.04198 13.5544 1.04197 14.519 1.16915C15.4672 1.29416 16.3191 1.56965 16.7237 2.35521C16.7819 2.46839 16.8311 2.586 16.8708 2.70695C17.1468 3.54943 16.7383 4.34521 16.1565 5.0984C15.5648 5.86436 14.6279 6.79208 13.4418 7.96663L11.3881 10.0003L13.4418 12.034C14.6279 13.2086 15.5648 14.1363 16.1565 14.9023C16.7383 15.6554 17.1468 16.4512 16.8708 17.2937C16.8311 17.4147 16.7819 17.5323 16.7237 17.6454C16.3191 18.431 15.4672 18.7065 14.519 18.8315C13.5544 18.9587 12.23 18.9587 10.5519 18.9587H10.4479C8.76978 18.9587 7.44539 18.9587 6.48076 18.8315C5.53262 18.7065 4.68073 18.431 4.27613 17.6454C4.21784 17.5323 4.16864 17.4146 4.12901 17.2937C3.85296 16.4512 4.26147 15.6554 4.84332 14.9023C5.43503 14.1363 6.37189 13.2086 7.55799 12.034L9.61166 10.0003L7.558 7.96664C6.37189 6.79208 5.43503 5.86436 4.84332 5.0984C4.26147 4.34521 3.85296 3.54943 4.12901 2.70695C4.16864 2.586 4.21784 2.46839 4.27614 2.35521C4.68073 1.56965 5.53262 1.29416 6.48076 1.16915C7.44539 1.04197 8.76977 1.04198 10.4479 1.04199ZM10.4999 9.12073L12.5249 7.11545C13.7565 5.89583 14.6327 5.0262 15.1673 4.33422C15.7179 3.62145 15.7478 3.2941 15.6829 3.09618C15.6639 3.03827 15.6404 2.98188 15.6124 2.92755C15.5151 2.73872 15.2551 2.52702 14.3556 2.40843C13.4827 2.29333 12.2413 2.29199 10.4999 2.29199C8.75848 2.29199 7.51713 2.29333 6.64415 2.40843C5.74473 2.52702 5.48466 2.73872 5.38741 2.92755C5.35942 2.98188 5.33584 3.03827 5.31687 3.09618C5.25202 3.2941 5.2819 3.62145 5.83253 4.33422C6.36709 5.0262 7.24332 5.89583 8.47492 7.11545L10.4999 9.12073ZM10.4999 10.8799L8.47492 12.8852C7.24332 14.1048 6.36709 14.9745 5.83253 15.6664C5.2819 16.3792 5.25202 16.7066 5.31687 16.9045C5.33584 16.9624 5.35942 17.0188 5.38741 17.0731C5.48466 17.2619 5.74473 17.4736 6.64415 17.5922C7.51713 17.7073 8.75848 17.7087 10.4999 17.7087C12.2413 17.7087 13.4827 17.7073 14.3556 17.5922C15.2551 17.4736 15.5151 17.2619 15.6124 17.0731C15.6404 17.0188 15.6639 16.9624 15.6829 16.9045C15.7478 16.7066 15.7179 16.3792 15.1673 15.6664C14.6327 14.9745 13.7565 14.1048 12.5249 12.8852L10.4999 10.8799ZM8.20823 4.58366C8.20823 4.23848 8.48805 3.95866 8.83323 3.95866H12.1666C12.5117 3.95866 12.7916 4.23848 12.7916 4.58366C12.7916 4.92884 12.5117 5.20866 12.1666 5.20866H8.83323C8.48805 5.20866 8.20823 4.92884 8.20823 4.58366ZM8.20823 15.417C8.20823 15.0718 8.48805 14.792 8.83323 14.792H12.1666C12.5117 14.792 12.7916 15.0718 12.7916 15.417C12.7916 15.7622 12.5117 16.042 12.1666 16.042H8.83323C8.48805 16.042 8.20823 15.7622 8.20823 15.417Z" fill="white"/>
</svg>
