<svg width="21" height="20" viewBox="0 0 21 20" fill="none" xmlns="http://www.w3.org/2000/svg">
<path d="M10.5 5.20829C10.8452 5.20829 11.125 5.48811 11.125 5.83329V10.1577L12.558 8.72468C12.8021 8.48061 13.1979 8.48061 13.4419 8.72468C13.686 8.96876 13.686 9.36449 13.4419 9.60857L10.9419 12.1086C10.8247 12.2258 10.6658 12.2916 10.5 12.2916C10.3342 12.2916 10.1753 12.2258 10.058 12.1086L7.55805 9.60857C7.31397 9.36449 7.31397 8.96876 7.55805 8.72468C7.80213 8.48061 8.19785 8.48061 8.44193 8.72468L9.87499 10.1577V5.83329C9.87499 5.48811 10.1548 5.20829 10.5 5.20829Z" fill="#5CB85C"/>
<path d="M6.54166 14.1666C6.54166 13.8214 6.82148 13.5416 7.16666 13.5416H13.8333C14.1785 13.5416 14.4583 13.8214 14.4583 14.1666C14.4583 14.5118 14.1785 14.7916 13.8333 14.7916H7.16666C6.82148 14.7916 6.54166 14.5118 6.54166 14.1666Z" fill="#5CB85C"/>
<path fill-rule="evenodd" clip-rule="evenodd" d="M10.4522 1.04163C8.52851 1.04162 7.02098 1.04161 5.84474 1.19975C4.6408 1.36161 3.69078 1.6994 2.9451 2.44507C2.19943 3.19075 1.86165 4.14077 1.69978 5.34471C1.54164 6.52095 1.54165 8.02848 1.54166 9.95214V10.0478C1.54165 11.9714 1.54164 13.479 1.69978 14.6552C1.86165 15.8592 2.19943 16.8092 2.9451 17.5548C3.69078 18.3005 4.6408 18.6383 5.84474 18.8002C7.02098 18.9583 8.52852 18.9583 10.4522 18.9583H10.5478C12.4715 18.9583 13.979 18.9583 15.1552 18.8002C16.3592 18.6383 17.3092 18.3005 18.0549 17.5548C18.8006 16.8092 19.1383 15.8592 19.3002 14.6552C19.4583 13.479 19.4583 11.9714 19.4583 10.0478V9.95215C19.4583 8.02849 19.4583 6.52095 19.3002 5.34471C19.1383 4.14077 18.8006 3.19075 18.0549 2.44507C17.3092 1.6994 16.3592 1.36161 15.1552 1.19975C13.979 1.04161 12.4715 1.04162 10.5478 1.04163H10.4522ZM3.82899 3.32896C4.3037 2.85424 4.94597 2.58183 6.0113 2.4386C7.09462 2.29295 8.51814 2.29163 10.5 2.29163C12.4818 2.29163 13.9054 2.29295 14.9887 2.4386C16.054 2.58183 16.6963 2.85424 17.171 3.32896C17.6457 3.80367 17.9181 4.44594 18.0613 5.51127C18.207 6.59459 18.2083 8.01811 18.2083 9.99996C18.2083 11.9818 18.207 13.4053 18.0613 14.4886C17.9181 15.554 17.6457 16.1962 17.171 16.671C16.6963 17.1457 16.054 17.4181 14.9887 17.5613C13.9054 17.707 12.4818 17.7083 10.5 17.7083C8.51814 17.7083 7.09462 17.707 6.0113 17.5613C4.94597 17.4181 4.3037 17.1457 3.82899 16.671C3.35427 16.1962 3.08186 15.554 2.93863 14.4886C2.79298 13.4053 2.79166 11.9818 2.79166 9.99996C2.79166 8.01811 2.79298 6.59459 2.93863 5.51127C3.08186 4.44594 3.35427 3.80367 3.82899 3.32896Z" fill="#5CB85C"/>
</svg>
