<svg width="21" height="20" viewBox="0 0 21 20" fill="none" xmlns="http://www.w3.org/2000/svg">
<path fill-rule="evenodd" clip-rule="evenodd" d="M13.625 4.79212V6.93747C15.0514 7.22702 16.125 8.48811 16.125 9.99996C16.125 11.5118 15.0514 12.7729 13.625 13.0624V15.2078C14.4891 15.2058 15.1448 15.1952 15.6752 15.1413C16.316 15.0761 16.7041 14.9527 17.0046 14.7519C17.3004 14.5543 17.5543 14.3004 17.7519 14.0046C17.9527 13.7041 18.0761 13.316 18.1413 12.6752C18.2075 12.0239 18.2083 11.1834 18.2083 9.99996C18.2083 8.81657 18.2075 7.97607 18.1413 7.32475C18.0761 6.68389 17.9527 6.29585 17.7519 5.99529C17.5543 5.69957 17.3004 5.44566 17.0046 5.24806C16.7041 5.04723 16.316 4.92383 15.6752 4.85864C15.1448 4.80469 14.4891 4.79417 13.625 4.79212ZM12.375 15.2083L12.375 4.79163L8.62496 4.79163V15.2083H12.375ZM7.37496 15.2078V13.0624C5.94856 12.7729 4.87496 11.5118 4.87496 9.99996C4.87496 8.48811 5.94856 7.22702 7.37496 6.93747V4.79212C6.51082 4.79417 5.85507 4.80469 5.32475 4.85864C4.68388 4.92383 4.29585 5.04723 3.99529 5.24806C3.69957 5.44566 3.44566 5.69957 3.24806 5.99529C3.04723 6.29585 2.92383 6.68389 2.85864 7.32475C2.79238 7.97607 2.79163 8.81657 2.79163 9.99996C2.79163 11.1834 2.79238 12.0239 2.85864 12.6752C2.92383 13.316 3.04723 13.7041 3.24806 14.0046C3.44566 14.3004 3.69957 14.5543 3.99529 14.7519C4.29585 14.9527 4.68389 15.0761 5.32475 15.1413C5.85507 15.1952 6.51082 15.2058 7.37496 15.2078ZM7.37496 8.23165C6.64671 8.48905 6.12496 9.18357 6.12496 9.99996C6.12496 10.8163 6.64671 11.5109 7.37496 11.7683L7.37496 8.23165ZM13.625 11.7683C14.3532 11.5109 14.875 10.8163 14.875 9.99996C14.875 9.18357 14.3532 8.48905 13.625 8.23165L13.625 11.7683ZM15.8017 3.61506C16.5414 3.6903 17.1589 3.84779 17.6991 4.20873C18.1313 4.49752 18.5024 4.86862 18.7912 5.30083C19.1521 5.84101 19.3096 6.45854 19.3849 7.19825C19.4583 7.92022 19.4583 8.82431 19.4583 9.96533V10.0346C19.4583 11.1756 19.4583 12.0797 19.3849 12.8017C19.3096 13.5414 19.1521 14.1589 18.7912 14.6991C18.5024 15.1313 18.1313 15.5024 17.6991 15.7912C17.1589 16.1521 16.5414 16.3096 15.8017 16.3849C15.0797 16.4583 14.1756 16.4583 13.0346 16.4583H7.96529C6.82429 16.4583 5.92021 16.4583 5.19825 16.3849C4.45854 16.3096 3.84101 16.1521 3.30083 15.7912C2.86862 15.5024 2.49752 15.1313 2.20873 14.6991C1.84779 14.1589 1.6903 13.5414 1.61506 12.8017C1.54161 12.0797 1.54162 11.1756 1.54163 10.0346V9.9653C1.54162 8.8243 1.54161 7.92021 1.61506 7.19825C1.6903 6.45854 1.84779 5.84101 2.20873 5.30083C2.49752 4.86862 2.86862 4.49752 3.30083 4.20873C3.84101 3.84779 4.45854 3.6903 5.19825 3.61506C5.92021 3.54161 6.8243 3.54162 7.9653 3.54163L13.0346 3.54163C14.1756 3.54162 15.0797 3.54161 15.8017 3.61506Z" fill="white"/>
</svg>
