<svg width="20" height="20" viewBox="0 0 20 20" fill="none" xmlns="http://www.w3.org/2000/svg">
<path d="M10.0003 1.04175H9.95251C8.02885 1.04174 6.52132 1.04173 5.34508 1.19987C4.14113 1.36174 3.19111 1.69952 2.44544 2.4452C1.69976 3.19087 1.36198 4.14089 1.20011 5.34484C1.04197 6.52107 1.04198 8.02861 1.04199 9.95227V10.0479C1.04198 11.9716 1.04197 13.4791 1.20011 14.6553C1.36198 15.8593 1.69976 16.8093 2.44544 17.555C3.19111 18.3006 4.14113 18.6384 5.34508 18.8003C6.52132 18.9584 8.02885 18.9584 9.95252 18.9584H10.0481C11.9718 18.9584 13.4793 18.9584 14.6556 18.8003C15.8595 18.6384 16.8095 18.3006 17.5552 17.555C18.3009 16.8093 18.6387 15.8593 18.8005 14.6553C18.9587 13.4791 18.9587 11.9716 18.9587 10.0479V10.0001C18.9587 9.6549 18.6788 9.37508 18.3337 9.37508C17.9885 9.37508 17.7087 9.6549 17.7087 10.0001C17.7087 11.9819 17.7073 13.4055 17.5617 14.4888C17.4185 15.5541 17.146 16.1964 16.6713 16.6711C16.1966 17.1458 15.5543 17.4182 14.489 17.5614C13.4057 17.7071 11.9822 17.7084 10.0003 17.7084C8.01847 17.7084 6.59495 17.7071 5.51164 17.5614C4.4463 17.4182 3.80404 17.1458 3.32932 16.6711C2.85461 16.1964 2.5822 15.5541 2.43897 14.4888C2.29332 13.4055 2.29199 11.9819 2.29199 10.0001C2.29199 8.01823 2.29332 6.59471 2.43897 5.5114C2.5822 4.44606 2.85461 3.80379 3.32932 3.32908C3.80404 2.85436 4.4463 2.58195 5.51164 2.43872C6.59495 2.29308 8.01847 2.29175 10.0003 2.29175C10.3455 2.29175 10.6253 2.01193 10.6253 1.66675C10.6253 1.32157 10.3455 1.04175 10.0003 1.04175Z" fill="#00923F"/>
<path d="M10.3917 8.72481C10.1476 8.96888 10.1476 9.36461 10.3917 9.60869C10.6358 9.85277 11.0315 9.85277 11.2756 9.60869L17.7087 3.17563V6.11987C17.7087 6.46505 17.9885 6.74487 18.3337 6.74487C18.6788 6.74487 18.9587 6.46505 18.9587 6.11987V1.66675C18.9587 1.32157 18.6788 1.04175 18.3337 1.04175H13.8805C13.5354 1.04175 13.2555 1.32157 13.2555 1.66675C13.2555 2.01193 13.5354 2.29175 13.8805 2.29175H16.8248L10.3917 8.72481Z" fill="#00923F"/>
</svg>
