<svg width="40" height="40" viewBox="0 0 40 40" fill="none" xmlns="http://www.w3.org/2000/svg">
<path opacity="0.4" d="M36.6667 13.0163V23.1663L33.95 20.833C32.65 19.7163 30.55 19.7163 29.25 20.833L22.3167 26.783C21.0167 27.8997 18.9167 27.8997 17.6167 26.783L17.05 26.3163C15.8667 25.283 13.9833 25.183 12.65 26.083L4.45001 31.583L4.26668 31.7163C3.65001 30.383 3.33334 28.7997 3.33334 26.983V13.0163C3.33334 6.94967 6.95001 3.33301 13.0167 3.33301H26.9833C33.05 3.33301 36.6667 6.94967 36.6667 13.0163Z" fill="#009B4C"/>
<path d="M15 17.2995C17.1907 17.2995 18.9667 15.5236 18.9667 13.3329C18.9667 11.1421 17.1907 9.36621 15 9.36621C12.8093 9.36621 11.0333 11.1421 11.0333 13.3329C11.0333 15.5236 12.8093 17.2995 15 17.2995Z" fill="#009B4C"/>
<path d="M36.6667 23.1669V26.9836C36.6667 33.0503 33.05 36.6669 26.9833 36.6669H13.0167C8.76666 36.6669 5.7 34.8836 4.26666 31.7169L4.45 31.5836L12.65 26.0836C13.9833 25.1836 15.8667 25.2836 17.05 26.3169L17.6167 26.7836C18.9167 27.9003 21.0167 27.9003 22.3167 26.7836L29.25 20.8336C30.55 19.7169 32.65 19.7169 33.95 20.8336L36.6667 23.1669Z" fill="#009B4C"/>
</svg>
