<svg width="20" height="20" viewBox="0 0 20 20" fill="none" xmlns="http://www.w3.org/2000/svg">
<path fill-rule="evenodd" clip-rule="evenodd" d="M8.82796 1.93244C9.56914 1.57818 10.4308 1.57818 11.172 1.93244C11.494 2.08634 11.789 2.33801 12.1975 2.68648C12.2187 2.70456 12.2403 2.72291 12.2621 2.74152C12.4605 2.9106 12.523 2.96258 12.5862 3.00496C12.747 3.11274 12.9276 3.18754 13.1175 3.22504C13.1922 3.23978 13.2731 3.2472 13.533 3.26794C13.5616 3.27022 13.5898 3.27246 13.6175 3.27466C14.1528 3.31713 14.5394 3.34781 14.8759 3.46667C15.6505 3.74026 16.2598 4.34954 16.5334 5.12413C16.6522 5.46064 16.6829 5.84722 16.7254 6.3825C16.7276 6.41028 16.7298 6.43847 16.7321 6.46707C16.7528 6.72691 16.7603 6.80786 16.775 6.88253C16.8125 7.07245 16.8873 7.25304 16.9951 7.41385C17.0375 7.47707 17.0894 7.53955 17.2585 7.73795C17.2771 7.7598 17.2955 7.78131 17.3136 7.80253C17.662 8.21105 17.9137 8.50609 18.0676 8.82808C18.4219 9.56926 18.4219 10.4309 18.0676 11.1721C17.9137 11.4941 17.662 11.7891 17.3136 12.1976C17.2955 12.2188 17.2771 12.2404 17.2585 12.2622C17.0894 12.4606 17.0375 12.5231 16.9951 12.5863C16.8873 12.7471 16.8125 12.9277 16.775 13.1176C16.7603 13.1923 16.7528 13.2732 16.7321 13.5331C16.7298 13.5617 16.7276 13.5899 16.7254 13.6177C16.6829 14.1529 16.6522 14.5395 16.5334 14.876C16.2598 15.6506 15.6505 16.2599 14.8759 16.5335C14.5394 16.6524 14.1528 16.683 13.6175 16.7255C13.5898 16.7277 13.5616 16.7299 13.533 16.7322C13.2731 16.753 13.1922 16.7604 13.1175 16.7751C12.9276 16.8126 12.747 16.8874 12.5862 16.9952C12.523 17.0376 12.4605 17.0896 12.2621 17.2586C12.2402 17.2773 12.2187 17.2956 12.1975 17.3137C11.789 17.6622 11.494 17.9138 11.172 18.0677C10.4308 18.422 9.56914 18.422 8.82796 18.0677C8.50597 17.9138 8.21092 17.6622 7.80238 17.3137C7.78118 17.2956 7.75967 17.2773 7.73783 17.2586C7.53943 17.0896 7.47695 17.0376 7.41372 16.9952C7.25292 16.8874 7.07233 16.8126 6.88241 16.7751C6.80774 16.7604 6.72679 16.753 6.46695 16.7322C6.43835 16.7299 6.41016 16.7277 6.38238 16.7255C5.8471 16.683 5.46051 16.6524 5.124 16.5335C4.34942 16.2599 3.74014 15.6506 3.46655 14.876C3.34769 14.5395 3.31701 14.1529 3.27454 13.6177C3.27233 13.5899 3.2701 13.5617 3.26781 13.5331C3.24708 13.2732 3.23966 13.1923 3.22492 13.1176C3.18742 12.9277 3.11262 12.7471 3.00484 12.5863C2.96246 12.5231 2.91048 12.4606 2.7414 12.2622C2.72279 12.2404 2.70444 12.2189 2.68636 12.1977C2.33789 11.7891 2.08622 11.4941 1.93232 11.1721C1.57806 10.4309 1.57806 9.56926 1.93232 8.82808C2.08622 8.50609 2.33788 8.21104 2.68635 7.80251C2.70444 7.7813 2.72279 7.75979 2.7414 7.73795C2.91047 7.53955 2.96246 7.47707 3.00484 7.41385C3.11262 7.25304 3.18742 7.07245 3.22492 6.88253C3.23966 6.80786 3.24708 6.72692 3.26781 6.46707C3.2701 6.43847 3.27233 6.41029 3.27454 6.3825C3.31701 5.84722 3.34769 5.46064 3.46655 5.12413C3.74014 4.34954 4.34942 3.74026 5.124 3.46667C5.46051 3.34781 5.8471 3.31713 6.38238 3.27466C6.41016 3.27246 6.43835 3.27022 6.46695 3.26794C6.7268 3.2472 6.80774 3.23978 6.88241 3.22504C7.07233 3.18754 7.25292 3.11274 7.41372 3.00496C7.47695 2.96258 7.53943 2.9106 7.73783 2.74152C7.75967 2.72291 7.78118 2.70456 7.80239 2.68647C8.21092 2.33801 8.50597 2.08634 8.82796 1.93244ZM10.631 3.06416C10.2319 2.87341 9.76798 2.87341 9.36888 3.06416C9.21459 3.13791 9.05195 3.26968 8.55142 3.69622C8.5432 3.70323 8.53509 3.71014 8.52709 3.71697C8.36283 3.857 8.24292 3.95922 8.11209 4.04691C7.81345 4.24708 7.47807 4.386 7.12536 4.45563C6.97084 4.48614 6.81377 4.49864 6.5986 4.51577C6.58811 4.5166 6.57749 4.51745 6.56673 4.51831C5.91119 4.57062 5.70301 4.59245 5.54176 4.64941C5.12467 4.79673 4.7966 5.1248 4.64928 5.54188C4.59233 5.70314 4.5705 5.91131 4.51819 6.56685C4.51733 6.57762 4.51648 6.58824 4.51565 6.59872C4.49852 6.81389 4.48602 6.97096 4.45551 7.12548C4.38588 7.47819 4.24695 7.81357 4.04679 8.11221C3.9591 8.24305 3.85688 8.36295 3.71684 8.52722C3.71002 8.53522 3.7031 8.54333 3.6961 8.55155C3.26956 9.05207 3.13779 9.21471 3.06404 9.369C2.87328 9.7681 2.87328 10.2321 3.06404 10.6312C3.13779 10.7855 3.26956 10.9481 3.6961 11.4486C3.70311 11.4568 3.71002 11.4649 3.71684 11.473C3.85688 11.6372 3.9591 11.7571 4.04679 11.8879C4.24695 12.1866 4.38588 12.522 4.45551 12.8747C4.48602 13.0292 4.49852 13.1863 4.51565 13.4014C4.51648 13.4119 4.51733 13.4225 4.51819 13.4333C4.5705 14.0889 4.59233 14.297 4.64928 14.4583C4.7966 14.8754 5.12467 15.2034 5.54176 15.3508C5.70301 15.4077 5.91119 15.4295 6.56673 15.4819L6.5986 15.4844C6.81377 15.5015 6.97084 15.514 7.12536 15.5445C7.47807 15.6142 7.81345 15.7531 8.11209 15.9533C8.24293 16.0409 8.36283 16.1432 8.5271 16.2832L8.55142 16.3039C9.05195 16.7305 9.21459 16.8623 9.36888 16.936C9.76798 17.1268 10.2319 17.1268 10.631 16.936C10.7853 16.8623 10.948 16.7305 11.4485 16.3039L11.4728 16.2832C11.6371 16.1432 11.757 16.0409 11.8878 15.9533C12.1865 15.7531 12.5219 15.6142 12.8746 15.5445C13.0291 15.514 13.1861 15.5015 13.4013 15.4844L13.4332 15.4819C14.0887 15.4295 14.2969 15.4077 14.4582 15.3508C14.8752 15.2034 15.2033 14.8754 15.3506 14.4583C15.4076 14.297 15.4294 14.0889 15.4817 13.4333L15.4843 13.4014C15.5014 13.1863 15.5139 13.0292 15.5444 12.8747C15.614 12.522 15.753 12.1866 15.9531 11.8879C16.0408 11.7571 16.143 11.6372 16.2831 11.473L16.3038 11.4486C16.7304 10.9481 16.8621 10.7855 16.9359 10.6312C17.1266 10.2321 17.1266 9.7681 16.9359 9.36901C16.8621 9.21471 16.7304 9.05207 16.3038 8.55155L16.2831 8.52719C16.143 8.36294 16.0408 8.24304 15.9531 8.11221C15.753 7.81357 15.614 7.47819 15.5444 7.12548C15.5139 6.97096 15.5014 6.81389 15.4843 6.59872L15.4817 6.56685C15.4294 5.91131 15.4076 5.70314 15.3506 5.54188C15.2033 5.1248 14.8752 4.79673 14.4582 4.64941C14.2969 4.59245 14.0887 4.57062 13.4332 4.51831C13.4224 4.51745 13.4118 4.5166 13.4013 4.51577C13.1861 4.49864 13.0291 4.48614 12.8746 4.45563C12.5219 4.386 12.1865 4.24708 11.8878 4.04691C11.757 3.95922 11.6371 3.857 11.4728 3.71696C11.4648 3.71014 11.4567 3.70323 11.4485 3.69622C10.948 3.26968 10.7853 3.13791 10.631 3.06416ZM13.3702 7.46602C13.6152 7.71095 13.6152 8.10806 13.3702 8.35298L9.18909 12.5341C8.94416 12.7791 8.54706 12.7791 8.30213 12.5341L6.62967 10.8617C6.38474 10.6167 6.38474 10.2196 6.62967 9.97472C6.8746 9.72979 7.2717 9.72979 7.51663 9.97472L8.74561 11.2037L12.4833 7.46602C12.7282 7.2211 13.1253 7.2211 13.3702 7.46602Z" fill="#43936C"/>
</svg>
