<svg width="20" height="20" viewBox="0 0 20 20" fill="none" xmlns="http://www.w3.org/2000/svg">
<path fill-rule="evenodd" clip-rule="evenodd" d="M1.04169 9.99996C1.04169 5.05241 5.05247 1.04163 10 1.04163C10.3452 1.04163 10.625 1.32145 10.625 1.66663C10.625 2.0118 10.3452 2.29163 10 2.29163C5.74283 2.29163 2.29169 5.74276 2.29169 9.99996C2.29169 14.2572 5.74283 17.7083 10 17.7083C14.2572 17.7083 17.7084 14.2572 17.7084 9.99996C17.7084 9.65478 17.9882 9.37496 18.3334 9.37496C18.6785 9.37496 18.9584 9.65478 18.9584 9.99996C18.9584 14.9475 14.9476 18.9583 10 18.9583C5.05247 18.9583 1.04169 14.9475 1.04169 9.99996ZM13.9755 1.89655C15.1154 0.75665 16.9635 0.75665 18.1034 1.89655C19.2433 3.03646 19.2433 4.88461 18.1034 6.02452L12.5633 11.5646C12.2539 11.874 12.0601 12.0679 11.8438 12.2366C11.5891 12.4353 11.3135 12.6056 11.0218 12.7446C10.7742 12.8626 10.5141 12.9493 10.099 13.0876L7.67857 13.8945C7.2317 14.0434 6.73902 13.9271 6.40595 13.594C6.07287 13.261 5.95656 12.7683 6.10552 12.3214L6.91233 9.90098C7.05068 9.48584 7.13734 9.22579 7.25535 8.97817C7.39434 8.68652 7.5647 8.41089 7.76339 8.15614C7.93209 7.93985 8.12594 7.74603 8.43539 7.43662L13.9755 1.89655ZM17.2195 2.78044C16.5678 2.12869 15.5111 2.12869 14.8593 2.78044L14.5455 3.09429C14.5644 3.17417 14.5909 3.26935 14.6277 3.37551C14.7471 3.71973 14.9731 4.17305 15.4 4.59995C15.8269 5.02685 16.2803 5.25285 16.6245 5.37227C16.7306 5.4091 16.8258 5.43556 16.9057 5.45448L17.2195 5.14063C17.8713 4.48888 17.8713 3.43219 17.2195 2.78044ZM15.921 6.4392C15.491 6.25429 14.9901 5.95784 14.5161 5.48384C14.0421 5.00983 13.7457 4.50898 13.5608 4.07901L9.34794 8.29184C9.00085 8.63894 8.86472 8.77659 8.74903 8.92492C8.60617 9.10808 8.48369 9.30626 8.38376 9.51594C8.30283 9.68576 8.24058 9.86907 8.08536 10.3347L7.72545 11.4145L8.58549 12.2745L9.66523 11.9146C10.1309 11.7594 10.3142 11.6972 10.484 11.6162C10.6937 11.5163 10.8919 11.3938 11.0751 11.2509C11.2234 11.1353 11.361 10.9991 11.7081 10.652L15.921 6.4392Z" fill="#EB8D00"/>
</svg>
