<svg width="21" height="20" viewBox="0 0 21 20" fill="none" xmlns="http://www.w3.org/2000/svg">
<path opacity="0.5" d="M8.32697 2.66688C8.12405 2.8398 8.02258 2.92628 7.91422 2.99891C7.6658 3.16541 7.38681 3.28097 7.09342 3.3389C6.96543 3.36416 6.83253 3.37477 6.56673 3.39598L6.56672 3.39598C5.89891 3.44927 5.565 3.47592 5.28642 3.57432C4.64209 3.8019 4.13528 4.30872 3.90769 4.95305C3.80929 5.23163 3.78265 5.56554 3.72936 6.23335L3.72935 6.23336C3.70814 6.49915 3.69754 6.63205 3.67227 6.76004C3.61435 7.05344 3.49879 7.33242 3.33228 7.58084C3.25965 7.68921 3.17317 7.79069 3.00023 7.99363C2.5657 8.50353 2.34842 8.75849 2.22101 9.02505C1.92633 9.64159 1.92633 10.3583 2.22101 10.9749C2.34842 11.2414 2.56569 11.4964 3.00023 12.0063L3.00026 12.0063C3.17316 12.2092 3.25965 12.3107 3.33228 12.4191C3.49879 12.6675 3.61435 12.9465 3.67227 13.2399C3.69754 13.3679 3.70814 13.5008 3.72935 13.7666L3.72936 13.7666C3.78265 14.4344 3.80929 14.7683 3.90769 15.0469C4.13528 15.6912 4.64209 16.198 5.28642 16.4256C5.565 16.524 5.8989 16.5506 6.5667 16.6039L6.56673 16.6039C6.83253 16.6251 6.96543 16.6358 7.09342 16.661C7.38681 16.7189 7.6658 16.8345 7.91422 17.001C8.02259 17.0736 8.12406 17.1601 8.327 17.3331C8.83691 17.7676 9.09186 17.9849 9.35842 18.1123C9.97496 18.407 10.6917 18.407 11.3082 18.1123C11.5748 17.9849 11.8298 17.7676 12.3397 17.3331C12.5426 17.1601 12.6441 17.0736 12.7524 17.001C13.0009 16.8345 13.2799 16.7189 13.5732 16.661C13.7012 16.6358 13.8341 16.6251 14.0999 16.6039L14.1 16.6039C14.7678 16.5506 15.1017 16.524 15.3802 16.4256C16.0246 16.198 16.5314 15.6912 16.759 15.0469C16.8574 14.7683 16.884 14.4344 16.9373 13.7666L16.9373 13.7666C16.9585 13.5008 16.9691 13.3679 16.9944 13.2399C17.0523 12.9465 17.1679 12.6675 17.3344 12.4191C17.407 12.3107 17.4935 12.2092 17.6664 12.0063C18.101 11.4964 18.3182 11.2414 18.4457 10.9749C18.7403 10.3583 18.7403 9.64159 18.4457 9.02505C18.3182 8.75849 18.101 8.50353 17.6664 7.99363C17.4935 7.79069 17.407 7.68921 17.3344 7.58084C17.1679 7.33242 17.0523 7.05344 16.9944 6.76004C16.9691 6.63205 16.9585 6.49915 16.9373 6.23336L16.9373 6.23332C16.884 5.56553 16.8574 5.23162 16.759 4.95305C16.5314 4.30872 16.0246 3.8019 15.3802 3.57432C15.1017 3.47592 14.7678 3.44927 14.0999 3.39598L14.0999 3.39598C13.8341 3.37477 13.7012 3.36416 13.5732 3.3389C13.2799 3.28097 13.0009 3.16541 12.7524 2.99891C12.6441 2.92627 12.5426 2.8398 12.3397 2.66685C11.8298 2.23232 11.5748 2.01505 11.3082 1.88764C10.6917 1.59295 9.97496 1.59295 9.35842 1.88764C9.09186 2.01505 8.8369 2.23232 8.327 2.66685L8.32697 2.66688Z" fill="#5CB85C"/>
<path d="M13.9776 8.21919C14.2424 7.95433 14.2424 7.52491 13.9776 7.26005C13.7127 6.99519 13.2833 6.99519 13.0184 7.26005L8.97654 11.3019L7.64753 9.97291C7.38267 9.70805 6.95325 9.70805 6.68839 9.97291C6.42353 10.2378 6.42353 10.6672 6.68839 10.9321L8.49697 12.7406C8.76183 13.0055 9.19125 13.0055 9.45611 12.7406L13.9776 8.21919Z" fill="#5CB85C"/>
</svg>
