<svg width="21" height="20" viewBox="0 0 21 20" fill="none" xmlns="http://www.w3.org/2000/svg">
<path d="M10.5001 5.20829C10.8453 5.20829 11.1251 5.48811 11.1251 5.83329V10.1577L12.5581 8.72468C12.8022 8.48061 13.1979 8.48061 13.442 8.72468C13.6861 8.96876 13.6861 9.36449 13.442 9.60857L10.942 12.1086C10.8248 12.2258 10.6658 12.2916 10.5001 12.2916C10.3343 12.2916 10.1754 12.2258 10.0581 12.1086L7.55814 9.60857C7.31406 9.36449 7.31406 8.96876 7.55814 8.72468C7.80222 8.48061 8.19795 8.48061 8.44202 8.72468L9.87508 10.1577V5.83329C9.87508 5.48811 10.1549 5.20829 10.5001 5.20829Z" fill="#5CB85C"/>
<path d="M6.54175 14.1666C6.54175 13.8214 6.82157 13.5416 7.16675 13.5416H13.8334C14.1786 13.5416 14.4584 13.8214 14.4584 14.1666C14.4584 14.5118 14.1786 14.7916 13.8334 14.7916H7.16675C6.82157 14.7916 6.54175 14.5118 6.54175 14.1666Z" fill="#5CB85C"/>
<path fill-rule="evenodd" clip-rule="evenodd" d="M10.4523 1.04163C8.52861 1.04162 7.02108 1.04161 5.84484 1.19975C4.64089 1.36161 3.69087 1.6994 2.9452 2.44507C2.19952 3.19075 1.86174 4.14077 1.69987 5.34471C1.54173 6.52095 1.54174 8.02848 1.54175 9.95214V10.0478C1.54174 11.9714 1.54173 13.479 1.69987 14.6552C1.86174 15.8592 2.19952 16.8092 2.9452 17.5548C3.69087 18.3005 4.64089 18.6383 5.84484 18.8002C7.02108 18.9583 8.52861 18.9583 10.4523 18.9583H10.5479C12.4716 18.9583 13.9791 18.9583 15.1553 18.8002C16.3593 18.6383 17.3093 18.3005 18.055 17.5548C18.8006 16.8092 19.1384 15.8592 19.3003 14.6552C19.4584 13.479 19.4584 11.9714 19.4584 10.0478V9.95215C19.4584 8.02849 19.4584 6.52095 19.3003 5.34471C19.1384 4.14077 18.8006 3.19075 18.055 2.44507C17.3093 1.6994 16.3593 1.36161 15.1553 1.19975C13.9791 1.04161 12.4716 1.04162 10.5479 1.04163H10.4523ZM3.82908 3.32896C4.30379 2.85424 4.94606 2.58183 6.0114 2.4386C7.09471 2.29295 8.51823 2.29163 10.5001 2.29163C12.4819 2.29163 13.9055 2.29295 14.9888 2.4386C16.0541 2.58183 16.6964 2.85424 17.1711 3.32896C17.6458 3.80367 17.9182 4.44594 18.0614 5.51127C18.2071 6.59459 18.2084 8.01811 18.2084 9.99996C18.2084 11.9818 18.2071 13.4053 18.0614 14.4886C17.9182 15.554 17.6458 16.1962 17.1711 16.671C16.6964 17.1457 16.0541 17.4181 14.9888 17.5613C13.9055 17.707 12.4819 17.7083 10.5001 17.7083C8.51823 17.7083 7.09471 17.707 6.0114 17.5613C4.94606 17.4181 4.30379 17.1457 3.82908 16.671C3.35437 16.1962 3.08195 15.554 2.93872 14.4886C2.79308 13.4053 2.79175 11.9818 2.79175 9.99996C2.79175 8.01811 2.79308 6.59459 2.93872 5.51127C3.08195 4.44594 3.35437 3.80367 3.82908 3.32896Z" fill="#5CB85C"/>
</svg>
