<svg width="20" height="20" viewBox="0 0 20 20" fill="none" xmlns="http://www.w3.org/2000/svg">
<path d="M10 5.20841C10.3452 5.20841 10.625 5.48824 10.625 5.83341V10.8334C10.625 11.1786 10.3452 11.4584 10 11.4584C9.65482 11.4584 9.375 11.1786 9.375 10.8334V5.83341C9.375 5.48824 9.65482 5.20841 10 5.20841Z" fill="#7B4D1A"/>
<path d="M10.8333 13.3334C10.8333 13.7937 10.4602 14.1667 10 14.1667C9.53976 14.1667 9.16667 13.7937 9.16667 13.3334C9.16667 12.8732 9.53976 12.5001 10 12.5001C10.4602 12.5001 10.8333 12.8732 10.8333 13.3334Z" fill="#7B4D1A"/>
<path fill-rule="evenodd" clip-rule="evenodd" d="M10 1.04175C9.41284 1.04175 8.87654 1.20308 8.29048 1.47539C7.7234 1.73888 7.06699 2.12761 6.24548 2.61413L5.6179 2.98578C4.79611 3.47243 4.13976 3.86112 3.63397 4.23295C3.11095 4.61744 2.70981 5.01101 2.41945 5.52685C2.12956 6.04187 1.99868 6.59254 1.93588 7.24597C1.87499 7.87957 1.87499 8.6555 1.875 9.63006V10.3701C1.87499 11.3447 1.87499 12.1206 1.93588 12.7542C1.99868 13.4076 2.12956 13.9583 2.41945 14.4733C2.70981 14.9892 3.11095 15.3827 3.63397 15.7672C4.13976 16.139 4.79611 16.5277 5.6179 17.0144L6.2455 17.386C7.06698 17.8725 7.72342 18.2613 8.29048 18.5248C8.87654 18.7971 9.41284 18.9584 10 18.9584C10.5872 18.9584 11.1235 18.7971 11.7095 18.5248C12.2766 18.2613 12.933 17.8726 13.7545 17.386L14.3821 17.0144C15.2039 16.5278 15.8602 16.139 16.366 15.7672C16.889 15.3827 17.2902 14.9892 17.5805 14.4733C17.8704 13.9583 18.0013 13.4076 18.0641 12.7542C18.125 12.1206 18.125 11.3447 18.125 10.3701V9.6301C18.125 8.65555 18.125 7.87957 18.0641 7.24597C18.0013 6.59254 17.8704 6.04187 17.5805 5.52685C17.2902 5.01101 16.889 4.61744 16.366 4.23295C15.8602 3.86112 15.2039 3.47244 14.3821 2.98579L13.7545 2.61412C12.933 2.12761 12.2766 1.73888 11.7095 1.47539C11.1235 1.20308 10.5872 1.04175 10 1.04175ZM6.85437 3.70628C7.71032 3.19939 8.31338 2.84309 8.81721 2.60899C9.3085 2.38071 9.65895 2.29175 10 2.29175C10.341 2.29175 10.6915 2.38071 11.1828 2.60899C11.6866 2.84309 12.2897 3.19939 13.1456 3.70628L13.7174 4.0449C14.5733 4.55172 15.1758 4.90937 15.6256 5.24008C16.0639 5.56231 16.3175 5.8313 16.4912 6.13998C16.6655 6.44949 16.7666 6.81167 16.8199 7.36554C16.8743 7.93245 16.875 8.64843 16.875 9.66146V10.3387C16.875 11.3517 16.8743 12.0677 16.8199 12.6346C16.7666 13.1885 16.6655 13.5507 16.4912 13.8602C16.3175 14.1689 16.0639 14.4379 15.6256 14.7601C15.1758 15.0908 14.5733 15.4484 13.7174 15.9553L13.1456 16.2939C12.2897 16.8008 11.6866 17.1571 11.1828 17.3912C10.6915 17.6194 10.341 17.7084 10 17.7084C9.65895 17.7084 9.3085 17.6194 8.81721 17.3912C8.31338 17.1571 7.71032 16.8008 6.85437 16.2939L6.28257 15.9553C5.42675 15.4484 4.82422 15.0908 4.37436 14.7601C3.93605 14.4379 3.6825 14.1689 3.50875 13.8602C3.33454 13.5507 3.23338 13.1885 3.18015 12.6346C3.12567 12.0677 3.125 11.3517 3.125 10.3387V9.66146C3.125 8.64843 3.12567 7.93245 3.18015 7.36554C3.23338 6.81166 3.33454 6.44949 3.50875 6.13998C3.6825 5.8313 3.93605 5.56231 4.37436 5.24008C4.82422 4.90937 5.42675 4.55172 6.28257 4.0449L6.85437 3.70628Z" fill="#7B4D1A"/>
</svg>
