<svg width="21" height="20" viewBox="0 0 21 20" fill="none" xmlns="http://www.w3.org/2000/svg">
<path d="M11.125 7.49996C11.125 7.15478 10.8452 6.87496 10.5 6.87496C10.1548 6.87496 9.87499 7.15478 9.87499 7.49996L9.87499 9.37498H7.99999C7.65481 9.37498 7.37499 9.6548 7.37499 9.99998C7.37499 10.3452 7.65481 10.625 7.99999 10.625H9.87499V12.5C9.87499 12.8451 10.1548 13.125 10.5 13.125C10.8452 13.125 11.125 12.8451 11.125 12.5L11.125 10.625H13C13.3452 10.625 13.625 10.3452 13.625 9.99998C13.625 9.6548 13.3452 9.37498 13 9.37498H11.125V7.49996Z" fill="white"/>
<path fill-rule="evenodd" clip-rule="evenodd" d="M10.5 1.04163C5.55244 1.04163 1.54166 5.05241 1.54166 9.99996C1.54166 14.9475 5.55244 18.9583 10.5 18.9583C15.4475 18.9583 19.4583 14.9475 19.4583 9.99996C19.4583 5.05241 15.4475 1.04163 10.5 1.04163ZM2.79166 9.99996C2.79166 5.74276 6.24279 2.29163 10.5 2.29163C14.7572 2.29163 18.2083 5.74276 18.2083 9.99996C18.2083 14.2572 14.7572 17.7083 10.5 17.7083C6.24279 17.7083 2.79166 14.2572 2.79166 9.99996Z" fill="white"/>
</svg>
