<svg width="20" height="20" viewBox="0 0 20 20" fill="none" xmlns="http://www.w3.org/2000/svg">
<path d="M8.35854 7.47479C8.11446 7.23072 7.71874 7.23072 7.47466 7.47479C7.23058 7.71887 7.23058 8.1146 7.47466 8.35868L9.11606 10.0001L7.47468 11.6415C7.2306 11.8855 7.2306 12.2813 7.47468 12.5253C7.71875 12.7694 8.11448 12.7694 8.35856 12.5253L9.99994 10.884L11.6413 12.5253C11.8854 12.7694 12.2811 12.7694 12.5252 12.5253C12.7693 12.2812 12.7693 11.8855 12.5252 11.6414L10.8838 10.0001L12.5252 8.35869C12.7693 8.11462 12.7693 7.71889 12.5252 7.47481C12.2811 7.23073 11.8854 7.23073 11.6413 7.47481L9.99994 9.11619L8.35854 7.47479Z" fill="#CB3A31"/>
<path fill-rule="evenodd" clip-rule="evenodd" d="M9.99996 1.04175C5.05241 1.04175 1.04163 5.05253 1.04163 10.0001C1.04163 14.9476 5.05241 18.9584 9.99996 18.9584C14.9475 18.9584 18.9583 14.9476 18.9583 10.0001C18.9583 5.05253 14.9475 1.04175 9.99996 1.04175ZM2.29163 10.0001C2.29163 5.74289 5.74276 2.29175 9.99996 2.29175C14.2572 2.29175 17.7083 5.74289 17.7083 10.0001C17.7083 14.2573 14.2572 17.7084 9.99996 17.7084C5.74276 17.7084 2.29163 14.2573 2.29163 10.0001Z" fill="#CB3A31"/>
</svg>
