<svg width="20" height="20" viewBox="0 0 20 20" fill="none" xmlns="http://www.w3.org/2000/svg">
<path d="M9.99992 2.29163C9.18451 2.29163 8.48915 2.81248 8.23145 3.54157C8.11642 3.86702 7.75935 4.0376 7.4339 3.92257C7.10845 3.80754 6.93787 3.45046 7.0529 3.12501C7.4816 1.91211 8.6383 1.04163 9.99992 1.04163C11.3615 1.04163 12.5182 1.91211 12.9469 3.12501C13.062 3.45046 12.8914 3.80754 12.5659 3.92257C12.2405 4.0376 11.8834 3.86702 11.7684 3.54157C11.5107 2.81248 10.8153 2.29163 9.99992 2.29163Z" fill="#CB3A31"/>
<path d="M2.29156 4.99996C2.29156 4.65478 2.57139 4.37496 2.91656 4.37496H17.0833C17.4285 4.37496 17.7083 4.65478 17.7083 4.99996C17.7083 5.34514 17.4285 5.62496 17.0833 5.62496H2.91656C2.57139 5.62496 2.29156 5.34514 2.29156 4.99996Z" fill="#CB3A31"/>
<path d="M4.92914 7.04172C4.90617 6.6973 4.60836 6.43671 4.26395 6.45968C3.91953 6.48264 3.65894 6.78045 3.6819 7.12487L4.06811 12.918C4.13936 13.9869 4.19691 14.8504 4.33189 15.5279C4.47222 16.2324 4.7109 16.8208 5.2039 17.282C5.69689 17.7432 6.29985 17.9422 7.01206 18.0354C7.69709 18.125 8.56246 18.125 9.63378 18.125H10.3661C11.4375 18.125 12.3028 18.125 12.9879 18.0354C13.7001 17.9422 14.303 17.7432 14.796 17.282C15.289 16.8208 15.5277 16.2324 15.668 15.5279C15.803 14.8504 15.8606 13.9869 15.9318 12.918L16.318 7.12487C16.341 6.78045 16.0804 6.48264 15.736 6.45968C15.3916 6.43671 15.0938 6.6973 15.0708 7.04172L14.6875 12.791C14.6126 13.9142 14.5593 14.6957 14.4421 15.2837C14.3285 15.8541 14.1699 16.156 13.9421 16.3692C13.7142 16.5823 13.4024 16.7205 12.8257 16.7959C12.2312 16.8737 11.4479 16.875 10.3222 16.875H9.67773C8.55203 16.875 7.76869 16.8737 7.17419 16.7959C6.59752 16.7205 6.28572 16.5823 6.05788 16.3692C5.83003 16.156 5.67142 15.8541 5.5578 15.2837C5.44066 14.6957 5.3873 13.9142 5.31242 12.791L4.92914 7.04172Z" fill="#CB3A31"/>
<path d="M7.85445 8.54473C8.19791 8.51038 8.50419 8.76097 8.53853 9.10444L8.9552 13.2711C8.98955 13.6146 8.73896 13.9208 8.39549 13.9552C8.05203 13.9895 7.74575 13.7389 7.71141 13.3955L7.29474 9.22882C7.26039 8.88535 7.51098 8.57907 7.85445 8.54473Z" fill="#CB3A31"/>
<path d="M12.7052 9.22882C12.7395 8.88535 12.489 8.57907 12.1455 8.54473C11.802 8.51038 11.4958 8.76097 11.4614 9.10444L11.0447 13.2711C11.0104 13.6146 11.261 13.9208 11.6044 13.9552C11.9479 13.9895 12.2542 13.7389 12.2885 13.3955L12.7052 9.22882Z" fill="#CB3A31"/>
</svg>
