<svg width="20" height="20" viewBox="0 0 20 20" fill="none" xmlns="http://www.w3.org/2000/svg">
<path fill-rule="evenodd" clip-rule="evenodd" d="M9.99996 6.87492C8.27407 6.87492 6.87496 8.27403 6.87496 9.99992C6.87496 11.7258 8.27407 13.1249 9.99996 13.1249C11.7259 13.1249 13.125 11.7258 13.125 9.99992C13.125 8.27403 11.7259 6.87492 9.99996 6.87492ZM8.12496 9.99992C8.12496 8.96438 8.96443 8.12492 9.99996 8.12492C11.0355 8.12492 11.875 8.96438 11.875 9.99992C11.875 11.0355 11.0355 11.8749 9.99996 11.8749C8.96443 11.8749 8.12496 11.0355 8.12496 9.99992Z" fill="#00923F"/>
<path fill-rule="evenodd" clip-rule="evenodd" d="M9.99996 2.70825C6.23818 2.70825 3.70437 4.96175 2.23377 6.8723L2.20724 6.90675C1.87466 7.3387 1.56834 7.73652 1.36053 8.20692C1.138 8.71064 1.04163 9.25966 1.04163 9.99992C1.04163 10.7402 1.138 11.2892 1.36053 11.7929C1.56834 12.2633 1.87466 12.6611 2.20725 13.0931L2.23377 13.1275C3.70437 15.0381 6.23818 17.2916 9.99996 17.2916C13.7617 17.2916 16.2956 15.0381 17.7662 13.1275L17.7927 13.0931C18.1253 12.6612 18.4316 12.2633 18.6394 11.7929C18.8619 11.2892 18.9583 10.7402 18.9583 9.99992C18.9583 9.25966 18.8619 8.71064 18.6394 8.20692C18.4316 7.73651 18.1253 7.33868 17.7927 6.90673L17.7662 6.8723C16.2956 4.96175 13.7617 2.70825 9.99996 2.70825ZM3.22431 7.63475C4.58216 5.87068 6.79193 3.95825 9.99996 3.95825C13.208 3.95825 15.4178 5.87068 16.7756 7.63475C17.1411 8.10958 17.3552 8.3933 17.496 8.71204C17.6276 9.00993 17.7083 9.37403 17.7083 9.99992C17.7083 10.6258 17.6276 10.9899 17.496 11.2878C17.3552 11.6065 17.1411 11.8903 16.7756 12.3651C15.4178 14.1292 13.208 16.0416 9.99996 16.0416C6.79193 16.0416 4.58216 14.1292 3.22431 12.3651C2.85882 11.8903 2.64474 11.6065 2.50393 11.2878C2.37232 10.9899 2.29163 10.6258 2.29163 9.99992C2.29163 9.37403 2.37232 9.00993 2.50393 8.71204C2.64474 8.3933 2.85882 8.10958 3.22431 7.63475Z" fill="#00923F"/>
</svg>
