<svg width="20" height="20" viewBox="0 0 20 20" fill="none" xmlns="http://www.w3.org/2000/svg">
<path fill-rule="evenodd" clip-rule="evenodd" d="M8.82799 1.93232C9.56917 1.57806 10.4308 1.57806 11.172 1.93232C11.494 2.08622 11.789 2.33789 12.1976 2.68635C12.2188 2.70444 12.2403 2.72279 12.2621 2.7414C12.4605 2.91048 12.523 2.96246 12.5862 3.00484C12.747 3.11262 12.9276 3.18742 13.1175 3.22492C13.1922 3.23966 13.2732 3.24708 13.533 3.26781C13.5616 3.2701 13.5898 3.27233 13.6176 3.27454C14.1529 3.31701 14.5394 3.34769 14.8759 3.46655C15.6505 3.74014 16.2598 4.34942 16.5334 5.124C16.6523 5.46051 16.6829 5.8471 16.7254 6.38238C16.7276 6.41016 16.7299 6.43835 16.7321 6.46695C16.7529 6.72679 16.7603 6.80774 16.775 6.88241C16.8125 7.07233 16.8873 7.25292 16.9951 7.41372C17.0375 7.47695 17.0895 7.53943 17.2586 7.73783C17.2772 7.75968 17.2955 7.78119 17.3136 7.8024C17.6621 8.21093 17.9137 8.50597 18.0676 8.82796C18.4219 9.56914 18.4219 10.4308 18.0676 11.172C17.9137 11.4939 17.6621 11.789 17.3136 12.1975C17.2955 12.2187 17.2772 12.2402 17.2586 12.2621C17.0895 12.4605 17.0375 12.523 16.9951 12.5862C16.8873 12.747 16.8125 12.9276 16.775 13.1175C16.7603 13.1922 16.7529 13.2731 16.7321 13.533C16.7299 13.5616 16.7276 13.5898 16.7254 13.6175C16.6829 14.1528 16.6523 14.5394 16.5334 14.8759C16.2598 15.6505 15.6505 16.2598 14.8759 16.5334C14.5394 16.6522 14.1529 16.6829 13.6176 16.7254C13.5898 16.7276 13.5616 16.7298 13.533 16.7321C13.2732 16.7528 13.1922 16.7603 13.1175 16.775C12.9276 16.8125 12.747 16.8873 12.5862 16.9951C12.523 17.0375 12.4605 17.0894 12.2621 17.2585C12.2403 17.2771 12.2188 17.2955 12.1976 17.3136C11.789 17.662 11.494 17.9137 11.172 18.0676C10.4308 18.4219 9.56917 18.4219 8.82799 18.0676C8.506 17.9137 8.21095 17.662 7.80241 17.3136C7.78121 17.2955 7.7597 17.2771 7.73786 17.2585C7.53946 17.0894 7.47698 17.0375 7.41375 16.9951C7.25295 16.8873 7.07236 16.8125 6.88244 16.775C6.80777 16.7603 6.72682 16.7528 6.46698 16.7321C6.43838 16.7298 6.41019 16.7276 6.38241 16.7254C5.84713 16.6829 5.46054 16.6522 5.12403 16.5334C4.34945 16.2598 3.74017 15.6505 3.46658 14.8759C3.34772 14.5394 3.31704 14.1528 3.27457 13.6175C3.27236 13.5898 3.27013 13.5616 3.26785 13.533C3.24711 13.2731 3.23969 13.1922 3.22495 13.1175C3.18745 12.9276 3.11265 12.747 3.00487 12.5862C2.96249 12.523 2.91051 12.4605 2.74143 12.2621C2.72282 12.2403 2.70447 12.2187 2.68639 12.1975C2.33792 11.789 2.08625 11.494 1.93235 11.172C1.57809 10.4308 1.57809 9.56914 1.93235 8.82796C2.08625 8.50597 2.33791 8.21092 2.68638 7.80239C2.70447 7.78118 2.72282 7.75967 2.74143 7.73783C2.91051 7.53943 2.96249 7.47695 3.00487 7.41372C3.11265 7.25292 3.18745 7.07233 3.22495 6.88241C3.23969 6.80774 3.24711 6.7268 3.26785 6.46695C3.27013 6.43835 3.27236 6.41016 3.27457 6.38238C3.31704 5.8471 3.34772 5.46051 3.46658 5.124C3.74017 4.34942 4.34945 3.74014 5.12404 3.46655C5.46054 3.34769 5.84713 3.31701 6.38241 3.27454C6.41019 3.27233 6.43838 3.2701 6.46698 3.26781C6.72683 3.24708 6.80777 3.23966 6.88244 3.22492C7.07236 3.18742 7.25295 3.11262 7.41375 3.00484C7.47698 2.96246 7.53946 2.91048 7.73786 2.7414C7.7597 2.72279 7.78121 2.70444 7.80242 2.68635C8.21095 2.33789 8.506 2.08622 8.82799 1.93232ZM10.6311 3.06404C10.232 2.87328 9.76801 2.87328 9.36891 3.06404C9.21462 3.13779 9.05198 3.26956 8.55145 3.6961C8.54323 3.70311 8.53512 3.71002 8.52712 3.71684C8.36286 3.85688 8.24295 3.9591 8.11212 4.04679C7.81348 4.24695 7.4781 4.38588 7.12539 4.45551C6.97087 4.48602 6.8138 4.49852 6.59863 4.51565C6.58815 4.51648 6.57752 4.51733 6.56676 4.51819C5.91122 4.5705 5.70304 4.59233 5.54179 4.64928C5.12471 4.7966 4.79663 5.12467 4.64931 5.54176C4.59236 5.70301 4.57053 5.91119 4.51822 6.56673C4.51736 6.57749 4.51651 6.58812 4.51568 6.5986C4.49855 6.81377 4.48605 6.97084 4.45554 7.12536C4.38591 7.47807 4.24698 7.81345 4.04682 8.11209C3.95913 8.24293 3.85691 8.36283 3.71687 8.52709C3.71005 8.5351 3.70313 8.5432 3.69613 8.55142C3.26959 9.05195 3.13782 9.21459 3.06407 9.36888C2.87332 9.76798 2.87332 10.2319 3.06407 10.631C3.13782 10.7853 3.26959 10.948 3.69613 11.4485C3.70314 11.4567 3.71005 11.4648 3.71687 11.4728C3.85691 11.6371 3.95913 11.757 4.04682 11.8878C4.24698 12.1865 4.38591 12.5219 4.45554 12.8746C4.48605 13.0291 4.49855 13.1861 4.51568 13.4013C4.51651 13.4118 4.51736 13.4224 4.51822 13.4332C4.57053 14.0887 4.59236 14.2969 4.64931 14.4582C4.79663 14.8752 5.12471 15.2033 5.54179 15.3506C5.70304 15.4076 5.91122 15.4294 6.56676 15.4817L6.59863 15.4843C6.8138 15.5014 6.97087 15.5139 7.12539 15.5444C7.4781 15.614 7.81348 15.753 8.11212 15.9531C8.24296 16.0408 8.36286 16.143 8.52713 16.2831L8.55145 16.3038C9.05198 16.7304 9.21462 16.8621 9.36891 16.9359C9.76801 17.1266 10.232 17.1266 10.6311 16.9359C10.7854 16.8621 10.948 16.7304 11.4485 16.3038L11.4729 16.2831C11.6371 16.143 11.757 16.0408 11.8879 15.9531C12.1865 15.753 12.5219 15.614 12.8746 15.5444C13.0291 15.5139 13.1862 15.5014 13.4014 15.4843L13.4332 15.4817C14.0888 15.4294 14.2969 15.4076 14.4582 15.3506C14.8753 15.2033 15.2033 14.8752 15.3507 14.4582C15.4076 14.2969 15.4295 14.0887 15.4818 13.4332L15.4843 13.4013C15.5014 13.1861 15.5139 13.0291 15.5444 12.8746C15.6141 12.5219 15.753 12.1865 15.9532 11.8878C16.0408 11.757 16.1431 11.6371 16.2831 11.4728L16.3039 11.4485C16.7304 10.948 16.8622 10.7853 16.9359 10.631C17.1267 10.2319 17.1267 9.76798 16.9359 9.36888C16.8622 9.21459 16.7304 9.05195 16.3039 8.55142L16.2831 8.52707C16.1431 8.36282 16.0408 8.24292 15.9532 8.11209C15.753 7.81345 15.6141 7.47807 15.5444 7.12536C15.5139 6.97084 15.5014 6.81377 15.4843 6.59859L15.4818 6.56673C15.4295 5.91119 15.4076 5.70301 15.3507 5.54176C15.2033 5.12467 14.8753 4.7966 14.4582 4.64928C14.2969 4.59233 14.0888 4.5705 13.4332 4.51819C13.4225 4.51733 13.4118 4.51648 13.4014 4.51565C13.1862 4.49852 13.0291 4.48602 12.8746 4.45551C12.5219 4.38588 12.1865 4.24695 11.8879 4.04679C11.757 3.9591 11.6371 3.85688 11.4729 3.71684C11.4649 3.71002 11.4567 3.7031 11.4485 3.6961C10.948 3.26956 10.7854 3.13779 10.6311 3.06404ZM13.3703 7.4659C13.6152 7.71083 13.6152 8.10793 13.3703 8.35286L9.18912 12.534C8.9442 12.7789 8.54709 12.7789 8.30216 12.534L6.6297 10.8616C6.38478 10.6166 6.38478 10.2195 6.6297 9.9746C6.87463 9.72967 7.27173 9.72967 7.51666 9.9746L8.74564 11.2036L12.4833 7.4659C12.7282 7.22098 13.1254 7.22098 13.3703 7.4659Z" fill="#43936C"/>
</svg>
