<svg width="20" height="20" viewBox="0 0 20 20" fill="none" xmlns="http://www.w3.org/2000/svg">
<path fill-rule="evenodd" clip-rule="evenodd" d="M15.1199 3.02504C14.1449 3.19848 12.8305 3.63486 10.9857 4.24978L6.80967 5.6418C5.32632 6.13625 4.25192 6.49492 3.49305 6.81768C2.69966 7.15513 2.41742 7.39034 2.32576 7.54801C2.04342 8.03367 2.04342 8.63348 2.32576 9.11913C2.41742 9.27681 2.69966 9.51202 3.49305 9.84946C4.25192 10.1722 5.32632 10.5309 6.80967 11.0254C6.8331 11.0332 6.85622 11.0409 6.87906 11.0484C7.19542 11.1537 7.45679 11.2406 7.68515 11.36L12.1213 6.97278C12.3727 6.72413 12.7781 6.72638 13.0267 6.97779C13.2754 7.22921 13.2731 7.63459 13.0217 7.88324L8.6051 12.2512C8.7428 12.4943 8.836 12.7745 8.95107 13.1204C8.95866 13.1433 8.96636 13.1664 8.97416 13.1898C9.46862 14.6732 9.82728 15.7476 10.15 16.5065C10.4875 17.2999 10.7227 17.5821 10.8804 17.6738C11.366 17.9561 11.9658 17.9561 12.4515 17.6738C12.6092 17.5821 12.8444 17.2999 13.1818 16.5065C13.5046 15.7476 13.8633 14.6732 14.3577 13.1898L15.7497 9.01378C16.3646 7.16904 16.801 5.85458 16.9745 4.87959C17.1487 3.89997 17.0156 3.48385 16.7656 3.2339C16.5157 2.98395 16.0995 2.85077 15.1199 3.02504ZM14.8957 1.76432C15.9808 1.57128 16.9582 1.61553 17.6711 2.32844C18.384 3.04136 18.4282 4.0187 18.2352 5.10386C18.0433 6.18247 17.5754 7.58614 16.983 9.36326L15.5622 13.6256C15.0802 15.0718 14.7056 16.1955 14.3602 17.0076C14.027 17.791 13.657 18.4541 13.0951 18.7808C12.2115 19.2944 11.1203 19.2944 10.2368 18.7808C9.67485 18.4541 9.30488 17.791 8.97169 17.0076C8.62626 16.1955 8.2517 15.0718 7.76964 13.6256L7.75937 13.5948C7.59048 13.0881 7.539 12.9507 7.46607 12.8417C7.38444 12.7198 7.2797 12.6151 7.15777 12.5334C7.04883 12.4605 6.9114 12.409 6.40474 12.2401L6.37387 12.2299C4.92771 11.7478 3.80402 11.3732 2.99187 11.0278C2.20847 10.6946 1.54542 10.3247 1.21873 9.76271C0.705086 8.87918 0.705086 7.78797 1.21873 6.90444C1.54542 6.34249 2.20847 5.97252 2.99187 5.63932C3.80403 5.29389 4.92774 4.91933 6.37393 4.43727L10.6363 3.01649C12.4134 2.4241 13.817 1.9562 14.8957 1.76432Z" fill="white"/>
</svg>
