<svg width="18" height="18" viewBox="0 0 18 18" fill="none" xmlns="http://www.w3.org/2000/svg">
    <path
        d="M9.00294 0C5.24552 0 4.14662 0.00387774 3.93301 0.0215999C3.16193 0.0857128 2.68212 0.207156 2.15938 0.467479C1.75653 0.66758 1.43882 0.899519 1.12526 1.22466C0.55422 1.8176 0.20813 2.54707 0.0828436 3.4142C0.021935 3.83515 0.00421266 3.921 0.000613795 6.07122C-0.000767244 6.78796 0.000613795 7.73124 0.000613795 8.99647C0.000613795 12.7519 0.0047637 13.85 0.0227648 14.0632C0.0850613 14.8137 0.202728 15.2859 0.451914 15.8024C0.928135 16.7911 1.83765 17.5333 2.90914 17.8103C3.28015 17.9058 3.68992 17.9585 4.21598 17.9834C4.43886 17.9931 6.71058 18 8.98369 18C11.2568 18 13.5299 17.9972 13.7473 17.9862C14.3564 17.9575 14.7101 17.91 15.1012 17.8089C16.1796 17.5306 17.0725 16.7994 17.5584 15.7969C17.8027 15.2928 17.9266 14.8026 17.9827 14.0913C17.9949 13.9362 18 11.4635 18 8.99412C18 6.5243 17.9945 4.05615 17.9823 3.90106C17.9255 3.17824 17.8016 2.6922 17.5494 2.17846C17.3424 1.75791 17.1126 1.44385 16.779 1.12274C16.1836 0.553892 15.4554 0.207707 14.5877 0.0825291C14.1673 0.0217361 14.0835 0.00373493 11.9322 0H9.00294Z"
        fill="url(#paint0_radial_9266_13229)" />
    <path
        d="M9.00294 0C5.24552 0 4.14662 0.00387774 3.93301 0.0215999C3.16193 0.0857128 2.68212 0.207156 2.15938 0.467479C1.75653 0.66758 1.43882 0.899519 1.12526 1.22466C0.55422 1.8176 0.20813 2.54707 0.0828436 3.4142C0.021935 3.83515 0.00421266 3.921 0.000613795 6.07122C-0.000767244 6.78796 0.000613795 7.73124 0.000613795 8.99647C0.000613795 12.7519 0.0047637 13.85 0.0227648 14.0632C0.0850613 14.8137 0.202728 15.2859 0.451914 15.8024C0.928135 16.7911 1.83765 17.5333 2.90914 17.8103C3.28015 17.9058 3.68992 17.9585 4.21598 17.9834C4.43886 17.9931 6.71058 18 8.98369 18C11.2568 18 13.5299 17.9972 13.7473 17.9862C14.3564 17.9575 14.7101 17.91 15.1012 17.8089C16.1796 17.5306 17.0725 16.7994 17.5584 15.7969C17.8027 15.2928 17.9266 14.8026 17.9827 14.0913C17.9949 13.9362 18 11.4635 18 8.99412C18 6.5243 17.9945 4.05615 17.9823 3.90106C17.9255 3.17824 17.8016 2.6922 17.5494 2.17846C17.3424 1.75791 17.1126 1.44385 16.779 1.12274C16.1836 0.553892 15.4554 0.207707 14.5877 0.0825291C14.1673 0.0217361 14.0835 0.00373493 11.9322 0H9.00294Z"
        fill="url(#paint1_radial_9266_13229)" />
    <path
        d="M9.00294 0C5.24552 0 4.14662 0.00387774 3.93301 0.0215999C3.16193 0.0857128 2.68212 0.207156 2.15938 0.467479C1.75653 0.66758 1.43882 0.899519 1.12526 1.22466C0.55422 1.8176 0.20813 2.54707 0.0828436 3.4142C0.021935 3.83515 0.00421266 3.921 0.000613795 6.07122C-0.000767244 6.78796 0.000613795 7.73124 0.000613795 8.99647C0.000613795 12.7519 0.0047637 13.85 0.0227648 14.0632C0.0850613 14.8137 0.202728 15.2859 0.451914 15.8024C0.928135 16.7911 1.83765 17.5333 2.90914 17.8103C3.28015 17.9058 3.68992 17.9585 4.21598 17.9834C4.43886 17.9931 6.71058 18 8.98369 18C11.2568 18 13.5299 17.9972 13.7473 17.9862C14.3564 17.9575 14.7101 17.91 15.1012 17.8089C16.1796 17.5306 17.0725 16.7994 17.5584 15.7969C17.8027 15.2928 17.9266 14.8026 17.9827 14.0913C17.9949 13.9362 18 11.4635 18 8.99412C18 6.5243 17.9945 4.05615 17.9823 3.90106C17.9255 3.17824 17.8016 2.6922 17.5494 2.17846C17.3424 1.75791 17.1126 1.44385 16.779 1.12274C16.1836 0.553892 15.4554 0.207707 14.5877 0.0825291C14.1673 0.0217361 14.0835 0.00373493 11.9322 0H9.00294Z"
        fill="url(#paint2_radial_9266_13229)" />
    <path
        d="M9.00294 0C5.24552 0 4.14662 0.00387774 3.93301 0.0215999C3.16193 0.0857128 2.68212 0.207156 2.15938 0.467479C1.75653 0.66758 1.43882 0.899519 1.12526 1.22466C0.55422 1.8176 0.20813 2.54707 0.0828436 3.4142C0.021935 3.83515 0.00421266 3.921 0.000613795 6.07122C-0.000767244 6.78796 0.000613795 7.73124 0.000613795 8.99647C0.000613795 12.7519 0.0047637 13.85 0.0227648 14.0632C0.0850613 14.8137 0.202728 15.2859 0.451914 15.8024C0.928135 16.7911 1.83765 17.5333 2.90914 17.8103C3.28015 17.9058 3.68992 17.9585 4.21598 17.9834C4.43886 17.9931 6.71058 18 8.98369 18C11.2568 18 13.5299 17.9972 13.7473 17.9862C14.3564 17.9575 14.7101 17.91 15.1012 17.8089C16.1796 17.5306 17.0725 16.7994 17.5584 15.7969C17.8027 15.2928 17.9266 14.8026 17.9827 14.0913C17.9949 13.9362 18 11.4635 18 8.99412C18 6.5243 17.9945 4.05615 17.9823 3.90106C17.9255 3.17824 17.8016 2.6922 17.5494 2.17846C17.3424 1.75791 17.1126 1.44385 16.779 1.12274C16.1836 0.553892 15.4554 0.207707 14.5877 0.0825291C14.1673 0.0217361 14.0835 0.00373493 11.9322 0H9.00294Z"
        fill="url(#paint3_radial_9266_13229)" />
    <path
        d="M9.00364 2.31152C7.18606 2.31152 6.95796 2.31946 6.24408 2.35193C5.53161 2.38453 5.04528 2.49724 4.61975 2.66263C4.17958 2.83343 3.80619 3.06192 3.4342 3.43378C3.06193 3.8055 2.83326 4.17861 2.66177 4.61832C2.49584 5.04368 2.38291 5.52977 2.35084 6.24145C2.31891 6.95478 2.31055 7.18286 2.31055 8.99909C2.31055 10.8153 2.31864 11.0426 2.35098 11.7559C2.38375 12.4678 2.49655 12.9538 2.6619 13.379C2.83298 13.8189 3.06164 14.192 3.43377 14.5637C3.80563 14.9357 4.17902 15.1648 4.61891 15.3356C5.04472 15.5009 5.53119 15.6137 6.24352 15.6463C6.9574 15.6787 7.18536 15.6867 9.0028 15.6867C10.8205 15.6867 11.0479 15.6787 11.7618 15.6463C12.4743 15.6137 12.9612 15.5009 13.387 15.3356C13.827 15.1648 14.1998 14.9357 14.5717 14.5637C14.944 14.192 15.1726 13.8189 15.3441 13.3792C15.5086 12.9538 15.6216 12.4677 15.655 11.756C15.6871 11.0427 15.6955 10.8153 15.6955 8.99909C15.6955 7.18285 15.6871 6.95493 15.655 6.24158C15.6216 5.52963 15.5086 5.04368 15.3441 4.61846C15.1726 4.17861 14.944 3.8055 14.5717 3.43378C14.1994 3.06178 13.8271 2.83329 13.3866 2.66262C12.9599 2.49724 12.4733 2.38453 11.7608 2.35193C11.047 2.31946 10.8197 2.31152 9.00155 2.31152H9.00364ZM8.40326 3.51668C8.58145 3.5164 8.78028 3.51668 9.00364 3.51668C10.7905 3.51668 11.0023 3.52309 11.708 3.55513C12.3605 3.58495 12.7146 3.6939 12.9506 3.78543C13.2629 3.90664 13.4855 4.05155 13.7196 4.28561C13.9539 4.51968 14.0989 4.7426 14.2205 5.05468C14.3121 5.29013 14.4212 5.64402 14.4509 6.29606C14.483 7.00104 14.49 7.21281 14.49 8.99756C14.49 10.7823 14.483 10.9941 14.4509 11.6991C14.4211 12.3511 14.3121 12.705 14.2205 12.9404C14.0992 13.2525 13.9539 13.4747 13.7196 13.7087C13.4854 13.9427 13.263 14.0876 12.9506 14.2088C12.7149 14.3008 12.3605 14.4095 11.708 14.4393C11.0025 14.4713 10.7905 14.4783 9.00364 14.4783C7.21659 14.4783 7.0048 14.4713 6.2993 14.4393C5.64678 14.4092 5.29263 14.3002 5.05658 14.2087C4.74426 14.0875 4.52117 13.9426 4.28694 13.7085C4.0527 13.4745 3.9077 13.2521 3.78611 12.9399C3.69451 12.7044 3.58534 12.3505 3.55564 11.6985C3.52357 10.9935 3.51715 10.7817 3.51715 8.99589C3.51715 7.21003 3.52357 6.99936 3.55564 6.29439C3.58548 5.64235 3.69451 5.28847 3.78611 5.05273C3.90741 4.74064 4.0527 4.51772 4.28694 4.28366C4.52117 4.04959 4.74426 3.9047 5.05658 3.78321C5.29249 3.69125 5.64678 3.58258 6.2993 3.55262C6.91668 3.52476 7.15594 3.5164 8.40326 3.515L8.40326 3.51668ZM12.5761 4.62709C12.1327 4.62709 11.7729 4.98613 11.7729 5.42932C11.7729 5.87237 12.1327 6.23183 12.5761 6.23183C13.0194 6.23183 13.3792 5.87237 13.3792 5.42932C13.3792 4.98627 13.0194 4.62682 12.5761 4.62682L12.5761 4.62709ZM9.00364 5.56474C7.10561 5.56474 5.56675 7.10247 5.56675 8.99909C5.56675 10.8957 7.10561 12.4327 9.00364 12.4327C10.9017 12.4327 12.44 10.8957 12.44 8.99909C12.44 7.10247 10.9015 5.56474 9.0035 5.56474H9.00364ZM9.00364 6.7699C10.2356 6.7699 11.2345 7.76788 11.2345 8.99909C11.2345 10.2302 10.2356 11.2283 9.00364 11.2283C7.77152 11.2283 6.77279 10.2302 6.77279 8.99909C6.77279 7.76788 7.77152 6.7699 9.00364 6.7699Z"
        fill="white" />
    <defs>
        <radialGradient id="paint0_radial_9266_13229" cx="0" cy="0" r="1" gradientUnits="userSpaceOnUse"
            gradientTransform="translate(17.4188 8.43682) rotate(164.25) scale(11.501 8.2859)">
            <stop stop-color="#FF005F" />
            <stop offset="1" stop-color="#FC01D8" />
        </radialGradient>
        <radialGradient id="paint1_radial_9266_13229" cx="0" cy="0" r="1" gradientUnits="userSpaceOnUse"
            gradientTransform="translate(4.78111 19.3864) rotate(-90) scale(14.3679 15.2441)">
            <stop stop-color="#FFCC00" />
            <stop offset="0.1242" stop-color="#FFCC00" />
            <stop offset="0.5672" stop-color="#FE4A05" />
            <stop offset="0.6942" stop-color="#FF0F3F" />
            <stop offset="1" stop-color="#FE0657" stop-opacity="0" />
        </radialGradient>
        <radialGradient id="paint2_radial_9266_13229" cx="0" cy="0" r="1" gradientUnits="userSpaceOnUse"
            gradientTransform="translate(9.45485 17.7462) rotate(-59.8703) scale(5.94127 7.73486)">
            <stop stop-color="#FFCC00" />
            <stop offset="1" stop-color="#FFCC00" stop-opacity="0" />
        </radialGradient>
        <radialGradient id="paint3_radial_9266_13229" cx="0" cy="0" r="1" gradientUnits="userSpaceOnUse"
            gradientTransform="translate(2.44221 0.732955) rotate(164.274) scale(11.3734 3.87491)">
            <stop stop-color="#780CFF" />
            <stop offset="1" stop-color="#820BFF" stop-opacity="0" />
        </radialGradient>
    </defs>
</svg>
