<svg width="21" height="20" viewBox="0 0 21 20" fill="none" xmlns="http://www.w3.org/2000/svg">
<path fill-rule="evenodd" clip-rule="evenodd" d="M10.5 6.87492C8.77407 6.87492 7.37496 8.27403 7.37496 9.99992C7.37496 11.7258 8.77407 13.1249 10.5 13.1249C12.2259 13.1249 13.625 11.7258 13.625 9.99992C13.625 8.27403 12.2259 6.87492 10.5 6.87492ZM8.62496 9.99992C8.62496 8.96438 9.46443 8.12492 10.5 8.12492C11.5355 8.12492 12.375 8.96438 12.375 9.99992C12.375 11.0355 11.5355 11.8749 10.5 11.8749C9.46443 11.8749 8.62496 11.0355 8.62496 9.99992Z" fill="#5CB85C"/>
<path fill-rule="evenodd" clip-rule="evenodd" d="M10.5 2.70825C6.73818 2.70825 4.20437 4.96175 2.73377 6.8723L2.70724 6.90675C2.37466 7.3387 2.06834 7.73652 1.86053 8.20692C1.638 8.71064 1.54163 9.25966 1.54163 9.99992C1.54163 10.7402 1.638 11.2892 1.86053 11.7929C2.06834 12.2633 2.37466 12.6611 2.70725 13.0931L2.73377 13.1275C4.20437 15.0381 6.73818 17.2916 10.5 17.2916C14.2617 17.2916 16.7956 15.0381 18.2662 13.1275L18.2927 13.0931C18.6253 12.6612 18.9316 12.2633 19.1394 11.7929C19.3619 11.2892 19.4583 10.7402 19.4583 9.99992C19.4583 9.25966 19.3619 8.71064 19.1394 8.20692C18.9316 7.73651 18.6253 7.33868 18.2927 6.90673L18.2662 6.8723C16.7956 4.96175 14.2617 2.70825 10.5 2.70825ZM3.72431 7.63475C5.08216 5.87068 7.29193 3.95825 10.5 3.95825C13.708 3.95825 15.9178 5.87068 17.2756 7.63475C17.6411 8.10958 17.8552 8.3933 17.996 8.71204C18.1276 9.00993 18.2083 9.37403 18.2083 9.99992C18.2083 10.6258 18.1276 10.9899 17.996 11.2878C17.8552 11.6065 17.6411 11.8903 17.2756 12.3651C15.9178 14.1292 13.708 16.0416 10.5 16.0416C7.29193 16.0416 5.08216 14.1292 3.72431 12.3651C3.35882 11.8903 3.14474 11.6065 3.00393 11.2878C2.87232 10.9899 2.79163 10.6258 2.79163 9.99992C2.79163 9.37403 2.87232 9.00993 3.00393 8.71204C3.14474 8.3933 3.35882 8.10958 3.72431 7.63475Z" fill="#5CB85C"/>
</svg>
