<svg width="20" height="20" viewBox="0 0 20 20" fill="none" xmlns="http://www.w3.org/2000/svg">
<path fill-rule="evenodd" clip-rule="evenodd" d="M10.0003 6.87504C8.27444 6.87504 6.87533 8.27415 6.87533 10C6.87533 11.7259 8.27444 13.125 10.0003 13.125C11.7262 13.125 13.1253 11.7259 13.1253 10C13.1253 8.27415 11.7262 6.87504 10.0003 6.87504ZM8.12533 10C8.12533 8.96451 8.96479 8.12504 10.0003 8.12504C11.0359 8.12504 11.8753 8.96451 11.8753 10C11.8753 11.0356 11.0359 11.875 10.0003 11.875C8.96479 11.875 8.12533 11.0356 8.12533 10Z" fill="white"/>
<path fill-rule="evenodd" clip-rule="evenodd" d="M10.0003 2.70837C6.23855 2.70837 3.70474 4.96187 2.23413 6.87243L2.20761 6.90687C1.87502 7.33882 1.56871 7.73664 1.3609 8.20704C1.13836 8.71077 1.04199 9.25978 1.04199 10C1.04199 10.7403 1.13836 11.2893 1.3609 11.793C1.56871 12.2634 1.87503 12.6613 2.20761 13.0932L2.23413 13.1277C3.70474 15.0382 6.23855 17.2917 10.0003 17.2917C13.7621 17.2917 16.2959 15.0382 17.7665 13.1277L17.793 13.0932C18.1256 12.6613 18.4319 12.2634 18.6398 11.793C18.8623 11.2893 18.9587 10.7403 18.9587 10C18.9587 9.25978 18.8623 8.71077 18.6398 8.20704C18.4319 7.73663 18.1256 7.33881 17.793 6.90685L17.7665 6.87243C16.2959 4.96187 13.7621 2.70837 10.0003 2.70837ZM3.22467 7.63487C4.58252 5.87081 6.79229 3.95837 10.0003 3.95837C13.2084 3.95837 15.4181 5.87081 16.776 7.63487C17.1415 8.1097 17.3555 8.39342 17.4964 8.71216C17.628 9.01005 17.7087 9.37415 17.7087 10C17.7087 10.6259 17.628 10.99 17.4964 11.2879C17.3555 11.6067 17.1415 11.8904 16.776 12.3652C15.4181 14.1293 13.2084 16.0417 10.0003 16.0417C6.79229 16.0417 4.58252 14.1293 3.22467 12.3652C2.85919 11.8904 2.64511 11.6067 2.50429 11.2879C2.37269 10.99 2.29199 10.6259 2.29199 10C2.29199 9.37415 2.37269 9.01005 2.50429 8.71216C2.6451 8.39342 2.85919 8.1097 3.22467 7.63487Z" fill="white"/>
</svg>
