<svg width="20" height="20" viewBox="0 0 20 20" fill="none" xmlns="http://www.w3.org/2000/svg">
<path opacity="0.5" d="M1.66663 10.0007C1.66663 11.3668 2.02076 11.8269 2.72904 12.747C4.14326 14.5844 6.51505 16.6673 9.99996 16.6673C13.4849 16.6673 15.8567 14.5844 17.2709 12.747C17.9792 11.8269 18.3333 11.3668 18.3333 10.0007C18.3333 8.6345 17.9792 8.17442 17.2709 7.25426C15.8567 5.41695 13.4849 3.33398 9.99996 3.33398C6.51505 3.33398 4.14326 5.41695 2.72904 7.25426C2.02076 8.17442 1.66663 8.6345 1.66663 10.0007Z" fill="#F39649"/>
<path fill-rule="evenodd" clip-rule="evenodd" d="M6.875 10C6.875 8.27411 8.27411 6.875 10 6.875C11.7259 6.875 13.125 8.27411 13.125 10C13.125 11.7259 11.7259 13.125 10 13.125C8.27411 13.125 6.875 11.7259 6.875 10ZM8.125 10C8.125 8.96447 8.96447 8.125 10 8.125C11.0355 8.125 11.875 8.96447 11.875 10C11.875 11.0355 11.0355 11.875 10 11.875C8.96447 11.875 8.125 11.0355 8.125 10Z" fill="#F39649"/>
</svg>
