<svg width="32" height="32" viewBox="0 0 32 32" fill="none" xmlns="http://www.w3.org/2000/svg">
<path opacity="0.5" d="M24.9988 12.0001V12.9389C24.9988 14.0655 25.3204 15.167 25.9229 16.1044L27.3995 18.4016C28.7482 20.4999 27.7186 23.352 25.3729 24.0155C19.2363 25.7513 12.7637 25.7513 6.62715 24.0155C4.2814 23.352 3.25176 20.4999 4.60048 18.4016L6.07706 16.1044C6.67962 15.167 7.00116 14.0655 7.00116 12.9389V12.0001C7.00116 6.84542 11.0301 2.66675 16 2.66675C20.9699 2.66675 24.9988 6.84542 24.9988 12.0001Z" fill="#55595C"/>
<path d="M9.65771 24.7268C10.5256 27.4003 13.0371 29.3332 15.9999 29.3332C18.9628 29.3332 21.4742 27.4003 22.3421 24.7268C18.1482 25.5138 13.8516 25.5138 9.65771 24.7268Z" fill="#55595C"/>
<circle cx="22" cy="6" r="6" fill="#E4262C"/>
</svg>
