<svg width="14" height="12" viewBox="0 0 14 12" fill="none" xmlns="http://www.w3.org/2000/svg">
<g clip-path="url(#clip0_2289_215)">
<path d="M13.9184 5.65781C12.6474 3.17789 10.1312 1.5 7.24999 1.5C4.36882 1.5 1.85186 3.17906 0.58155 5.65805C0.527935 5.7641 0.5 5.88128 0.5 6.00012C0.5 6.11896 0.527935 6.23613 0.58155 6.34219C1.85257 8.82211 4.36882 10.5 7.24999 10.5C10.1312 10.5 12.6481 8.82094 13.9184 6.34195C13.972 6.2359 14 6.11872 14 5.99988C14 5.88104 13.972 5.76387 13.9184 5.65781ZM7.24999 9.375C6.58248 9.375 5.92995 9.17706 5.37494 8.80621C4.81992 8.43536 4.38734 7.90826 4.13189 7.29156C3.87645 6.67486 3.80961 5.99626 3.93984 5.34157C4.07006 4.68688 4.3915 4.08552 4.8635 3.61351C5.3355 3.14151 5.93687 2.82007 6.59156 2.68985C7.24624 2.55962 7.92484 2.62646 8.54154 2.88191C9.15824 3.13735 9.68535 3.56993 10.0562 4.12495C10.427 4.67997 10.625 5.33249 10.625 6C10.6252 6.44327 10.5381 6.88224 10.3685 7.29181C10.199 7.70138 9.95039 8.07353 9.63695 8.38697C9.32351 8.70041 8.95137 8.949 8.5418 9.11853C8.13223 9.28807 7.69326 9.37522 7.24999 9.375ZM7.24999 3.75C7.04916 3.75281 6.84963 3.78269 6.65678 3.83883C6.81574 4.05485 6.89202 4.32068 6.87179 4.58811C6.85156 4.85555 6.73616 5.10688 6.54651 5.29652C6.35686 5.48617 6.10553 5.60157 5.8381 5.6218C5.57066 5.64203 5.30483 5.56575 5.08882 5.4068C4.96581 5.85998 4.98801 6.34033 5.1523 6.78023C5.31659 7.22014 5.6147 7.59745 6.00466 7.85905C6.39462 8.12066 6.8568 8.25339 7.32615 8.23856C7.7955 8.22374 8.24838 8.0621 8.62105 7.7764C8.99372 7.4907 9.26742 7.09533 9.40362 6.64593C9.53982 6.19654 9.53166 5.71574 9.38029 5.27123C9.22893 4.82671 8.94197 4.44085 8.55982 4.16796C8.17767 3.89507 7.71957 3.74889 7.24999 3.75Z" fill="#888888"/>
</g>
<defs>
<clipPath id="clip0_2289_215">
<rect width="13.5" height="12" fill="white" transform="translate(0.5)"/>
</clipPath>
</defs>
</svg>
