<svg width="22" height="22" viewBox="0 0 22 22" fill="none" xmlns="http://www.w3.org/2000/svg">
<rect x="1" y="1" width="20" height="20" rx="10" fill="#00923F"/>
<path opacity="0.5" d="M9.79618 6.60015C9.67443 6.70391 9.61355 6.75579 9.54853 6.79937C9.39948 6.89927 9.23209 6.96861 9.05605 7.00336C8.97926 7.01852 8.89952 7.02489 8.74004 7.03761L8.74004 7.03761C8.33935 7.06959 8.139 7.08558 7.97185 7.14461C7.58525 7.28117 7.28117 7.58525 7.14461 7.97185C7.08558 8.139 7.06959 8.33935 7.03761 8.74004L7.03761 8.74004C7.02489 8.89952 7.01852 8.97926 7.00336 9.05605C6.96861 9.23209 6.89927 9.39948 6.79937 9.54853C6.75579 9.61355 6.70391 9.67443 6.60014 9.79619L6.60014 9.7962C6.33942 10.1021 6.20905 10.2551 6.13261 10.4151C5.9558 10.785 5.9558 11.215 6.13261 11.5849C6.20905 11.7449 6.33941 11.8979 6.60014 12.2038L6.60015 12.2038C6.7039 12.3256 6.75579 12.3865 6.79937 12.4515C6.89927 12.6005 6.96861 12.7679 7.00336 12.9439C7.01852 13.0207 7.02489 13.1005 7.03761 13.26L7.03761 13.26C7.06959 13.6607 7.08558 13.861 7.14461 14.0281C7.28117 14.4147 7.58525 14.7188 7.97185 14.8554C8.139 14.9144 8.33933 14.9304 8.74 14.9624L8.74004 14.9624C8.89952 14.9751 8.97926 14.9815 9.05605 14.9966C9.23209 15.0314 9.39948 15.1007 9.54853 15.2006C9.61355 15.2442 9.67444 15.2961 9.7962 15.3999C10.1021 15.6606 10.2551 15.7909 10.4151 15.8674C10.785 16.0442 11.215 16.0442 11.5849 15.8674C11.7449 15.7909 11.8979 15.6606 12.2038 15.3999C12.3256 15.2961 12.3864 15.2442 12.4515 15.2006C12.6005 15.1007 12.7679 15.0314 12.9439 14.9966C13.0207 14.9815 13.1005 14.9751 13.26 14.9624L13.26 14.9624C13.6607 14.9304 13.861 14.9144 14.0281 14.8554C14.4147 14.7188 14.7188 14.4147 14.8554 14.0281C14.9144 13.861 14.9304 13.6607 14.9624 13.26L14.9624 13.26C14.9751 13.1005 14.9815 13.0207 14.9966 12.9439C15.0314 12.7679 15.1007 12.6005 15.2006 12.4515C15.2442 12.3864 15.2961 12.3256 15.3999 12.2038C15.6606 11.8979 15.7909 11.7449 15.8674 11.5849C16.0442 11.215 16.0442 10.785 15.8674 10.4151C15.7909 10.2551 15.6606 10.1021 15.3999 9.7962C15.2961 9.67444 15.2442 9.61355 15.2006 9.54853C15.1007 9.39948 15.0314 9.23209 14.9966 9.05605C14.9815 8.97926 14.9751 8.89952 14.9624 8.74004L14.9624 8.74C14.9304 8.33933 14.9144 8.139 14.8554 7.97185C14.7188 7.58525 14.4147 7.28117 14.0281 7.14461C13.861 7.08558 13.6607 7.06959 13.26 7.03761L13.26 7.03761C13.1005 7.02489 13.0207 7.01852 12.9439 7.00336C12.7679 6.96861 12.6005 6.89927 12.4515 6.79937C12.3864 6.75579 12.3256 6.7039 12.2038 6.60014C11.8979 6.33941 11.7449 6.20905 11.5849 6.13261C11.215 5.9558 10.785 5.9558 10.4151 6.13261C10.2551 6.20905 10.1021 6.33942 9.7962 6.60014L9.79618 6.60015Z" fill="#F5FFF9"/>
<path d="M13.1868 9.93149C13.3457 9.77257 13.3457 9.51492 13.1868 9.356C13.0279 9.19709 12.7702 9.19709 12.6113 9.356L10.1862 11.7811L9.38876 10.9837C9.22985 10.8248 8.97219 10.8248 8.81328 10.9837C8.65436 11.1426 8.65436 11.4003 8.81328 11.5592L9.89843 12.6444C10.0573 12.8033 10.315 12.8033 10.4739 12.6444L13.1868 9.93149Z" fill="#F5FFF9"/>
<rect x="1" y="1" width="20" height="20" rx="10" stroke="#F5FFF9"/>
</svg>
