<svg width="22" height="22" viewBox="0 0 22 22" fill="none" xmlns="http://www.w3.org/2000/svg">
<rect x="1" y="1" width="20" height="20" rx="10" fill="#EC3832"/>
<g opacity="0.5">
<path d="M15.9998 11.4088L15.7955 11.2045C15.3562 10.7652 14.6438 10.7652 14.2045 11.2045L13.8038 11.6052C13.6439 11.1786 13.2324 10.875 12.75 10.875C12.1287 10.875 11.625 11.3787 11.625 12V12.8819C11.38 12.9092 11.1423 13.0167 10.9545 13.2045C10.5152 13.6438 10.5152 14.3562 10.9545 14.7955L11.159 15H10C8.11438 15 7.17157 15 6.58579 14.4142C6 13.8284 6 12.8856 6 11C6 10.779 6.00094 10.196 6.00188 10H16C16.0009 10.196 16 10.779 16 11C16 11.1415 16 11.2777 15.9998 11.4088Z" fill="white"/>
</g>
<path d="M7.625 13C7.625 12.7929 7.79289 12.625 8 12.625H10C10.2071 12.625 10.375 12.7929 10.375 13C10.375 13.2071 10.2071 13.375 10 13.375H8C7.79289 13.375 7.625 13.2071 7.625 13Z" fill="white"/>
<path d="M9.99742 7H12.0026C13.8931 7 14.8383 7 15.4256 7.55789C15.8485 7.95958 15.9668 8.53753 16 9.5V10H6V9.5C6.03315 8.53753 6.15155 7.95958 6.57441 7.55789C7.1617 7 8.10694 7 9.99742 7Z" fill="white"/>
<path d="M14.7348 11.7348C14.8813 11.5884 15.1187 11.5884 15.2652 11.7348L16.2652 12.7348C16.4116 12.8813 16.4116 13.1187 16.2652 13.2652C16.1187 13.4116 15.8813 13.4116 15.7348 13.2652L15.375 12.9053V15C15.375 15.2071 15.2071 15.375 15 15.375C14.7929 15.375 14.625 15.2071 14.625 15V12.9053L14.2652 13.2652C14.1187 13.4116 13.8813 13.4116 13.7348 13.2652C13.5884 13.1187 13.5884 12.8813 13.7348 12.7348L14.7348 11.7348Z" fill="white"/>
<path fill-rule="evenodd" clip-rule="evenodd" d="M12.75 11.625C12.9571 11.625 13.125 11.7929 13.125 12V14.0947L13.4848 13.7348C13.6313 13.5884 13.8687 13.5884 14.0152 13.7348C14.1616 13.8813 14.1616 14.1187 14.0152 14.2652L13.0152 15.2652C12.8687 15.4116 12.6313 15.4116 12.4848 15.2652L11.4848 14.2652C11.3384 14.1187 11.3384 13.8813 11.4848 13.7348C11.6313 13.5884 11.8687 13.5884 12.0152 13.7348L12.375 14.0947V12C12.375 11.7929 12.5429 11.625 12.75 11.625Z" fill="white"/>
<rect x="1" y="1" width="20" height="20" rx="10" stroke="#F7EDED"/>
</svg>
