<svg width="22" height="22" viewBox="0 0 22 22" fill="none" xmlns="http://www.w3.org/2000/svg">
<rect x="1" y="1" width="20" height="20" rx="10" fill="#212122"/>
<path opacity="0.5" d="M9.49978 15H12.4998C13.4426 15 13.914 15 14.2069 14.7071C14.4427 14.4713 14.4886 14.1199 14.4976 13.5H7.50195C7.51092 14.1199 7.5569 14.4713 7.79267 14.7071C8.08557 15 8.55697 15 9.49978 15Z" fill="#EDF7ED"/>
<path d="M10.625 8H9.5C8.55719 8 8.08579 8 7.79289 8.29289C7.5 8.58579 7.5 9.05719 7.5 10V13C7.5 13.1839 7.5 13.3498 7.50217 13.5H14.4978C14.5 13.3498 14.5 13.1839 14.5 13V10C14.5 9.05719 14.5 8.58579 14.2071 8.29289C13.9142 8 13.4428 8 12.5 8H11.375V10.4863L11.7153 10.0893C11.8501 9.93204 12.0868 9.91383 12.244 10.0486C12.4013 10.1834 12.4195 10.4201 12.2847 10.5774L11.2847 11.744C11.2135 11.8272 11.1095 11.875 11 11.875C10.8905 11.875 10.7865 11.8272 10.7153 11.744L9.71528 10.5774C9.5805 10.4201 9.59871 10.1834 9.75595 10.0486C9.9132 9.91383 10.1499 9.93204 10.2847 10.0893L10.625 10.4863V8Z" fill="#EDF7ED"/>
<path opacity="0.5" d="M14.0556 6.5H7.94444C6.87056 6.5 6 7.39999 6 8.51018C6 9.46229 6.64029 10.2598 7.5 10.4676V10C7.5 9.05719 7.5 8.58579 7.79289 8.29289C8.08579 8 8.55719 8 9.5 8H10.625H11.375H12.5C13.4428 8 13.9142 8 14.2071 8.29289C14.5 8.58579 14.5 9.05719 14.5 10V10.4676C15.3597 10.2598 16 9.46229 16 8.51018C16 7.39999 15.1294 6.5 14.0556 6.5Z" fill="#EDF7ED"/>
<rect x="1" y="1" width="20" height="20" rx="10" stroke="#EDF7ED"/>
</svg>
