<svg width="21" height="20" viewBox="0 0 21 20" fill="none" xmlns="http://www.w3.org/2000/svg">
<path opacity="0.5" d="M2.1665 10.0003C2.1665 6.07195 2.1665 4.10777 3.38689 2.88738C4.60728 1.66699 6.57147 1.66699 10.4998 1.66699C14.4282 1.66699 16.3924 1.66699 17.6128 2.88738C18.8332 4.10777 18.8332 6.07195 18.8332 10.0003C18.8332 13.9287 18.8332 15.8929 17.6128 17.1133C16.3924 18.3337 14.4282 18.3337 10.4998 18.3337C6.57147 18.3337 4.60728 18.3337 3.38689 17.1133C2.1665 15.8929 2.1665 13.9287 2.1665 10.0003Z" fill="#9D9EA2"/>
<path d="M3.38693 17.1126C4.60735 18.333 6.57159 18.333 10.5001 18.333C14.4286 18.333 16.3928 18.333 17.6132 17.1126C18.7441 15.9818 18.8271 14.2122 18.8332 10.833H16.2C15.4457 10.833 15.0685 10.833 14.737 10.9855C14.4055 11.138 14.16 11.4243 13.6691 11.997L13.1646 12.5856C12.6736 13.1584 12.4282 13.4447 12.0967 13.5972C11.7651 13.7497 11.388 13.7497 10.6336 13.7497H10.3665C9.61219 13.7497 9.23503 13.7497 8.9035 13.5972C8.57196 13.4447 8.32651 13.1584 7.8356 12.5856L7.33106 11.997C6.84015 11.4243 6.59469 11.138 6.26316 10.9855C5.93163 10.833 5.55446 10.833 4.80013 10.833H2.1665C2.17259 14.2122 2.25604 15.9818 3.38693 17.1126Z" fill="#9D9EA2"/>
<path d="M10.9419 4.97505C10.8247 4.85784 10.6658 4.79199 10.5 4.79199C10.3342 4.79199 10.1753 4.85784 10.0581 4.97505L7.30806 7.72505C7.06398 7.96913 7.06398 8.36486 7.30806 8.60893C7.55214 8.85301 7.94786 8.85301 8.19194 8.60893L9.875 6.92588L9.875 13.7481C9.43007 13.7412 9.15378 13.713 8.9035 13.5978C8.57196 13.4454 8.32651 13.159 7.8356 12.5863L7.33106 11.9977C6.84015 11.425 6.59469 11.1386 6.26316 10.9861C5.93163 10.8337 5.55446 10.8337 4.80013 10.8337H2.1665C2.17259 14.2129 2.25604 15.9824 3.38693 17.1133C4.60735 18.3337 6.57159 18.3337 10.5001 18.3337C14.4286 18.3337 16.3928 18.3337 17.6132 17.1133C18.7441 15.9824 18.8271 14.2129 18.8332 10.8337H16.2C15.4457 10.8337 15.0685 10.8337 14.737 10.9861C14.4055 11.1386 14.16 11.425 13.6691 11.9977L13.1646 12.5863C12.6736 13.159 12.4282 13.4454 12.0967 13.5978C11.8463 13.713 11.57 13.7412 11.125 13.7481V6.92588L12.8081 8.60893C13.0521 8.85301 13.4479 8.85301 13.6919 8.60893C13.936 8.36486 13.936 7.96913 13.6919 7.72505L10.9419 4.97505Z" fill="#9D9EA2"/>
</svg>
