<svg width="21" height="20" viewBox="0 0 21 20" fill="none" xmlns="http://www.w3.org/2000/svg">
<path fill-rule="evenodd" clip-rule="evenodd" d="M10.0584 1.22505C10.3025 0.980973 10.6982 0.980973 10.9423 1.22505L13.4423 3.72505C13.6863 3.96913 13.6863 4.36486 13.4423 4.60893C13.1982 4.85301 12.8025 4.85301 12.5584 4.60893L11.1253 3.17588V8.33366C11.1253 8.67884 10.8455 8.95866 10.5003 8.95866C10.1551 8.95866 9.87533 8.67884 9.87533 8.33366V3.17588L8.44227 4.60893C8.19819 4.85301 7.80246 4.85301 7.55838 4.60893C7.31431 4.36486 7.31431 3.96913 7.55838 3.72505L10.0584 1.22505ZM14.045 1.71153C14.0788 1.36801 14.3847 1.11693 14.7282 1.15072C16.1372 1.28931 17.2234 1.6136 18.0552 2.44544C18.8009 3.19111 19.1387 4.14113 19.3005 5.34508C19.4587 6.52132 19.4587 8.02885 19.4587 9.95252V10.0481C19.4587 10.3101 19.4587 10.5644 19.4583 10.8112C19.4585 10.8187 19.4587 10.8261 19.4587 10.8337C19.4587 10.8419 19.4585 10.8501 19.4582 10.8583C19.4554 12.4017 19.4358 13.6497 19.3005 14.6556C19.1387 15.8595 18.8009 16.8095 18.0552 17.5552C17.3095 18.3009 16.3595 18.6387 15.1556 18.8005C13.9793 18.9587 12.4718 18.9587 10.5481 18.9587H10.4525C8.52885 18.9587 7.02132 18.9587 5.84508 18.8005C4.64113 18.6387 3.69111 18.3009 2.94544 17.5552C2.19976 16.8095 1.86198 15.8595 1.70011 14.6556C1.56488 13.6497 1.5453 12.4017 1.54247 10.8583C1.54215 10.8501 1.54199 10.8419 1.54199 10.8337C1.54199 10.8261 1.54212 10.8187 1.54239 10.8112C1.54199 10.5644 1.54199 10.3102 1.54199 10.0481V9.95251C1.54198 8.02885 1.54197 6.52132 1.70011 5.34508C1.86198 4.14113 2.19976 3.19111 2.94544 2.44544C3.77728 1.6136 4.8634 1.28931 6.27248 1.15072C6.616 1.11693 6.92187 1.36801 6.95566 1.71153C6.98945 2.05505 6.73836 2.36092 6.39484 2.39471C5.09534 2.52253 4.35828 2.80037 3.82932 3.32932C3.35461 3.80404 3.0822 4.4463 2.93897 5.51164C2.79332 6.59495 2.79199 8.01847 2.79199 10.0003C2.79199 10.0705 2.79199 10.1399 2.792 10.2087H4.80054C4.83829 10.2087 4.87559 10.2086 4.91244 10.2086C5.5562 10.2079 6.06604 10.2074 6.52469 10.4183C6.98334 10.6293 7.31473 11.0167 7.73317 11.5059C7.75712 11.5339 7.78137 11.5623 7.80593 11.5909L8.31046 12.1796C8.83858 12.7957 8.98681 12.9481 9.16495 13.03C9.34309 13.112 9.55527 13.1253 10.3668 13.1253H10.6339C11.4454 13.1253 11.6576 13.112 11.8357 13.03C12.0138 12.9481 12.1621 12.7957 12.6902 12.1796L13.1947 11.5909C13.2193 11.5623 13.2435 11.5339 13.2675 11.5059C13.6859 11.0167 14.0173 10.6293 14.476 10.4183C14.9346 10.2074 15.4445 10.2079 16.0882 10.2086C16.1251 10.2086 16.1624 10.2087 16.2001 10.2087H18.2086C18.2087 10.1399 18.2087 10.0705 18.2087 10.0003C18.2087 8.01847 18.2073 6.59495 18.0617 5.51164C17.9185 4.4463 17.646 3.80404 17.1713 3.32932C16.6424 2.80037 15.9053 2.52253 14.6058 2.39471C14.2623 2.36092 14.0112 2.05505 14.045 1.71153ZM18.2057 11.4587H16.2001C15.3886 11.4587 15.1764 11.472 14.9983 11.554C14.8201 11.6359 14.6719 11.7883 14.1438 12.4044L13.6393 12.993C13.6147 13.0217 13.5905 13.05 13.5665 13.0781C13.1481 13.5673 12.8167 13.9547 12.358 14.1657C11.8994 14.3766 11.3895 14.3761 10.7458 14.3754C10.7089 14.3754 10.6716 14.3753 10.6339 14.3753H10.3668C10.329 14.3753 10.2917 14.3754 10.2549 14.3754C9.61112 14.3761 9.10128 14.3766 8.64263 14.1657C8.18398 13.9547 7.85259 13.5673 7.43415 13.0781C7.41019 13.05 7.38595 13.0217 7.36138 12.993L6.85686 12.4044C6.32874 11.7883 6.18051 11.6359 6.00237 11.554C5.82423 11.472 5.61205 11.4587 4.80054 11.4587H2.79491C2.80277 12.7108 2.83181 13.692 2.93897 14.489C3.0822 15.5543 3.35461 16.1966 3.82932 16.6713C4.30404 17.146 4.9463 17.4185 6.01164 17.5617C7.09495 17.7073 8.51847 17.7087 10.5003 17.7087C12.4822 17.7087 13.9057 17.7073 14.989 17.5617C16.0543 17.4185 16.6966 17.146 17.1713 16.6713C17.646 16.1966 17.9185 15.5543 18.0617 14.489C18.1688 13.692 18.1979 12.7108 18.2057 11.4587Z" fill="white"/>
</svg>
