<svg width="20" height="20" viewBox="0 0 20 20" fill="none" xmlns="http://www.w3.org/2000/svg">
<path fill-rule="evenodd" clip-rule="evenodd" d="M15.3035 2.54883C15.6486 2.54883 15.9285 2.82865 15.9285 3.17383V6.70936C15.9285 7.05454 15.6486 7.33436 15.3035 7.33436H11.7679C11.4228 7.33436 11.1429 7.05454 11.1429 6.70936C11.1429 6.36418 11.4228 6.08436 11.7679 6.08436H13.7349C11.3638 4.21513 7.91575 4.37436 5.72806 6.56205C3.36864 8.92147 3.36864 12.7468 5.72806 15.1063C8.08748 17.4657 11.9128 17.4657 14.2723 15.1063C15.853 13.5255 16.3755 11.2865 15.8367 9.26904C15.7477 8.93555 15.9458 8.593 16.2793 8.50394C16.6128 8.41489 16.9554 8.61304 17.0444 8.94653C17.6936 11.3773 17.0651 14.0811 15.1561 15.9901C12.3086 18.8377 7.69175 18.8377 4.84418 15.9901C1.9966 13.1426 1.9966 8.52574 4.84418 5.67816C7.53752 2.98482 11.8137 2.83894 14.6785 5.24055V3.17383C14.6785 2.82865 14.9583 2.54883 15.3035 2.54883Z" fill="white"/>
</svg>
