<svg width="19" height="18" viewBox="0 0 19 18" fill="none" xmlns="http://www.w3.org/2000/svg">
<path d="M7.85854 6.47455C7.61447 6.23047 7.21874 6.23047 6.97466 6.47455C6.73058 6.71863 6.73058 7.11436 6.97466 7.35843L8.61606 8.99983L6.97468 10.6412C6.7306 10.8853 6.7306 11.281 6.97468 11.5251C7.21875 11.7692 7.61448 11.7692 7.85856 11.5251L9.49994 9.88372L11.1413 11.5251C11.3854 11.7692 11.7811 11.7692 12.0252 11.5251C12.2693 11.281 12.2693 10.8853 12.0252 10.6412L10.3838 8.99983L12.0252 7.35845C12.2693 7.11437 12.2693 6.71864 12.0252 6.47457C11.7811 6.23049 11.3854 6.23049 11.1413 6.47457L9.49994 8.11595L7.85854 6.47455Z" fill="white"/>
<path fill-rule="evenodd" clip-rule="evenodd" d="M9.49996 0.0415039C4.55241 0.0415039 0.541626 4.05229 0.541626 8.99984C0.541626 13.9474 4.55241 17.9582 9.49996 17.9582C14.4475 17.9582 18.4583 13.9474 18.4583 8.99984C18.4583 4.05229 14.4475 0.0415039 9.49996 0.0415039ZM1.79163 8.99984C1.79163 4.74264 5.24276 1.2915 9.49996 1.2915C13.7572 1.2915 17.2083 4.74264 17.2083 8.99984C17.2083 13.257 13.7572 16.7082 9.49996 16.7082C5.24276 16.7082 1.79163 13.257 1.79163 8.99984Z" fill="white"/>
</svg>
