<svg width="21" height="20" viewBox="0 0 21 20" fill="none" xmlns="http://www.w3.org/2000/svg">
<path fill-rule="evenodd" clip-rule="evenodd" d="M9.32784 1.9322C10.069 1.57794 10.9307 1.57794 11.6718 1.9322C11.9938 2.0861 12.2889 2.33776 12.6974 2.68623C12.7186 2.70432 12.7401 2.72267 12.762 2.74128C12.9604 2.91035 13.0229 2.96234 13.0861 3.00471C13.2469 3.11249 13.4275 3.1873 13.6174 3.22479C13.6921 3.23954 13.773 3.24696 14.0329 3.26769C14.0615 3.26998 14.0896 3.27221 14.1174 3.27442C14.6527 3.31689 15.0393 3.34757 15.3758 3.46643C16.1504 3.74002 16.7597 4.34929 17.0332 5.12388C17.1521 5.46039 17.1828 5.84697 17.2253 6.38226C17.2275 6.41004 17.2297 6.43823 17.232 6.46683C17.2527 6.72667 17.2601 6.80761 17.2749 6.88228C17.3124 7.0722 17.3872 7.2528 17.495 7.4136C17.5373 7.47683 17.5893 7.53931 17.7584 7.73771C17.777 7.75955 17.7954 7.78107 17.8135 7.80228C18.1619 8.21081 18.4136 8.50585 18.5675 8.82784C18.9217 9.56902 18.9217 10.4307 18.5675 11.1718C18.4136 11.4938 18.1619 11.7889 17.8135 12.1974C17.7954 12.2186 17.777 12.2401 17.7584 12.262C17.5893 12.4604 17.5373 12.5229 17.495 12.5861C17.3872 12.7469 17.3124 12.9275 17.2749 13.1174C17.2601 13.1921 17.2527 13.273 17.232 13.5329C17.2297 13.5615 17.2275 13.5896 17.2253 13.6174C17.1828 14.1527 17.1521 14.5393 17.0332 14.8758C16.7597 15.6504 16.1504 16.2597 15.3758 16.5332C15.0393 16.6521 14.6527 16.6828 14.1174 16.7253C14.0896 16.7275 14.0615 16.7297 14.0329 16.732C13.773 16.7527 13.6921 16.7601 13.6174 16.7749C13.4275 16.8124 13.2469 16.8872 13.0861 16.995C13.0229 17.0373 12.9604 17.0893 12.762 17.2584C12.7401 17.277 12.7186 17.2954 12.6974 17.3135C12.2889 17.6619 11.9938 17.9136 11.6718 18.0675C10.9307 18.4217 10.069 18.4217 9.32784 18.0675C9.00584 17.9136 8.7108 17.6619 8.30226 17.3134C8.28105 17.2954 8.25954 17.277 8.23771 17.2584C8.03931 17.0893 7.97683 17.0373 7.9136 16.995C7.7528 16.8872 7.5722 16.8124 7.38228 16.7749C7.30761 16.7601 7.22667 16.7527 6.96683 16.732C6.93823 16.7297 6.91004 16.7275 6.88226 16.7253C6.34697 16.6828 5.96039 16.6521 5.62388 16.5332C4.84929 16.2597 4.24002 15.6504 3.96643 14.8758C3.84757 14.5393 3.81689 14.1527 3.77442 13.6174C3.77221 13.5896 3.76998 13.5615 3.76769 13.5329C3.74696 13.273 3.73954 13.1921 3.72479 13.1174C3.6873 12.9275 3.61249 12.7469 3.50471 12.5861C3.46234 12.5229 3.41035 12.4604 3.24128 12.262C3.22267 12.2401 3.20432 12.2186 3.18623 12.1974C2.83776 11.7889 2.5861 11.4938 2.4322 11.1718C2.07794 10.4307 2.07794 9.56902 2.4322 8.82784C2.5861 8.50585 2.83776 8.2108 3.18623 7.80227C3.20432 7.78106 3.22267 7.75955 3.24128 7.73771C3.41035 7.53931 3.46234 7.47683 3.50471 7.4136C3.61249 7.2528 3.6873 7.0722 3.72479 6.88228C3.73954 6.80761 3.74696 6.72667 3.76769 6.46683C3.76998 6.43823 3.77221 6.41004 3.77442 6.38226C3.81689 5.84698 3.84757 5.46039 3.96643 5.12388C4.24002 4.34929 4.84929 3.74002 5.62388 3.46643C5.96039 3.34757 6.34698 3.31689 6.88226 3.27442C6.91004 3.27221 6.93823 3.26998 6.96683 3.26769C7.22667 3.24696 7.30761 3.23954 7.38228 3.22479C7.5722 3.1873 7.7528 3.11249 7.9136 3.00471C7.97683 2.96234 8.03931 2.91035 8.23771 2.74128C8.25955 2.72267 8.28106 2.70432 8.30226 2.68623C8.7108 2.33776 9.00584 2.0861 9.32784 1.9322ZM11.1309 3.06392C10.7318 2.87316 10.2679 2.87316 9.86876 3.06392C9.71446 3.13767 9.55183 3.26943 9.0513 3.69598C9.04308 3.70298 9.03497 3.7099 9.02697 3.71672C8.86271 3.85676 8.7428 3.95898 8.61197 4.04667C8.31333 4.24683 7.97794 4.38575 7.62524 4.45539C7.47072 4.48589 7.31365 4.4984 7.09848 4.51553C7.08799 4.51636 7.07737 4.51721 7.06661 4.51807C6.41107 4.57038 6.20289 4.59221 6.04164 4.64916C5.62455 4.79648 5.29648 5.12455 5.14916 5.54164C5.09221 5.70289 5.07038 5.91107 5.01807 6.56661C5.01721 6.57737 5.01636 6.58799 5.01553 6.59848C4.9984 6.81365 4.98589 6.97072 4.95539 7.12524C4.88575 7.47794 4.74683 7.81333 4.54667 8.11197C4.45898 8.2428 4.35676 8.36271 4.21672 8.52697C4.20989 8.53498 4.20298 8.54308 4.19598 8.5513C3.76943 9.05183 3.63767 9.21446 3.56392 9.36876C3.37316 9.76786 3.37316 10.2318 3.56392 10.6309C3.63767 10.7852 3.76943 10.9479 4.19598 11.4484C4.20298 11.4566 4.2099 11.4647 4.21672 11.4727C4.35676 11.637 4.45898 11.7569 4.54667 11.8877C4.74683 12.1863 4.88575 12.5217 4.95539 12.8744C4.98589 13.029 4.9984 13.186 5.01553 13.4012C5.01636 13.4117 5.01721 13.4223 5.01807 13.4331C5.07038 14.0886 5.09221 14.2968 5.14916 14.458C5.29648 14.8751 5.62455 15.2032 6.04164 15.3505C6.20289 15.4075 6.41107 15.4293 7.06661 15.4816L7.09847 15.4842C7.31365 15.5013 7.47072 15.5138 7.62524 15.5443C7.97794 15.6139 8.31333 15.7528 8.61197 15.953C8.7428 16.0407 8.86271 16.1429 9.02697 16.283L9.0513 16.3037C9.55183 16.7302 9.71446 16.862 9.86876 16.9358C10.2679 17.1265 10.7318 17.1265 11.1309 16.9358C11.2852 16.862 11.4479 16.7302 11.9484 16.3037L11.9727 16.2829C12.137 16.1429 12.2569 16.0407 12.3877 15.953C12.6863 15.7528 13.0217 15.6139 13.3744 15.5443C13.529 15.5138 13.686 15.5013 13.9012 15.4842L13.9331 15.4816C14.5886 15.4293 14.7968 15.4075 14.958 15.3505C15.3751 15.2032 15.7032 14.8751 15.8505 14.458C15.9075 14.2968 15.9293 14.0886 15.9816 13.4331L15.9842 13.4012C16.0013 13.186 16.0138 13.029 16.0443 12.8744C16.1139 12.5217 16.2528 12.1863 16.453 11.8877C16.5407 11.7569 16.6429 11.637 16.7829 11.4727L16.8037 11.4484C17.2302 10.9479 17.362 10.7852 17.4358 10.6309C17.6265 10.2318 17.6265 9.76786 17.4358 9.36876C17.362 9.21447 17.2302 9.05183 16.8037 8.5513L16.7829 8.52695C16.6429 8.3627 16.5407 8.2428 16.453 8.11197C16.2528 7.81333 16.1139 7.47794 16.0443 7.12524C16.0138 6.97072 16.0013 6.81365 15.9842 6.59847L15.9816 6.56661C15.9293 5.91107 15.9075 5.70289 15.8505 5.54164C15.7032 5.12455 15.3751 4.79648 14.958 4.64916C14.7968 4.59221 14.5886 4.57038 13.9331 4.51807C13.9223 4.51721 13.9117 4.51636 13.9012 4.51553C13.686 4.4984 13.529 4.48589 13.3744 4.45539C13.0217 4.38575 12.6863 4.24683 12.3877 4.04667C12.2569 3.95898 12.137 3.85675 11.9727 3.71672C11.9647 3.70989 11.9566 3.70298 11.9484 3.69598C11.4479 3.26943 11.2852 3.13767 11.1309 3.06392ZM13.8701 7.46578C14.1151 7.71071 14.1151 8.10781 13.8701 8.35274L9.68897 12.5339C9.44404 12.7788 9.04694 12.7788 8.80201 12.5339L7.12955 10.8614C6.88462 10.6165 6.88462 10.2194 7.12955 9.97447C7.37448 9.72955 7.77158 9.72955 8.01651 9.97447L9.24549 11.2035L12.9832 7.46578C13.2281 7.22085 13.6252 7.22085 13.8701 7.46578Z" fill="white"/>
</svg>
