<svg width="21" height="20" viewBox="0 0 21 20" fill="none" xmlns="http://www.w3.org/2000/svg">
<path opacity="0.5" d="M8.49372 2.66627C8.2908 2.83919 8.18933 2.92567 8.08097 2.9983C7.83255 3.1648 7.55356 3.28036 7.26016 3.33828C7.13217 3.36355 6.99928 3.37416 6.73348 3.39537L6.73347 3.39537C6.06566 3.44866 5.73175 3.47531 5.45317 3.57371C4.80884 3.80129 4.30202 4.30811 4.07444 4.95244C3.97604 5.23102 3.94939 5.56492 3.8961 6.23274L3.8961 6.23275C3.87489 6.49854 3.86429 6.63144 3.83902 6.75943C3.78109 7.05283 3.66553 7.33181 3.49903 7.58023C3.42639 7.6886 3.33992 7.79008 3.16697 7.99302C2.73244 8.50292 2.51517 8.75788 2.38776 9.02444C2.09308 9.64098 2.09308 10.3577 2.38776 10.9743C2.51517 11.2408 2.73244 11.4958 3.16697 12.0057L3.167 12.0057C3.33991 12.2086 3.4264 12.3101 3.49903 12.4185C3.66553 12.6669 3.78109 12.9459 3.83902 13.2393C3.86429 13.3673 3.87489 13.5002 3.8961 13.7659L3.8961 13.766C3.9494 14.4338 3.97604 14.7677 4.07444 15.0463C4.30202 15.6906 4.80884 16.1974 5.45317 16.425C5.73174 16.5234 6.06565 16.55 6.73344 16.6033L6.73348 16.6033C6.99928 16.6245 7.13217 16.6351 7.26016 16.6604C7.55356 16.7183 7.83255 16.8339 8.08096 17.0004C8.18934 17.073 8.29081 17.1595 8.49375 17.3325C9.00365 17.767 9.25861 17.9843 9.52517 18.1117C10.1417 18.4064 10.8585 18.4064 11.475 18.1117C11.7416 17.9843 11.9965 17.767 12.5064 17.3325C12.7094 17.1595 12.8108 17.073 12.9192 17.0004C13.1676 16.8339 13.4466 16.7183 13.74 16.6604C13.868 16.6351 14.0009 16.6245 14.2667 16.6033L14.2667 16.6033C14.9345 16.55 15.2684 16.5234 15.547 16.425C16.1913 16.1974 16.6981 15.6906 16.9257 15.0463C17.0241 14.7677 17.0508 14.4338 17.1041 13.766L17.1041 13.7659C17.1253 13.5002 17.1359 13.3673 17.1611 13.2393C17.2191 12.9459 17.3346 12.6669 17.5011 12.4185C17.5738 12.3101 17.6602 12.2086 17.8332 12.0057C18.2677 11.4958 18.485 11.2408 18.6124 10.9743C18.9071 10.3577 18.9071 9.64098 18.6124 9.02444C18.485 8.75787 18.2677 8.50292 17.8332 7.99302C17.6602 7.79008 17.5738 7.6886 17.5011 7.58023C17.3346 7.33181 17.2191 7.05283 17.1611 6.75943C17.1359 6.63144 17.1253 6.49854 17.1041 6.23275L17.1041 6.23271C17.0508 5.56492 17.0241 5.23101 16.9257 4.95244C16.6981 4.30811 16.1913 3.80129 15.547 3.57371C15.2684 3.47531 14.9345 3.44866 14.2667 3.39537L14.2667 3.39537C14.0009 3.37416 13.868 3.36355 13.74 3.33828C13.4466 3.28036 13.1676 3.1648 12.9192 2.9983C12.8108 2.92566 12.7094 2.83919 12.5064 2.66624C11.9965 2.23171 11.7416 2.01444 11.475 1.88703C10.8585 1.59234 10.1417 1.59234 9.52517 1.88703C9.25861 2.01444 9.00365 2.23171 8.49375 2.66624L8.49372 2.66627Z" fill="#9D9EA2"/>
<path d="M14.145 8.21834C14.4099 7.95347 14.4099 7.52405 14.145 7.25919C13.8802 6.99433 13.4508 6.99433 13.1859 7.25919L9.14402 11.3011L7.81502 9.97206C7.55015 9.7072 7.12073 9.7072 6.85587 9.97206C6.59101 10.2369 6.59101 10.6663 6.85587 10.9312L8.66445 12.7398C8.92931 13.0046 9.35873 13.0046 9.62359 12.7398L14.145 8.21834Z" fill="#9D9EA2"/>
</svg>
