<svg width="21" height="20" viewBox="0 0 21 20" fill="none" xmlns="http://www.w3.org/2000/svg">
<path opacity="0.5" d="M8.49373 2.66675C8.2908 2.83968 8.18933 2.92615 8.08097 2.99879C7.83255 3.16529 7.55356 3.28085 7.26016 3.33877C7.13217 3.36404 6.99928 3.37465 6.73348 3.39586L6.73347 3.39586C6.06566 3.44915 5.73175 3.4758 5.45317 3.57419C4.80884 3.80178 4.30202 4.30859 4.07444 4.95293C3.97604 5.2315 3.9494 5.56541 3.8961 6.23323L3.8961 6.23324C3.87489 6.49903 3.86429 6.63193 3.83902 6.75992C3.78109 7.05332 3.66553 7.3323 3.49903 7.58072C3.4264 7.68909 3.33993 7.79056 3.16699 7.99349L3.16697 7.99351C2.73244 8.5034 2.51517 8.75836 2.38776 9.02493C2.09308 9.64146 2.09308 10.3582 2.38776 10.9747C2.51517 11.2413 2.73244 11.4963 3.16697 12.0062L3.16697 12.0062L3.167 12.0062C3.33991 12.2091 3.4264 12.3106 3.49903 12.419C3.66553 12.6674 3.78109 12.9464 3.83902 13.2398C3.86429 13.3677 3.87489 13.5006 3.8961 13.7664L3.8961 13.7665C3.9494 14.4343 3.97604 14.7682 4.07444 15.0467C4.30202 15.6911 4.80884 16.1979 5.45317 16.4255C5.73174 16.5239 6.06565 16.5505 6.73344 16.6038L6.73348 16.6038C6.99928 16.625 7.13217 16.6356 7.26017 16.6609C7.55356 16.7188 7.83255 16.8344 8.08097 17.0009C8.18934 17.0735 8.29081 17.16 8.49375 17.3329C9.00365 17.7675 9.25861 17.9848 9.52517 18.1122C10.1417 18.4068 10.8585 18.4068 11.475 18.1122C11.7416 17.9848 11.9965 17.7675 12.5064 17.3329C12.7094 17.16 12.8108 17.0735 12.9192 17.0009C13.1676 16.8344 13.4466 16.7188 13.74 16.6609C13.868 16.6356 14.0009 16.625 14.2667 16.6038L14.2667 16.6038C14.9345 16.5505 15.2684 16.5239 15.547 16.4255C16.1913 16.1979 16.6981 15.6911 16.9257 15.0467C17.0241 14.7682 17.0508 14.4343 17.1041 13.7665L17.1041 13.7664C17.1253 13.5006 17.1359 13.3677 17.1611 13.2398C17.2191 12.9464 17.3346 12.6674 17.5011 12.419C17.5738 12.3106 17.6602 12.2091 17.8332 12.0062C18.2677 11.4963 18.485 11.2413 18.6124 10.9747C18.9071 10.3582 18.9071 9.64147 18.6124 9.02493C18.485 8.75836 18.2677 8.50341 17.8332 7.99351L17.8332 7.9935C17.6602 7.79056 17.5738 7.68909 17.5011 7.58072C17.3346 7.3323 17.2191 7.05332 17.1611 6.75992C17.1359 6.63193 17.1253 6.49903 17.1041 6.23324L17.1041 6.2332C17.0508 5.5654 17.0241 5.2315 16.9257 4.95293C16.6981 4.30859 16.1913 3.80178 15.547 3.57419C15.2684 3.4758 14.9345 3.44915 14.2667 3.39586L14.2667 3.39586C14.0009 3.37465 13.868 3.36404 13.74 3.33877C13.4466 3.28085 13.1676 3.16529 12.9192 2.99879C12.8108 2.92615 12.7094 2.83968 12.5064 2.66673L12.5064 2.66672C11.9965 2.23219 11.7416 2.01492 11.475 1.88752C10.8585 1.59283 10.1417 1.59283 9.52517 1.88752C9.25861 2.01492 9.00365 2.2322 8.49375 2.66673L8.49373 2.66675Z" fill="white"/>
<path d="M14.1445 8.21931C14.4094 7.95445 14.4094 7.52503 14.1445 7.26017C13.8797 6.99531 13.4503 6.99531 13.1854 7.26017L9.14353 11.302L7.81453 9.97303C7.54967 9.70818 7.12024 9.70818 6.85538 9.97303C6.59052 10.2379 6.59052 10.6673 6.85538 10.9322L8.66396 12.7408C8.92882 13.0056 9.35824 13.0056 9.6231 12.7408L14.1445 8.21931Z" fill="white"/>
</svg>
