<svg width="32" height="32" viewBox="0 0 32 32" fill="none" xmlns="http://www.w3.org/2000/svg">
<path fill-rule="evenodd" clip-rule="evenodd" d="M14.2179 4.63717C14.6024 5.03365 14.5926 5.66674 14.1961 6.05121L10.4677 9.66665H24C24.5523 9.66665 25 10.1144 25 10.6666C25 11.2189 24.5523 11.6666 24 11.6666H10.4677L14.1961 15.2821C14.5926 15.6665 14.6024 16.2996 14.2179 16.6961C13.8334 17.0926 13.2003 17.1024 12.8039 16.7179L7.30385 11.3845C7.10963 11.1962 7 10.9372 7 10.6666C7 10.3961 7.10963 10.1371 7.30385 9.94875L12.8039 4.61541C13.2003 4.23094 13.8334 4.24068 14.2179 4.63717ZM17.7821 15.3038C18.1666 14.9073 18.7997 14.8976 19.1961 15.2821L24.6961 20.6154C24.8904 20.8038 25 21.0628 25 21.3333C25 21.6039 24.8904 21.8629 24.6961 22.0512L19.1961 27.3845C18.7997 27.769 18.1666 27.7593 17.7821 27.3628C17.3976 26.9663 17.4074 26.3332 17.8039 25.9487L21.5323 22.3333L8 22.3333C7.44772 22.3333 7 21.8856 7 21.3333C7 20.781 7.44772 20.3333 8 20.3333L21.5323 20.3333L17.8039 16.7179C17.4074 16.3334 17.3976 15.7003 17.7821 15.3038Z" fill="#55595C"/>
</svg>
