<svg width="20" height="20" viewBox="0 0 20 20" fill="none" xmlns="http://www.w3.org/2000/svg">
<path opacity="0.5" d="M13.4641 3.16875L14.0359 3.50737C15.7265 4.50855 16.5718 5.00913 17.0359 5.83366C17.5 6.65818 17.5 7.65936 17.5 9.66171V10.3389C17.5 12.3413 17.5 13.3425 17.0359 14.167C16.5718 14.9915 15.7265 15.4921 14.0359 16.4933L13.4641 16.8319C11.7735 17.8331 10.9282 18.3337 10 18.3337C9.0718 18.3337 8.2265 17.8331 6.5359 16.8319L5.9641 16.4933C4.2735 15.4921 3.4282 14.9915 2.9641 14.167C2.5 13.3425 2.5 12.3413 2.5 10.3389V9.66171C2.5 7.65936 2.5 6.65818 2.9641 5.83366C3.4282 5.00913 4.2735 4.50855 5.9641 3.50737L6.5359 3.16875C8.2265 2.16758 9.0718 1.66699 10 1.66699C10.9282 1.66699 11.7735 2.16758 13.4641 3.16875Z" fill="#F39649"/>
<path d="M10 5.20801C10.3452 5.20801 10.625 5.48783 10.625 5.83301V10.833C10.625 11.1782 10.3452 11.458 10 11.458C9.65484 11.458 9.37502 11.1782 9.37502 10.833V5.83301C9.37502 5.48783 9.65484 5.20801 10 5.20801Z" fill="#F39649"/>
<path d="M10 14.1663C10.4603 14.1663 10.8334 13.7932 10.8334 13.333C10.8334 12.8728 10.4603 12.4997 10 12.4997C9.53978 12.4997 9.16669 12.8728 9.16669 13.333C9.16669 13.7932 9.53978 14.1663 10 14.1663Z" fill="#F39649"/>
</svg>
