<svg width="20" height="20" viewBox="0 0 20 20" fill="none" xmlns="http://www.w3.org/2000/svg">
<path opacity="0.5" d="M7.99366 2.66724C7.79074 2.84017 7.68927 2.92664 7.5809 2.99927C7.33249 3.16578 7.0535 3.28134 6.7601 3.33926C6.63211 3.36453 6.49922 3.37514 6.23342 3.39635L6.23341 3.39635C5.5656 3.44964 5.23169 3.47629 4.95311 3.57468C4.30878 3.80227 3.80196 4.30908 3.57438 4.95341C3.47598 5.23199 3.44933 5.5659 3.39604 6.23371L3.39604 6.23373C3.37483 6.49952 3.36423 6.63242 3.33896 6.76041C3.28103 7.0538 3.16547 7.33279 2.99897 7.58121C2.92633 7.68958 2.83986 7.79105 2.66691 7.994C2.23238 8.50389 2.01511 8.75885 1.8877 9.02541C1.59302 9.64195 1.59302 10.3587 1.8877 10.9752C2.01511 11.2418 2.23238 11.4968 2.66691 12.0067L2.66694 12.0067C2.83985 12.2096 2.92634 12.3111 2.99897 12.4194C3.16547 12.6679 3.28103 12.9468 3.33896 13.2402C3.36423 13.3682 3.37483 13.5011 3.39604 13.7669L3.39604 13.7669C3.44933 14.4348 3.47598 14.7687 3.57438 15.0472C3.80196 15.6916 4.30878 16.1984 4.95311 16.426C5.23168 16.5244 5.56559 16.551 6.23338 16.6043L6.23342 16.6043C6.49922 16.6255 6.63211 16.6361 6.7601 16.6614C7.0535 16.7193 7.33248 16.8349 7.5809 17.0014C7.68928 17.074 7.79075 17.1605 7.99369 17.3334C8.50359 17.768 8.75855 17.9852 9.02511 18.1126C9.64165 18.4073 10.3584 18.4073 10.9749 18.1126C11.2415 17.9852 11.4964 17.768 12.0063 17.3334C12.2093 17.1605 12.3108 17.074 12.4191 17.0014C12.6676 16.8349 12.9465 16.7193 13.2399 16.6614C13.3679 16.6361 13.5008 16.6255 13.7666 16.6043L13.7667 16.6043C14.4345 16.551 14.7684 16.5244 15.0469 16.426C15.6913 16.1984 16.1981 15.6916 16.4257 15.0472C16.5241 14.7687 16.5507 14.4348 16.604 13.767L16.604 13.7669C16.6252 13.5011 16.6358 13.3682 16.6611 13.2402C16.719 12.9468 16.8346 12.6679 17.0011 12.4194C17.0737 12.3111 17.1602 12.2096 17.3331 12.0067C17.7677 11.4968 17.9849 11.2418 18.1123 10.9752C18.407 10.3587 18.407 9.64195 18.1123 9.02541C17.9849 8.75885 17.7677 8.5039 17.3331 7.994C17.1602 7.79105 17.0737 7.68958 17.0011 7.58121C16.8346 7.33279 16.719 7.0538 16.6611 6.76041C16.6358 6.63242 16.6252 6.49952 16.604 6.23373L16.604 6.23369C16.5507 5.56589 16.5241 5.23199 16.4257 4.95341C16.1981 4.30908 15.6913 3.80227 15.0469 3.57468C14.7684 3.47629 14.4344 3.44964 13.7666 3.39635L13.7666 3.39635C13.5008 3.37514 13.3679 3.36453 13.2399 3.33926C12.9465 3.28134 12.6676 3.16578 12.4191 2.99927C12.3108 2.92664 12.2093 2.84017 12.0063 2.66722C11.4964 2.23268 11.2415 2.01541 10.9749 1.88801C10.3584 1.59332 9.64165 1.59332 9.02511 1.88801C8.75855 2.01541 8.50359 2.23269 7.99369 2.66722L7.99366 2.66724Z" fill="#5CB85C"/>
<path d="M13.6446 8.21931C13.9095 7.95445 13.9095 7.52503 13.6446 7.26017C13.3797 6.99531 12.9503 6.99531 12.6855 7.26017L8.64359 11.302L7.31459 9.97303C7.04973 9.70818 6.6203 9.70818 6.35544 9.97303C6.09058 10.2379 6.09058 10.6673 6.35544 10.9322L8.16402 12.7408C8.42888 13.0056 8.8583 13.0056 9.12317 12.7408L13.6446 8.21931Z" fill="#5CB85C"/>
</svg>
