<svg width="22" height="22" viewBox="0 0 22 22" fill="none" xmlns="http://www.w3.org/2000/svg">
<rect x="1" y="1" width="20" height="20" rx="10" fill="#F39649"/>
<path opacity="0.5" d="M6.5 10.2083C6.5 8.60954 6.5 7.81014 6.68876 7.5412C6.87752 7.27227 7.62916 7.01498 9.13246 6.5004L9.41886 6.40236C10.2025 6.13412 10.5943 6 11 6C11.4057 6 11.7975 6.13412 12.5811 6.40236L12.8675 6.5004C14.3708 7.01498 15.1225 7.27227 15.3112 7.5412C15.5 7.81014 15.5 8.60954 15.5 10.2083V10.9957C15.5 13.8147 13.3805 15.1827 12.0507 15.7636C11.69 15.9212 11.5096 16 11 16C10.4904 16 10.31 15.9212 9.94928 15.7636C8.61948 15.1827 6.5 13.8147 6.5 10.9957V10.2083Z" fill="#F7F2ED"/>
<path d="M11 8.625C11.2071 8.625 11.375 8.79289 11.375 9V11C11.375 11.2071 11.2071 11.375 11 11.375C10.7929 11.375 10.625 11.2071 10.625 11V9C10.625 8.79289 10.7929 8.625 11 8.625Z" fill="#F7F2ED"/>
<path d="M11 13C11.2761 13 11.5 12.7761 11.5 12.5C11.5 12.2239 11.2761 12 11 12C10.7239 12 10.5 12.2239 10.5 12.5C10.5 12.7761 10.7239 13 11 13Z" fill="#F7F2ED"/>
<rect x="1" y="1" width="20" height="20" rx="10" stroke="#F7F2ED"/>
</svg>
