<svg width="22" height="22" viewBox="0 0 22 22" fill="none" xmlns="http://www.w3.org/2000/svg">
<rect x="1" y="1" width="20" height="20" rx="10" fill="#E4262C"/>
<path d="M12.75 8.75C12.75 9.7165 11.9665 10.5 11 10.5C10.0335 10.5 9.25 9.7165 9.25 8.75C9.25 7.7835 10.0335 7 11 7C11.9665 7 12.75 7.7835 12.75 8.75Z" fill="#F7EDED"/>
<path opacity="0.5" d="M14.75 8.75C14.75 9.44036 14.1904 10 13.5 10C12.8096 10 12.25 9.44036 12.25 8.75C12.25 8.05964 12.8096 7.5 13.5 7.5C14.1904 7.5 14.75 8.05964 14.75 8.75Z" fill="#F7EDED"/>
<path opacity="0.5" d="M7.25 8.75C7.25 9.44036 7.80964 10 8.5 10C9.19036 10 9.75 9.44036 9.75 8.75C9.75 8.05964 9.19036 7.5 8.5 7.5C7.80964 7.5 7.25 8.05964 7.25 8.75Z" fill="#F7EDED"/>
<path d="M14 13.25C14 14.2165 12.6569 15 11 15C9.34315 15 8 14.2165 8 13.25C8 12.2835 9.34315 11.5 11 11.5C12.6569 11.5 14 12.2835 14 13.25Z" fill="#F7EDED"/>
<path opacity="0.5" d="M16 13.25C16 13.9404 15.1046 14.5 14 14.5C12.8954 14.5 12 13.9404 12 13.25C12 12.5596 12.8954 12 14 12C15.1046 12 16 12.5596 16 13.25Z" fill="#F7EDED"/>
<path opacity="0.5" d="M6 13.25C6 13.9404 6.89543 14.5 8 14.5C9.10457 14.5 10 13.9404 10 13.25C10 12.5596 9.10457 12 8 12C6.89543 12 6 12.5596 6 13.25Z" fill="#F7EDED"/>
<rect x="1" y="1" width="20" height="20" rx="10" stroke="#F7EDED"/>
</svg>
