<svg width="20" height="20" viewBox="0 0 20 20" fill="none" xmlns="http://www.w3.org/2000/svg">
<rect width="20" height="20" rx="10" fill="#00923F"/>
<path d="M11.75 7.75C11.75 8.7165 10.9665 9.5 10 9.5C9.0335 9.5 8.25 8.7165 8.25 7.75C8.25 6.7835 9.0335 6 10 6C10.9665 6 11.75 6.7835 11.75 7.75Z" fill="#F5FFF9"/>
<path opacity="0.5" d="M13.75 7.75C13.75 8.44036 13.1904 9 12.5 9C11.8096 9 11.25 8.44036 11.25 7.75C11.25 7.05964 11.8096 6.5 12.5 6.5C13.1904 6.5 13.75 7.05964 13.75 7.75Z" fill="#F5FFF9"/>
<path opacity="0.5" d="M6.25 7.75C6.25 8.44036 6.80964 9 7.5 9C8.19036 9 8.75 8.44036 8.75 7.75C8.75 7.05964 8.19036 6.5 7.5 6.5C6.80964 6.5 6.25 7.05964 6.25 7.75Z" fill="#F5FFF9"/>
<path d="M13 12.25C13 13.2165 11.6569 14 10 14C8.34315 14 7 13.2165 7 12.25C7 11.2835 8.34315 10.5 10 10.5C11.6569 10.5 13 11.2835 13 12.25Z" fill="#F5FFF9"/>
<path opacity="0.5" d="M15 12.25C15 12.9404 14.1046 13.5 13 13.5C11.8954 13.5 11 12.9404 11 12.25C11 11.5596 11.8954 11 13 11C14.1046 11 15 11.5596 15 12.25Z" fill="#F5FFF9"/>
<path opacity="0.5" d="M5 12.25C5 12.9404 5.89543 13.5 7 13.5C8.10457 13.5 9 12.9404 9 12.25C9 11.5596 8.10457 11 7 11C5.89543 11 5 11.5596 5 12.25Z" fill="#F5FFF9"/>
</svg>
