<svg width="25" height="24" viewBox="0 0 25 24" fill="none" xmlns="http://www.w3.org/2000/svg">
<path fill-rule="evenodd" clip-rule="evenodd" d="M7.01192 4.43057C7.32641 4.161 7.79989 4.19743 8.06946 4.51192L14.0695 11.5119C14.3102 11.7928 14.3102 12.2072 14.0695 12.4881L8.06946 19.4881C7.79989 19.8026 7.32641 19.839 7.01192 19.5695C6.69743 19.2999 6.661 18.8264 6.93057 18.5119L12.5122 12L6.93057 5.48811C6.661 5.17361 6.69743 4.70014 7.01192 4.43057ZM11.0121 4.43068C11.3266 4.16111 11.8001 4.19753 12.0697 4.51202L18.0697 11.512C18.3104 11.7929 18.3104 12.2073 18.0697 12.4882L12.0697 19.4882C11.8001 19.8027 11.3266 19.8391 11.0121 19.5696C10.6976 19.3 10.6612 18.8265 10.9308 18.512L16.5124 12.0001L10.9308 5.48821C10.6612 5.17372 10.6976 4.70024 11.0121 4.43068Z" fill="#5CB85C"/>
</svg>
