<svg width="20" height="20" viewBox="0 0 20 20" fill="none" xmlns="http://www.w3.org/2000/svg">
<path opacity="0.5" fill-rule="evenodd" clip-rule="evenodd" d="M2.5 11.875C2.84518 11.875 3.125 12.1548 3.125 12.5C3.125 13.6962 3.12633 14.5304 3.21096 15.1599C3.29317 15.7714 3.44354 16.0952 3.67418 16.3258C3.90481 16.5565 4.22862 16.7068 4.8401 16.789C5.46956 16.8737 6.30382 16.875 7.5 16.875H12.5C13.6962 16.875 14.5304 16.8737 15.1599 16.789C15.7714 16.7068 16.0952 16.5565 16.3258 16.3258C16.5565 16.0952 16.7068 15.7714 16.789 15.1599C16.8737 14.5304 16.875 13.6962 16.875 12.5C16.875 12.1548 17.1548 11.875 17.5 11.875C17.8452 11.875 18.125 12.1548 18.125 12.5V12.5457C18.125 13.6854 18.125 14.604 18.0279 15.3265C17.9271 16.0766 17.7113 16.7081 17.2097 17.2097C16.7081 17.7113 16.0765 17.9271 15.3265 18.0279C14.604 18.125 13.6854 18.125 12.5457 18.125H7.45428C6.31462 18.125 5.39602 18.125 4.67354 18.0279C3.92345 17.9271 3.29189 17.7113 2.79029 17.2097C2.2887 16.7081 2.07295 16.0766 1.9721 15.3265C1.87497 14.604 1.87498 13.6854 1.875 12.5457C1.875 12.5305 1.875 12.5153 1.875 12.5C1.875 12.1548 2.15482 11.875 2.5 11.875Z" fill="#F39649"/>
<path fill-rule="evenodd" clip-rule="evenodd" d="M10.0001 1.875C10.1756 1.875 10.343 1.94876 10.4614 2.07827L13.7947 5.7241C14.0276 5.97885 14.0099 6.37419 13.7551 6.6071C13.5004 6.84002 13.1051 6.82232 12.8722 6.56756L10.6251 4.10984V13.3333C10.6251 13.6785 10.3453 13.9583 10.0001 13.9583C9.65491 13.9583 9.37509 13.6785 9.37509 13.3333V4.10984L7.12802 6.56756C6.8951 6.82232 6.49977 6.84002 6.24502 6.6071C5.99027 6.37419 5.97257 5.97885 6.20548 5.7241L9.53882 2.07827C9.65722 1.94876 9.82461 1.875 10.0001 1.875Z" fill="#F39649"/>
</svg>
