<svg width="21" height="20" viewBox="0 0 21 20" fill="none" xmlns="http://www.w3.org/2000/svg">
<path opacity="0.5" fill-rule="evenodd" clip-rule="evenodd" d="M3 11.875C3.34518 11.875 3.625 12.1548 3.625 12.5C3.625 13.6962 3.62633 14.5304 3.71096 15.1599C3.79317 15.7714 3.94354 16.0952 4.17418 16.3258C4.40481 16.5565 4.72862 16.7068 5.3401 16.789C5.96956 16.8737 6.80382 16.875 8 16.875H13C14.1962 16.875 15.0304 16.8737 15.6599 16.789C16.2714 16.7068 16.5952 16.5565 16.8258 16.3258C17.0565 16.0952 17.2068 15.7714 17.289 15.1599C17.3737 14.5304 17.375 13.6962 17.375 12.5C17.375 12.1548 17.6548 11.875 18 11.875C18.3452 11.875 18.625 12.1548 18.625 12.5V12.5457C18.625 13.6854 18.625 14.604 18.5279 15.3265C18.4271 16.0766 18.2113 16.7081 17.7097 17.2097C17.2081 17.7113 16.5765 17.9271 15.8265 18.0279C15.104 18.125 14.1854 18.125 13.0457 18.125H7.95428C6.81462 18.125 5.89602 18.125 5.17354 18.0279C4.42345 17.9271 3.79189 17.7113 3.29029 17.2097C2.7887 16.7081 2.57295 16.0766 2.4721 15.3265C2.37497 14.604 2.37498 13.6854 2.375 12.5457C2.375 12.5305 2.375 12.5153 2.375 12.5C2.375 12.1548 2.65482 11.875 3 11.875Z" fill="#5CB85C"/>
<path fill-rule="evenodd" clip-rule="evenodd" d="M10.5003 1.875C10.6758 1.875 10.8432 1.94876 10.9616 2.07827L14.2949 5.7241C14.5278 5.97885 14.5101 6.37419 14.2554 6.6071C14.0006 6.84002 13.6053 6.82232 13.3724 6.56756L11.1253 4.10984V13.3333C11.1253 13.6785 10.8455 13.9583 10.5003 13.9583C10.1552 13.9583 9.87533 13.6785 9.87533 13.3333V4.10984L7.62826 6.56756C7.39535 6.82232 7.00002 6.84002 6.74527 6.6071C6.49051 6.37419 6.47281 5.97885 6.70573 5.7241L10.0391 2.07827C10.1575 1.94876 10.3249 1.875 10.5003 1.875Z" fill="#5CB85C"/>
</svg>
