<svg width="20" height="20" viewBox="0 0 20 20" fill="none" xmlns="http://www.w3.org/2000/svg">
<path fill-rule="evenodd" clip-rule="evenodd" d="M9.5579 12.8914C9.80197 12.6473 10.1977 12.6473 10.4418 12.8914L12.1084 14.5581C12.3525 14.8021 12.3525 15.1979 12.1084 15.4419C11.8644 15.686 11.4686 15.686 11.2246 15.4419L10.6248 14.8422V18.3333C10.6248 18.6785 10.345 18.9583 9.99984 18.9583C9.65466 18.9583 9.37484 18.6785 9.37484 18.3333V14.8422L8.77511 15.4419C8.53104 15.686 8.13531 15.686 7.89123 15.4419C7.64715 15.1979 7.64715 14.8021 7.89123 14.5581L9.5579 12.8914Z" fill="#00923F"/>
<path d="M10.3967 3.125C8.10492 3.125 6.25976 4.95903 6.25976 7.20588C6.25976 7.59102 6.31367 7.96293 6.41425 8.31511C6.82858 8.43469 7.21643 8.61575 7.56688 8.84757C7.85477 9.03801 7.93377 9.42578 7.74333 9.71367C7.55289 10.0016 7.16513 10.0806 6.87724 9.89011C6.5599 9.68019 6.19914 9.52961 5.81092 9.45428C5.62607 9.41841 5.43454 9.39951 5.23793 9.39951C3.60367 9.39951 2.2915 10.7068 2.2915 12.3039C2.2915 13.901 3.60367 15.2083 5.23793 15.2083C5.58311 15.2083 5.86293 15.4882 5.86293 15.8333C5.86293 16.1785 5.58311 16.4583 5.23793 16.4583C2.9273 16.4583 1.0415 14.6053 1.0415 12.3039C1.0415 10.0504 2.84973 8.22673 5.09443 8.1519C5.03878 7.84463 5.00976 7.52844 5.00976 7.20588C5.00976 4.25476 7.42855 1.875 10.3967 1.875C13.0284 1.875 15.2268 3.74475 15.6927 6.22606C17.6093 7.03959 18.9582 8.92441 18.9582 11.1275C18.9582 13.6891 17.1351 15.8203 14.7139 16.338C14.3763 16.4102 14.0442 16.1951 13.972 15.8576C13.8998 15.52 14.1149 15.1879 14.4525 15.1157C16.3189 14.7165 17.7082 13.0775 17.7082 11.1275C17.7082 9.34685 16.5504 7.82572 14.9268 7.27053C14.503 7.1256 14.0472 7.04657 13.5713 7.04657C13.0858 7.04657 12.6211 7.12882 12.1901 7.27938C11.8642 7.39321 11.5077 7.22131 11.3939 6.89544C11.2801 6.56957 11.452 6.21312 11.7779 6.0993C12.3398 5.90304 12.9437 5.79657 13.5713 5.79657C13.8175 5.79657 14.0601 5.81296 14.2979 5.84472C13.7307 4.26359 12.2016 3.125 10.3967 3.125Z" fill="#00923F"/>
</svg>
