<svg width="20" height="20" viewBox="0 0 20 20" fill="none" xmlns="http://www.w3.org/2000/svg">
<path fill-rule="evenodd" clip-rule="evenodd" d="M5.20832 4.99996C5.20832 2.81383 6.98053 1.04163 9.16666 1.04163C11.3528 1.04163 13.125 2.81383 13.125 4.99996C13.125 7.18609 11.3528 8.95829 9.16666 8.95829C6.98053 8.95829 5.20832 7.18609 5.20832 4.99996ZM9.16666 2.29163C7.67089 2.29163 6.45832 3.50419 6.45832 4.99996C6.45832 6.49573 7.67089 7.70829 9.16666 7.70829C10.6624 7.70829 11.875 6.49573 11.875 4.99996C11.875 3.50419 10.6624 2.29163 9.16666 2.29163Z" fill="#00923F"/>
<path fill-rule="evenodd" clip-rule="evenodd" d="M4.1462 11.3869C5.46243 10.6465 7.2387 10.2083 9.16666 10.2083C11.0946 10.2083 12.8709 10.6465 14.1871 11.3869C15.4838 12.1163 16.4583 13.2217 16.4583 14.5833L16.4584 14.6683C16.4593 15.6365 16.4605 16.8516 15.3946 17.7196C14.8701 18.1467 14.1363 18.4505 13.1448 18.6512C12.1506 18.8524 10.8548 18.9583 9.16666 18.9583C7.47851 18.9583 6.18271 18.8524 5.1885 18.6512C4.19705 18.4505 3.46322 18.1467 2.93867 17.7196C1.87281 16.8516 1.87399 15.6365 1.87493 14.6683L1.87499 14.5833C1.87499 13.2217 2.84956 12.1163 4.1462 11.3869ZM4.75902 12.4764C3.6428 13.1042 3.12499 13.8738 3.12499 14.5833C3.12499 15.6731 3.15859 16.2866 3.72798 16.7503C4.03676 17.0018 4.55293 17.2472 5.43648 17.426C6.31727 17.6043 7.52147 17.7083 9.16666 17.7083C10.8118 17.7083 12.016 17.6043 12.8968 17.426C13.7804 17.2472 14.2966 17.0018 14.6053 16.7503C15.1747 16.2866 15.2083 15.6731 15.2083 14.5833C15.2083 13.8738 14.6905 13.1042 13.5743 12.4764C12.4777 11.8595 10.9206 11.4583 9.16666 11.4583C7.41272 11.4583 5.85565 11.8595 4.75902 12.4764Z" fill="#00923F"/>
<path d="M17.9671 7.49852C18.1964 7.24053 18.1732 6.84549 17.9152 6.61616C17.6572 6.38684 17.2622 6.41008 17.0329 6.66807L15.2284 8.69804L14.5848 8.11873C14.3282 7.88782 13.933 7.90862 13.7021 8.16519C13.4712 8.42176 13.492 8.81694 13.7486 9.04785L14.8597 10.0479C14.9834 10.1592 15.1464 10.2166 15.3125 10.2073C15.4787 10.1981 15.6343 10.1229 15.7449 9.99852L17.9671 7.49852Z" fill="#00923F"/>
</svg>
