<svg width="21" height="20" viewBox="0 0 21 20" fill="none" xmlns="http://www.w3.org/2000/svg">
<path opacity="0.5" d="M18.8334 10.0003C18.8334 14.6027 15.1024 18.3337 10.5 18.3337C5.89765 18.3337 2.16669 14.6027 2.16669 10.0003C2.16669 5.39795 5.89765 1.66699 10.5 1.66699C15.1024 1.66699 18.8334 5.39795 18.8334 10.0003Z" fill="#EC3832"/>
<path d="M7.97475 7.47505C8.21882 7.23097 8.61455 7.23097 8.85863 7.47505L10.5 9.11645L12.1414 7.47507C12.3855 7.23099 12.7812 7.23099 13.0253 7.47507C13.2694 7.71915 13.2694 8.11487 13.0253 8.35895L11.3839 10.0003L13.0253 11.6417C13.2694 11.8858 13.2694 12.2815 13.0253 12.5256C12.7812 12.7697 12.3855 12.7697 12.1414 12.5256L10.5 10.8842L8.85865 12.5256C8.61457 12.7697 8.21884 12.7697 7.97476 12.5256C7.73069 12.2815 7.73069 11.8858 7.97476 11.6417L9.61615 10.0003L7.97475 8.35893C7.73067 8.11486 7.73067 7.71913 7.97475 7.47505Z" fill="#EC3832"/>
</svg>
