<svg width="21" height="20" viewBox="0 0 21 20" fill="none" xmlns="http://www.w3.org/2000/svg">
<path fill-rule="evenodd" clip-rule="evenodd" d="M9.32796 1.9322C10.0691 1.57794 10.9308 1.57794 11.672 1.9322C11.994 2.0861 12.289 2.33776 12.6975 2.68623C12.7187 2.70432 12.7403 2.72267 12.7621 2.74128C12.9605 2.91035 13.023 2.96234 13.0862 3.00471C13.247 3.11249 13.4276 3.1873 13.6175 3.22479C13.6922 3.23954 13.7731 3.24696 14.033 3.26769C14.0616 3.26998 14.0898 3.27221 14.1175 3.27442C14.6528 3.31689 15.0394 3.34757 15.3759 3.46643C16.1505 3.74002 16.7598 4.34929 17.0334 5.12388C17.1522 5.46039 17.1829 5.84697 17.2254 6.38226C17.2276 6.41004 17.2298 6.43823 17.2321 6.46683C17.2528 6.72667 17.2603 6.80761 17.275 6.88228C17.3125 7.0722 17.3873 7.2528 17.4951 7.4136C17.5375 7.47683 17.5894 7.53931 17.7585 7.73771C17.7771 7.75955 17.7955 7.78107 17.8136 7.80228C18.162 8.21081 18.4137 8.50585 18.5676 8.82784C18.9219 9.56902 18.9219 10.4307 18.5676 11.1718C18.4137 11.4938 18.162 11.7889 17.8136 12.1974C17.7955 12.2186 17.7771 12.2401 17.7585 12.262C17.5894 12.4604 17.5375 12.5229 17.4951 12.5861C17.3873 12.7469 17.3125 12.9275 17.275 13.1174C17.2603 13.1921 17.2528 13.273 17.2321 13.5329C17.2298 13.5615 17.2276 13.5896 17.2254 13.6174C17.1829 14.1527 17.1522 14.5393 17.0334 14.8758C16.7598 15.6504 16.1505 16.2597 15.3759 16.5332C15.0394 16.6521 14.6528 16.6828 14.1175 16.7253C14.0898 16.7275 14.0616 16.7297 14.033 16.732C13.7731 16.7527 13.6922 16.7601 13.6175 16.7749C13.4276 16.8124 13.247 16.8872 13.0862 16.995C13.023 17.0373 12.9605 17.0893 12.7621 17.2584C12.7402 17.277 12.7187 17.2954 12.6975 17.3135C12.289 17.6619 11.994 17.9136 11.672 18.0675C10.9308 18.4217 10.0691 18.4217 9.32796 18.0675C9.00597 17.9136 8.71092 17.6619 8.30238 17.3134C8.28118 17.2954 8.25967 17.277 8.23783 17.2584C8.03943 17.0893 7.97695 17.0373 7.91372 16.995C7.75292 16.8872 7.57233 16.8124 7.38241 16.7749C7.30774 16.7601 7.22679 16.7527 6.96695 16.732C6.93835 16.7297 6.91016 16.7275 6.88238 16.7253C6.3471 16.6828 5.96051 16.6521 5.624 16.5332C4.84942 16.2597 4.24014 15.6504 3.96655 14.8758C3.84769 14.5393 3.81701 14.1527 3.77454 13.6174C3.77233 13.5896 3.7701 13.5615 3.76781 13.5329C3.74708 13.273 3.73966 13.1921 3.72492 13.1174C3.68742 12.9275 3.61262 12.7469 3.50484 12.5861C3.46246 12.5229 3.41048 12.4604 3.2414 12.262C3.22279 12.2401 3.20444 12.2186 3.18636 12.1974C2.83789 11.7889 2.58622 11.4938 2.43232 11.1718C2.07806 10.4307 2.07806 9.56902 2.43232 8.82784C2.58622 8.50585 2.83788 8.2108 3.18635 7.80227C3.20444 7.78106 3.22279 7.75955 3.2414 7.73771C3.41047 7.53931 3.46246 7.47683 3.50484 7.4136C3.61262 7.2528 3.68742 7.0722 3.72492 6.88228C3.73966 6.80761 3.74708 6.72667 3.76781 6.46683C3.7701 6.43823 3.77233 6.41004 3.77454 6.38226C3.81701 5.84698 3.84769 5.46039 3.96655 5.12388C4.24014 4.34929 4.84942 3.74002 5.62401 3.46643C5.96051 3.34757 6.3471 3.31689 6.88238 3.27442C6.91016 3.27221 6.93835 3.26998 6.96695 3.26769C7.2268 3.24696 7.30774 3.23954 7.38241 3.22479C7.57233 3.1873 7.75292 3.11249 7.91372 3.00471C7.97695 2.96234 8.03943 2.91035 8.23783 2.74128C8.25967 2.72267 8.28118 2.70432 8.30239 2.68623C8.71092 2.33776 9.00597 2.0861 9.32796 1.9322ZM11.131 3.06392C10.7319 2.87316 10.268 2.87316 9.86888 3.06392C9.71459 3.13767 9.55195 3.26943 9.05142 3.69598C9.0432 3.70298 9.03509 3.7099 9.02709 3.71672C8.86283 3.85676 8.74292 3.95898 8.61209 4.04667C8.31345 4.24683 7.97807 4.38575 7.62536 4.45539C7.47084 4.48589 7.31377 4.4984 7.0986 4.51553C7.08812 4.51636 7.07749 4.51721 7.06673 4.51807C6.41119 4.57038 6.20301 4.59221 6.04176 4.64916C5.62467 4.79648 5.2966 5.12455 5.14928 5.54164C5.09233 5.70289 5.0705 5.91107 5.01819 6.56661C5.01733 6.57737 5.01648 6.58799 5.01565 6.59848C4.99852 6.81365 4.98602 6.97072 4.95551 7.12524C4.88588 7.47794 4.74695 7.81333 4.54679 8.11197C4.4591 8.2428 4.35688 8.36271 4.21684 8.52697C4.21002 8.53498 4.2031 8.54308 4.1961 8.5513C3.76956 9.05183 3.63779 9.21446 3.56404 9.36876C3.37328 9.76786 3.37328 10.2318 3.56404 10.6309C3.63779 10.7852 3.76956 10.9479 4.1961 11.4484C4.20311 11.4566 4.21002 11.4647 4.21684 11.4727C4.35688 11.637 4.4591 11.7569 4.54679 11.8877C4.74695 12.1863 4.88588 12.5217 4.95551 12.8744C4.98602 13.029 4.99852 13.186 5.01565 13.4012C5.01648 13.4117 5.01733 13.4223 5.01819 13.4331C5.0705 14.0886 5.09233 14.2968 5.14928 14.458C5.2966 14.8751 5.62467 15.2032 6.04176 15.3505C6.20301 15.4075 6.41119 15.4293 7.06673 15.4816L7.0986 15.4842C7.31377 15.5013 7.47084 15.5138 7.62536 15.5443C7.97807 15.6139 8.31345 15.7528 8.61209 15.953C8.74293 16.0407 8.86283 16.1429 9.0271 16.283L9.05142 16.3037C9.55195 16.7302 9.71459 16.862 9.86888 16.9358C10.268 17.1265 10.7319 17.1265 11.131 16.9358C11.2853 16.862 11.448 16.7302 11.9485 16.3037L11.9728 16.2829C12.1371 16.1429 12.257 16.0407 12.3878 15.953C12.6865 15.7528 13.0219 15.6139 13.3746 15.5443C13.5291 15.5138 13.6861 15.5013 13.9013 15.4842L13.9332 15.4816C14.5887 15.4293 14.7969 15.4075 14.9582 15.3505C15.3752 15.2032 15.7033 14.8751 15.8506 14.458C15.9076 14.2968 15.9294 14.0886 15.9817 13.4331L15.9843 13.4012C16.0014 13.186 16.0139 13.029 16.0444 12.8744C16.114 12.5217 16.253 12.1863 16.4531 11.8877C16.5408 11.7569 16.643 11.637 16.7831 11.4727L16.8038 11.4484C17.2304 10.9479 17.3621 10.7852 17.4359 10.6309C17.6266 10.2318 17.6266 9.76786 17.4359 9.36876C17.3621 9.21447 17.2304 9.05183 16.8038 8.5513L16.7831 8.52695C16.643 8.3627 16.5408 8.2428 16.4531 8.11197C16.253 7.81333 16.114 7.47794 16.0444 7.12524C16.0139 6.97072 16.0014 6.81365 15.9843 6.59847L15.9817 6.56661C15.9294 5.91107 15.9076 5.70289 15.8506 5.54164C15.7033 5.12455 15.3752 4.79648 14.9582 4.64916C14.7969 4.59221 14.5887 4.57038 13.9332 4.51807C13.9224 4.51721 13.9118 4.51636 13.9013 4.51553C13.6861 4.4984 13.5291 4.48589 13.3746 4.45539C13.0219 4.38575 12.6865 4.24683 12.3878 4.04667C12.257 3.95898 12.1371 3.85675 11.9728 3.71672C11.9648 3.70989 11.9567 3.70298 11.9485 3.69598C11.448 3.26943 11.2853 3.13767 11.131 3.06392ZM13.8702 7.46578C14.1152 7.71071 14.1152 8.10781 13.8702 8.35274L9.68909 12.5339C9.44417 12.7788 9.04706 12.7788 8.80213 12.5339L7.12967 10.8614C6.88475 10.6165 6.88475 10.2194 7.12967 9.97447C7.3746 9.72955 7.7717 9.72955 8.01663 9.97447L9.24561 11.2035L12.9833 7.46578C13.2282 7.22085 13.6253 7.22085 13.8702 7.46578Z" fill="white"/>
</svg>
