<svg width="21" height="20" viewBox="0 0 21 20" fill="none" xmlns="http://www.w3.org/2000/svg">
<path opacity="0.5" d="M8.4936 2.66688C8.29068 2.8398 8.18921 2.92628 8.08084 2.99891C7.83242 3.16541 7.55344 3.28097 7.26004 3.3389C7.13205 3.36416 6.99915 3.37477 6.73336 3.39598L6.73335 3.39598C6.06554 3.44927 5.73163 3.47592 5.45305 3.57432C4.80872 3.8019 4.3019 4.30872 4.07432 4.95305C3.97592 5.23163 3.94927 5.56554 3.89598 6.23335L3.89598 6.23336C3.87477 6.49915 3.86416 6.63205 3.8389 6.76004C3.78097 7.05344 3.66541 7.33242 3.49891 7.58084C3.42627 7.68921 3.3398 7.79069 3.16685 7.99363C2.73232 8.50353 2.51505 8.75849 2.38764 9.02505C2.09295 9.64159 2.09295 10.3583 2.38764 10.9749C2.51505 11.2414 2.73232 11.4964 3.16685 12.0063L3.16688 12.0063C3.33979 12.2092 3.42628 12.3107 3.49891 12.4191C3.66541 12.6675 3.78097 12.9465 3.8389 13.2399C3.86416 13.3679 3.87477 13.5008 3.89598 13.7666L3.89598 13.7666C3.94927 14.4344 3.97592 14.7683 4.07432 15.0469C4.3019 15.6912 4.80872 16.198 5.45305 16.4256C5.73162 16.524 6.06553 16.5506 6.73332 16.6039L6.73336 16.6039C6.99915 16.6251 7.13205 16.6358 7.26004 16.661C7.55344 16.7189 7.83242 16.8345 8.08084 17.001C8.18921 17.0736 8.29069 17.1601 8.49363 17.3331C9.00353 17.7676 9.25849 17.9849 9.52505 18.1123C10.1416 18.407 10.8583 18.407 11.4749 18.1123C11.7414 17.9849 11.9964 17.7676 12.5063 17.3331C12.7092 17.1601 12.8107 17.0736 12.9191 17.001C13.1675 16.8345 13.4465 16.7189 13.7399 16.661C13.8679 16.6358 14.0008 16.6251 14.2666 16.6039L14.2666 16.6039C14.9344 16.5506 15.2683 16.524 15.5469 16.4256C16.1912 16.198 16.698 15.6912 16.9256 15.0469C17.024 14.7683 17.0506 14.4344 17.1039 13.7666L17.1039 13.7666C17.1251 13.5008 17.1358 13.3679 17.161 13.2399C17.2189 12.9465 17.3345 12.6675 17.501 12.4191C17.5736 12.3107 17.6601 12.2092 17.8331 12.0063C18.2676 11.4964 18.4849 11.2414 18.6123 10.9749C18.907 10.3583 18.907 9.64159 18.6123 9.02505C18.4849 8.75849 18.2676 8.50353 17.8331 7.99363C17.6601 7.79069 17.5736 7.68921 17.501 7.58084C17.3345 7.33242 17.2189 7.05344 17.161 6.76004C17.1358 6.63205 17.1251 6.49915 17.1039 6.23336L17.1039 6.23332C17.0506 5.56553 17.024 5.23162 16.9256 4.95305C16.698 4.30872 16.1912 3.8019 15.5469 3.57432C15.2683 3.47592 14.9344 3.44927 14.2666 3.39598L14.2666 3.39598C14.0008 3.37477 13.8679 3.36416 13.7399 3.3389C13.4465 3.28097 13.1675 3.16541 12.9191 2.99891C12.8107 2.92627 12.7092 2.8398 12.5063 2.66685C11.9964 2.23232 11.7414 2.01505 11.4749 1.88764C10.8583 1.59295 10.1416 1.59295 9.52505 1.88764C9.25849 2.01505 9.00353 2.23232 8.49363 2.66685L8.4936 2.66688Z" fill="#5CB85C"/>
<path d="M14.1447 8.21919C14.4095 7.95433 14.4095 7.52491 14.1447 7.26005C13.8798 6.99519 13.4504 6.99519 13.1855 7.26005L9.14365 11.3019L7.81465 9.97291C7.54979 9.70805 7.12037 9.70805 6.85551 9.97291C6.59065 10.2378 6.59065 10.6672 6.85551 10.9321L8.66408 12.7406C8.92894 13.0055 9.35837 13.0055 9.62323 12.7406L14.1447 8.21919Z" fill="#5CB85C"/>
</svg>
