<svg width="24" height="25" viewBox="0 0 24 25" fill="none" xmlns="http://www.w3.org/2000/svg">
<path d="M20.5 10.9H17.61C15.24 10.9 13.31 8.96996 13.31 6.59996V3.70996C13.31 3.15996 12.86 2.70996 12.31 2.70996H8.07C4.99 2.70996 2.5 4.70996 2.5 8.27996V17.14C2.5 20.71 4.99 22.71 8.07 22.71H15.93C19.01 22.71 21.5 20.71 21.5 17.14V11.9C21.5 11.35 21.05 10.9 20.5 10.9ZM12.28 16.49L10.28 18.49C10.21 18.56 10.12 18.62 10.03 18.65C9.94 18.69 9.85 18.71 9.75 18.71C9.65 18.71 9.56 18.69 9.47 18.65C9.39 18.62 9.31 18.56 9.25 18.5C9.24 18.49 9.23 18.49 9.23 18.48L7.23 16.48C6.94 16.19 6.94 15.71 7.23 15.42C7.52 15.13 8 15.13 8.29 15.42L9 16.15V11.96C9 11.55 9.34 11.21 9.75 11.21C10.16 11.21 10.5 11.55 10.5 11.96V16.15L11.22 15.43C11.51 15.14 11.99 15.14 12.28 15.43C12.57 15.72 12.57 16.2 12.28 16.49Z" fill="#182856"/>
<path d="M17.4299 9.52044C18.3799 9.53044 19.6999 9.53044 20.8299 9.53044C21.3999 9.53044 21.6999 8.86044 21.2999 8.46044C19.8599 7.01044 17.2799 4.40044 15.7999 2.92044C15.3899 2.51044 14.6799 2.79044 14.6799 3.36044V6.85044C14.6799 8.31044 15.9199 9.52044 17.4299 9.52044Z" fill="#182856"/>
</svg>
