<svg width="41" height="41" viewBox="0 0 41 41" fill="none" xmlns="http://www.w3.org/2000/svg">
<path d="M4.79984 32.1833L4.7665 32.2166C4.3165 31.2333 4.03317 30.1166 3.9165 28.8833C4.03317 30.1 4.34984 31.2 4.79984 32.1833Z" fill="#292D32"/>
<path d="M15.4999 17.8C17.6906 17.8 19.4665 16.0241 19.4665 13.8334C19.4665 11.6426 17.6906 9.8667 15.4999 9.8667C13.3091 9.8667 11.5332 11.6426 11.5332 13.8334C11.5332 16.0241 13.3091 17.8 15.4999 17.8Z" fill="#292D32"/>
<path d="M27.4835 3.83325H13.5168C7.45016 3.83325 3.8335 7.44992 3.8335 13.5166V27.4833C3.8335 29.2999 4.15016 30.8833 4.76683 32.2166C6.20016 35.3833 9.26683 37.1666 13.5168 37.1666H27.4835C33.5502 37.1666 37.1668 33.5499 37.1668 27.4833V23.6666V13.5166C37.1668 7.44992 33.5502 3.83325 27.4835 3.83325ZM34.4502 21.3333C33.1502 20.2166 31.0502 20.2166 29.7502 21.3333L22.8168 27.2833C21.5168 28.3999 19.4168 28.3999 18.1168 27.2833L17.5502 26.8166C16.3668 25.7833 14.4835 25.6833 13.1502 26.5833L6.91683 30.7666C6.55016 29.8333 6.3335 28.7499 6.3335 27.4833V13.5166C6.3335 8.81659 8.81683 6.33325 13.5168 6.33325H27.4835C32.1835 6.33325 34.6668 8.81659 34.6668 13.5166V21.5166L34.4502 21.3333Z" fill="#292D32"/>
</svg>
