<svg width="73" height="40" viewBox="0 0 73 40" fill="none" xmlns="http://www.w3.org/2000/svg">
<g clip-path="url(#clip0_1218_16080)">
<path d="M4.8476 36.36C4.12173 36.2898 3.00806 36.2649 3.00806 35.1359V20.999H0V35.4153C0 36.9528 0.880472 39.2791 4.16432 39.0833L4.8476 36.36ZM13.3508 36.6537C13.0404 36.7865 12.2865 36.8976 11.6432 36.8976C10.0686 36.8976 9.11753 36.2527 9.06751 35.3232C8.98789 33.847 11.0383 33.3881 13.3508 33.6645V36.6537ZM16.2118 38.4049V31.0419C16.2118 27.9815 14.5041 26.7838 11.4437 26.7838C9.71377 26.7838 7.7615 27.2926 6.76356 27.7139L7.49314 30.1107C8.33576 29.756 9.97171 29.3343 11.1028 29.3343C12.478 29.3343 13.3508 29.5656 13.3508 30.807V31.2171C9.53606 30.9569 6.03026 32.0294 6.03706 35.2894C6.04284 37.9961 8.13919 39.2698 11.7319 39.2698C13.5284 39.2698 15.3247 38.8706 16.2118 38.4049ZM27.0742 39.0484V36.4708H21.3945L27.0731 29.3353L27.0725 27.0173H18.0518L18.0523 29.5429H23.3295L18.0529 36.594V39.0484H27.0742ZM32.0828 24.1309C32.0828 23.2216 31.3066 22.3899 30.353 22.3899C29.3993 22.3899 28.6231 23.2216 28.6231 24.1309C28.6231 25.0403 29.3261 25.7967 30.353 25.7967C31.3677 25.7967 32.0828 25.0403 32.0828 24.1309ZM31.8611 39.0484V27.0173H28.8449V39.0484H31.8611ZM42.8847 35.5661C42.8847 33.1488 40.7964 32.4008 39.1254 31.8268C37.8315 31.3825 36.8095 30.9858 36.9635 30.1838C37.0515 29.7255 37.5959 29.2665 38.9207 29.2836C39.7673 29.2945 40.9603 29.5607 41.5013 29.8711L42.5319 27.6487C41.5672 27.1609 40.2498 26.7838 38.6268 26.7838C35.6625 26.7838 33.884 28.3231 33.884 30.43C33.884 32.7809 35.862 33.6181 37.4643 34.165C38.5906 34.5493 39.6715 34.759 39.6715 35.646C39.6715 36.4445 38.8763 36.7547 37.7236 36.7547C36.8061 36.7547 35.3947 36.3555 34.7595 35.9784L33.6396 38.4049C34.5807 38.8706 36.1567 39.2698 37.7328 39.2698C41.1202 39.2698 42.8847 37.806 42.8847 35.5661Z" fill="#222222"/>
<path d="M60.7798 39.048V30.7757C60.7798 28.3584 59.1829 26.8281 56.5438 26.8281C54.7474 26.8281 53.3439 27.4712 52.5899 28.0479C51.9024 27.427 50.6223 26.8281 48.6929 26.8281C46.9852 26.8281 45.7657 27.2051 44.5459 27.693V39.048H47.562V29.7737C47.9834 29.5963 48.1829 29.4853 48.8704 29.4853C50.1566 29.4853 51.1385 30.0994 51.1385 31.1634V39.048L54.1465 39.0476V30.0542C54.5678 29.6772 55.0136 29.4853 55.7676 29.4853C56.9874 29.4853 57.7413 30.151 57.7413 31.3261V39.048H60.7798ZM72.1954 38.369V27.0149H69.1874V36.484C68.8547 36.6171 68.3814 36.75 67.6052 36.75C66.2746 36.75 65.5871 36.1513 65.5871 34.8649V27.0149H62.5709V34.7984C62.5709 37.9028 64.3007 39.234 67.6052 39.234C69.4681 39.234 71.153 38.8792 72.1954 38.369Z" fill="black"/>
<path fill-rule="evenodd" clip-rule="evenodd" d="M56.9085 12.3481C57.6314 11.6251 57.2676 10.0889 55.4436 8.2648C53.6193 6.44054 50.549 5.49282 50.3012 5.74055C50.0614 5.98034 51.0012 9.05854 52.8255 10.8827C53.4182 11.4756 53.9806 11.914 54.4946 12.2112C53.9185 12.0555 53.2058 11.9663 52.3602 11.9663C49.7804 11.9663 46.9395 13.4673 46.9395 13.8178C46.9395 14.157 49.7804 15.669 52.3602 15.669C53.1986 15.669 53.9062 15.5814 54.4797 15.4281C53.9624 15.7255 53.3955 16.1663 52.7978 16.764C50.9734 18.5883 50.0258 21.6585 50.2735 21.9064C50.5134 22.1463 53.5915 21.2064 55.4157 19.382C56.0086 18.7893 56.4471 18.2269 56.7441 17.7129C56.5885 18.289 56.4995 19.0017 56.4995 19.8473C56.4995 22.4271 58.0002 25.2683 58.3506 25.2683C58.6899 25.2683 60.2019 22.4271 60.2019 19.8473C60.2019 19.0089 60.1143 18.3013 59.961 17.7277C60.2583 18.2451 60.6992 18.812 61.297 19.4098C63.1213 21.2341 66.1917 22.1818 66.4394 21.934C66.6794 21.6941 65.7394 18.6162 63.915 16.7918C63.3222 16.1989 62.7598 15.7605 62.2459 15.4634C62.822 15.619 63.5348 15.7081 64.3802 15.7081C66.9599 15.7081 69.8013 14.2072 69.8013 13.8569C69.8013 13.5176 66.9599 12.0057 64.3802 12.0057C63.542 12.0057 62.8343 12.0932 62.2607 12.2464C62.7781 11.9493 63.345 11.5084 63.9428 10.9105C65.7672 9.08618 66.7148 6.01603 66.467 5.76829C66.2271 5.5282 63.149 6.46828 61.3246 8.29255C59.5006 10.1168 59.1368 11.6529 59.8597 12.3756C60.1772 12.6933 60.6519 12.8011 61.2391 12.6673C60.721 12.9891 60.457 13.404 60.457 13.8569C60.457 14.3061 60.7165 14.718 61.2264 15.0385C60.6323 14.8995 60.1521 15.0062 59.8319 15.3266C59.5144 15.6443 59.4068 16.119 59.5403 16.706C59.2186 16.1878 58.8036 15.924 58.3506 15.924C57.9014 15.924 57.4895 16.1835 57.169 16.6933C57.3079 16.0993 57.201 15.6192 56.8807 15.299C56.5633 14.9814 56.0887 14.8736 55.5017 15.0072C56.0198 14.6855 56.2837 14.2706 56.2837 13.8178C56.2837 13.3686 56.0242 12.9567 55.5144 12.6361C56.1083 12.7749 56.5883 12.6682 56.9085 12.3481ZM58.3703 9.34422C59.3925 9.34422 60.2216 8.00099 60.2216 5.42103C60.2216 2.84109 58.7207 0 58.3703 0C58.031 0 56.5192 2.84109 56.5192 5.42103C56.5192 8.00099 57.3481 9.34422 58.3703 9.34422Z" fill="black"/>
</g>
<defs>
<clipPath id="clip0_1218_16080">
<rect width="72.1951" height="40" fill="white"/>
</clipPath>
</defs>
</svg>
