<svg width="25" height="24" viewBox="0 0 25 24" fill="none" xmlns="http://www.w3.org/2000/svg">
<g id="vuesax/bold/refresh-2">
<g id="refresh-2">
<path id="Vector" d="M16.69 2H8.31C4.67 2 2.5 4.17 2.5 7.81V16.18C2.5 19.83 4.67 22 8.31 22H16.68C20.32 22 22.49 19.83 22.49 16.19V7.81C22.5 4.17 20.33 2 16.69 2ZM12.5 18.25C10.71 18.25 9.31 17.36 8.36 16.48V17.19C8.36 17.6 8.02 17.94 7.61 17.94C7.2 17.94 6.86 17.6 6.86 17.19V14.44C6.86 14.03 7.2 13.69 7.61 13.69H10.09C10.5 13.69 10.84 14.03 10.84 14.44C10.84 14.85 10.5 15.19 10.09 15.19H9.19C9.93 15.93 11.08 16.75 12.5 16.75C15.12 16.75 17.25 14.62 17.25 12C17.25 11.59 17.59 11.25 18 11.25C18.41 11.25 18.75 11.59 18.75 12C18.75 15.45 15.95 18.25 12.5 18.25ZM18.75 9.54C18.75 9.57 18.75 9.6 18.75 9.62C18.74 9.73 18.71 9.83 18.66 9.92C18.61 10.01 18.54 10.09 18.45 10.16C18.38 10.21 18.3 10.25 18.21 10.28C18.14 10.3 18.07 10.31 18 10.31H15.57C15.16 10.31 14.82 9.97 14.82 9.56C14.82 9.15 15.16 8.81 15.57 8.81H16.4C15.6 8.07 14.31 7.25 12.52 7.25C9.9 7.25 7.77 9.38 7.77 12C7.77 12.41 7.43 12.75 7.02 12.75C6.61 12.75 6.25 12.41 6.25 12C6.25 8.55 9.05 5.75 12.5 5.75C14.65 5.75 16.23 6.68 17.25 7.57V6.81C17.25 6.4 17.59 6.06 18 6.06C18.41 6.06 18.75 6.4 18.75 6.81V9.54Z" fill="#051244"/>
</g>
</g>
</svg>
