<svg width="28" height="28" viewBox="0 0 28 28" fill="none" xmlns="http://www.w3.org/2000/svg">
<rect width="28" height="28" rx="5" fill="#F4F4F4"/>
<g clip-path="url(#clip0_989_8600)">
<path d="M6.11318 15.8133C6.11318 15.5343 6.11622 14.7886 6.10933 14.6967C6.11533 13.587 5.30748 12.8043 4.79712 12.8653C4.44396 12.8959 4.14799 13.0397 3.98907 13.4534C3.84178 13.839 3.97347 14.3519 4.46317 14.4722C4.98681 14.6015 5.29257 14.709 5.51385 14.8607C5.78499 15.0464 6.00634 15.4013 6.01221 15.8137" fill="#0060AF"/>
<path d="M6.32219 17.5C5.39889 17.5 4.45 17.2729 3.50238 16.8237L3.47913 16.8123L3.46801 16.7886C3.04276 15.8921 2.81787 14.9116 2.81787 13.9522C2.81787 12.9943 3.03353 12.0558 3.4591 11.1605L3.47079 11.1367L3.49448 11.1248C4.37108 10.7101 5.31409 10.5 6.29818 10.5C7.2149 10.5 8.19393 10.7339 9.12898 11.1775L9.15299 11.1882L9.16405 11.2124C9.59745 12.1254 9.826 13.1057 9.826 14.0492C9.826 14.9889 9.60655 15.9283 9.17264 16.8408L9.1612 16.8648L9.13707 16.8759C8.27386 17.284 7.30039 17.5 6.32219 17.5ZM3.59009 16.7008C4.51067 17.1332 5.42878 17.3516 6.32219 17.3516C7.2695 17.3516 8.21162 17.1448 9.05025 16.7528C9.46684 15.8686 9.67801 14.9586 9.67801 14.0492C9.67801 13.136 9.45762 12.1861 9.04071 11.3C8.13327 10.874 7.18558 10.648 6.29818 10.648C5.34544 10.648 4.43225 10.8499 3.58212 11.248C3.17406 12.1158 2.96636 13.0251 2.96636 13.9522C2.96636 14.8812 3.18221 15.8314 3.59009 16.7008Z" fill="#0060AF"/>
<path d="M5.89449 15.8137C5.89619 15.456 5.69633 15.1398 5.43511 14.9699C5.2034 14.8197 4.89233 14.721 4.3905 14.5939C4.23537 14.5542 4.07311 14.4662 4.02287 14.354C3.88999 14.4877 3.86585 14.7884 3.88923 14.9641C3.9164 15.1674 4.1543 15.5025 4.51251 15.5156C4.73127 15.5244 5.00784 15.4686 5.14047 15.4404C5.36927 15.3911 5.73127 15.5342 5.7889 15.8132" fill="#0060AF"/>
<path d="M6.29808 11.1359C5.69072 11.1359 5.16608 11.5359 5.16797 12.2281C5.16987 12.8102 5.63859 13.1218 5.80585 13.3444C6.0586 13.6798 6.1954 14.0768 6.20962 14.6843C6.22068 15.1677 6.22011 15.6451 6.22257 15.8143H6.35666C6.35432 15.6373 6.34825 15.1305 6.3552 14.6693C6.3643 14.0617 6.50603 13.6798 6.75891 13.3444C6.92762 13.1218 7.39596 12.8102 7.39697 12.2281C7.39925 11.5359 6.87492 11.1359 6.26807 11.1359" fill="#0060AF"/>
<path d="M6.4524 15.8133C6.4524 15.5343 6.44924 14.7886 6.456 14.6967C6.45006 13.587 7.25741 12.8043 7.76822 12.8653C8.12137 12.8959 8.41702 13.0397 8.57638 13.4534C8.72355 13.839 8.59111 14.3519 8.10197 14.4722C7.57808 14.6015 7.2727 14.709 7.05085 14.8607C6.78003 15.0464 6.57416 15.4013 6.56784 15.8137" fill="#0060AF"/>
<path d="M6.67091 15.8137C6.66902 15.456 6.86882 15.1398 7.12927 14.9699C7.36193 14.8197 7.67338 14.721 8.17477 14.5939C8.33022 14.5542 8.49229 14.4662 8.54164 14.354C8.67516 14.4877 8.69923 14.7884 8.67585 14.9641C8.64811 15.1674 8.41084 15.5025 8.05327 15.5156C7.83457 15.5244 7.55655 15.4686 7.42449 15.4404C7.19657 15.3911 6.83356 15.5342 6.77568 15.8132" fill="#0060AF"/>
<path d="M6.85848 16.9681L6.78076 16.4017L6.96837 16.3733C7.01405 16.3671 7.06965 16.375 7.0919 16.4036C7.11648 16.4335 7.124 16.4582 7.12874 16.4973C7.13581 16.5457 7.12178 16.6017 7.06719 16.6295V16.6312C7.12817 16.6312 7.16501 16.675 7.17568 16.7488C7.17726 16.7644 7.18188 16.8021 7.17726 16.8335C7.16488 16.9083 7.1202 16.9323 7.04482 16.9429L6.85848 16.9681ZM6.97923 16.8667C7.00148 16.8635 7.02403 16.8623 7.04166 16.8511C7.06864 16.8335 7.06618 16.7958 7.06245 16.7679C7.05304 16.7064 7.03699 16.6831 6.97171 16.6927L6.93071 16.699L6.95668 16.8699L6.97923 16.8667ZM6.93993 16.605C6.96476 16.601 6.99844 16.598 7.01247 16.5745C7.0198 16.5587 7.02922 16.5462 7.02302 16.5113C7.01538 16.4698 7.0016 16.4441 6.9489 16.4541L6.89981 16.462L6.91914 16.6071" fill="#0060AF"/>
<path d="M7.67121 16.6276C7.67266 16.6381 7.67437 16.6498 7.675 16.6604C7.69017 16.7637 7.67121 16.8492 7.55495 16.8727C7.38308 16.9058 7.35015 16.7991 7.31989 16.6498L7.30378 16.5691C7.28008 16.4262 7.26991 16.318 7.43748 16.2847C7.53195 16.2675 7.59438 16.305 7.62035 16.3989C7.62439 16.4129 7.62944 16.4268 7.63134 16.4409L7.52853 16.4621C7.51665 16.4268 7.50092 16.3638 7.45467 16.3691C7.37164 16.379 7.39906 16.4822 7.40759 16.5253L7.43849 16.6804C7.44778 16.7273 7.46623 16.8022 7.53807 16.7877C7.5964 16.776 7.571 16.6853 7.56581 16.6481" fill="#0060AF"/>
<path d="M7.83587 16.7989L7.80029 16.2127L7.93842 16.1707L8.22801 16.6804L8.11926 16.7129L8.05064 16.5834L7.92989 16.6196L7.9455 16.7669L7.83587 16.7989ZM7.91978 16.5249L8.00704 16.4997L7.89116 16.2625" fill="#0060AF"/>
<path d="M4.42448 16.3559C4.4677 16.2177 4.50643 16.1159 4.67135 16.1611C4.75963 16.1857 4.81435 16.2246 4.81175 16.327C4.81133 16.3498 4.80379 16.373 4.79886 16.3956L4.69618 16.3672C4.70964 16.3107 4.71817 16.2658 4.64841 16.2444C4.56779 16.2223 4.54814 16.3199 4.53702 16.3621L4.49525 16.5157C4.48198 16.5614 4.46606 16.6368 4.53702 16.6562C4.59565 16.672 4.63123 16.6145 4.65246 16.5306L4.58061 16.5116L4.60545 16.4226L4.77435 16.4769L4.69416 16.7731L4.61644 16.752L4.63395 16.6894H4.63173C4.59597 16.7406 4.55231 16.7459 4.51408 16.7386C4.34518 16.693 4.36281 16.5827 4.40312 16.4355" fill="#0060AF"/>
<path d="M5.05306 16.606L5.00219 16.847L4.8877 16.8222L5.00971 16.2596L5.2049 16.3037C5.31914 16.3283 5.35364 16.3791 5.33746 16.4837C5.32824 16.5437 5.2986 16.6084 5.22625 16.6031L5.2255 16.6022C5.28666 16.6235 5.29184 16.6543 5.28116 16.7076C5.27655 16.7303 5.24477 16.8678 5.26669 16.89L5.26745 16.9068L5.14898 16.876C5.14405 16.8379 5.16079 16.7693 5.16743 16.7314C5.17412 16.6978 5.1848 16.6505 5.15068 16.6327C5.12395 16.6185 5.11403 16.6192 5.08383 16.6122L5.05306 16.606ZM5.07258 16.5189L5.14967 16.5396C5.19649 16.5464 5.22253 16.5222 5.23175 16.4657C5.24009 16.4139 5.22929 16.3936 5.18727 16.3836L5.10462 16.3669" fill="#0060AF"/>
<path d="M5.7876 16.3853L5.90083 16.3984L5.85205 16.7939C5.82836 16.9193 5.77983 16.9742 5.6417 16.957C5.50117 16.9393 5.46781 16.8753 5.47634 16.7489L5.52544 16.3538L5.63955 16.3668L5.59058 16.7532C5.5854 16.7951 5.57567 16.8573 5.65042 16.8648C5.7167 16.8698 5.73174 16.826 5.7392 16.7715" fill="#0060AF"/>
<path d="M6.02539 16.9786L6.05945 16.4131L6.277 16.4225C6.37981 16.4275 6.40673 16.5114 6.4035 16.5914C6.40053 16.6401 6.38531 16.6944 6.34284 16.7239C6.30803 16.7489 6.26329 16.7549 6.22178 16.7529L6.15088 16.7489L6.13673 16.986L6.02539 16.9786ZM6.1541 16.6627L6.21173 16.6659C6.25855 16.6676 6.28958 16.6491 6.29362 16.5804C6.2959 16.5145 6.27094 16.5033 6.21028 16.5007L6.16459 16.4991" fill="#0060AF"/>
<path d="M21.3694 11.6825L20.5047 13.2499C20.1783 12.9852 19.7798 12.7904 19.2714 12.7904C18.0681 12.7904 17.5793 13.6862 17.5793 14.3172C17.5793 14.7855 17.8864 15.4766 18.9571 15.4766C19.4064 15.4766 20.0453 15.1644 20.2292 15.0223L19.374 16.8407C18.9664 16.9219 18.8325 16.9723 18.4874 16.983C16.5712 17.0401 15.7968 15.8644 15.7974 14.6631C15.7986 13.0749 17.2124 11.1435 19.5562 11.1435C19.6998 11.1435 19.8755 11.1931 20.0257 11.2481L20.1775 11.0542" fill="#0060AF"/>
<path d="M24.9375 11.1033L25.1824 16.8H23.3602L23.3591 15.823H22.1166L21.7076 16.8H19.7314L21.7975 12.732L21.3316 12.729L22.2168 11.1033H24.9375ZM23.3473 12.846L22.6448 14.503H23.3685" fill="#0060AF"/>
<path d="M14.6472 11.1033C15.5496 11.1084 16.0596 11.5976 16.0596 12.3042C16.0596 12.9557 15.5218 13.5323 14.9314 13.8305C15.5392 14.0537 15.5918 14.6014 15.5918 14.989C15.5918 15.9252 14.6511 16.8 13.4284 16.8H10.7617L11.8019 12.7888L11.3746 12.7863L12.2481 11.1033C12.2481 11.1033 13.9134 11.0983 14.6472 11.1033ZM13.7619 13.413C13.9486 13.413 14.2782 13.3658 14.3606 13.005C14.4509 12.6134 14.1416 12.6029 13.9932 12.6029L13.463 12.6005L13.2782 13.413L13.7619 13.413ZM13.0124 14.4197L12.7683 15.3559H13.3925C13.6381 15.3559 13.9728 15.2342 14.0549 14.9295C14.1359 14.624 13.9019 14.4197 13.6572 14.4197" fill="#0060AF"/>
</g>
<defs>
<clipPath id="clip0_989_8600">
<rect width="22.3642" height="7" fill="white" transform="translate(2.81787 10.5)"/>
</clipPath>
</defs>
</svg>
