<svg width="28" height="28" viewBox="0 0 28 28" fill="none" xmlns="http://www.w3.org/2000/svg">
<rect width="28" height="28" rx="5" fill="#F4F4F4"/>
<path d="M17.6133 11.7885V18.8921H19.2832V13.5678C19.2832 13.1703 19.0711 11.9692 17.6133 11.7885Z" fill="#00A39D"/>
<path d="M8.73368 17.6564C8.94585 17.6564 9.11976 17.6299 9.25397 17.5753C9.38819 17.5208 9.49413 17.4511 9.57037 17.3666C9.64662 17.2803 9.69802 17.1844 9.72772 17.0767C9.75599 16.9691 9.77084 16.8597 9.77084 16.7486C9.77084 16.621 9.75428 16.5085 9.72115 16.4057C9.68803 16.3046 9.63006 16.2183 9.55038 16.1489C9.46928 16.0793 9.36306 16.0247 9.22913 15.9865C9.09663 15.9485 8.92757 15.9302 8.7254 15.9302H7.602V17.6564H8.73368ZM7.602 13.1437V14.8551H8.43869C8.61603 14.8551 8.77651 14.8419 8.91901 14.8171C9.0615 14.7922 9.1823 14.7474 9.28338 14.6846C9.38276 14.6218 9.459 14.5338 9.51212 14.4227C9.56523 14.3116 9.59008 14.1726 9.59008 14.0035C9.59008 13.8379 9.57009 13.702 9.52868 13.5926C9.48728 13.4832 9.42445 13.3956 9.33821 13.3293C9.25197 13.2631 9.14432 13.2151 9.01182 13.1868C8.88103 13.1586 8.72368 13.1437 8.54292 13.1437H7.60057H7.602ZM8.54464 11.9409C9.02352 11.9409 9.43102 11.9858 9.76713 12.0734C10.1035 12.1628 10.3785 12.287 10.5904 12.4495C10.8026 12.612 10.9582 12.8073 11.0542 13.0392C11.1501 13.2711 11.2001 13.5295 11.2001 13.8145C11.2001 13.9701 11.1787 14.1192 11.1338 14.2634C11.089 14.4076 11.0196 14.5418 10.9251 14.6677C10.8306 14.7937 10.7081 14.9079 10.559 15.0124C10.4099 15.1166 10.2309 15.208 10.0221 15.284C10.4793 15.3951 10.8174 15.5738 11.0359 15.8208C11.2543 16.0679 11.364 16.3891 11.364 16.7818C11.364 17.0767 11.3077 17.3517 11.1932 17.605C11.079 17.8586 10.9117 18.0805 10.6912 18.2678C10.4707 18.4566 10.1992 18.6042 9.87621 18.7101C9.55324 18.8161 9.18372 18.8692 8.76795 18.8692H6V11.9409H8.54949H8.54464Z" fill="#00A39D"/>
<path d="M16.1934 13.3477C16.1454 13.4239 16.0957 13.4802 16.0443 13.5184C15.9912 13.5564 15.925 13.5747 15.8421 13.5747C15.7693 13.5747 15.6914 13.5515 15.6068 13.505C15.5223 13.4587 15.4278 13.4073 15.3218 13.3508C15.2159 13.2945 15.0948 13.2414 14.9575 13.1966C14.8215 13.1503 14.6659 13.1269 14.492 13.1269C14.1905 13.1269 13.9669 13.1915 13.8195 13.3191C13.6722 13.4468 13.5976 13.6207 13.5976 13.8394C13.5976 13.9785 13.6425 14.0944 13.7301 14.1872C13.8195 14.28 13.9354 14.358 14.0797 14.4257C14.2239 14.4919 14.3895 14.5533 14.5751 14.6096C14.7607 14.6658 14.9495 14.7272 15.1434 14.7952C15.3373 14.8631 15.526 14.9425 15.7116 15.0353C15.8973 15.1281 16.0629 15.2441 16.2071 15.3866C16.3513 15.5291 16.4672 15.703 16.5566 15.9069C16.646 16.1108 16.6891 16.3575 16.6891 16.6456C16.6891 16.9654 16.6346 17.2653 16.5235 17.5434C16.4124 17.8218 16.2519 18.0651 16.0397 18.2739C15.8293 18.4809 15.5691 18.6451 15.2596 18.7642C14.95 18.8833 14.5985 18.9432 14.2059 18.9432C13.9906 18.9432 13.7701 18.9218 13.5465 18.877C13.3229 18.8322 13.1059 18.7693 12.8971 18.6897C12.6884 18.6086 12.4914 18.5123 12.3075 18.4015C12.1236 18.2904 11.9628 18.1662 11.8271 18.0303L12.3026 17.2798C12.3406 17.2253 12.3903 17.1805 12.4517 17.1439C12.5131 17.1074 12.581 17.0894 12.6538 17.0894C12.7484 17.0894 12.8443 17.1191 12.942 17.1805C13.0379 17.2401 13.1473 17.3081 13.2701 17.3809C13.3926 17.4537 13.5319 17.52 13.691 17.5814C13.8501 17.6411 14.0371 17.6725 14.2527 17.6725C14.5443 17.6725 14.7713 17.6079 14.9335 17.4803C15.096 17.3509 15.1754 17.1491 15.1754 16.8689C15.1754 16.7064 15.1305 16.5756 15.0429 16.4746C14.9535 16.3735 14.8375 16.2889 14.6933 16.2227C14.5491 16.1564 14.3852 16.0968 14.2013 16.0471C14.0174 15.9957 13.8286 15.9394 13.6348 15.878C13.4409 15.8166 13.2521 15.7404 13.0682 15.6493C12.8843 15.5582 12.7204 15.4405 12.5762 15.2932C12.432 15.1458 12.3143 14.9619 12.2266 14.7415C12.1373 14.521 12.0941 14.2495 12.0941 13.9265C12.0941 13.6663 12.1473 13.4131 12.2515 13.166C12.3557 12.9193 12.5099 12.6989 12.7138 12.505C12.9177 12.3111 13.1661 12.1572 13.4608 12.0412C13.7558 11.9253 14.0936 11.8673 14.4746 11.8673C14.6868 11.8673 14.8938 11.8839 15.096 11.917C15.2981 11.9501 15.4886 11.9998 15.6691 12.0643C15.8496 12.1289 16.0186 12.2068 16.176 12.2979C16.3333 12.389 16.4724 12.4901 16.5969 12.6043L16.1977 13.3514L16.1934 13.3477Z" fill="#00A39D"/>
<path d="M19.467 9.22896C19.4636 9.17099 19.457 9.11302 19.4487 9.05676C19.8231 9.44284 20.3565 9.66815 20.9348 9.6316C21.2115 9.61332 21.4699 9.53708 21.7001 9.41628C21.521 9.72783 21.4285 10.0939 21.4534 10.48C21.4831 10.9572 21.6887 11.3812 21.9999 11.6959C21.8409 11.6645 21.6735 11.6511 21.503 11.6628C20.8271 11.7059 20.2557 12.0968 19.9542 12.6503C19.8348 11.8318 19.2003 11.1956 18.4053 11.0548C19.0763 10.7267 19.5187 10.0177 19.4687 9.22753L19.467 9.22896Z" fill="#F9AD3C"/>
</svg>
