<svg width="24" height="24" viewBox="0 0 24 24" fill="none" xmlns="http://www.w3.org/2000/svg">
<path d="M9.46992 15.2799C9.27992 15.2799 9.08992 15.2099 8.93992 15.0599C8.11992 14.2399 7.66992 13.1499 7.66992 11.9999C7.66992 9.60992 9.60992 7.66992 11.9999 7.66992C13.1499 7.66992 14.2399 8.11992 15.0599 8.93992C15.1999 9.07992 15.2799 9.26992 15.2799 9.46992C15.2799 9.66992 15.1999 9.85992 15.0599 9.99992L9.99992 15.0599C9.84992 15.2099 9.65992 15.2799 9.46992 15.2799ZM11.9999 9.16992C10.4399 9.16992 9.16992 10.4399 9.16992 11.9999C9.16992 12.4999 9.29992 12.9799 9.53992 13.3999L13.3999 9.53992C12.9799 9.29992 12.4999 9.16992 11.9999 9.16992Z" fill="#9EA3A9"/>
<path d="M5.60009 18.5105C5.43009 18.5105 5.25009 18.4505 5.11009 18.3305C4.04009 17.4205 3.08009 16.3005 2.26009 15.0005C1.20009 13.3505 1.20009 10.6605 2.26009 9.00047C4.70009 5.18047 8.25009 2.98047 12.0001 2.98047C14.2001 2.98047 16.3701 3.74047 18.2701 5.17047C18.6001 5.42047 18.6701 5.89047 18.4201 6.22047C18.1701 6.55047 17.7001 6.62047 17.3701 6.37047C15.7301 5.13047 13.8701 4.48047 12.0001 4.48047C8.77009 4.48047 5.68009 6.42047 3.52009 9.81047C2.77009 10.9805 2.77009 13.0205 3.52009 14.1905C4.27009 15.3605 5.13009 16.3705 6.08009 17.1905C6.39009 17.4605 6.43009 17.9305 6.16009 18.2505C6.02009 18.4205 5.81009 18.5105 5.60009 18.5105Z" fill="#9EA3A9"/>
<path d="M12.0001 21.0205C10.6701 21.0205 9.37006 20.7505 8.12006 20.2205C7.74006 20.0605 7.56006 19.6205 7.72006 19.2405C7.88006 18.8605 8.32006 18.6805 8.70006 18.8405C9.76006 19.2905 10.8701 19.5205 11.9901 19.5205C15.2201 19.5205 18.3101 17.5805 20.4701 14.1905C21.2201 13.0205 21.2201 10.9805 20.4701 9.81049C20.1601 9.32049 19.8201 8.85049 19.4601 8.41049C19.2001 8.09049 19.2501 7.62049 19.5701 7.35049C19.8901 7.09049 20.3601 7.13049 20.6301 7.46049C21.0201 7.94049 21.4001 8.46049 21.7401 9.00049C22.8001 10.6505 22.8001 13.3405 21.7401 15.0005C19.3001 18.8205 15.7501 21.0205 12.0001 21.0205Z" fill="#9EA3A9"/>
<path d="M12.6901 16.2703C12.3401 16.2703 12.0201 16.0203 11.9501 15.6603C11.8701 15.2503 12.1401 14.8603 12.5501 14.7903C13.6501 14.5903 14.5701 13.6703 14.7701 12.5703C14.8501 12.1603 15.2401 11.9003 15.6501 11.9703C16.0601 12.0503 16.3301 12.4403 16.2501 12.8503C15.9301 14.5803 14.5501 15.9503 12.8301 16.2703C12.7801 16.2603 12.7401 16.2703 12.6901 16.2703Z" fill="#9EA3A9"/>
<path d="M1.99994 22.7497C1.80994 22.7497 1.61994 22.6797 1.46994 22.5297C1.17994 22.2397 1.17994 21.7597 1.46994 21.4697L8.93994 13.9997C9.22994 13.7097 9.70994 13.7097 9.99994 13.9997C10.2899 14.2897 10.2899 14.7697 9.99994 15.0597L2.52994 22.5297C2.37994 22.6797 2.18994 22.7497 1.99994 22.7497Z" fill="#9EA3A9"/>
<path d="M14.53 10.2204C14.34 10.2204 14.15 10.1504 14 10.0004C13.71 9.71043 13.71 9.23043 14 8.94043L21.47 1.47043C21.76 1.18043 22.24 1.18043 22.53 1.47043C22.82 1.76043 22.82 2.24043 22.53 2.53043L15.06 10.0004C14.91 10.1504 14.72 10.2204 14.53 10.2204Z" fill="#9EA3A9"/>
</svg>
