<svg width="64" height="64" viewBox="0 0 64 64" fill="none" xmlns="http://www.w3.org/2000/svg">
<path d="M13.332 21.3333C8.90536 21.3333 5.33203 24.9066 5.33203 29.3333V50.6666C5.33203 55.0933 8.90536 58.6666 13.332 58.6666H17.332C20.2654 58.6666 22.6654 56.2666 22.6654 53.3333V26.6666C22.6654 23.7333 20.2654 21.3333 17.332 21.3333H13.332ZM15.9987 45.3333C15.9987 46.4266 15.092 47.3333 13.9987 47.3333C12.9054 47.3333 11.9987 46.4266 11.9987 45.3333V34.6666C11.9987 33.5733 12.9054 32.6666 13.9987 32.6666C15.092 32.6666 15.9987 33.5733 15.9987 34.6666V45.3333Z" fill="#091E6F"/>
<path d="M50.668 5.33331H34.668C30.2413 5.33331 26.668 8.90665 26.668 13.3333V50.6666C26.668 55.0933 30.2413 58.6666 34.668 58.6666H36.0013C36.748 58.6666 37.3346 58.08 37.3346 57.3333V48C37.3346 46.5333 38.5346 45.3333 40.0013 45.3333H45.3346C46.8013 45.3333 48.0013 46.5333 48.0013 48V57.3333C48.0013 58.08 48.588 58.6666 49.3346 58.6666H50.668C55.0946 58.6666 58.668 55.0933 58.668 50.6666V13.3333C58.668 8.90665 55.0946 5.33331 50.668 5.33331ZM39.3346 34.6666C39.3346 35.76 38.428 36.6666 37.3346 36.6666C36.2413 36.6666 35.3346 35.76 35.3346 34.6666V21.3333C35.3346 20.24 36.2413 19.3333 37.3346 19.3333C38.428 19.3333 39.3346 20.24 39.3346 21.3333V34.6666ZM50.0013 34.6666C50.0013 35.76 49.0946 36.6666 48.0013 36.6666C46.908 36.6666 46.0013 35.76 46.0013 34.6666V21.3333C46.0013 20.24 46.908 19.3333 48.0013 19.3333C49.0946 19.3333 50.0013 20.24 50.0013 21.3333V34.6666Z" fill="#091E6F"/>
</svg>
