<svg width="64" height="64" viewBox="0 0 64 64" fill="none" xmlns="http://www.w3.org/2000/svg">
<path d="M58.6654 56.6666H5.33203C4.2387 56.6666 3.33203 57.5733 3.33203 58.6666C3.33203 59.76 4.2387 60.6666 5.33203 60.6666H58.6654C59.7587 60.6666 60.6654 59.76 60.6654 58.6666C60.6654 57.5733 59.7587 56.6666 58.6654 56.6666Z" fill="white"/>
<path d="M45.3333 5.33337H18.6667C10.6667 5.33337 8 10.1067 8 16V58.6667H56V16C56 10.1067 53.3333 5.33337 45.3333 5.33337ZM26.6667 46H18.6667C17.5733 46 16.6667 45.0934 16.6667 44C16.6667 42.9067 17.5733 42 18.6667 42H26.6667C27.76 42 28.6667 42.9067 28.6667 44C28.6667 45.0934 27.76 46 26.6667 46ZM26.6667 34H18.6667C17.5733 34 16.6667 33.0934 16.6667 32C16.6667 30.9067 17.5733 30 18.6667 30H26.6667C27.76 30 28.6667 30.9067 28.6667 32C28.6667 33.0934 27.76 34 26.6667 34ZM26.6667 22H18.6667C17.5733 22 16.6667 21.0934 16.6667 20C16.6667 18.9067 17.5733 18 18.6667 18H26.6667C27.76 18 28.6667 18.9067 28.6667 20C28.6667 21.0934 27.76 22 26.6667 22ZM45.3333 46H37.3333C36.24 46 35.3333 45.0934 35.3333 44C35.3333 42.9067 36.24 42 37.3333 42H45.3333C46.4267 42 47.3333 42.9067 47.3333 44C47.3333 45.0934 46.4267 46 45.3333 46ZM45.3333 34H37.3333C36.24 34 35.3333 33.0934 35.3333 32C35.3333 30.9067 36.24 30 37.3333 30H45.3333C46.4267 30 47.3333 30.9067 47.3333 32C47.3333 33.0934 46.4267 34 45.3333 34ZM45.3333 22H37.3333C36.24 22 35.3333 21.0934 35.3333 20C35.3333 18.9067 36.24 18 37.3333 18H45.3333C46.4267 18 47.3333 18.9067 47.3333 20C47.3333 21.0934 46.4267 22 45.3333 22Z" fill="white"/>
</svg>
