<svg width="24" height="25" viewBox="0 0 24 25" fill="none" xmlns="http://www.w3.org/2000/svg">
<path d="M2.58078 19.51L2.56078 19.53C2.29078 18.94 2.12078 18.27 2.05078 17.53C2.12078 18.26 2.31078 18.92 2.58078 19.51Z" fill="#101828"/>
<path d="M9.00109 10.88C10.3155 10.88 11.3811 9.81443 11.3811 8.5C11.3811 7.18556 10.3155 6.12 9.00109 6.12C7.68666 6.12 6.62109 7.18556 6.62109 8.5C6.62109 9.81443 7.68666 10.88 9.00109 10.88Z" fill="#101828"/>
<path d="M16.19 2.5H7.81C4.17 2.5 2 4.67 2 8.31V16.69C2 17.78 2.19 18.73 2.56 19.53C3.42 21.43 5.26 22.5 7.81 22.5H16.19C19.83 22.5 22 20.33 22 16.69V14.4V8.31C22 4.67 19.83 2.5 16.19 2.5ZM20.37 13C19.59 12.33 18.33 12.33 17.55 13L13.39 16.57C12.61 17.24 11.35 17.24 10.57 16.57L10.23 16.29C9.52 15.67 8.39 15.61 7.59 16.15L3.85 18.66C3.63 18.1 3.5 17.45 3.5 16.69V8.31C3.5 5.49 4.99 4 7.81 4H16.19C19.01 4 20.5 5.49 20.5 8.31V13.11L20.37 13Z" fill="#101828"/>
</svg>
