<svg width="28" height="28" viewBox="0 0 28 28" fill="none" xmlns="http://www.w3.org/2000/svg">
<path d="M24.4663 1.16663H21.0363C20.0213 1.16663 19.2746 1.58663 18.9363 2.33329C18.7496 2.67163 18.668 3.06829 18.668 3.53496V6.96496C18.668 8.44663 19.5546 9.33329 21.0363 9.33329H24.4663C24.933 9.33329 25.3296 9.25163 25.668 9.06496C26.4146 8.72663 26.8346 7.97996 26.8346 6.96496V3.53496C26.8346 2.05329 25.948 1.16663 24.4663 1.16663ZM25.563 5.75163C25.4463 5.86829 25.2713 5.94996 25.0846 5.96163H23.4396V6.55663L23.4513 7.58329C23.4396 7.78163 23.3696 7.94496 23.2296 8.08496C23.113 8.20163 22.938 8.28329 22.7513 8.28329C22.3663 8.28329 22.0513 7.96829 22.0513 7.58329V5.94996L20.418 5.96163C20.033 5.96163 19.718 5.63496 19.718 5.24996C19.718 4.86496 20.033 4.54996 20.418 4.54996L21.4446 4.56163H22.0513V2.92829C22.0513 2.54329 22.3663 2.21663 22.7513 2.21663C23.1363 2.21663 23.4513 2.54329 23.4513 2.92829L23.4396 3.75663V4.54996H25.0846C25.4696 4.54996 25.7846 4.86496 25.7846 5.24996C25.773 5.44829 25.6913 5.61163 25.563 5.75163Z" fill="#344054"/>
<path d="M10.4993 12.11C12.0328 12.11 13.276 10.8668 13.276 9.33331C13.276 7.7998 12.0328 6.55664 10.4993 6.55664C8.96581 6.55664 7.72266 7.7998 7.72266 9.33331C7.72266 10.8668 8.96581 12.11 10.4993 12.11Z" fill="#344054"/>
<path d="M24.4637 9.33337H23.9154V14.7117L23.7637 14.5834C22.8537 13.8017 21.3837 13.8017 20.4737 14.5834L15.6204 18.7484C14.7104 19.53 13.2404 19.53 12.3304 18.7484L11.9337 18.4217C11.1054 17.6984 9.78703 17.6284 8.8537 18.2584L4.49036 21.1867C4.2337 20.5334 4.08203 19.775 4.08203 18.8884V9.11171C4.08203 5.82171 5.82036 4.08337 9.11036 4.08337H18.6654V3.53504C18.6654 3.06837 18.747 2.67171 18.9337 2.33337H9.11036C4.8637 2.33337 2.33203 4.86504 2.33203 9.11171V18.8884C2.33203 20.16 2.5537 21.2684 2.98536 22.2017C3.9887 24.4184 6.13536 25.6667 9.11036 25.6667H18.887C23.1337 25.6667 25.6654 23.135 25.6654 18.8884V9.06504C25.327 9.25171 24.9304 9.33337 24.4637 9.33337Z" fill="#344054"/>
</svg>
