<svg width="94" height="52" viewBox="0 0 94 52" fill="none" xmlns="http://www.w3.org/2000/svg">
<g clip-path="url(#clip0_842_6024)">
<path d="M6.30188 47.2681C5.35824 47.1768 3.91048 47.1444 3.91048 45.6768V27.2988H0V46.04C0 48.0387 1.14461 51.063 5.41362 50.8084L6.30188 47.2681ZM17.3561 47.6499C16.9525 47.8226 15.9725 47.9669 15.1362 47.9669C13.0892 47.9669 11.8528 47.1286 11.7878 45.9203C11.6843 44.0012 14.3498 43.4046 17.3561 43.7639V47.6499ZM21.0753 49.9264V40.3545C21.0753 36.376 18.8553 34.819 14.8768 34.819C12.6279 34.819 10.09 35.4805 8.79263 36.0281L9.74108 39.144C10.8365 38.6829 12.9632 38.1347 14.4337 38.1347C16.2213 38.1347 17.3561 38.4353 17.3561 40.0492V40.5823C12.3969 40.244 7.83934 41.6383 7.84818 45.8763C7.85569 49.395 10.5809 51.0508 15.2515 51.0508C17.5869 51.0508 19.9221 50.5319 21.0753 49.9264ZM35.1965 50.763V47.4122H27.8129L35.195 38.136L35.1942 35.1225H23.4673L23.468 38.4059H30.3283L23.4687 47.5722V50.763H35.1965ZM41.7077 31.3703C41.7077 30.1881 40.6986 29.1069 39.4589 29.1069C38.2191 29.1069 37.2101 30.1881 37.2101 31.3703C37.2101 32.5525 38.124 33.5358 39.4589 33.5358C40.778 33.5358 41.7077 32.5525 41.7077 31.3703ZM41.4194 50.763V35.1225H37.4983V50.763H41.4194ZM55.7501 46.2361C55.7501 43.0935 53.0353 42.1211 50.863 41.375C49.181 40.7974 47.8523 40.2816 48.0526 39.239C48.167 38.6432 48.8747 38.0466 50.5969 38.0688C51.6975 38.083 53.2484 38.429 53.9516 38.8326L55.2915 35.9434C54.0374 35.3092 52.3248 34.819 50.2149 34.819C46.3613 34.819 44.0492 36.8202 44.0492 39.559C44.0492 42.6152 46.6207 43.7037 48.7036 44.4146C50.1678 44.9141 51.573 45.1868 51.573 46.34C51.573 47.3779 50.5392 47.7812 49.0407 47.7812C47.848 47.7812 46.0132 47.2623 45.1874 46.7721L43.7315 49.9264C44.9549 50.5319 47.0037 51.0508 49.0526 51.0508C53.4563 51.0508 55.7501 49.148 55.7501 46.2361Z" fill="#222222"/>
<path d="M79.0142 50.7631V40.0091C79.0142 36.8665 76.9382 34.8772 73.5075 34.8772C71.1721 34.8772 69.3476 35.7133 68.3674 36.4629C67.4736 35.6557 65.8095 34.8772 63.3013 34.8772C61.0813 34.8772 59.4959 35.3673 57.9102 36.0015V50.7631H61.8311V38.7064C62.3789 38.4759 62.6382 38.3315 63.532 38.3315C65.2041 38.3315 66.4805 39.1299 66.4805 40.5131V50.7631L70.3909 50.7626V39.0711C70.9387 38.581 71.5182 38.3315 72.4983 38.3315C74.0841 38.3315 75.0642 39.1969 75.0642 40.7245V50.7631H79.0142ZM93.8545 49.8803V35.1199H89.9441V47.4299C89.5116 47.6029 88.8963 47.7756 87.8873 47.7756C86.1574 47.7756 85.2637 46.9974 85.2637 45.325V35.1199H81.3426V45.2385C81.3426 49.2742 83.5914 51.0048 87.8873 51.0048C90.3091 51.0048 92.4994 50.5435 93.8545 49.8803Z" fill="black"/>
<path fill-rule="evenodd" clip-rule="evenodd" d="M73.9793 16.0525C74.919 15.1126 74.4462 13.1155 72.075 10.7442C69.7033 8.3727 65.712 7.14067 65.3898 7.46271C65.0781 7.77444 66.2998 11.7761 68.6714 14.1476C69.4419 14.9183 70.1731 15.4881 70.8412 15.8746C70.0923 15.6722 69.1658 15.5562 68.0665 15.5562C64.7128 15.5562 61.0195 17.5075 61.0195 17.9631C61.0195 18.4041 64.7128 20.3697 68.0665 20.3697C69.1564 20.3697 70.0763 20.2558 70.8219 20.0565C70.1493 20.4431 69.4123 21.0162 68.6354 21.7932C66.2637 24.1648 65.0318 28.1561 65.3538 28.4784C65.6657 28.7902 69.6671 27.5684 72.0387 25.1967C72.8095 24.4261 73.3794 23.695 73.7656 23.0267C73.5633 23.7757 73.4475 24.7022 73.4475 25.8015C73.4475 29.1553 75.3985 32.8488 75.854 32.8488C76.2951 32.8488 78.2607 29.1553 78.2607 25.8015C78.2607 24.7115 78.1468 23.7917 77.9476 23.046C78.334 23.7186 78.9071 24.4556 79.6844 25.2327C82.0559 27.6044 86.0474 28.8363 86.3694 28.5143C86.6814 28.2024 85.4594 24.2011 83.0877 21.8293C82.3171 21.0586 81.586 20.4886 80.9179 20.1024C81.6668 20.3047 82.5934 20.4205 83.6925 20.4205C87.0462 20.4205 90.7399 18.4694 90.7399 18.0139C90.7399 17.5728 87.0462 15.6074 83.6925 15.6074C82.6028 15.6074 81.6828 15.7211 80.9372 15.9204C81.6098 15.534 82.3468 14.9609 83.1238 14.1837C85.4955 11.812 86.7274 7.82084 86.4053 7.49878C86.0934 7.18665 82.092 8.40877 79.7203 10.7803C77.3491 13.1518 76.8761 15.1487 77.8158 16.0883C78.2286 16.5013 78.8458 16.6414 79.609 16.4675C78.9356 16.8858 78.5924 17.4252 78.5924 18.0139C78.5924 18.598 78.9297 19.1333 79.5925 19.5501C78.8203 19.3694 78.196 19.5081 77.7798 19.9246C77.3669 20.3376 77.227 20.9547 77.4007 21.7179C76.9824 21.0441 76.4429 20.7012 75.854 20.7012C75.2701 20.7012 74.7346 21.0386 74.318 21.7012C74.4986 20.9291 74.3596 20.305 73.9432 19.8887C73.5305 19.4758 72.9136 19.3356 72.1505 19.5094C72.824 19.0911 73.1671 18.5518 73.1671 17.9631C73.1671 17.3792 72.8297 16.8437 72.1669 16.4269C72.9391 16.6074 73.5631 16.4687 73.9793 16.0525ZM75.8796 12.1475C77.2085 12.1475 78.2863 10.4013 78.2863 7.04735C78.2863 3.69342 76.3352 0 75.8796 0C75.4385 0 73.4732 3.69342 73.4732 7.04735C73.4732 10.4013 74.5508 12.1475 75.8796 12.1475Z" fill="black"/>
</g>
<defs>
<clipPath id="clip0_842_6024">
<rect width="93.8537" height="52" fill="white"/>
</clipPath>
</defs>
</svg>
