<svg width="50" height="32" viewBox="0 0 50 32" fill="none" xmlns="http://www.w3.org/2000/svg">
<path d="M49.7842 29.3849C49.7842 30.2292 49.5148 30.8759 48.9759 31.325C48.4549 31.7741 47.6555 31.9987 46.5777 31.9987V30.3819C46.8112 30.1125 47.0268 29.8161 47.2244 29.4927L47.0627 29.3849C45.913 31.1274 44.3682 31.9987 42.4281 31.9987C41.5119 31.9987 40.6856 31.7921 39.9491 31.3789C39.2305 30.9478 38.6557 30.355 38.2245 29.6005C37.8114 28.846 37.6048 27.9928 37.6048 27.0407V18.8877C37.6048 18.1512 37.8743 17.6302 38.4132 17.3249C38.97 17.0015 39.8143 16.8398 40.9461 16.8398V26.7982C40.9461 27.4987 41.1616 28.0556 41.5928 28.4688C42.0239 28.882 42.6436 29.0885 43.452 29.0885C44.3502 29.0885 45.0687 28.8101 45.6077 28.2532C46.1645 27.6784 46.443 26.9688 46.443 26.1245V21.051C46.443 20.3145 46.7124 19.7936 47.2513 19.4882C47.7903 19.1648 48.6346 19.0032 49.7842 19.0032V29.3849Z" fill="#0EB253"/>
<path d="M33.0922 32.0004C31.6372 32.0004 30.5593 31.5782 29.8588 30.7339C29.1582 29.8896 28.8079 28.8028 28.8079 27.4735V20.791H26.0325C26.0325 19.9467 26.1941 19.3179 26.5175 18.9048C26.8408 18.4916 27.272 18.285 27.8109 18.285H28.8618V16.4834C28.8618 15.7469 29.1312 15.226 29.6701 14.9206C30.209 14.5972 31.0264 14.4355 32.1222 14.4355V18.285H35.706C35.706 19.1832 35.5353 19.8299 35.194 20.2251C34.8527 20.6023 34.3048 20.791 33.5503 20.791H32.1761V27.3388C32.1761 27.9675 32.2928 28.4166 32.5264 28.6861C32.7779 28.9555 33.2 29.0902 33.7928 29.0902C34.4216 29.0902 35.0503 28.9196 35.679 28.5783C35.8587 28.7399 36.0024 28.9465 36.1102 29.198C36.2179 29.4315 36.2718 29.6741 36.2718 29.9256C36.2718 30.4645 35.9934 30.9495 35.4365 31.3806C34.8796 31.7938 34.0982 32.0004 33.0922 32.0004Z" fill="#0EB253"/>
<path d="M18.7467 31.9989C17.8305 31.9989 16.9862 31.8192 16.2138 31.46C15.4593 31.1007 14.8485 30.5887 14.3815 29.9241C13.9324 29.2414 13.7078 28.4331 13.7078 27.4989C13.7078 26.5648 13.9503 25.7565 14.4354 25.0738C14.9204 24.3732 15.5761 23.8433 16.4024 23.484C17.2467 23.1068 18.1718 22.9182 19.1778 22.9182C20.0041 22.9182 20.7406 23.0529 21.3873 23.3224C22.052 23.5739 22.6628 23.9601 23.2196 24.481L23.3544 24.3463C23.1927 24.1846 22.9143 23.9421 22.5191 23.6188V23.0799C22.5191 22.3433 22.2586 21.7595 21.7376 21.3284C21.2167 20.8973 20.4892 20.6817 19.555 20.6817C17.8844 20.6817 16.6539 21.2925 15.8635 22.514C15.4683 22.3883 15.1359 22.1906 14.8665 21.9212C14.597 21.6338 14.4623 21.3284 14.4623 21.005C14.4623 20.4661 14.7048 19.9721 15.1898 19.523C15.6749 19.0739 16.3305 18.7147 17.1569 18.4452C17.9832 18.1757 18.8814 18.041 19.8514 18.041C21.7556 18.041 23.2286 18.4901 24.2705 19.3883C25.3124 20.2685 25.8334 21.4721 25.8334 22.999V29.7354C25.8334 30.5258 25.5819 31.1007 25.0789 31.46C24.5759 31.8192 23.7855 31.9989 22.7077 31.9989V30.8941C23.0131 30.5887 23.2196 30.3642 23.3274 30.2205L23.2196 30.0857C22.6268 30.7145 21.9891 31.1905 21.3065 31.5139C20.6418 31.8372 19.7886 31.9989 18.7467 31.9989ZM19.6089 29.5468C20.543 29.5468 21.2706 29.3672 21.7915 29.0079C22.3125 28.6486 22.573 28.1367 22.573 27.472C22.573 26.8253 22.3035 26.3133 21.7646 25.9361C21.2436 25.5589 20.5341 25.3702 19.6359 25.3702C18.8095 25.3702 18.1539 25.5589 17.6688 25.9361C17.2018 26.2954 16.9683 26.8073 16.9683 27.472C16.9683 28.1546 17.2018 28.6756 17.6688 29.0349C18.1359 29.3762 18.7826 29.5468 19.6089 29.5468Z" fill="#0EB253"/>
<path d="M0 14.9158C0 14.1972 0.278439 13.6404 0.835316 13.2451C1.41016 12.8499 2.26344 12.6523 3.39515 12.6523V18.9037C3.14366 19.1013 2.94606 19.281 2.80235 19.4427L2.91013 19.5774C3.39515 19.1103 4.02389 18.7421 4.79633 18.4726C5.58674 18.1852 6.31427 18.0415 6.97893 18.0415C8.57771 18.0415 9.85314 18.4906 10.8052 19.3888C11.7573 20.269 12.2333 21.4277 12.2333 22.8648V27.1491C12.2333 28.0832 11.9998 28.9185 11.5328 29.6551C11.0657 30.3916 10.437 30.9664 9.64655 31.3796C8.85615 31.7928 8.01185 31.9993 7.11366 31.9993C6.16158 31.9993 5.32626 31.8107 4.60771 31.4335C3.90712 31.0383 3.26941 30.4634 2.69457 29.709L2.58678 29.8167C2.65864 29.9425 2.74846 30.0682 2.85624 30.194C2.96402 30.3197 3.04486 30.4185 3.09875 30.4904C3.09875 30.9934 2.85624 31.3706 2.37122 31.6221C1.8862 31.8736 1.09579 31.9993 0 31.9993V14.9158ZM6.11667 29.0892C7.01486 29.0892 7.69748 28.9096 8.16454 28.5503C8.64956 28.1731 8.89207 27.6252 8.89207 26.9066V23.0803C8.89207 22.3977 8.64956 21.8767 8.16454 21.5175C7.67952 21.1402 6.99689 20.9516 6.11667 20.9516C5.32626 20.9516 4.6616 21.1492 4.12269 21.5444C3.60174 21.9396 3.34126 22.4157 3.34126 22.9725V27.0413C3.34126 27.6341 3.60174 28.1281 4.12269 28.5233C4.64364 28.9006 5.3083 29.0892 6.11667 29.0892Z" fill="#0EB253"/>
<path d="M26.3565 13.0259C26.3565 13.8702 26.0871 14.5169 25.5481 14.966C25.0272 15.4151 24.2278 15.6397 23.15 15.6397V12.5794C23.3835 12.3099 23.5991 12.0135 23.7967 11.6902L23.635 11.5824C22.4853 13.3249 20.9404 14.1961 19.0003 14.1961C18.0842 14.1961 17.2579 13.9896 16.5213 13.5764C15.8028 13.1453 15.2279 12.5525 14.7968 11.798C14.3836 11.0435 14.1771 10.1902 14.1771 9.23813V2.28615C14.1771 1.54964 14.4465 1.02869 14.9854 0.723303C15.5423 0.399955 16.3866 0.238281 17.5183 0.238281V8.99562C17.5183 9.69621 17.7339 10.2531 18.165 10.6663C18.5962 11.0794 19.2159 11.286 20.0243 11.286C20.9225 11.286 21.641 11.0076 22.1799 10.4507C22.7368 9.87585 23.0152 9.16628 23.0152 8.32198V2.28615C23.0152 1.54964 23.2847 1.02869 23.8236 0.723303C24.3625 0.399955 25.2068 0.238281 26.3565 0.238281V13.0259Z" fill="#0EB253"/>
<path d="M0.145996 2.82506C0.145996 1.99873 0.406471 1.36102 0.927421 0.911924C1.46633 0.46283 2.2747 0.238281 3.35253 0.238281V1.85502C3.13697 2.10651 2.9214 2.39393 2.70584 2.71728L2.86751 2.82506C3.40642 2.01669 4.09803 1.38796 4.94233 0.938869C5.78662 0.471811 6.72074 0.238281 7.74468 0.238281C8.66083 0.238281 9.4692 0.444864 10.1698 0.858031C10.8704 1.2712 11.4093 1.83706 11.7865 2.55561C12.1817 3.27416 12.3793 4.08253 12.3793 4.98072V13.5918C12.3793 14.3103 12.1009 14.8313 11.544 15.1546C10.9871 15.478 10.1428 15.6397 9.01112 15.6397V5.46574C9.01112 4.78312 8.80454 4.22624 8.39137 3.79511C7.99617 3.36398 7.41235 3.14841 6.6399 3.14841C5.72375 3.14841 4.96927 3.43583 4.37647 4.01067C3.78366 4.56755 3.48726 5.26814 3.48726 6.11244V9.7424C3.48726 10.461 3.2178 10.9819 2.67889 11.3053C2.13998 11.6286 1.29568 11.7903 0.145996 11.7903V2.82506Z" fill="#0EB253"/>
<path d="M32.2383 5.77407C32.2383 2.58514 34.8234 0 38.0124 0H49.5605V8.66111C49.5605 11.85 46.9754 14.4352 43.7864 14.4352H32.2383V5.77407Z" fill="#FFD600"/>
<path d="M42.5565 10.5477C42.1997 10.5477 41.8765 10.456 41.5869 10.2724C41.2994 10.0869 41.071 9.81465 40.9018 9.45577C40.7345 9.09484 40.6509 8.65235 40.6509 8.12829C40.6509 7.58996 40.7376 7.14237 40.9109 6.78552C41.0843 6.42663 41.3147 6.15848 41.6022 5.98108C41.8918 5.80164 42.2088 5.71191 42.5535 5.71191C42.8165 5.71191 43.0357 5.75677 43.2111 5.8465C43.3885 5.93418 43.5312 6.04429 43.6393 6.17684C43.7494 6.30734 43.833 6.43581 43.8901 6.56223H43.9299V4.20703H45.2298V10.4713H43.9452V9.71882H43.8901C43.8289 9.84932 43.7423 9.97881 43.6301 10.1073C43.52 10.2337 43.3762 10.3387 43.1988 10.4223C43.0235 10.5059 42.8094 10.5477 42.5565 10.5477ZM42.9694 9.51082C43.1795 9.51082 43.3569 9.45373 43.5017 9.33954C43.6485 9.2233 43.7606 9.06119 43.8381 8.8532C43.9176 8.64521 43.9574 8.40153 43.9574 8.12217C43.9574 7.84281 43.9187 7.60015 43.8412 7.3942C43.7637 7.18825 43.6515 7.0292 43.5047 6.91704C43.3579 6.80489 43.1795 6.74881 42.9694 6.74881C42.7553 6.74881 42.5749 6.80693 42.428 6.92316C42.2812 7.03939 42.1701 7.20048 42.0946 7.40644C42.0192 7.61239 41.9815 7.85097 41.9815 8.12217C41.9815 8.39542 42.0192 8.63705 42.0946 8.84708C42.1721 9.05508 42.2833 9.21821 42.428 9.33648C42.5749 9.45271 42.7553 9.51082 42.9694 9.51082Z" fill="black"/>
<path d="M38.5522 10.4717V5.77353H39.8552V10.4717H38.5522ZM39.2067 5.16791C39.013 5.16791 38.8468 5.10368 38.7082 4.97521C38.5715 4.84471 38.5032 4.68871 38.5032 4.50723C38.5032 4.32779 38.5715 4.17383 38.7082 4.04537C38.8468 3.91486 39.013 3.84961 39.2067 3.84961C39.4005 3.84961 39.5656 3.91486 39.7022 4.04537C39.8409 4.17383 39.9102 4.32779 39.9102 4.50723C39.9102 4.68871 39.8409 4.84471 39.7022 4.97521C39.5656 5.10368 39.4005 5.16791 39.2067 5.16791Z" fill="black"/>
<path d="M36.8221 10.55C36.6202 10.55 36.4469 10.4786 36.3021 10.3358C36.1594 10.1911 36.088 10.0177 36.088 9.81586C36.088 9.61603 36.1594 9.44474 36.3021 9.302C36.4469 9.15926 36.6202 9.08789 36.8221 9.08789C37.0179 9.08789 37.1891 9.15926 37.336 9.302C37.4828 9.44474 37.5562 9.61603 37.5562 9.81586C37.5562 9.95045 37.5215 10.0738 37.4522 10.186C37.3849 10.2961 37.2962 10.3848 37.1861 10.4521C37.076 10.5173 36.9546 10.55 36.8221 10.55Z" fill="black"/>
</svg>
