<svg width="137" height="66" viewBox="0 0 137 66" fill="none" xmlns="http://www.w3.org/2000/svg">
<path fill-rule="evenodd" clip-rule="evenodd" d="M61.42 55.424H63.526L60.5425 51.482L63.067 48.026H61.0825L58.6255 51.6845V45.272H56.8705V55.424H58.6255V53.7905L59.395 52.697L61.42 55.424ZM68.5671 51.239V51.941C68.5671 52.481 68.4861 52.94 68.3241 53.318C68.1261 53.795 67.7076 54.0335 67.0686 54.0335C66.0786 54.0335 65.5836 53.318 65.5836 51.887V51.185C65.5836 49.853 66.0786 49.187 67.0686 49.187C67.6806 49.187 68.0811 49.3625 68.2701 49.7135C68.4681 50.0645 68.5671 50.573 68.5671 51.239ZM69.3771 54.884C70.0071 54.317 70.3221 53.201 70.3221 51.536C70.3221 50.24 70.0791 49.2635 69.5931 48.6065C69.1161 47.9405 68.2566 47.6075 67.0146 47.6075C65.7816 47.6075 64.9311 47.9855 64.4631 48.7415C64.0401 49.4165 63.8286 50.348 63.8286 51.536C63.8286 52.805 64.0401 53.786 64.4631 54.479C64.9131 55.235 65.7816 55.613 67.0686 55.613C68.0766 55.613 68.8461 55.37 69.3771 54.884ZM74.9769 55.424H73.8834C73.2174 55.424 72.7089 55.226 72.3579 54.83C72.0159 54.434 71.8449 53.9615 71.8449 53.4125V49.3625H71.1024V48.026H71.8449V46.514H73.5999V48.026H74.8419V49.3625H73.5999V53.3045C73.5999 53.7275 73.8024 53.939 74.2074 53.939H74.9769V55.424ZM80.5171 55.424H81.6916V47.6615L79.9366 47.7695H78.0871C77.4391 47.7695 76.9126 47.909 76.5076 48.188C76.3276 48.314 76.1746 48.485 76.0486 48.701C75.9226 48.908 75.8236 49.1105 75.7516 49.3085C75.6886 49.5065 75.6391 49.754 75.6031 50.051C75.5671 50.339 75.5446 50.5955 75.5356 50.8205C75.5266 51.0365 75.5221 51.3785 75.5221 51.8465C75.5221 52.3055 75.5536 52.751 75.6166 53.183C75.6886 53.606 75.8146 54.002 75.9946 54.371C76.3546 55.127 77.0566 55.505 78.1006 55.505L79.9771 54.4925L80.5171 55.424ZM79.9366 49.349V52.967L78.6001 53.6555C78.0871 53.6555 77.7361 53.5025 77.5471 53.1965C77.3671 52.8905 77.2771 52.364 77.2771 51.617C77.2771 50.861 77.3716 50.294 77.5606 49.916C77.7586 49.538 78.1051 49.349 78.6001 49.349H79.9366ZM102.666 55.424L104.191 55.4375C105.991 55.4375 106.891 54.146 106.891 51.563C106.891 51.032 106.878 50.5865 106.851 50.2265C106.77 49.3625 106.563 48.737 106.23 48.35C105.852 47.918 105.262 47.702 104.461 47.702L102.369 48.674V45.272H100.614V53.4125C100.614 53.9615 100.785 54.434 101.127 54.83C101.478 55.226 101.991 55.424 102.666 55.424ZM103.678 53.9255H102.814C102.517 53.8715 102.369 53.6645 102.369 53.3045V50.267L103.948 49.4165C104.443 49.4165 104.763 49.574 104.907 49.889C105.06 50.204 105.136 50.762 105.136 51.563C105.136 53.138 104.65 53.9255 103.678 53.9255ZM112.54 55.424H113.714V47.6615L111.959 47.7695H110.11C109.462 47.7695 108.935 47.909 108.53 48.188C108.35 48.314 108.197 48.485 108.071 48.701C107.945 48.908 107.846 49.1105 107.774 49.3085C107.711 49.5065 107.662 49.754 107.626 50.051C107.59 50.339 107.567 50.5955 107.558 50.8205C107.549 51.0365 107.545 51.3785 107.545 51.8465C107.545 52.3055 107.576 52.751 107.639 53.183C107.711 53.606 107.837 54.002 108.017 54.371C108.377 55.127 109.079 55.505 110.123 55.505L112 54.4925L112.54 55.424ZM111.959 49.349V52.967L110.623 53.6555C110.11 53.6555 109.759 53.5025 109.57 53.1965C109.39 52.8905 109.3 52.364 109.3 51.617C109.3 50.861 109.394 50.294 109.583 49.916C109.781 49.538 110.128 49.349 110.623 49.349H111.959ZM118.871 55.424H117.778C117.112 55.424 116.603 55.226 116.252 54.83C115.91 54.434 115.739 53.9615 115.739 53.4125V49.3625H114.997V48.026H115.739V46.514H117.494V48.026H118.736V49.3625H117.494V53.3045C117.494 53.7275 117.697 53.939 118.102 53.939H118.871V55.424ZM124.736 55.424H126.045V47.7155H124.29V52.94L122.711 53.7905C122.027 53.7905 121.685 53.363 121.685 52.508V47.7155H119.93V52.886C119.93 53.741 120.15 54.3935 120.591 54.8435C121.041 55.2845 121.568 55.505 122.171 55.505L124.331 54.506L124.736 55.424Z" fill="url(#paint0_linear_301_942)"/>
<path fill-rule="evenodd" clip-rule="evenodd" d="M63.912 30.9238L57.4458 30.72C57.4085 31.84 57.3338 32.6987 57.2218 33.296C57.1098 33.856 56.8672 34.4347 56.4938 35.032C56.1578 35.6293 55.5792 36.0587 54.7578 36.32C53.9738 36.544 52.9472 36.656 51.6778 36.656C50.4085 36.656 49.3818 36.4133 48.5978 35.928C46.8805 34.92 46.0218 32.1947 46.0218 27.752V24.84C46.0218 22.0773 46.3765 20.0053 47.0858 18.624C47.8325 17.2427 49.3072 16.552 51.5098 16.552C53.7498 16.552 55.2805 16.9627 56.1018 17.784C56.9232 18.568 57.3338 19.7813 57.3338 21.424H63.9418C63.9418 17.84 62.8965 15.04 60.8058 13.024C58.7152 11.008 55.6538 10 51.6218 10C49.5685 10 47.7018 10.336 46.0218 11.008C44.3418 11.68 43.0165 12.5387 42.0458 13.584C39.8432 15.8987 38.7418 20.248 38.7418 26.632C38.7418 32.9787 39.8432 37.3093 42.0458 39.624C43.0165 40.6693 44.3418 41.528 46.0218 42.2C47.7018 42.872 49.5685 43.208 51.6218 43.208C53.7125 43.208 55.7098 42.872 57.6138 42.2C60.4527 41.1354 62.2459 39.6998 62.9936 37.8932L69.3308 42.3665V42.424H76.6108V19.968L83.1628 17.224C84.5068 17.224 85.5521 17.56 86.2988 18.232C87.0455 18.904 87.4188 20.1547 87.4188 21.984V54.9238H94.6988V20.976C94.6988 17.4293 93.7655 14.7413 91.8988 12.912C90.0695 11.0453 87.9041 10.112 85.4028 10.112L76.4428 14.256L74.7628 10.448H69.3308V34.6493L63.912 30.9238ZM29.096 38.728C33.3893 36.4133 35.536 31.0933 35.536 22.768C35.536 17.728 34.98 16.3505 33.412 13.9238C31.844 11.4598 28.6667 10.672 24.336 10.672H10V54.9238H17.28V36.656L22.656 40.128C25.1947 40.128 27.3413 39.6613 29.096 38.728ZM22.208 17.224C26.24 17.224 28.256 17.5787 28.256 23.888C28.256 26.8747 27.7893 29.0587 26.856 30.44C25.9227 31.784 24.3733 32.456 22.208 32.456L17.28 29.264V17.224H22.208ZM120.23 42.424H125.662V10.448H118.382V32.12L111.83 35.648C108.993 35.648 107.574 33.8747 107.574 30.328V10.448H100.294V31.896C100.294 35.4427 101.209 38.1493 103.038 40.016C104.905 41.8453 107.089 42.76 109.59 42.76L118.55 38.616L120.23 42.424Z" fill="url(#paint1_linear_301_942)"/>
<defs>
<linearGradient id="paint0_linear_301_942" x1="91.4578" y1="45.272" x2="92.5" y2="64" gradientUnits="userSpaceOnUse">
<stop stop-color="#FFCE09"/>
<stop offset="1" stop-color="#FFAD00"/>
</linearGradient>
<linearGradient id="paint1_linear_301_942" x1="24.5" y1="8.5" x2="30.5" y2="56.5" gradientUnits="userSpaceOnUse">
<stop stop-color="#09A64D"/>
<stop offset="1" stop-color="#045F2A"/>
</linearGradient>
</defs>
</svg>
