<svg width="40" height="56" viewBox="0 0 40 56" fill="none" xmlns="http://www.w3.org/2000/svg">
<rect width="56" height="56" rx="28" fill="#F7EDED"/>
<g opacity="0.5">
<path d="M41.333 29.0901L40.7883 28.5454C39.6167 27.3738 37.7172 27.3738 36.5457 28.5454L35.4771 29.614C35.0507 28.4764 33.9534 27.6667 32.667 27.6667C31.0101 27.6667 29.667 29.0099 29.667 30.6667V33.0185C29.0138 33.0911 28.3799 33.3778 27.879 33.8787C26.7074 35.0503 26.7074 36.9498 27.879 38.1214L28.4244 38.6667H25.3337C20.3053 38.6667 17.7912 38.6667 16.2291 37.1046C14.667 35.5425 14.667 33.0284 14.667 28C14.667 27.4108 14.6695 25.8561 14.672 25.3334H41.3337C41.3362 25.8561 41.3337 27.4108 41.3337 28C41.3337 28.3773 41.3337 28.7404 41.333 29.0901Z" fill="#EC3832"/>
</g>
<path d="M19 33.3334C19 32.7811 19.4477 32.3334 20 32.3334H25.3333C25.8856 32.3334 26.3333 32.7811 26.3333 33.3334C26.3333 33.8857 25.8856 34.3334 25.3333 34.3334H20C19.4477 34.3334 19 33.8857 19 33.3334Z" fill="#EC3832"/>
<path d="M25.3268 17.3334H30.6739C35.7151 17.3334 38.2358 17.3334 39.8019 18.8211C40.9295 19.8922 41.2453 21.4335 41.3337 24V25.3334H14.667V24C14.7554 21.4335 15.0711 19.8922 16.1987 18.8211C17.7649 17.3334 20.2855 17.3334 25.3268 17.3334Z" fill="#EC3832"/>
<path d="M37.9596 29.9595C38.3501 29.569 38.9833 29.569 39.3738 29.9595L42.0404 32.6262C42.431 33.0167 42.431 33.6499 42.0404 34.0404C41.6499 34.4309 41.0168 34.4309 40.6262 34.0404L39.6667 33.0808V38.6666C39.6667 39.2189 39.219 39.6666 38.6667 39.6666C38.1144 39.6666 37.6667 39.2189 37.6667 38.6666V33.0808L36.7071 34.0404C36.3166 34.4309 35.6834 34.4309 35.2929 34.0404C34.9024 33.6499 34.9024 33.0167 35.2929 32.6262L37.9596 29.9595Z" fill="#EC3832"/>
<path fill-rule="evenodd" clip-rule="evenodd" d="M32.6667 29.6666C33.219 29.6666 33.6667 30.1143 33.6667 30.6666V36.2524L34.6262 35.2929C35.0167 34.9023 35.6499 34.9023 36.0404 35.2929C36.431 35.6834 36.431 36.3165 36.0404 36.7071L33.3738 39.3737C32.9832 39.7643 32.3501 39.7643 31.9596 39.3737L29.2929 36.7071C28.9024 36.3165 28.9024 35.6834 29.2929 35.2929C29.6834 34.9023 30.3166 34.9023 30.7071 35.2929L31.6667 36.2524V30.6666C31.6667 30.1143 32.1144 29.6666 32.6667 29.6666Z" fill="#EC3832"/>
</svg>
