<svg width="40" height="56" viewBox="0 0 40 56" fill="none" xmlns="http://www.w3.org/2000/svg">
<rect width="56" height="56" rx="28" fill="#EDF7ED"/>
<path opacity="0.5" d="M24.7898 16.267C24.4652 16.5437 24.3028 16.6821 24.1294 16.7983C23.732 17.0647 23.2856 17.2496 22.8162 17.3423C22.6114 17.3827 22.3987 17.3997 21.9735 17.4336L21.9734 17.4336C20.9049 17.5189 20.3707 17.5615 19.925 17.7189C18.894 18.0831 18.0831 18.894 17.719 19.9249C17.5616 20.3706 17.5189 20.9049 17.4337 21.9734L17.4337 21.9734C17.3997 22.3987 17.3827 22.6113 17.3423 22.8161C17.2496 23.2855 17.0647 23.7319 16.7983 24.1294C16.6821 24.3028 16.5438 24.4651 16.2671 24.7898L16.267 24.7898C15.5718 25.6057 15.2242 26.0136 15.0203 26.4401C14.5488 27.4266 14.5488 28.5734 15.0203 29.5598C15.2242 29.9863 15.5718 30.3942 16.267 31.2101L16.2671 31.2102C16.5438 31.5348 16.6821 31.6972 16.7983 31.8705C17.0647 32.268 17.2496 32.7144 17.3423 33.1838C17.3827 33.3886 17.3997 33.6012 17.4337 34.0265L17.4337 34.0265C17.5189 35.095 17.5616 35.6293 17.719 36.075C18.0831 37.1059 18.894 37.9169 19.925 38.281C20.3707 38.4384 20.9049 38.4811 21.9734 38.5663H21.9735C22.3987 38.6003 22.6114 38.6172 22.8162 38.6577C23.2856 38.7503 23.732 38.9352 24.1294 39.2016C24.3028 39.3179 24.4652 39.4562 24.7898 39.7329L24.7899 39.7329C25.6057 40.4282 26.0137 40.7758 26.4402 40.9797C27.4266 41.4512 28.5734 41.4512 29.5599 40.9797C29.9864 40.7758 30.3943 40.4282 31.2101 39.7329L31.2103 39.7328C31.5349 39.4562 31.6972 39.3178 31.8706 39.2016C32.2681 38.9352 32.7145 38.7503 33.1839 38.6577C33.3887 38.6172 33.6013 38.6003 34.0266 38.5663H34.0266C35.0951 38.4811 35.6294 38.4384 36.0751 38.281C37.106 37.9169 37.9169 37.1059 38.281 36.075C38.4385 35.6293 38.4811 35.095 38.5664 34.0265V34.0265C38.6003 33.6012 38.6173 33.3886 38.6577 33.1838C38.7504 32.7144 38.9353 32.268 39.2017 31.8705C39.3179 31.6972 39.4563 31.5348 39.733 31.2101L39.733 31.2101C40.4283 30.3942 40.7759 29.9863 40.9797 29.5598C41.4512 28.5734 41.4512 27.4266 40.9797 26.4401C40.7759 26.0136 40.4283 25.6057 39.733 24.7898L39.7329 24.7898C39.4563 24.4651 39.3179 24.3028 39.2017 24.1294C38.9353 23.7319 38.7504 23.2855 38.6577 22.8161C38.6173 22.6113 38.6003 22.3987 38.5664 21.9734V21.9734C38.4811 20.9049 38.4385 20.3706 38.281 19.9249C37.9169 18.894 37.106 18.0831 36.0751 17.7189C35.6294 17.5615 35.0951 17.5189 34.0266 17.4336L34.0266 17.4336C33.6013 17.3997 33.3887 17.3827 33.1839 17.3423C32.7145 17.2496 32.2681 17.0647 31.8706 16.7983C31.6972 16.6821 31.5349 16.5437 31.2101 16.267C30.3943 15.5717 29.9864 15.2241 29.5599 15.0202C28.5734 14.5488 27.4266 14.5488 26.4402 15.0202C26.0137 15.2241 25.6057 15.5717 24.7899 16.267L24.7898 16.267Z" fill="#5CB85C"/>
<path d="M33.8314 25.1507C34.2552 24.7269 34.2552 24.0398 33.8314 23.616C33.4076 23.1923 32.7205 23.1923 32.2968 23.616L25.8298 30.083L23.7034 27.9566C23.2796 27.5329 22.5925 27.5329 22.1687 27.9566C21.7449 28.3804 21.7449 29.0675 22.1687 29.4913L25.0624 32.385C25.4862 32.8088 26.1733 32.8088 26.5971 32.385L33.8314 25.1507Z" fill="#5CB85C"/>
</svg>
