<svg width="40" height="56" viewBox="0 0 40 56" fill="none" xmlns="http://www.w3.org/2000/svg">
<rect width="56" height="56" rx="28" fill="#F7F2ED"/>
<path opacity="0.5" d="M16 25.8888C16 21.6254 16 19.4937 16.5034 18.7765C17.0067 18.0593 19.0111 17.3732 23.0199 16.001L23.7836 15.7396C25.8733 15.0243 26.9181 14.6666 28 14.6666C29.0819 14.6666 30.1267 15.0243 32.2164 15.7396L32.9801 16.001C36.9889 17.3732 38.9933 18.0593 39.4966 18.7765C40 19.4937 40 21.6254 40 25.8888V27.9884C40 35.5059 34.348 39.1539 30.8019 40.703C29.84 41.1232 29.359 41.3333 28 41.3333C26.641 41.3333 26.16 41.1232 25.1981 40.703C21.6519 39.1539 16 35.5059 16 27.9884V25.8888Z" fill="#F39649"/>
<path d="M28 21.6666C28.5522 21.6666 29 22.1143 29 22.6666V28C29 28.5522 28.5522 29 28 29C27.4477 29 27 28.5522 27 28V22.6666C27 22.1143 27.4477 21.6666 28 21.6666Z" fill="#F39649"/>
<path d="M28 33.3333C28.7363 33.3333 29.3333 32.7363 29.3333 32C29.3333 31.2636 28.7363 30.6666 28 30.6666C27.2636 30.6666 26.6666 31.2636 26.6666 32C26.6666 32.7363 27.2636 33.3333 28 33.3333Z" fill="#F39649"/>
</svg>
