<svg width="40" height="56" viewBox="0 0 40 56" fill="none" xmlns="http://www.w3.org/2000/svg">
<rect width="56" height="56" rx="28" fill="#F5FFF9"/>
<path d="M32.6666 22C32.6666 24.5774 30.5773 26.6667 28 26.6667C25.4227 26.6667 23.3333 24.5774 23.3333 22C23.3333 19.4227 25.4227 17.3334 28 17.3334C30.5773 17.3334 32.6666 19.4227 32.6666 22Z" fill="#00923F"/>
<path opacity="0.5" d="M38 22C38 23.8409 36.5076 25.3333 34.6666 25.3333C32.8257 25.3333 31.3333 23.8409 31.3333 22C31.3333 20.159 32.8257 18.6666 34.6666 18.6666C36.5076 18.6666 38 20.159 38 22Z" fill="#00923F"/>
<path opacity="0.5" d="M18 22C18 23.8409 19.4924 25.3333 21.3334 25.3333C23.1743 25.3333 24.6667 23.8409 24.6667 22C24.6667 20.159 23.1743 18.6666 21.3334 18.6666C19.4924 18.6666 18 20.159 18 22Z" fill="#00923F"/>
<path d="M36 34C36 36.5774 32.4183 38.6667 28 38.6667C23.5817 38.6667 20 36.5774 20 34C20 31.4227 23.5817 29.3334 28 29.3334C32.4183 29.3334 36 31.4227 36 34Z" fill="#00923F"/>
<path opacity="0.5" d="M41.3334 34C41.3334 35.8409 38.9455 37.3333 36 37.3333C33.0545 37.3333 30.6667 35.8409 30.6667 34C30.6667 32.159 33.0545 30.6666 36 30.6666C38.9455 30.6666 41.3334 32.159 41.3334 34Z" fill="#00923F"/>
<path opacity="0.5" d="M14.6666 34C14.6666 35.8409 17.0545 37.3333 20 37.3333C22.9455 37.3333 25.3333 35.8409 25.3333 34C25.3333 32.159 22.9455 30.6666 20 30.6666C17.0545 30.6666 14.6666 32.159 14.6666 34Z" fill="#00923F"/>
</svg>
