<svg width="20" height="20" viewBox="0 0 20 20" fill="none" xmlns="http://www.w3.org/2000/svg">
<path d="M9.48203 15.75C9.20703 15.75 8.93203 15.6833 8.68203 15.5417C8.1737 15.2583 7.86536 14.7417 7.86536 14.1583V11.5917C7.86536 11.4333 7.74036 11.125 7.61536 10.9667L5.80703 9.06666C5.46536 8.72499 5.20703 8.12499 5.20703 7.66666V6.55832C5.20703 5.63332 5.90703 4.91666 6.7987 4.91666H13.1904C14.0654 4.91666 14.782 5.63332 14.782 6.50832V7.57499C14.782 8.15832 14.4487 8.79999 14.1154 9.13332L12.007 11C11.8737 11.1167 11.732 11.4083 11.732 11.65V13.7333C11.732 14.2583 11.4154 14.8417 10.9904 15.0917L10.332 15.5167C10.0737 15.675 9.78203 15.75 9.48203 15.75ZM6.7987 6.16666C6.5987 6.16666 6.45703 6.33332 6.45703 6.55832V7.66666C6.45703 7.77499 6.5737 8.05832 6.70703 8.19166L8.55703 10.1417C8.84036 10.5 9.11536 11.075 9.11536 11.5917V14.1583C9.11536 14.325 9.2237 14.4167 9.29036 14.45C9.38203 14.5 9.53203 14.5333 9.66536 14.45L10.332 14.0167C10.3987 13.9667 10.482 13.8 10.482 13.7167V11.6333C10.482 11.0417 10.7737 10.3833 11.1904 10.0417L13.257 8.20832C13.3654 8.09999 13.532 7.76666 13.532 7.55832V6.50832C13.532 6.32499 13.3737 6.16666 13.1904 6.16666H6.7987V6.16666Z" fill="#292D32"/>
<path d="M12.5013 18.9583H7.5013C2.9763 18.9583 1.04297 17.025 1.04297 12.5V7.49999C1.04297 2.97499 2.9763 1.04166 7.5013 1.04166H12.5013C17.0263 1.04166 18.9596 2.97499 18.9596 7.49999V12.5C18.9596 17.025 17.0263 18.9583 12.5013 18.9583ZM7.5013 2.29166C3.65964 2.29166 2.29297 3.65832 2.29297 7.49999V12.5C2.29297 16.3417 3.65964 17.7083 7.5013 17.7083H12.5013C16.343 17.7083 17.7096 16.3417 17.7096 12.5V7.49999C17.7096 3.65832 16.343 2.29166 12.5013 2.29166H7.5013Z" fill="#292D32"/>
</svg>
