<svg width="18" height="19" viewBox="0 0 18 19" fill="none" xmlns="http://www.w3.org/2000/svg">
<path d="M15.5458 6.21231C15.9922 6.7415 15.523 7.4375 14.8307 7.4375H2.5C1.94771 7.4375 1.5 6.98978 1.5 6.4375V5.315C1.5 3.485 2.985 2 4.815 2H6.555C7.7775 2 8.16 2.3975 8.6475 3.05L9.6975 4.445C9.93 4.7525 9.96 4.79 10.395 4.79H12.4875C13.7135 4.79 14.8117 5.34206 15.5458 6.21231Z" fill="#292D32"/>
<path d="M15.4884 8.56251C16.0393 8.56251 16.4865 9.00816 16.4884 9.55912L16.5 12.9877C16.5 15.2002 14.7 17.0002 12.4875 17.0002H5.5125C3.3 17.0002 1.5 15.2002 1.5 12.9877V9.56269C1.5 9.01041 1.94771 8.5627 2.49999 8.56269L15.4884 8.56251Z" fill="#292D32"/>
</svg>
