<svg width="36" height="37" viewBox="0 0 36 37" fill="none" xmlns="http://www.w3.org/2000/svg">
<path d="M31.455 2H27.045C25.74 2 24.78 2.54 24.345 3.5C24.105 3.935 24 4.445 24 5.045V9.455C24 11.36 25.14 12.5 27.045 12.5H31.455C32.055 12.5 32.565 12.395 33 12.155C33.96 11.72 34.5 10.76 34.5 9.455V5.045C34.5 3.14 33.36 2 31.455 2ZM32.865 7.895C32.715 8.045 32.49 8.15 32.25 8.165H30.135V8.93L30.15 10.25C30.135 10.505 30.045 10.715 29.865 10.895C29.715 11.045 29.49 11.15 29.25 11.15C28.755 11.15 28.35 10.745 28.35 10.25V8.15L26.25 8.165C25.755 8.165 25.35 7.745 25.35 7.25C25.35 6.755 25.755 6.35 26.25 6.35L27.57 6.365H28.35V4.265C28.35 3.77 28.755 3.35 29.25 3.35C29.745 3.35 30.15 3.77 30.15 4.265L30.135 5.33V6.35H32.25C32.745 6.35 33.15 6.755 33.15 7.25C33.135 7.505 33.03 7.715 32.865 7.895Z" fill="#292D32"/>
<path d="M13.4997 16.0699C15.4713 16.0699 17.0697 14.4716 17.0697 12.4999C17.0697 10.5283 15.4713 8.92993 13.4997 8.92993C11.528 8.92993 9.92969 10.5283 9.92969 12.4999C9.92969 14.4716 11.528 16.0699 13.4997 16.0699Z" fill="#292D32"/>
<path d="M31.455 12.5H30.75V19.415L30.555 19.25C29.385 18.245 27.495 18.245 26.325 19.25L20.085 24.605C18.915 25.61 17.025 25.61 15.855 24.605L15.345 24.185C14.28 23.255 12.585 23.165 11.385 23.975L5.775 27.74C5.445 26.9 5.25 25.925 5.25 24.785V12.215C5.25 7.985 7.485 5.75 11.715 5.75H24V5.045C24 4.445 24.105 3.935 24.345 3.5H11.715C6.255 3.5 3 6.755 3 12.215V24.785C3 26.42 3.285 27.845 3.84 29.045C5.13 31.895 7.89 33.5 11.715 33.5H24.285C29.745 33.5 33 30.245 33 24.785V12.155C32.565 12.395 32.055 12.5 31.455 12.5Z" fill="#292D32"/>
</svg>
