<svg width="20" height="20" viewBox="0 0 20 20" fill="none" xmlns="http://www.w3.org/2000/svg">
<path d="M10 15.625C9.65833 15.625 9.375 15.3417 9.375 15V12.5C9.375 12.1583 9.65833 11.875 10 11.875C10.3417 11.875 10.625 12.1583 10.625 12.5V15C10.625 15.3417 10.3417 15.625 10 15.625Z" fill="#5A5F6D"/>
<path d="M14.6681 18.8H5.33476C3.8181 18.8 2.43477 17.6333 2.18477 16.1417L1.07643 9.50001C0.893099 8.46668 1.40143 7.14168 2.22643 6.48335L8.00143 1.85835C9.1181 0.958348 10.8764 0.966681 12.0014 1.86668L17.7764 6.48335C18.5931 7.14168 19.0931 8.46668 18.9264 9.50001L17.8181 16.1333C17.5681 17.6083 16.1514 18.8 14.6681 18.8ZM9.9931 2.44168C9.55143 2.44168 9.10977 2.57501 8.78477 2.83335L3.00977 7.46668C2.5431 7.84168 2.20977 8.70835 2.30977 9.30001L3.4181 15.9333C3.5681 16.8083 4.4431 17.55 5.33476 17.55H14.6681C15.5598 17.55 16.4348 16.8083 16.5848 15.925L17.6931 9.29168C17.7848 8.70835 17.4514 7.82501 16.9931 7.45835L11.2181 2.84168C10.8848 2.57501 10.4348 2.44168 9.9931 2.44168Z" fill="#5A5F6D"/>
</svg>
