<svg width="196" height="48" viewBox="0 0 196 48" fill="none" xmlns="http://www.w3.org/2000/svg">
<rect width="196" height="48" rx="8" fill="#3C7B46"/>
<path d="M23.8984 31.2417C23.4817 31.2417 23.19 31.1 23.015 30.9667C22.6817 30.725 22.165 30.1 22.49 28.7L22.965 26.65C23.0067 26.475 22.915 26.1583 22.79 26.025L21.1317 24.3667C20.2567 23.4917 20.3317 22.7333 20.4484 22.3583C20.565 21.9833 20.9484 21.325 22.165 21.1167L24.29 20.7667C24.4484 20.7417 24.7067 20.55 24.7734 20.4083L25.9484 18.0583C26.515 16.925 27.265 16.7583 27.665 16.7583C28.065 16.7583 28.815 16.925 29.3817 18.0583L30.5567 20.4083C30.6317 20.55 30.8817 20.7417 31.04 20.7667L33.165 21.1167C34.3817 21.3167 34.765 21.9833 34.8817 22.3583C34.9984 22.7333 35.0734 23.4917 34.1984 24.3667L32.54 26.025C32.415 26.15 32.3234 26.475 32.365 26.65L32.84 28.7C33.165 30.1083 32.6484 30.725 32.315 30.9667C31.9817 31.2083 31.24 31.5167 29.99 30.775L27.9984 29.5917C27.8317 29.4917 27.4817 29.4917 27.315 29.5917L25.3234 30.775C24.7484 31.125 24.265 31.2417 23.8984 31.2417ZM27.665 18.0083C27.5317 18.0083 27.29 18.1667 27.065 18.6167L25.89 20.9667C25.64 21.475 25.0484 21.9083 24.49 22L22.365 22.35C21.89 22.4333 21.6734 22.6083 21.6317 22.7417C21.59 22.875 21.665 23.1417 22.0067 23.4833L23.665 25.1417C24.09 25.5667 24.315 26.3417 24.1817 26.925L23.7067 28.975C23.565 29.5667 23.6567 29.8833 23.7484 29.9583C23.84 30.025 24.1734 30.0167 24.69 29.7L26.69 28.5167C27.2484 28.1833 28.09 28.1833 28.64 28.5167L30.6317 29.7C31.1567 30.0083 31.49 30.025 31.5817 29.9583C31.6734 29.8917 31.765 29.575 31.6234 28.975L31.1484 26.925C31.015 26.3333 31.2317 25.5667 31.665 25.1417L33.3234 23.4833C33.665 23.1417 33.74 22.8667 33.6984 22.7417C33.6567 22.6167 33.44 22.4333 32.965 22.35L30.84 22C30.2817 21.9083 29.69 21.475 29.44 20.9667L28.265 18.6167C28.04 18.1667 27.7984 18.0083 27.665 18.0083Z" fill="#F2F3F4"/>
<path d="M22.668 18.7917H17.668C17.3263 18.7917 17.043 18.5083 17.043 18.1667C17.043 17.825 17.3263 17.5417 17.668 17.5417H22.668C23.0096 17.5417 23.293 17.825 23.293 18.1667C23.293 18.5083 23.0096 18.7917 22.668 18.7917Z" fill="#F2F3F4"/>
<path d="M20.168 30.4583H17.668C17.3263 30.4583 17.043 30.175 17.043 29.8333C17.043 29.4917 17.3263 29.2083 17.668 29.2083H20.168C20.5096 29.2083 20.793 29.4917 20.793 29.8333C20.793 30.175 20.5096 30.4583 20.168 30.4583Z" fill="#F2F3F4"/>
<path d="M18.5013 24.625H17.668C17.3263 24.625 17.043 24.3417 17.043 24C17.043 23.6583 17.3263 23.375 17.668 23.375H18.5013C18.843 23.375 19.1263 23.6583 19.1263 24C19.1263 24.3417 18.843 24.625 18.5013 24.625Z" fill="#F2F3F4"/>
<path d="M54.1465 27.3633V28.5H48.7793V20.0449H54.1465V21.1758H50.0918V23.6484H53.9297V24.7383H50.0918V27.3633H54.1465ZM56.6953 24.8848L59.3145 22.1367H60.8086L58.1484 24.8789L60.9023 28.5H59.4375L57.2402 25.6523L56.6895 26.1914V28.5H55.418V19.6641H56.6895V24.8848H56.6953ZM61.9688 20.707H63.2344V22.1367H64.4531V23.1387H63.2344V26.6953C63.2344 27.2461 63.4805 27.5039 64.0137 27.5039C64.1484 27.5039 64.3652 27.4863 64.4473 27.4746V28.4766C64.3066 28.5117 64.0078 28.541 63.7324 28.541C62.4609 28.541 61.9688 28.0547 61.9688 26.8242V23.1387H61.0898V22.1367H61.9688V20.707ZM65.5254 28.5V22.1367H66.7383V23.209H66.7617C66.9609 22.5 67.5469 22.0723 68.2969 22.0723C68.4844 22.0723 68.6426 22.0898 68.7422 22.1133V23.3027C68.6367 23.2617 68.4141 23.2266 68.1621 23.2266C67.3242 23.2266 66.7969 23.8066 66.7969 24.7031V28.5H65.5254ZM71.6367 27.5508C72.5801 27.5508 73.2949 26.9473 73.2949 26.1094V25.6113L71.748 25.7168C70.8809 25.7695 70.4297 26.0918 70.4297 26.6543C70.4297 27.1992 70.9043 27.5508 71.6367 27.5508ZM71.2969 28.5645C70.0254 28.5645 69.1465 27.8145 69.1465 26.6777C69.1465 25.5645 70.0078 24.9199 71.5781 24.8203L73.2949 24.7207V24.2285C73.2949 23.502 72.8086 23.1035 71.959 23.1035C71.2676 23.1035 70.7637 23.4609 70.6523 24.0117H69.4629C69.498 22.8867 70.5645 22.0547 71.9941 22.0547C73.5469 22.0547 74.5488 22.875 74.5488 24.1348V28.5H73.3359V27.4395H73.3066C72.9551 28.1309 72.1641 28.5645 71.2969 28.5645ZM77.1562 24.8848L79.7754 22.1367H81.2695L78.6094 24.8789L81.3633 28.5H79.8984L77.7012 25.6523L77.1504 26.1914V28.5H75.8789V19.6641H77.1504V24.8848H77.1562ZM87.4746 22.1367V28.5H86.2617V27.4102H86.2383C85.8691 28.166 85.2246 28.5703 84.252 28.5703C82.8633 28.5703 82.0195 27.6738 82.0195 26.2148V22.1367H83.291V25.9746C83.291 26.9531 83.7539 27.4746 84.6738 27.4746C85.623 27.4746 86.2031 26.8125 86.2031 25.8047V22.1367H87.4746ZM88.7754 28.5V22.1367H89.9883V23.209H90.0117C90.2109 22.5 90.7969 22.0723 91.5469 22.0723C91.7344 22.0723 91.8926 22.0898 91.9922 22.1133V23.3027C91.8867 23.2617 91.6641 23.2266 91.4121 23.2266C90.5742 23.2266 90.0469 23.8066 90.0469 24.7031V28.5H88.7754ZM92.8535 28.5V22.1367H94.125V28.5H92.8535ZM93.4922 21.2285C93.082 21.2285 92.748 20.9004 92.748 20.4961C92.748 20.0801 93.082 19.7637 93.4922 19.7637C93.9023 19.7637 94.2363 20.0801 94.2363 20.4961C94.2363 20.9004 93.9023 21.2285 93.4922 21.2285ZM96.8086 24.8848L99.4277 22.1367H100.922L98.2617 24.8789L101.016 28.5H99.5508L97.3535 25.6523L96.8027 26.1914V28.5H95.5312V19.6641H96.8027V24.8848H96.8086ZM107.127 22.1367V28.5H105.914V27.4102H105.891C105.521 28.166 104.877 28.5703 103.904 28.5703C102.516 28.5703 101.672 27.6738 101.672 26.2148V22.1367H102.943V25.9746C102.943 26.9531 103.406 27.4746 104.326 27.4746C105.275 27.4746 105.855 26.8125 105.855 25.8047V22.1367H107.127ZM108.48 28.5V19.6641H109.752V28.5H108.48ZM113.76 23.0918C112.846 23.0918 112.184 23.7598 112.113 24.7383H115.342C115.312 23.748 114.686 23.0918 113.76 23.0918ZM115.336 26.6367H116.549C116.367 27.7793 115.248 28.5762 113.818 28.5762C111.973 28.5762 110.824 27.334 110.824 25.3418C110.824 23.3496 111.984 22.0547 113.766 22.0547C115.512 22.0547 116.613 23.2676 116.613 25.1953V25.6406H112.107V25.7168C112.107 26.8184 112.799 27.5449 113.842 27.5449C114.58 27.5449 115.16 27.1934 115.336 26.6367ZM117.639 28.5V22.1367H118.852V23.209H118.875C119.074 22.5 119.66 22.0723 120.41 22.0723C120.598 22.0723 120.756 22.0898 120.855 22.1133V23.3027C120.75 23.2617 120.527 23.2266 120.275 23.2266C119.438 23.2266 118.91 23.8066 118.91 24.7031V28.5H117.639Z" fill="#F2F3F4"/>
</svg>
