<svg width="17" height="16" viewBox="0 0 17 16" fill="none" xmlns="http://www.w3.org/2000/svg">
<path d="M8.16672 15.1667C4.70005 15.1667 1.88672 12.3467 1.88672 8.88666C1.88672 7.63999 2.25339 6.43332 2.94672 5.39332C3.10005 5.16666 3.41339 5.09999 3.64005 5.25332C3.86672 5.40666 3.93339 5.71999 3.78005 5.94666C3.20005 6.81332 2.89339 7.83332 2.89339 8.87999C2.89339 11.7933 5.26005 14.16 8.17339 14.16C11.0867 14.16 13.4534 11.7933 13.4534 8.87999C13.4534 5.96666 11.0801 3.59999 8.16672 3.59999C7.55339 3.59999 6.95339 3.68666 6.38672 3.85999C6.12005 3.93999 5.84005 3.79332 5.76005 3.52666C5.68005 3.25999 5.82672 2.97999 6.09339 2.89999C6.76005 2.69999 7.45339 2.59332 8.16672 2.59332C11.6334 2.59332 14.4467 5.41332 14.4467 8.87332C14.4467 12.3333 11.6334 15.1667 8.16672 15.1667Z" fill="#D32246"/>
<path d="M5.41618 4.04668C5.30284 4.04668 5.18284 4.00668 5.08951 3.92668C4.87618 3.74001 4.85618 3.42668 5.03618 3.22001L6.96284 1.00668C7.14284 0.800009 7.46284 0.773343 7.66951 0.960009C7.87618 1.14001 7.89618 1.46001 7.71618 1.66668L5.78951 3.87334C5.68951 3.98668 5.54951 4.04668 5.41618 4.04668Z" fill="#D32246"/>
<path d="M7.66233 5.68668C7.56233 5.68668 7.45566 5.65335 7.369 5.59335L5.11566 3.94668C4.89566 3.78668 4.849 3.47335 5.009 3.25335C5.169 3.02668 5.48233 2.98001 5.709 3.14001L7.95566 4.78001C8.17566 4.94001 8.229 5.25335 8.06233 5.48001C7.969 5.62001 7.81566 5.68668 7.66233 5.68668Z" fill="#D32246"/>
</svg>
