<svg width="16" height="16" viewBox="0 0 16 16" fill="none" xmlns="http://www.w3.org/2000/svg">
<path d="M13.9985 4.48657C13.9851 4.48657 13.9651 4.48657 13.9451 4.48657C10.4185 4.13324 6.89848 3.9999 3.41181 4.35324L2.05181 4.48657C1.77181 4.51324 1.52515 4.31324 1.49848 4.03324C1.47181 3.75324 1.67181 3.51324 1.94515 3.48657L3.30515 3.35324C6.85181 2.99324 10.4451 3.13324 14.0451 3.48657C14.3185 3.51324 14.5185 3.7599 14.4918 4.03324C14.4718 4.29324 14.2518 4.48657 13.9985 4.48657Z" fill="#D32246"/>
<path d="M5.66846 3.81325C5.6418 3.81325 5.61513 3.81325 5.5818 3.80659C5.31513 3.75992 5.12846 3.49992 5.17513 3.23325L5.3218 2.35992C5.42846 1.71992 5.57513 0.833252 7.12846 0.833252H8.87513C10.4351 0.833252 10.5818 1.75325 10.6818 2.36659L10.8285 3.23325C10.8751 3.50659 10.6885 3.76659 10.4218 3.80659C10.1485 3.85325 9.88846 3.66659 9.84846 3.39992L9.7018 2.53325C9.60846 1.95325 9.58846 1.83992 8.8818 1.83992H7.13513C6.42846 1.83992 6.41513 1.93325 6.31513 2.52659L6.1618 3.39325C6.1218 3.63992 5.90846 3.81325 5.66846 3.81325Z" fill="#D32246"/>
<path d="M10.1416 15.1667H5.86156C3.53489 15.1667 3.44156 13.88 3.36823 12.84L2.93489 6.12672C2.91489 5.85338 3.12823 5.61338 3.40156 5.59338C3.68156 5.58005 3.91489 5.78672 3.93489 6.06005L4.36823 12.7734C4.44156 13.7867 4.46823 14.1667 5.86156 14.1667H10.1416C11.5416 14.1667 11.5682 13.7867 11.6349 12.7734L12.0682 6.06005C12.0882 5.78672 12.3282 5.58005 12.6016 5.59338C12.8749 5.61338 13.0882 5.84672 13.0682 6.12672L12.6349 12.84C12.5616 13.88 12.4682 15.1667 10.1416 15.1667Z" fill="#D32246"/>
<path d="M9.10672 11.5H6.88672C6.61339 11.5 6.38672 11.2733 6.38672 11C6.38672 10.7267 6.61339 10.5 6.88672 10.5H9.10672C9.38005 10.5 9.60672 10.7267 9.60672 11C9.60672 11.2733 9.38005 11.5 9.10672 11.5Z" fill="#D32246"/>
<path d="M9.66536 8.83325H6.33203C6.0587 8.83325 5.83203 8.60659 5.83203 8.33325C5.83203 8.05992 6.0587 7.83325 6.33203 7.83325H9.66536C9.9387 7.83325 10.1654 8.05992 10.1654 8.33325C10.1654 8.60659 9.9387 8.83325 9.66536 8.83325Z" fill="#D32246"/>
</svg>
