<svg width="18" height="18" viewBox="0 0 18 18" fill="none" xmlns="http://www.w3.org/2000/svg">
<path d="M15.7488 5.0475C15.7338 5.0475 15.7113 5.0475 15.6888 5.0475C11.7213 4.65 7.76128 4.5 3.83878 4.8975L2.30878 5.0475C1.99378 5.0775 1.71628 4.8525 1.68628 4.5375C1.65628 4.2225 1.88128 3.9525 2.18878 3.9225L3.71878 3.7725C7.70878 3.3675 11.7513 3.525 15.8013 3.9225C16.1088 3.9525 16.3338 4.23 16.3038 4.5375C16.2813 4.83 16.0338 5.0475 15.7488 5.0475Z" fill="#D32246"/>
<path d="M6.37556 4.29C6.34556 4.29 6.31556 4.29 6.27806 4.2825C5.97806 4.23 5.76806 3.9375 5.82056 3.6375L5.98556 2.655C6.10556 1.935 6.27056 0.9375 8.01806 0.9375H9.98306C11.7381 0.9375 11.9031 1.9725 12.0156 2.6625L12.1806 3.6375C12.2331 3.945 12.0231 4.2375 11.7231 4.2825C11.4156 4.335 11.1231 4.125 11.0781 3.825L10.9131 2.85C10.8081 2.1975 10.7856 2.07 9.99056 2.07H8.02556C7.23056 2.07 7.21556 2.175 7.10306 2.8425L6.93056 3.8175C6.88556 4.095 6.64556 4.29 6.37556 4.29Z" fill="#D32246"/>
<path d="M11.4058 17.0625H6.59084C3.97334 17.0625 3.86834 15.615 3.78584 14.445L3.29834 6.8925C3.27584 6.585 3.51584 6.315 3.82334 6.2925C4.13834 6.2775 4.40084 6.51 4.42334 6.8175L4.91084 14.37C4.99334 15.51 5.02334 15.9375 6.59084 15.9375H11.4058C12.9808 15.9375 13.0108 15.51 13.0858 14.37L13.5733 6.8175C13.5958 6.51 13.8658 6.2775 14.1733 6.2925C14.4808 6.315 14.7208 6.5775 14.6983 6.8925L14.2108 14.445C14.1283 15.615 14.0233 17.0625 11.4058 17.0625Z" fill="#D32246"/>
<path d="M10.2436 12.9375H7.74609C7.43859 12.9375 7.18359 12.6825 7.18359 12.375C7.18359 12.0675 7.43859 11.8125 7.74609 11.8125H10.2436C10.5511 11.8125 10.8061 12.0675 10.8061 12.375C10.8061 12.6825 10.5511 12.9375 10.2436 12.9375Z" fill="#D32246"/>
<path d="M10.875 9.9375H7.125C6.8175 9.9375 6.5625 9.6825 6.5625 9.375C6.5625 9.0675 6.8175 8.8125 7.125 8.8125H10.875C11.1825 8.8125 11.4375 9.0675 11.4375 9.375C11.4375 9.6825 11.1825 9.9375 10.875 9.9375Z" fill="#D32246"/>
</svg>
