<svg width="16" height="16" viewBox="0 0 16 16" fill="none" xmlns="http://www.w3.org/2000/svg">
<path d="M13.9985 4.48666C13.9851 4.48666 13.9651 4.48666 13.9451 4.48666C10.4185 4.13333 6.89848 3.99999 3.41181 4.35333L2.05181 4.48666C1.77181 4.51333 1.52515 4.31333 1.49848 4.03333C1.47181 3.75333 1.67181 3.51333 1.94515 3.48666L3.30515 3.35333C6.85181 2.99333 10.4451 3.13333 14.0451 3.48666C14.3185 3.51333 14.5185 3.75999 14.4918 4.03333C14.4718 4.29333 14.2518 4.48666 13.9985 4.48666Z" fill="#292D32"/>
<path d="M5.66846 3.81333C5.6418 3.81333 5.61513 3.81333 5.5818 3.80666C5.31513 3.75999 5.12846 3.49999 5.17513 3.23333L5.3218 2.35999C5.42846 1.71999 5.57513 0.833328 7.12846 0.833328H8.87513C10.4351 0.833328 10.5818 1.75333 10.6818 2.36666L10.8285 3.23333C10.8751 3.50666 10.6885 3.76666 10.4218 3.80666C10.1485 3.85333 9.88846 3.66666 9.84846 3.39999L9.7018 2.53333C9.60846 1.95333 9.58846 1.83999 8.8818 1.83999H7.13513C6.42846 1.83999 6.41513 1.93333 6.31513 2.52666L6.1618 3.39333C6.1218 3.63999 5.90846 3.81333 5.66846 3.81333Z" fill="#292D32"/>
<path d="M10.1416 15.1667H5.86156C3.53489 15.1667 3.44156 13.88 3.36823 12.84L2.93489 6.12667C2.91489 5.85334 3.12823 5.61334 3.40156 5.59334C3.68156 5.58 3.91489 5.78667 3.93489 6.06L4.36823 12.7733C4.44156 13.7867 4.46823 14.1667 5.86156 14.1667H10.1416C11.5416 14.1667 11.5682 13.7867 11.6349 12.7733L12.0682 6.06C12.0882 5.78667 12.3282 5.58 12.6016 5.59334C12.8749 5.61334 13.0882 5.84667 13.0682 6.12667L12.6349 12.84C12.5616 13.88 12.4682 15.1667 10.1416 15.1667Z" fill="#292D32"/>
<path d="M9.10672 11.5H6.88672C6.61339 11.5 6.38672 11.2733 6.38672 11C6.38672 10.7267 6.61339 10.5 6.88672 10.5H9.10672C9.38005 10.5 9.60672 10.7267 9.60672 11C9.60672 11.2733 9.38005 11.5 9.10672 11.5Z" fill="#292D32"/>
<path d="M9.66536 8.83333H6.33203C6.0587 8.83333 5.83203 8.60666 5.83203 8.33333C5.83203 8.05999 6.0587 7.83333 6.33203 7.83333H9.66536C9.9387 7.83333 10.1654 8.05999 10.1654 8.33333C10.1654 8.60666 9.9387 8.83333 9.66536 8.83333Z" fill="#292D32"/>
</svg>
