<svg width="36" height="36" viewBox="0 0 36 36" fill="none" xmlns="http://www.w3.org/2000/svg">
<path d="M22.0962 8.79V3.75C22.0962 3.33 21.7662 3 21.3462 3H14.6562C14.2362 3 13.9062 3.33 13.9062 3.75V8.79C13.9062 9.21 14.2362 9.54 14.6562 9.54H21.3462C21.7662 9.54 22.0962 9.21 22.0962 8.79Z" fill="#292D32"/>
<path d="M10.8767 3.02999C7.03668 3.26999 4.41168 5.24999 3.43668 8.54999C3.28668 9.04499 3.64668 9.53999 4.15668 9.53999H10.9067C11.3267 9.53999 11.6567 9.20999 11.6567 8.78999V3.77999C11.6567 3.35999 11.2967 2.99999 10.8767 3.02999Z" fill="#292D32"/>
<path d="M25.1238 3.01499C28.9638 3.25499 31.5887 5.23499 32.5637 8.53499C32.7137 9.02999 32.3538 9.52499 31.8438 9.52499H25.0938C24.6737 9.52499 24.3438 9.19499 24.3438 8.77499V3.76499C24.3438 3.34499 24.7038 2.98499 25.1238 3.01499Z" fill="#292D32"/>
<path d="M33 23.55C33 23.535 32.985 23.52 32.97 23.505C32.91 23.415 32.835 23.325 32.76 23.25C32.745 23.235 32.73 23.205 32.715 23.19C31.5 21.84 29.715 21 27.75 21C25.86 21 24.135 21.78 22.905 23.04C21.72 24.255 21 25.92 21 27.75C21 29.01 21.36 30.21 21.975 31.23C22.305 31.785 22.725 32.295 23.205 32.715C23.235 32.73 23.25 32.745 23.265 32.76C23.34 32.835 23.415 32.895 23.505 32.97C23.505 32.97 23.505 32.97 23.52 32.97C23.535 32.985 23.55 33 23.565 33C24.69 33.945 26.145 34.5 27.75 34.5C30.21 34.5 32.355 33.18 33.525 31.23C33.87 30.645 34.14 30 34.305 29.325C34.44 28.815 34.5 28.29 34.5 27.75C34.5 26.16 33.945 24.69 33 23.55ZM30.27 28.845H28.875V30.3C28.875 30.915 28.365 31.425 27.75 31.425C27.135 31.425 26.625 30.915 26.625 30.3V28.845H25.23C24.615 28.845 24.105 28.335 24.105 27.72C24.105 27.105 24.615 26.595 25.23 26.595H26.625V25.26C26.625 24.645 27.135 24.135 27.75 24.135C28.365 24.135 28.875 24.645 28.875 25.26V26.595H30.27C30.885 26.595 31.395 27.105 31.395 27.72C31.395 28.335 30.9 28.845 30.27 28.845Z" fill="#292D32"/>
<path d="M33 12.54V19.11C33 19.665 32.415 20.025 31.92 19.77C30.66 19.11 29.22 18.75 27.75 18.75C25.335 18.75 22.98 19.74 21.3 21.465C19.65 23.145 18.75 25.38 18.75 27.75C18.75 28.965 19.23 30.525 19.83 31.83C20.07 32.355 19.71 33 19.125 33H11.715C6.9 33 3 29.1 3 24.285V12.54C3 12.12 3.33 11.79 3.75 11.79H32.25C32.67 11.79 33 12.12 33 12.54Z" fill="#292D32"/>
</svg>
