<svg width="40" height="40" viewBox="0 0 40 40" fill="none" xmlns="http://www.w3.org/2000/svg">
<path opacity="0.4" d="M32.0167 10.6C30.2834 7.10002 26.9334 4.51668 23.05 3.66668C18.9834 2.76668 14.8167 3.73335 11.6334 6.30002C8.43337 8.85002 6.6167 12.6667 6.6167 16.75C6.6167 21.0667 9.20003 25.5834 13.1 28.2V29.5834C13.0834 30.05 13.0667 30.7667 13.6334 31.35C14.2167 31.95 15.0834 32.0167 15.7667 32.0167H24.3167C25.2167 32.0167 25.9 31.7667 26.3667 31.3C27 30.65 26.9834 29.8167 26.9667 29.3667V28.2C32.1334 24.7167 35.3834 17.3667 32.0167 10.6Z" fill="#3C7B46"/>
<path d="M25.4334 36.6667C25.3334 36.6667 25.2168 36.65 25.1168 36.6167C21.7668 35.6667 18.2501 35.6667 14.9001 36.6167C14.2834 36.7834 13.6334 36.4334 13.4668 35.8167C13.2834 35.2 13.6501 34.55 14.2668 34.3834C18.0334 33.3167 22.0001 33.3167 25.7668 34.3834C26.3834 34.5667 26.7501 35.2 26.5668 35.8167C26.4001 36.3334 25.9334 36.6667 25.4334 36.6667Z" fill="#3C7B46"/>
<path d="M20.0001 23.0834C19.7834 23.0834 19.5668 23.0334 19.3834 22.9167C18.7834 22.5667 18.5834 21.8 18.9168 21.2167L20.3334 18.75H18.9334C18.1001 18.75 17.4168 18.3834 17.0501 17.7667C16.6834 17.1334 16.7168 16.3667 17.1334 15.6334L18.9168 12.5334C19.2668 11.9334 20.0334 11.7334 20.6168 12.0667C21.2168 12.4167 21.4168 13.1834 21.0834 13.7667L19.6668 16.25H21.0668C21.9001 16.25 22.5834 16.6167 22.9501 17.2334C23.3168 17.8667 23.2834 18.6334 22.8668 19.3667L21.0834 22.4667C20.8501 22.8667 20.4334 23.0834 20.0001 23.0834Z" fill="#3C7B46"/>
</svg>
