<svg width="32" height="32" viewBox="0 0 32 32" fill="none" xmlns="http://www.w3.org/2000/svg">
<path d="M19.2401 25.0933C18.9867 25.0933 18.7334 25 18.5334 24.8C18.1467 24.4133 18.1467 23.7733 18.5334 23.3867L25.9201 16L18.5334 8.61334C18.1467 8.22667 18.1467 7.58667 18.5334 7.2C18.9201 6.81334 19.5601 6.81334 19.9467 7.2L28.0401 15.2933C28.4267 15.68 28.4267 16.32 28.0401 16.7067L19.9467 24.8C19.7467 25 19.4934 25.0933 19.2401 25.0933Z" fill="black"/>
<path d="M27.1067 17H4.66675C4.12008 17 3.66675 16.5467 3.66675 16C3.66675 15.4533 4.12008 15 4.66675 15H27.1067C27.6534 15 28.1067 15.4533 28.1067 16C28.1067 16.5467 27.6534 17 27.1067 17Z" fill="black"/>
</svg>
