<svg width="32" height="32" viewBox="0 0 32 32" fill="none" xmlns="http://www.w3.org/2000/svg">
<path d="M12.7585 25.0933C12.5051 25.0933 12.2518 25 12.0518 24.8L3.95846 16.7067C3.57179 16.32 3.57179 15.68 3.95846 15.2933L12.0518 7.2C12.4385 6.81334 13.0785 6.81334 13.4651 7.2C13.8518 7.58667 13.8518 8.22667 13.4651 8.61334L6.07846 16L13.4651 23.3867C13.8518 23.7733 13.8518 24.4133 13.4651 24.8C13.2785 25 13.0118 25.0933 12.7585 25.0933Z" fill="black"/>
<path d="M27.334 17H4.89404C4.34738 17 3.89404 16.5467 3.89404 16C3.89404 15.4533 4.34738 15 4.89404 15H27.334C27.8807 15 28.334 15.4533 28.334 16C28.334 16.5467 27.8807 17 27.334 17Z" fill="black"/>
</svg>
