<svg width="200" height="201" viewBox="0 0 200 201" fill="none" xmlns="http://www.w3.org/2000/svg">
<rect y="0.5" width="200" height="200" rx="100" fill="#F2F2F2"/>
<circle cx="100" cy="100.5" r="80.5" fill="#D9D9D9"/>
<path d="M95.3472 58.7271C96.8786 59.6633 97.3611 61.6637 96.4249 63.1952C95.7455 64.3064 95.9158 65.7385 96.8368 66.6595L97.261 67.0836C99.8118 69.6345 100.752 73.3818 99.7086 76.8349C99.1893 78.5531 97.3754 79.5249 95.6573 79.0055C93.9391 78.4862 92.9673 76.6723 93.4867 74.9542C93.8372 73.7947 93.5213 72.5363 92.6648 71.6798L92.2406 71.2557C89.1964 68.2114 88.6336 63.4781 90.8791 59.8049C91.8153 58.2734 93.8157 57.7909 95.3472 58.7271Z" fill="#3F3F3F"/>
<path d="M124.652 68.9603C126.413 69.3123 127.554 71.0245 127.202 72.7845L126.578 75.9042C125.719 80.1978 122.626 83.702 118.472 85.0866C116.531 85.7336 115.085 87.3711 114.684 89.3773L114.06 92.497C113.708 94.2571 111.996 95.3986 110.236 95.0466C108.476 94.6945 107.334 92.9824 107.686 91.2223L108.31 88.1026C109.169 83.809 112.263 80.3048 116.416 78.9202C118.357 78.2732 119.803 76.6357 120.204 74.6295L120.828 71.5098C121.18 69.7497 122.892 68.6082 124.652 68.9603Z" fill="#3F3F3F"/>
<path fill-rule="evenodd" clip-rule="evenodd" d="M98.7794 86.6896C95.232 83.1419 92.3088 80.2185 89.768 78.3348C87.143 76.3886 84.2257 75.0171 80.8661 75.8102C77.5064 76.6033 75.5104 79.1346 74.0329 82.0493C72.6028 84.8705 71.2956 88.7924 69.7093 93.552L62.2124 116.043C60.2913 121.806 58.7323 126.482 58.0872 130.109C57.4363 133.768 57.5019 137.481 60.2584 140.237C63.0148 142.994 66.7279 143.059 70.3869 142.408C74.0132 141.763 78.6896 140.204 84.4524 138.283L106.943 130.786C111.703 129.2 115.625 127.893 118.446 126.463C121.361 124.985 123.892 122.989 124.685 119.63C125.478 116.27 124.107 113.353 122.161 110.728C120.277 108.187 117.354 105.264 113.806 101.716L98.7794 86.6896ZM85.6741 83.3937C85.7468 83.4459 85.821 83.5001 85.8968 83.5562C88.0032 85.118 90.5873 87.6898 94.3754 91.4779L97.6678 94.7703C97.6025 94.9408 97.5303 95.1332 97.4524 95.3465C97.1186 96.2615 96.6796 97.5652 96.2421 99.1598C95.3716 102.332 94.4835 106.74 94.4835 111.573C94.4835 116.176 95.3754 120.585 96.2378 123.791C96.5969 125.126 96.9566 126.273 97.2567 127.164L85.8397 130.969C85.7927 130.756 85.7406 130.517 85.6841 130.257C85.4201 129.036 85.0628 127.328 84.6899 125.381C83.937 121.451 83.1482 116.686 82.9067 113.003C82.5078 106.92 83.2871 98.982 84.2085 92.4155C84.6648 89.1638 85.1473 86.3059 85.5156 84.2623C85.5712 83.9535 85.6242 83.6635 85.6741 83.3937ZM78.1346 89.0319C77.4485 90.8969 76.6953 93.1488 75.7898 95.8654L68.4686 117.829C66.4364 123.925 65.0381 128.147 64.4867 131.247C63.9311 134.37 64.4482 135.235 64.8546 135.641C65.2609 136.047 66.1252 136.564 69.2485 136.009C71.8069 135.554 75.1296 134.522 79.6398 133.033C79.5624 132.688 79.4569 132.212 79.331 131.631C79.0588 130.372 78.6906 128.612 78.3059 126.604C77.5438 122.625 76.6898 117.533 76.4207 113.429C75.9758 106.645 76.8393 98.1562 77.7715 91.5123C77.8916 90.6564 78.0135 89.8273 78.1346 89.0319ZM103.423 125.108L104.63 124.706C109.712 123.012 113.168 121.851 115.507 120.665C117.803 119.501 118.225 118.704 118.359 118.136C118.493 117.569 118.473 116.667 116.939 114.599C115.378 112.492 112.806 109.908 109.018 106.12L102.792 99.895C102.7 100.206 102.605 100.535 102.51 100.88C101.738 103.694 100.984 107.499 100.984 111.573C100.984 114.254 101.352 116.925 101.842 119.282C102.051 120.287 102.281 121.235 102.515 122.103C102.837 123.301 103.159 124.326 103.423 125.108Z" fill="#3F3F3F"/>
<path d="M136.098 103.663C137.378 102.528 139.201 102.24 140.769 102.925L142.032 103.478C143.676 104.197 145.592 103.446 146.311 101.802C147.03 100.157 146.28 98.241 144.636 97.522L143.373 96.9697C139.484 95.2694 134.961 95.9836 131.786 98.7995C130.372 100.053 128.315 100.261 126.679 99.3166L125.757 98.7841C124.203 97.8867 122.215 98.4192 121.317 99.9737C120.42 101.528 120.953 103.516 122.507 104.413L123.429 104.946C127.488 107.289 132.592 106.772 136.098 103.663Z" fill="#3F3F3F"/>
<path d="M108.574 66.0842C108.071 66.2439 107.635 66.6795 106.764 67.5507C105.893 68.422 105.457 68.8576 105.297 69.3613C105.162 69.7874 105.162 70.2447 105.297 70.6708C105.457 71.1745 105.893 71.6101 106.764 72.4813C107.635 73.3526 108.071 73.7882 108.574 73.9479C109.001 74.0829 109.458 74.0829 109.884 73.9479C110.388 73.7882 110.823 73.3526 111.694 72.4813C112.566 71.6101 113.001 71.1745 113.161 70.6708C113.296 70.2447 113.296 69.7874 113.161 69.3613C113.001 68.8576 112.566 68.422 111.694 67.5507C110.823 66.6795 110.388 66.2439 109.884 66.0842C109.458 65.9491 109.001 65.9491 108.574 66.0842Z" fill="#3F3F3F"/>
<path d="M132.362 80.8623C133.425 79.799 133.957 79.2673 134.557 79.0362C135.259 78.7657 136.036 78.7657 136.738 79.0362C137.338 79.2673 137.87 79.799 138.933 80.8623C139.996 81.9257 140.528 82.4574 140.759 83.0571C141.029 83.7591 141.029 84.5364 140.759 85.2383C140.528 85.8381 139.996 86.3698 138.933 87.4332C137.87 88.4965 137.338 89.0282 136.738 89.2593C136.036 89.5297 135.259 89.5297 134.557 89.2593C133.957 89.0282 133.425 88.4965 132.362 87.4332C131.299 86.3698 130.767 85.8381 130.536 85.2383C130.265 84.5364 130.265 83.7591 130.536 83.0571C130.767 82.4574 131.299 81.9257 132.362 80.8623Z" fill="#3F3F3F"/>
<path d="M81.3054 65.5768C80.3977 64.6691 78.926 64.6691 78.0183 65.5768C77.1106 66.4845 77.1106 67.9561 78.0183 68.8638C78.926 69.7715 80.3977 69.7715 81.3054 68.8638C82.2131 67.9561 82.2131 66.4845 81.3054 65.5768Z" fill="#3F3F3F"/>
<path d="M130.585 114.858C131.493 113.95 132.965 113.95 133.872 114.858C134.78 115.766 134.78 117.237 133.872 118.145C132.965 119.053 131.493 119.053 130.585 118.145C129.678 117.237 129.678 115.766 130.585 114.858Z" fill="#3F3F3F"/>
<path d="M127.12 90.7129C126.212 89.8052 124.741 89.8052 123.833 90.7129C122.925 91.6206 122.925 93.0923 123.833 94C124.741 94.9077 126.212 94.9077 127.12 94C128.028 93.0923 128.028 91.6206 127.12 90.7129Z" fill="#3F3F3F"/>
</svg>
