<svg width="20" height="20" viewBox="0 0 20 20" fill="none" xmlns="http://www.w3.org/2000/svg">
<path opacity="0.4" d="M8.9584 2.04166C9.5334 1.55 10.4751 1.55 11.0584 2.04166L12.3751 3.175C12.6251 3.39166 13.0917 3.56666 13.4251 3.56666H14.8417C15.7251 3.56666 16.4501 4.29166 16.4501 5.175V6.59166C16.4501 6.91666 16.6251 7.39166 16.8417 7.64166L17.9751 8.95833C18.4667 9.53333 18.4667 10.475 17.9751 11.0583L16.8417 12.375C16.6251 12.625 16.4501 13.0917 16.4501 13.425V14.8417C16.4501 15.725 15.7251 16.45 14.8417 16.45H13.4251C13.1001 16.45 12.6251 16.625 12.3751 16.8417L11.0584 17.975C10.4834 18.4667 9.54173 18.4667 8.9584 17.975L7.64173 16.8417C7.39173 16.625 6.92506 16.45 6.59173 16.45H5.15006C4.26673 16.45 3.54173 15.725 3.54173 14.8417V13.4167C3.54173 13.0917 3.36673 12.625 3.1584 12.375L2.0334 11.05C1.55007 10.475 1.55007 9.54166 2.0334 8.96666L3.1584 7.64166C3.36673 7.39166 3.54173 6.925 3.54173 6.6V5.16666C3.54173 4.28333 4.26673 3.55833 5.15006 3.55833H6.59173C6.91673 3.55833 7.39173 3.38333 7.64173 3.16666L8.9584 2.04166Z" fill="#09A64D"/>
<path d="M8.99163 12.6417C8.82497 12.6417 8.66663 12.575 8.54997 12.4583L6.5333 10.4417C6.29163 10.2 6.29163 9.79999 6.5333 9.55833C6.77497 9.31666 7.17497 9.31666 7.41663 9.55833L8.99163 11.1333L12.575 7.54999C12.8166 7.30833 13.2166 7.30833 13.4583 7.54999C13.7 7.79166 13.7 8.19166 13.4583 8.43333L9.4333 12.4583C9.31663 12.575 9.1583 12.6417 8.99163 12.6417Z" fill="#09A64D"/>
</svg>
